<?xml version="1.0" encoding="UTF-8" standalone="no"?><svg xmlns="http://www.w3.org/2000/svg" xmlns:xlink="http://www.w3.org/1999/xlink" clip-rule="evenodd" stroke-miterlimit="4.00" viewBox="0 0 93 50"><desc>SVG generated by Keynote</desc><defs></defs><g transform="matrix(1.00, 0.00, -0.00, -1.00, 0.0, 50.0)"><image xlink:href="95F6D69FA49F8B40224660B27DC571CC.png" width="90.00" height="42.00" transform="matrix(1.00, 0.00, -0.00, -0.99, 1.8, 42.6)" opacity="0.35"></image><path d="M 0.0 0.0 L 81.2 0.0 L 81.2 32.6 L 0.0 32.6 Z M 0.0 0.0 " fill="none" stroke="#FFC193" stroke-width="1.00" transform="matrix(1.00, 0.00, 0.00, -1.00, 6.3, 41.1)"></path><g><clipPath id="clip-526"><path d="M 7.3 9.5 L 86.4 9.5 L 86.4 40.1 L 7.3 40.1 Z M 7.3 9.5 "></path></clipPath><g clip-path="url(#clip-526)"><text xml:space="preserve" font-family="TrebuchetMS" font-size="11.0" fill="#FFFFFF" transform="matrix(1.00, 0.00, -0.00, -1.00, 11.0, 21.0)">s</text><text xml:space="preserve" font-family="TrebuchetMS" font-size="11.0" fill="#FFFFFF" transform="matrix(1.00, 0.00, -0.00, -1.00, 15.2, 21.0)">e</text><text xml:space="preserve" font-family="TrebuchetMS" font-size="11.0" fill="#FFFFFF" transform="matrix(1.00, 0.00, -0.00, -1.00, 21.0, 21.0)">t</text><text xml:space="preserve" font-family="TrebuchetMS" font-size="11.0" fill="#FFFFFF" transform="matrix(1.00, 0.00, -0.00, -1.00, 25.1, 21.0)">T</text><text xml:space="preserve" font-family="TrebuchetMS" font-size="11.0" fill="#FFFFFF" transform="matrix(1.00, 0.00, -0.00, -1.00, 30.8, 21.0)">i</text><text xml:space="preserve" font-family="TrebuchetMS" font-size="11.0" fill="#FFFFFF" transform="matrix(1.00, 0.00, -0.00, -1.00, 33.7, 21.0)">m</text><text xml:space="preserve" font-family="TrebuchetMS" font-size="11.0" fill="#FFFFFF" transform="matrix(1.00, 0.00, -0.00, -1.00, 42.6, 21.0)">e</text><text xml:space="preserve" font-family="TrebuchetMS" font-size="11.0" fill="#FFFFFF" transform="matrix(1.00, 0.00, -0.00, -1.00, 48.4, 21.0)">o</text><text xml:space="preserve" font-family="TrebuchetMS" font-size="11.0" fill="#FFFFFF" transform="matrix(1.00, 0.00, -0.00, -1.00, 54.1, 21.0)">u</text><text xml:space="preserve" font-family="TrebuchetMS" font-size="11.0" fill="#FFFFFF" transform="matrix(1.00, 0.00, -0.00, -1.00, 59.9, 21.0)">t</text><text xml:space="preserve" font-family="TrebuchetMS" font-size="11.0" fill="#FFFFFF" transform="matrix(1.00, 0.00, -0.00, -1.00, 64.0, 21.0)">(</text><text xml:space="preserve" font-family="TrebuchetMS" font-size="11.0" fill="#FFFFFF" transform="matrix(1.00, 0.00, -0.00, -1.00, 67.8, 21.0)">c</text><text xml:space="preserve" font-family="TrebuchetMS" font-size="11.0" fill="#FFFFFF" transform="matrix(1.00, 0.00, -0.00, -1.00, 73.0, 21.0)">b</text><text xml:space="preserve" font-family="TrebuchetMS" font-size="11.0" fill="#FFFFFF" transform="matrix(1.00, 0.00, -0.00, -1.00, 78.9, 21.0)">)</text></g></g></g></svg>