<?xml version="1.0" encoding="UTF-8" standalone="no"?><svg xmlns="http://www.w3.org/2000/svg" xmlns:xlink="http://www.w3.org/1999/xlink" clip-rule="evenodd" stroke-miterlimit="4.00" viewBox="0 0 93 51"><desc>SVG generated by Keynote</desc><defs></defs><g transform="matrix(1.00, 0.00, -0.00, -1.00, 0.0, 51.0)"><image xlink:href="../../33506A68-10FB-43B5-BCFE-F7F304207DBB/assets/830FA512879928FE9502E2F22AAC5FB3.png" width="90.00" height="42.00" transform="matrix(1.00, 0.00, -0.00, -0.99, 1.8, 43.5)" opacity="0.35"></image><path d="M 0.0 0.0 L 81.2 0.0 L 81.2 32.6 L 0.0 32.6 Z M 0.0 0.0 " fill="none" stroke="#FFC193" stroke-width="1.00" transform="matrix(1.00, 0.00, 0.00, -1.00, 6.3, 42.0)"></path><g><clipPath id="clip-219"><path d="M 5.7 10.2 L 88.1 10.2 L 88.1 41.6 L 5.7 41.6 Z M 5.7 10.2 "></path></clipPath><g clip-path="url(#clip-219)"><text xml:space="preserve" font-family="TrebuchetMS" font-size="18.0" fill="#FFFFFF" transform="matrix(1.00, 0.00, -0.00, -1.00, 21.0, 19.0)">m</text><text xml:space="preserve" font-family="TrebuchetMS" font-size="18.0" fill="#FFFFFF" transform="matrix(1.00, 0.00, -0.00, -1.00, 35.9, 19.0)">a</text><text xml:space="preserve" font-family="TrebuchetMS" font-size="18.0" fill="#FFFFFF" transform="matrix(1.00, 0.00, -0.00, -1.00, 45.4, 19.0)">i</text><text xml:space="preserve" font-family="TrebuchetMS" font-size="18.0" fill="#FFFFFF" transform="matrix(1.00, 0.00, -0.00, -1.00, 50.5, 19.0)">n</text><text xml:space="preserve" font-family="TrebuchetMS" font-size="18.0" fill="#FFFFFF" transform="matrix(1.00, 0.00, -0.00, -1.00, 60.4, 19.0)">(</text><text xml:space="preserve" font-family="TrebuchetMS" font-size="18.0" fill="#FFFFFF" transform="matrix(1.00, 0.00, -0.00, -1.00, 67.0, 19.0)">)</text></g></g></g></svg>