<?xml version="1.0" encoding="UTF-8" standalone="no"?><svg xmlns="http://www.w3.org/2000/svg" xmlns:xlink="http://www.w3.org/1999/xlink" clip-rule="evenodd" stroke-miterlimit="4.00" viewBox="0 0 134 128"><desc>SVG generated by Keynote</desc><defs></defs><g transform="matrix(1.00, 0.00, -0.00, -1.00, 0.0, 128.0)"><image xlink:href="../../33506A68-10FB-43B5-BCFE-F7F304207DBB/assets/893A6BF108335D9C7FC5C6D81ECC17FD.png" width="132.00" height="124.00" transform="matrix(1.00, 0.00, -0.00, -1.00, 1.4, 125.1)"></image><path d="M 41.4 77.5 L 92.8 77.5 L 92.8 50.0 L 41.4 50.0 Z M 41.4 77.5 " fill="#DDDDDD"></path><g><clipPath id="clip-221"><path d="M 40.6 50.0 L 93.6 50.0 L 93.6 77.5 L 40.6 77.5 Z M 40.6 50.0 "></path></clipPath><g clip-path="url(#clip-221)"><text xml:space="preserve" font-family="TrebuchetMS" font-size="15.0" fill="#000000" transform="matrix(1.00, 0.00, -0.00, -1.00, 45.0, 59.0)">C</text><text xml:space="preserve" font-family="TrebuchetMS" font-size="15.0" fill="#000000" transform="matrix(1.00, 0.00, -0.00, -1.00, 52.7, 59.0)">o</text><text xml:space="preserve" font-family="TrebuchetMS" font-size="15.0" fill="#000000" transform="matrix(1.00, 0.00, -0.00, -1.00, 59.4, 59.0)">n</text><text xml:space="preserve" font-family="TrebuchetMS" font-size="15.0" fill="#000000" transform="matrix(1.00, 0.00, -0.00, -1.00, 66.4, 59.0)">s</text><text xml:space="preserve" font-family="TrebuchetMS" font-size="15.0" fill="#000000" transform="matrix(1.00, 0.00, -0.00, -1.00, 71.2, 59.0)">o</text><text xml:space="preserve" font-family="TrebuchetMS" font-size="15.0" fill="#000000" transform="matrix(1.00, 0.00, -0.00, -1.00, 77.9, 59.0)">l</text><text xml:space="preserve" font-family="TrebuchetMS" font-size="15.0" fill="#000000" transform="matrix(1.00, 0.00, -0.00, -1.00, 81.0, 59.0)">e</text></g></g></g></svg>