<?xml version="1.0" encoding="UTF-8" standalone="no"?><svg xmlns="http://www.w3.org/2000/svg" xmlns:xlink="http://www.w3.org/1999/xlink" clip-rule="evenodd" stroke-miterlimit="4.00" viewBox="0 0 93 51"><desc>SVG generated by Keynote</desc><defs></defs><g transform="matrix(1.00, 0.00, -0.00, -1.00, 0.0, 51.0)"><image xlink:href="BDF283F77A148CF01AEBB775C0BEE67C.png" width="90.00" height="42.00" transform="matrix(1.00, 0.00, -0.00, -0.99, 1.8, 43.3)" opacity="0.35"></image><path d="M 0.0 0.0 L 81.2 0.0 L 81.2 32.6 L 0.0 32.6 Z M 0.0 0.0 " fill="none" stroke="#FFC193" stroke-width="1.00" transform="matrix(1.00, 0.00, 0.00, -1.00, 6.3, 41.8)"></path><g><clipPath id="clip-523"><path d="M 6.2 10.3 L 87.5 10.3 L 87.5 40.8 L 6.2 40.8 Z M 6.2 10.3 "></path></clipPath><g clip-path="url(#clip-523)"><text xml:space="preserve" font-family="TrebuchetMS" font-size="16.0" fill="#FFFFFF" transform="matrix(1.00, 0.00, -0.00, -1.00, 13.0, 20.0)">l</text><text xml:space="preserve" font-family="TrebuchetMS" font-size="16.0" fill="#FFFFFF" transform="matrix(1.00, 0.00, -0.00, -1.00, 17.7, 20.0)">o</text><text xml:space="preserve" font-family="TrebuchetMS" font-size="16.0" fill="#FFFFFF" transform="matrix(1.00, 0.00, -0.00, -1.00, 26.3, 20.0)">g</text><text xml:space="preserve" font-family="TrebuchetMS" font-size="16.0" fill="#FFFFFF" transform="matrix(1.00, 0.00, -0.00, -1.00, 34.3, 20.0)">(</text><text xml:space="preserve" font-family="TrebuchetMS" font-size="16.0" fill="#FFFFFF" transform="matrix(1.00, 0.00, -0.00, -1.00, 40.2, 20.0)">s</text><text xml:space="preserve" font-family="TrebuchetMS" font-size="16.0" fill="#FFFFFF" transform="matrix(1.00, 0.00, -0.00, -1.00, 46.7, 20.0)">t</text><text xml:space="preserve" font-family="TrebuchetMS" font-size="16.0" fill="#FFFFFF" transform="matrix(1.00, 0.00, -0.00, -1.00, 53.0, 20.0)">a</text><text xml:space="preserve" font-family="TrebuchetMS" font-size="16.0" fill="#FFFFFF" transform="matrix(1.00, 0.00, -0.00, -1.00, 61.4, 20.0)">r</text><text xml:space="preserve" font-family="TrebuchetMS" font-size="16.0" fill="#FFFFFF" transform="matrix(1.00, 0.00, -0.00, -1.00, 67.7, 20.0)">t</text><text xml:space="preserve" font-family="TrebuchetMS" font-size="16.0" fill="#FFFFFF" transform="matrix(1.00, 0.00, -0.00, -1.00, 74.0, 20.0)">)</text></g></g></g></svg>