<?xml version="1.0" encoding="UTF-8" standalone="no"?><svg xmlns="http://www.w3.org/2000/svg" xmlns:xlink="http://www.w3.org/1999/xlink" clip-rule="evenodd" stroke-miterlimit="4.00" viewBox="0 0 720 540"><desc>SVG generated by Keynote</desc><defs></defs><g transform="matrix(1.00, 0.00, -0.00, -1.00, 0.0, 540.0)"><g><clipPath id="clip-956"><path d="M 0.0 540.0 L 720.0 540.0 L 720.0 0.0 L 0.0 0.0 Z M 0.0 540.0 "></path></clipPath><g clip-path="url(#clip-956)"><image xlink:href="../../2E34FD03-1090-4811-8D08-B00F3B774E14/assets/E4B59F63A6EDA017B41703A0F53BFDB9.png" width="720.00" height="540.00" transform="matrix(1.00, 0.00, -0.00, -1.00, 0.0, 540.0)"></image></g></g><text xml:space="preserve" font-family="Helvetica" font-size="28.0" fill="#FFFFFF" transform="matrix(1.00, 0.00, -0.00, -1.00, 300.0, 492.0)">R</text><text xml:space="preserve" font-family="Helvetica" font-size="28.0" fill="#FFFFFF" transform="matrix(1.00, 0.00, -0.00, -1.00, 320.2, 492.0)">e</text><text xml:space="preserve" font-family="Helvetica" font-size="28.0" fill="#FFFFFF" transform="matrix(1.00, 0.00, -0.00, -1.00, 335.8, 492.0)">s</text><text xml:space="preserve" font-family="Helvetica" font-size="28.0" fill="#FFFFFF" transform="matrix(1.00, 0.00, -0.00, -1.00, 349.8, 492.0)">o</text><text xml:space="preserve" font-family="Helvetica" font-size="28.0" fill="#FFFFFF" transform="matrix(1.00, 0.00, -0.00, -1.00, 365.4, 492.0)">u</text><text xml:space="preserve" font-family="Helvetica" font-size="28.0" fill="#FFFFFF" transform="matrix(1.00, 0.00, -0.00, -1.00, 381.0, 492.0)">r</text><text xml:space="preserve" font-family="Helvetica" font-size="28.0" fill="#FFFFFF" transform="matrix(1.00, 0.00, -0.00, -1.00, 390.3, 492.0)">c</text><text xml:space="preserve" font-family="Helvetica" font-size="28.0" fill="#FFFFFF" transform="matrix(1.00, 0.00, -0.00, -1.00, 404.3, 492.0)">e</text><text xml:space="preserve" font-family="ArialMT" font-size="24.0" fill="#FFFFFF" transform="matrix(1.00, 0.00, -0.00, -1.00, 63.7, 394.9)">•</text><text xml:space="preserve" font-family="Helvetica" font-size="24.0" fill="#0000FF" transform="matrix(1.00, 0.00, -0.00, -1.00, 77.0, 394.0)">W</text><text xml:space="preserve" font-family="Helvetica" font-size="24.0" fill="#0000FF" transform="matrix(1.00, 0.00, -0.00, -1.00, 99.2, 394.0)">e</text><text xml:space="preserve" font-family="Helvetica" font-size="24.0" fill="#0000FF" transform="matrix(1.00, 0.00, -0.00, -1.00, 112.6, 394.0)">b</text><text xml:space="preserve" font-family="Helvetica" font-size="24.0" fill="#0000FF" transform="matrix(1.00, 0.00, -0.00, -1.00, 125.9, 394.0)"> </text><text xml:space="preserve" font-family="Helvetica" font-size="24.0" fill="#0000FF" transform="matrix(1.00, 0.00, -0.00, -1.00, 131.3, 394.0)">A</text><text xml:space="preserve" font-family="Helvetica" font-size="24.0" fill="#0000FF" transform="matrix(1.00, 0.00, -0.00, -1.00, 147.3, 394.0)">P</text><text xml:space="preserve" font-family="Helvetica" font-size="24.0" fill="#0000FF" transform="matrix(1.00, 0.00, -0.00, -1.00, 163.3, 394.0)">I</text><text xml:space="preserve" font-family="Helvetica" font-size="24.0" fill="#0000FF" transform="matrix(1.00, 0.00, -0.00, -1.00, 170.0, 394.0)">s</text><g><clipPath id="clip-957"><path d="M 76.2 391.1 L 182.2 391.1 L 182.2 394.3 L 76.2 394.3 Z M 76.2 391.1 "></path></clipPath><g clip-path="url(#clip-957)"><path d="M 44.1 28.9 L 149.1 28.9 " fill="none" stroke="#0000FF" stroke-width="1.18" stroke-miterlimit="0.00" transform="matrix(1.00, 0.00, 0.00, -1.00, 33.1, 421.6)"></path></g></g><text xml:space="preserve" font-family="ArialMT" font-size="24.0" fill="#FFFFFF" transform="matrix(1.00, 0.00, -0.00, -1.00, 63.7, 365.8)">•</text><text xml:space="preserve" font-family="Helvetica" font-size="24.0" fill="#0000FF" transform="matrix(1.00, 0.00, -0.00, -1.00, 77.0, 365.0)">W</text><text xml:space="preserve" font-family="Helvetica" font-size="24.0" fill="#0000FF" transform="matrix(1.00, 0.00, -0.00, -1.00, 99.2, 365.0)">e</text><text xml:space="preserve" font-family="Helvetica" font-size="24.0" fill="#0000FF" transform="matrix(1.00, 0.00, -0.00, -1.00, 112.6, 365.0)">b</text><text xml:space="preserve" font-family="Helvetica" font-size="24.0" fill="#0000FF" transform="matrix(1.00, 0.00, -0.00, -1.00, 125.9, 365.0)">k</text><text xml:space="preserve" font-family="Helvetica" font-size="24.0" fill="#0000FF" transform="matrix(1.00, 0.00, -0.00, -1.00, 137.9, 365.0)">i</text><text xml:space="preserve" font-family="Helvetica" font-size="24.0" fill="#0000FF" transform="matrix(1.00, 0.00, -0.00, -1.00, 143.3, 365.0)">t</text><text xml:space="preserve" font-family="Helvetica" font-size="24.0" fill="#0000FF" transform="matrix(1.00, 0.00, -0.00, -1.00, 149.9, 365.0)">:</text><text xml:space="preserve" font-family="Helvetica" font-size="24.0" fill="#0000FF" transform="matrix(1.00, 0.00, -0.00, -1.00, 156.6, 365.0)"> </text><text xml:space="preserve" font-family="Helvetica" font-size="24.0" fill="#0000FF" transform="matrix(1.00, 0.00, -0.00, -1.00, 163.3, 365.0)">P</text><text xml:space="preserve" font-family="Helvetica" font-size="24.0" fill="#0000FF" transform="matrix(1.00, 0.00, -0.00, -1.00, 179.3, 365.0)">r</text><text xml:space="preserve" font-family="Helvetica" font-size="24.0" fill="#0000FF" transform="matrix(1.00, 0.00, -0.00, -1.00, 187.3, 365.0)">o</text><text xml:space="preserve" font-family="Helvetica" font-size="24.0" fill="#0000FF" transform="matrix(1.00, 0.00, -0.00, -1.00, 200.6, 365.0)">m</text><text xml:space="preserve" font-family="Helvetica" font-size="24.0" fill="#0000FF" transform="matrix(1.00, 0.00, -0.00, -1.00, 220.6, 365.0)">i</text><text xml:space="preserve" font-family="Helvetica" font-size="24.0" fill="#0000FF" transform="matrix(1.00, 0.00, -0.00, -1.00, 225.9, 365.0)">s</text><text xml:space="preserve" font-family="Helvetica" font-size="24.0" fill="#0000FF" transform="matrix(1.00, 0.00, -0.00, -1.00, 237.9, 365.0)">e</text><text xml:space="preserve" font-family="Helvetica" font-size="24.0" fill="#0000FF" transform="matrix(1.00, 0.00, -0.00, -1.00, 251.3, 365.0)"> </text><text xml:space="preserve" font-family="Helvetica" font-size="24.0" fill="#0000FF" transform="matrix(1.00, 0.00, -0.00, -1.00, 258.0, 365.0)">c</text><text xml:space="preserve" font-family="Helvetica" font-size="24.0" fill="#0000FF" transform="matrix(1.00, 0.00, -0.00, -1.00, 270.0, 365.0)">a</text><text xml:space="preserve" font-family="Helvetica" font-size="24.0" fill="#0000FF" transform="matrix(1.00, 0.00, -0.00, -1.00, 283.3, 365.0)">l</text><text xml:space="preserve" font-family="Helvetica" font-size="24.0" fill="#0000FF" transform="matrix(1.00, 0.00, -0.00, -1.00, 288.6, 365.0)">l</text><text xml:space="preserve" font-family="Helvetica" font-size="24.0" fill="#0000FF" transform="matrix(1.00, 0.00, -0.00, -1.00, 294.0, 365.0)">b</text><text xml:space="preserve" font-family="Helvetica" font-size="24.0" fill="#0000FF" transform="matrix(1.00, 0.00, -0.00, -1.00, 307.3, 365.0)">a</text><text xml:space="preserve" font-family="Helvetica" font-size="24.0" fill="#0000FF" transform="matrix(1.00, 0.00, -0.00, -1.00, 320.7, 365.0)">c</text><text xml:space="preserve" font-family="Helvetica" font-size="24.0" fill="#0000FF" transform="matrix(1.00, 0.00, -0.00, -1.00, 332.7, 365.0)">k</text><text xml:space="preserve" font-family="Helvetica" font-size="24.0" fill="#0000FF" transform="matrix(1.00, 0.00, -0.00, -1.00, 344.7, 365.0)">s</text><text xml:space="preserve" font-family="Helvetica" font-size="24.0" fill="#0000FF" transform="matrix(1.00, 0.00, -0.00, -1.00, 356.7, 365.0)"> </text><text xml:space="preserve" font-family="Helvetica" font-size="24.0" fill="#0000FF" transform="matrix(1.00, 0.00, -0.00, -1.00, 363.4, 365.0)">s</text><text xml:space="preserve" font-family="Helvetica" font-size="24.0" fill="#0000FF" transform="matrix(1.00, 0.00, -0.00, -1.00, 375.4, 365.0)">h</text><text xml:space="preserve" font-family="Helvetica" font-size="24.0" fill="#0000FF" transform="matrix(1.00, 0.00, -0.00, -1.00, 388.7, 365.0)">o</text><text xml:space="preserve" font-family="Helvetica" font-size="24.0" fill="#0000FF" transform="matrix(1.00, 0.00, -0.00, -1.00, 402.1, 365.0)">u</text><text xml:space="preserve" font-family="Helvetica" font-size="24.0" fill="#0000FF" transform="matrix(1.00, 0.00, -0.00, -1.00, 415.4, 365.0)">l</text><text xml:space="preserve" font-family="Helvetica" font-size="24.0" fill="#0000FF" transform="matrix(1.00, 0.00, -0.00, -1.00, 420.7, 365.0)">d</text><text xml:space="preserve" font-family="Helvetica" font-size="24.0" fill="#0000FF" transform="matrix(1.00, 0.00, -0.00, -1.00, 434.1, 365.0)"> </text><text xml:space="preserve" font-family="Helvetica" font-size="24.0" fill="#0000FF" transform="matrix(1.00, 0.00, -0.00, -1.00, 440.8, 365.0)">b</text><text xml:space="preserve" font-family="Helvetica" font-size="24.0" fill="#0000FF" transform="matrix(1.00, 0.00, -0.00, -1.00, 454.1, 365.0)">e</text><text xml:space="preserve" font-family="Helvetica" font-size="24.0" fill="#0000FF" transform="matrix(1.00, 0.00, -0.00, -1.00, 467.5, 365.0)"> </text><text xml:space="preserve" font-family="Helvetica" font-size="24.0" fill="#0000FF" transform="matrix(1.00, 0.00, -0.00, -1.00, 474.1, 365.0)">c</text><text xml:space="preserve" font-family="Helvetica" font-size="24.0" fill="#0000FF" transform="matrix(1.00, 0.00, -0.00, -1.00, 486.1, 365.0)">a</text><text xml:space="preserve" font-family="Helvetica" font-size="24.0" fill="#0000FF" transform="matrix(1.00, 0.00, -0.00, -1.00, 499.5, 365.0)">l</text><text xml:space="preserve" font-family="Helvetica" font-size="24.0" fill="#0000FF" transform="matrix(1.00, 0.00, -0.00, -1.00, 504.8, 365.0)">l</text><text xml:space="preserve" font-family="Helvetica" font-size="24.0" fill="#0000FF" transform="matrix(1.00, 0.00, -0.00, -1.00, 510.2, 365.0)">e</text><text xml:space="preserve" font-family="Helvetica" font-size="24.0" fill="#0000FF" transform="matrix(1.00, 0.00, -0.00, -1.00, 523.5, 365.0)">d</text><text xml:space="preserve" font-family="Helvetica" font-size="24.0" fill="#0000FF" transform="matrix(1.00, 0.00, -0.00, -1.00, 536.9, 365.0)"> </text><text xml:space="preserve" font-family="Helvetica" font-size="24.0" fill="#0000FF" transform="matrix(1.00, 0.00, -0.00, -1.00, 543.5, 365.0)">a</text><text xml:space="preserve" font-family="Helvetica" font-size="24.0" fill="#0000FF" transform="matrix(1.00, 0.00, -0.00, -1.00, 556.9, 365.0)">t</text><text xml:space="preserve" font-family="Helvetica" font-size="24.0" fill="#0000FF" transform="matrix(1.00, 0.00, -0.00, -1.00, 563.5, 365.0)"> </text><g><clipPath id="clip-958"><path d="M 76.2 362.0 L 563.7 362.0 L 563.7 365.2 L 76.2 365.2 Z M 76.2 362.0 "></path></clipPath><g clip-path="url(#clip-958)"><path d="M 44.1 58.0 L 530.6 58.0 " fill="none" stroke="#0000FF" stroke-width="1.18" stroke-miterlimit="0.00" transform="matrix(1.00, 0.00, 0.00, -1.00, 33.1, 421.6)"></path></g></g><text xml:space="preserve" font-family="Helvetica" font-size="24.0" fill="#0000FF" transform="matrix(1.00, 0.00, -0.00, -1.00, 77.0, 339.0)">m</text><text xml:space="preserve" font-family="Helvetica" font-size="24.0" fill="#0000FF" transform="matrix(1.00, 0.00, -0.00, -1.00, 97.0, 339.0)">i</text><text xml:space="preserve" font-family="Helvetica" font-size="24.0" fill="#0000FF" transform="matrix(1.00, 0.00, -0.00, -1.00, 102.3, 339.0)">c</text><text xml:space="preserve" font-family="Helvetica" font-size="24.0" fill="#0000FF" transform="matrix(1.00, 0.00, -0.00, -1.00, 114.3, 339.0)">r</text><text xml:space="preserve" font-family="Helvetica" font-size="24.0" fill="#0000FF" transform="matrix(1.00, 0.00, -0.00, -1.00, 122.3, 339.0)">o</text><text xml:space="preserve" font-family="Helvetica" font-size="24.0" fill="#0000FF" transform="matrix(1.00, 0.00, -0.00, -1.00, 135.7, 339.0)">t</text><text xml:space="preserve" font-family="Helvetica" font-size="24.0" fill="#0000FF" transform="matrix(1.00, 0.00, -0.00, -1.00, 142.3, 339.0)">a</text><text xml:space="preserve" font-family="Helvetica" font-size="24.0" fill="#0000FF" transform="matrix(1.00, 0.00, -0.00, -1.00, 155.7, 339.0)">s</text><text xml:space="preserve" font-family="Helvetica" font-size="24.0" fill="#0000FF" transform="matrix(1.00, 0.00, -0.00, -1.00, 167.7, 339.0)">k</text><text xml:space="preserve" font-family="Helvetica" font-size="24.0" fill="#0000FF" transform="matrix(1.00, 0.00, -0.00, -1.00, 179.7, 339.0)"> </text><text xml:space="preserve" font-family="Helvetica" font-size="24.0" fill="#0000FF" transform="matrix(1.00, 0.00, -0.00, -1.00, 186.4, 339.0)">c</text><text xml:space="preserve" font-family="Helvetica" font-size="24.0" fill="#0000FF" transform="matrix(1.00, 0.00, -0.00, -1.00, 198.4, 339.0)">h</text><text xml:space="preserve" font-family="Helvetica" font-size="24.0" fill="#0000FF" transform="matrix(1.00, 0.00, -0.00, -1.00, 211.7, 339.0)">e</text><text xml:space="preserve" font-family="Helvetica" font-size="24.0" fill="#0000FF" transform="matrix(1.00, 0.00, -0.00, -1.00, 225.1, 339.0)">c</text><text xml:space="preserve" font-family="Helvetica" font-size="24.0" fill="#0000FF" transform="matrix(1.00, 0.00, -0.00, -1.00, 237.1, 339.0)">k</text><text xml:space="preserve" font-family="Helvetica" font-size="24.0" fill="#0000FF" transform="matrix(1.00, 0.00, -0.00, -1.00, 249.1, 339.0)">p</text><text xml:space="preserve" font-family="Helvetica" font-size="24.0" fill="#0000FF" transform="matrix(1.00, 0.00, -0.00, -1.00, 262.4, 339.0)">o</text><text xml:space="preserve" font-family="Helvetica" font-size="24.0" fill="#0000FF" transform="matrix(1.00, 0.00, -0.00, -1.00, 275.8, 339.0)">i</text><text xml:space="preserve" font-family="Helvetica" font-size="24.0" fill="#0000FF" transform="matrix(1.00, 0.00, -0.00, -1.00, 281.1, 339.0)">n</text><text xml:space="preserve" font-family="Helvetica" font-size="24.0" fill="#0000FF" transform="matrix(1.00, 0.00, -0.00, -1.00, 294.5, 339.0)">t</text><text xml:space="preserve" font-family="Helvetica" font-size="24.0" fill="#0000FF" transform="matrix(1.00, 0.00, -0.00, -1.00, 301.1, 339.0)">s</text><g><clipPath id="clip-959"><path d="M 76.2 335.9 L 313.3 335.9 L 313.3 339.1 L 76.2 339.1 Z M 76.2 335.9 "></path></clipPath><g clip-path="url(#clip-959)"><path d="M 44.1 84.1 L 280.2 84.1 " fill="none" stroke="#0000FF" stroke-width="1.18" stroke-miterlimit="0.00" transform="matrix(1.00, 0.00, 0.00, -1.00, 33.1, 421.6)"></path></g></g><text xml:space="preserve" font-family="ArialMT" font-size="24.0" fill="#FFFFFF" transform="matrix(1.00, 0.00, -0.00, -1.00, 63.7, 310.6)">•</text><text xml:space="preserve" font-family="Helvetica" font-size="24.0" fill="#0000FF" transform="matrix(1.00, 0.00, -0.00, -1.00, 77.0, 310.0)">M</text><text xml:space="preserve" font-family="Helvetica" font-size="24.0" fill="#0000FF" transform="matrix(1.00, 0.00, -0.00, -1.00, 97.0, 310.0)">o</text><text xml:space="preserve" font-family="Helvetica" font-size="24.0" fill="#0000FF" transform="matrix(1.00, 0.00, -0.00, -1.00, 110.3, 310.0)">z</text><text xml:space="preserve" font-family="Helvetica" font-size="24.0" fill="#0000FF" transform="matrix(1.00, 0.00, -0.00, -1.00, 122.3, 310.0)">i</text><text xml:space="preserve" font-family="Helvetica" font-size="24.0" fill="#0000FF" transform="matrix(1.00, 0.00, -0.00, -1.00, 127.7, 310.0)">l</text><text xml:space="preserve" font-family="Helvetica" font-size="24.0" fill="#0000FF" transform="matrix(1.00, 0.00, -0.00, -1.00, 133.0, 310.0)">l</text><text xml:space="preserve" font-family="Helvetica" font-size="24.0" fill="#0000FF" transform="matrix(1.00, 0.00, -0.00, -1.00, 138.4, 310.0)">a</text><text xml:space="preserve" font-family="Helvetica" font-size="24.0" fill="#0000FF" transform="matrix(1.00, 0.00, -0.00, -1.00, 151.7, 310.0)">:</text><text xml:space="preserve" font-family="Helvetica" font-size="24.0" fill="#0000FF" transform="matrix(1.00, 0.00, -0.00, -1.00, 158.4, 310.0)"> </text><text xml:space="preserve" font-family="Helvetica" font-size="24.0" fill="#0000FF" transform="matrix(1.00, 0.00, -0.00, -1.00, 165.0, 310.0)">M</text><text xml:space="preserve" font-family="Helvetica" font-size="24.0" fill="#0000FF" transform="matrix(1.00, 0.00, -0.00, -1.00, 185.0, 310.0)">i</text><text xml:space="preserve" font-family="Helvetica" font-size="24.0" fill="#0000FF" transform="matrix(1.00, 0.00, -0.00, -1.00, 190.4, 310.0)">c</text><text xml:space="preserve" font-family="Helvetica" font-size="24.0" fill="#0000FF" transform="matrix(1.00, 0.00, -0.00, -1.00, 202.4, 310.0)">r</text><text xml:space="preserve" font-family="Helvetica" font-size="24.0" fill="#0000FF" transform="matrix(1.00, 0.00, -0.00, -1.00, 210.4, 310.0)">o</text><text xml:space="preserve" font-family="Helvetica" font-size="24.0" fill="#0000FF" transform="matrix(1.00, 0.00, -0.00, -1.00, 223.7, 310.0)">t</text><text xml:space="preserve" font-family="Helvetica" font-size="24.0" fill="#0000FF" transform="matrix(1.00, 0.00, -0.00, -1.00, 230.4, 310.0)">a</text><text xml:space="preserve" font-family="Helvetica" font-size="24.0" fill="#0000FF" transform="matrix(1.00, 0.00, -0.00, -1.00, 243.7, 310.0)">s</text><text xml:space="preserve" font-family="Helvetica" font-size="24.0" fill="#0000FF" transform="matrix(1.00, 0.00, -0.00, -1.00, 255.7, 310.0)">k</text><text xml:space="preserve" font-family="Helvetica" font-size="24.0" fill="#0000FF" transform="matrix(1.00, 0.00, -0.00, -1.00, 267.7, 310.0)">s</text><text xml:space="preserve" font-family="Helvetica" font-size="24.0" fill="#0000FF" transform="matrix(1.00, 0.00, -0.00, -1.00, 279.7, 310.0)"> </text><text xml:space="preserve" font-family="Helvetica" font-size="24.0" fill="#0000FF" transform="matrix(1.00, 0.00, -0.00, -1.00, 286.4, 310.0)">a</text><text xml:space="preserve" font-family="Helvetica" font-size="24.0" fill="#0000FF" transform="matrix(1.00, 0.00, -0.00, -1.00, 299.7, 310.0)">n</text><text xml:space="preserve" font-family="Helvetica" font-size="24.0" fill="#0000FF" transform="matrix(1.00, 0.00, -0.00, -1.00, 313.1, 310.0)">d</text><text xml:space="preserve" font-family="Helvetica" font-size="24.0" fill="#0000FF" transform="matrix(1.00, 0.00, -0.00, -1.00, 326.4, 310.0)"> </text><text xml:space="preserve" font-family="Helvetica" font-size="24.0" fill="#0000FF" transform="matrix(1.00, 0.00, -0.00, -1.00, 333.1, 310.0)">p</text><text xml:space="preserve" font-family="Helvetica" font-size="24.0" fill="#0000FF" transform="matrix(1.00, 0.00, -0.00, -1.00, 346.5, 310.0)">r</text><text xml:space="preserve" font-family="Helvetica" font-size="24.0" fill="#0000FF" transform="matrix(1.00, 0.00, -0.00, -1.00, 354.5, 310.0)">o</text><text xml:space="preserve" font-family="Helvetica" font-size="24.0" fill="#0000FF" transform="matrix(1.00, 0.00, -0.00, -1.00, 367.8, 310.0)">m</text><text xml:space="preserve" font-family="Helvetica" font-size="24.0" fill="#0000FF" transform="matrix(1.00, 0.00, -0.00, -1.00, 387.8, 310.0)">i</text><text xml:space="preserve" font-family="Helvetica" font-size="24.0" fill="#0000FF" transform="matrix(1.00, 0.00, -0.00, -1.00, 393.1, 310.0)">s</text><text xml:space="preserve" font-family="Helvetica" font-size="24.0" fill="#0000FF" transform="matrix(1.00, 0.00, -0.00, -1.00, 405.1, 310.0)">e</text><text xml:space="preserve" font-family="Helvetica" font-size="24.0" fill="#0000FF" transform="matrix(1.00, 0.00, -0.00, -1.00, 418.5, 310.0)">s</text><g><clipPath id="clip-960"><path d="M 76.2 306.8 L 430.7 306.8 L 430.7 310.0 L 76.2 310.0 Z M 76.2 306.8 "></path></clipPath><g clip-path="url(#clip-960)"><path d="M 44.1 113.2 L 397.5 113.2 " fill="none" stroke="#0000FF" stroke-width="1.18" stroke-miterlimit="0.00" transform="matrix(1.00, 0.00, 0.00, -1.00, 33.1, 421.6)"></path></g></g><text xml:space="preserve" font-family="ArialMT" font-size="24.0" fill="#FFFFFF" transform="matrix(1.00, 0.00, -0.00, -1.00, 63.7, 281.5)">•</text><text xml:space="preserve" font-family="Helvetica" font-size="24.0" fill="#0000FF" transform="matrix(1.00, 0.00, -0.00, -1.00, 77.0, 281.0)">E</text><text xml:space="preserve" font-family="Helvetica" font-size="24.0" fill="#0000FF" transform="matrix(1.00, 0.00, -0.00, -1.00, 93.0, 281.0)">v</text><text xml:space="preserve" font-family="Helvetica" font-size="24.0" fill="#0000FF" transform="matrix(1.00, 0.00, -0.00, -1.00, 105.0, 281.0)">e</text><text xml:space="preserve" font-family="Helvetica" font-size="24.0" fill="#0000FF" transform="matrix(1.00, 0.00, -0.00, -1.00, 118.4, 281.0)">n</text><text xml:space="preserve" font-family="Helvetica" font-size="24.0" fill="#0000FF" transform="matrix(1.00, 0.00, -0.00, -1.00, 131.7, 281.0)">t</text><text xml:space="preserve" font-family="Helvetica" font-size="24.0" fill="#0000FF" transform="matrix(1.00, 0.00, -0.00, -1.00, 138.4, 281.0)">-</text><text xml:space="preserve" font-family="Helvetica" font-size="24.0" fill="#0000FF" transform="matrix(1.00, 0.00, -0.00, -1.00, 146.4, 281.0)">l</text><text xml:space="preserve" font-family="Helvetica" font-size="24.0" fill="#0000FF" transform="matrix(1.00, 0.00, -0.00, -1.00, 151.7, 281.0)">o</text><text xml:space="preserve" font-family="Helvetica" font-size="24.0" fill="#0000FF" transform="matrix(1.00, 0.00, -0.00, -1.00, 165.1, 281.0)">o</text><text xml:space="preserve" font-family="Helvetica" font-size="24.0" fill="#0000FF" transform="matrix(1.00, 0.00, -0.00, -1.00, 178.4, 281.0)">p</text><text xml:space="preserve" font-family="Helvetica" font-size="24.0" fill="#0000FF" transform="matrix(1.00, 0.00, -0.00, -1.00, 191.8, 281.0)">-</text><text xml:space="preserve" font-family="Helvetica" font-size="24.0" fill="#0000FF" transform="matrix(1.00, 0.00, -0.00, -1.00, 199.8, 281.0)">p</text><text xml:space="preserve" font-family="Helvetica" font-size="24.0" fill="#0000FF" transform="matrix(1.00, 0.00, -0.00, -1.00, 213.1, 281.0)">r</text><text xml:space="preserve" font-family="Helvetica" font-size="24.0" fill="#0000FF" transform="matrix(1.00, 0.00, -0.00, -1.00, 221.1, 281.0)">o</text><text xml:space="preserve" font-family="Helvetica" font-size="24.0" fill="#0000FF" transform="matrix(1.00, 0.00, -0.00, -1.00, 234.5, 281.0)">c</text><text xml:space="preserve" font-family="Helvetica" font-size="24.0" fill="#0000FF" transform="matrix(1.00, 0.00, -0.00, -1.00, 246.5, 281.0)">e</text><text xml:space="preserve" font-family="Helvetica" font-size="24.0" fill="#0000FF" transform="matrix(1.00, 0.00, -0.00, -1.00, 259.8, 281.0)">s</text><text xml:space="preserve" font-family="Helvetica" font-size="24.0" fill="#0000FF" transform="matrix(1.00, 0.00, -0.00, -1.00, 271.8, 281.0)">s</text><text xml:space="preserve" font-family="Helvetica" font-size="24.0" fill="#0000FF" transform="matrix(1.00, 0.00, -0.00, -1.00, 283.8, 281.0)">i</text><text xml:space="preserve" font-family="Helvetica" font-size="24.0" fill="#0000FF" transform="matrix(1.00, 0.00, -0.00, -1.00, 289.1, 281.0)">n</text><text xml:space="preserve" font-family="Helvetica" font-size="24.0" fill="#0000FF" transform="matrix(1.00, 0.00, -0.00, -1.00, 302.5, 281.0)">g</text><text xml:space="preserve" font-family="Helvetica" font-size="24.0" fill="#0000FF" transform="matrix(1.00, 0.00, -0.00, -1.00, 315.8, 281.0)">-</text><text xml:space="preserve" font-family="Helvetica" font-size="24.0" fill="#0000FF" transform="matrix(1.00, 0.00, -0.00, -1.00, 323.8, 281.0)">m</text><text xml:space="preserve" font-family="Helvetica" font-size="24.0" fill="#0000FF" transform="matrix(1.00, 0.00, -0.00, -1.00, 343.8, 281.0)">o</text><text xml:space="preserve" font-family="Helvetica" font-size="24.0" fill="#0000FF" transform="matrix(1.00, 0.00, -0.00, -1.00, 357.2, 281.0)">d</text><text xml:space="preserve" font-family="Helvetica" font-size="24.0" fill="#0000FF" transform="matrix(1.00, 0.00, -0.00, -1.00, 370.5, 281.0)">e</text><text xml:space="preserve" font-family="Helvetica" font-size="24.0" fill="#0000FF" transform="matrix(1.00, 0.00, -0.00, -1.00, 383.9, 281.0)">l</text><g><clipPath id="clip-961"><path d="M 76.2 277.7 L 389.4 277.7 L 389.4 280.9 L 76.2 280.9 Z M 76.2 277.7 "></path></clipPath><g clip-path="url(#clip-961)"><path d="M 44.1 142.3 L 356.3 142.3 " fill="none" stroke="#0000FF" stroke-width="1.18" stroke-miterlimit="0.00" transform="matrix(1.00, 0.00, 0.00, -1.00, 33.1, 421.6)"></path></g></g><text xml:space="preserve" font-family="ArialMT" font-size="24.0" fill="#FFFFFF" transform="matrix(1.00, 0.00, -0.00, -1.00, 63.7, 252.4)">•</text><text xml:space="preserve" font-family="Helvetica" font-size="24.0" fill="#0000FF" transform="matrix(1.00, 0.00, -0.00, -1.00, 77.0, 252.0)">h</text><text xml:space="preserve" font-family="Helvetica" font-size="24.0" fill="#0000FF" transform="matrix(1.00, 0.00, -0.00, -1.00, 90.4, 252.0)">o</text><text xml:space="preserve" font-family="Helvetica" font-size="24.0" fill="#0000FF" transform="matrix(1.00, 0.00, -0.00, -1.00, 103.7, 252.0)">w</text><text xml:space="preserve" font-family="Helvetica" font-size="24.0" fill="#0000FF" transform="matrix(1.00, 0.00, -0.00, -1.00, 121.0, 252.0)">-</text><text xml:space="preserve" font-family="Helvetica" font-size="24.0" fill="#0000FF" transform="matrix(1.00, 0.00, -0.00, -1.00, 129.0, 252.0)">j</text><text xml:space="preserve" font-family="Helvetica" font-size="24.0" fill="#0000FF" transform="matrix(1.00, 0.00, -0.00, -1.00, 134.4, 252.0)">a</text><text xml:space="preserve" font-family="Helvetica" font-size="24.0" fill="#0000FF" transform="matrix(1.00, 0.00, -0.00, -1.00, 147.7, 252.0)">v</text><text xml:space="preserve" font-family="Helvetica" font-size="24.0" fill="#0000FF" transform="matrix(1.00, 0.00, -0.00, -1.00, 159.7, 252.0)">a</text><text xml:space="preserve" font-family="Helvetica" font-size="24.0" fill="#0000FF" transform="matrix(1.00, 0.00, -0.00, -1.00, 173.1, 252.0)">s</text><text xml:space="preserve" font-family="Helvetica" font-size="24.0" fill="#0000FF" transform="matrix(1.00, 0.00, -0.00, -1.00, 185.1, 252.0)">c</text><text xml:space="preserve" font-family="Helvetica" font-size="24.0" fill="#0000FF" transform="matrix(1.00, 0.00, -0.00, -1.00, 197.1, 252.0)">r</text><text xml:space="preserve" font-family="Helvetica" font-size="24.0" fill="#0000FF" transform="matrix(1.00, 0.00, -0.00, -1.00, 205.1, 252.0)">i</text><text xml:space="preserve" font-family="Helvetica" font-size="24.0" fill="#0000FF" transform="matrix(1.00, 0.00, -0.00, -1.00, 210.4, 252.0)">p</text><text xml:space="preserve" font-family="Helvetica" font-size="24.0" fill="#0000FF" transform="matrix(1.00, 0.00, -0.00, -1.00, 223.8, 252.0)">t</text><text xml:space="preserve" font-family="Helvetica" font-size="24.0" fill="#0000FF" transform="matrix(1.00, 0.00, -0.00, -1.00, 230.4, 252.0)">-</text><text xml:space="preserve" font-family="Helvetica" font-size="24.0" fill="#0000FF" transform="matrix(1.00, 0.00, -0.00, -1.00, 238.4, 252.0)">t</text><text xml:space="preserve" font-family="Helvetica" font-size="24.0" fill="#0000FF" transform="matrix(1.00, 0.00, -0.00, -1.00, 245.1, 252.0)">i</text><text xml:space="preserve" font-family="Helvetica" font-size="24.0" fill="#0000FF" transform="matrix(1.00, 0.00, -0.00, -1.00, 250.4, 252.0)">m</text><text xml:space="preserve" font-family="Helvetica" font-size="24.0" fill="#0000FF" transform="matrix(1.00, 0.00, -0.00, -1.00, 270.4, 252.0)">e</text><text xml:space="preserve" font-family="Helvetica" font-size="24.0" fill="#0000FF" transform="matrix(1.00, 0.00, -0.00, -1.00, 283.8, 252.0)">r</text><text xml:space="preserve" font-family="Helvetica" font-size="24.0" fill="#0000FF" transform="matrix(1.00, 0.00, -0.00, -1.00, 291.7, 252.0)">s</text><text xml:space="preserve" font-family="Helvetica" font-size="24.0" fill="#0000FF" transform="matrix(1.00, 0.00, -0.00, -1.00, 303.7, 252.0)">-</text><text xml:space="preserve" font-family="Helvetica" font-size="24.0" fill="#0000FF" transform="matrix(1.00, 0.00, -0.00, -1.00, 311.7, 252.0)">w</text><text xml:space="preserve" font-family="Helvetica" font-size="24.0" fill="#0000FF" transform="matrix(1.00, 0.00, -0.00, -1.00, 329.1, 252.0)">o</text><text xml:space="preserve" font-family="Helvetica" font-size="24.0" fill="#0000FF" transform="matrix(1.00, 0.00, -0.00, -1.00, 342.4, 252.0)">r</text><text xml:space="preserve" font-family="Helvetica" font-size="24.0" fill="#0000FF" transform="matrix(1.00, 0.00, -0.00, -1.00, 350.4, 252.0)">k</text><g><clipPath id="clip-962"><path d="M 76.2 248.6 L 362.6 248.6 L 362.6 251.8 L 76.2 251.8 Z M 76.2 248.6 "></path></clipPath><g clip-path="url(#clip-962)"><path d="M 44.1 171.4 L 329.5 171.4 " fill="none" stroke="#0000FF" stroke-width="1.18" stroke-miterlimit="0.00" transform="matrix(1.00, 0.00, 0.00, -1.00, 33.1, 421.6)"></path></g></g><text xml:space="preserve" font-family="ArialMT" font-size="24.0" fill="#FFFFFF" transform="matrix(1.00, 0.00, -0.00, -1.00, 63.7, 223.3)">•</text><text xml:space="preserve" font-family="Helvetica" font-size="24.0" fill="#0000FF" transform="matrix(1.00, 0.00, -0.00, -1.00, 77.0, 223.0)">i</text><text xml:space="preserve" font-family="Helvetica" font-size="24.0" fill="#0000FF" transform="matrix(1.00, 0.00, -0.00, -1.00, 82.3, 223.0)">n</text><text xml:space="preserve" font-family="Helvetica" font-size="24.0" fill="#0000FF" transform="matrix(1.00, 0.00, -0.00, -1.00, 95.7, 223.0)">d</text><text xml:space="preserve" font-family="Helvetica" font-size="24.0" fill="#0000FF" transform="matrix(1.00, 0.00, -0.00, -1.00, 109.0, 223.0)">e</text><text xml:space="preserve" font-family="Helvetica" font-size="24.0" fill="#0000FF" transform="matrix(1.00, 0.00, -0.00, -1.00, 122.4, 223.0)">x</text><text xml:space="preserve" font-family="Helvetica" font-size="24.0" fill="#0000FF" transform="matrix(1.00, 0.00, -0.00, -1.00, 134.4, 223.0)">e</text><text xml:space="preserve" font-family="Helvetica" font-size="24.0" fill="#0000FF" transform="matrix(1.00, 0.00, -0.00, -1.00, 147.7, 223.0)">d</text><text xml:space="preserve" font-family="Helvetica" font-size="24.0" fill="#0000FF" transform="matrix(1.00, 0.00, -0.00, -1.00, 161.1, 223.0)">D</text><text xml:space="preserve" font-family="Helvetica" font-size="24.0" fill="#0000FF" transform="matrix(1.00, 0.00, -0.00, -1.00, 178.4, 223.0)">B</text><g><clipPath id="clip-963"><path d="M 76.2 219.5 L 194.6 219.5 L 194.6 222.7 L 76.2 222.7 Z M 76.2 219.5 "></path></clipPath><g clip-path="url(#clip-963)"><path d="M 44.1 200.5 L 161.5 200.5 " fill="none" stroke="#0000FF" stroke-width="1.18" stroke-miterlimit="0.00" transform="matrix(1.00, 0.00, 0.00, -1.00, 33.1, 421.6)"></path></g></g><text xml:space="preserve" font-family="ArialMT" font-size="24.0" fill="#FFFFFF" transform="matrix(1.00, 0.00, -0.00, -1.00, 63.7, 194.2)">•</text><text xml:space="preserve" font-family="Helvetica" font-size="24.0" fill="#0000FF" transform="matrix(1.00, 0.00, -0.00, -1.00, 77.0, 194.0)">e</text><text xml:space="preserve" font-family="Helvetica" font-size="24.0" fill="#0000FF" transform="matrix(1.00, 0.00, -0.00, -1.00, 90.4, 194.0)">c</text><text xml:space="preserve" font-family="Helvetica" font-size="24.0" fill="#0000FF" transform="matrix(1.00, 0.00, -0.00, -1.00, 102.4, 194.0)">m</text><text xml:space="preserve" font-family="Helvetica" font-size="24.0" fill="#0000FF" transform="matrix(1.00, 0.00, -0.00, -1.00, 122.3, 194.0)">a</text><text xml:space="preserve" font-family="Helvetica" font-size="24.0" fill="#0000FF" transform="matrix(1.00, 0.00, -0.00, -1.00, 135.7, 194.0)">:</text><text xml:space="preserve" font-family="Helvetica" font-size="24.0" fill="#0000FF" transform="matrix(1.00, 0.00, -0.00, -1.00, 142.4, 194.0)"> </text><text xml:space="preserve" font-family="Helvetica" font-size="24.0" fill="#0000FF" transform="matrix(1.00, 0.00, -0.00, -1.00, 149.0, 194.0)">s</text><text xml:space="preserve" font-family="Helvetica" font-size="24.0" fill="#0000FF" transform="matrix(1.00, 0.00, -0.00, -1.00, 161.0, 194.0)">e</text><text xml:space="preserve" font-family="Helvetica" font-size="24.0" fill="#0000FF" transform="matrix(1.00, 0.00, -0.00, -1.00, 174.4, 194.0)">c</text><text xml:space="preserve" font-family="Helvetica" font-size="24.0" fill="#0000FF" transform="matrix(1.00, 0.00, -0.00, -1.00, 186.4, 194.0)">-</text><text xml:space="preserve" font-family="Helvetica" font-size="24.0" fill="#0000FF" transform="matrix(1.00, 0.00, -0.00, -1.00, 194.4, 194.0)">j</text><text xml:space="preserve" font-family="Helvetica" font-size="24.0" fill="#0000FF" transform="matrix(1.00, 0.00, -0.00, -1.00, 199.7, 194.0)">o</text><text xml:space="preserve" font-family="Helvetica" font-size="24.0" fill="#0000FF" transform="matrix(1.00, 0.00, -0.00, -1.00, 213.1, 194.0)">b</text><text xml:space="preserve" font-family="Helvetica" font-size="24.0" fill="#0000FF" transform="matrix(1.00, 0.00, -0.00, -1.00, 226.4, 194.0)">s</text><text xml:space="preserve" font-family="Helvetica" font-size="24.0" fill="#0000FF" transform="matrix(1.00, 0.00, -0.00, -1.00, 238.4, 194.0)">-</text><text xml:space="preserve" font-family="Helvetica" font-size="24.0" fill="#0000FF" transform="matrix(1.00, 0.00, -0.00, -1.00, 246.4, 194.0)">a</text><text xml:space="preserve" font-family="Helvetica" font-size="24.0" fill="#0000FF" transform="matrix(1.00, 0.00, -0.00, -1.00, 259.8, 194.0)">n</text><text xml:space="preserve" font-family="Helvetica" font-size="24.0" fill="#0000FF" transform="matrix(1.00, 0.00, -0.00, -1.00, 273.1, 194.0)">d</text><text xml:space="preserve" font-family="Helvetica" font-size="24.0" fill="#0000FF" transform="matrix(1.00, 0.00, -0.00, -1.00, 286.5, 194.0)">-</text><text xml:space="preserve" font-family="Helvetica" font-size="24.0" fill="#0000FF" transform="matrix(1.00, 0.00, -0.00, -1.00, 294.5, 194.0)">j</text><text xml:space="preserve" font-family="Helvetica" font-size="24.0" fill="#0000FF" transform="matrix(1.00, 0.00, -0.00, -1.00, 299.8, 194.0)">o</text><text xml:space="preserve" font-family="Helvetica" font-size="24.0" fill="#0000FF" transform="matrix(1.00, 0.00, -0.00, -1.00, 313.1, 194.0)">b</text><text xml:space="preserve" font-family="Helvetica" font-size="24.0" fill="#0000FF" transform="matrix(1.00, 0.00, -0.00, -1.00, 326.5, 194.0)">-</text><text xml:space="preserve" font-family="Helvetica" font-size="24.0" fill="#0000FF" transform="matrix(1.00, 0.00, -0.00, -1.00, 334.5, 194.0)">q</text><text xml:space="preserve" font-family="Helvetica" font-size="24.0" fill="#0000FF" transform="matrix(1.00, 0.00, -0.00, -1.00, 347.8, 194.0)">u</text><text xml:space="preserve" font-family="Helvetica" font-size="24.0" fill="#0000FF" transform="matrix(1.00, 0.00, -0.00, -1.00, 361.2, 194.0)">e</text><text xml:space="preserve" font-family="Helvetica" font-size="24.0" fill="#0000FF" transform="matrix(1.00, 0.00, -0.00, -1.00, 374.5, 194.0)">u</text><text xml:space="preserve" font-family="Helvetica" font-size="24.0" fill="#0000FF" transform="matrix(1.00, 0.00, -0.00, -1.00, 387.9, 194.0)">e</text><text xml:space="preserve" font-family="Helvetica" font-size="24.0" fill="#0000FF" transform="matrix(1.00, 0.00, -0.00, -1.00, 401.2, 194.0)">s</text><g><clipPath id="clip-964"><path d="M 76.2 190.4 L 413.4 190.4 L 413.4 193.6 L 76.2 193.6 Z M 76.2 190.4 "></path></clipPath><g clip-path="url(#clip-964)"><path d="M 44.1 229.6 L 380.3 229.6 " fill="none" stroke="#0000FF" stroke-width="1.18" stroke-miterlimit="0.00" transform="matrix(1.00, 0.00, 0.00, -1.00, 33.1, 421.6)"></path></g></g></g></svg>