<?xml version="1.0" encoding="UTF-8" standalone="no"?><svg xmlns="http://www.w3.org/2000/svg" xmlns:xlink="http://www.w3.org/1999/xlink" clip-rule="evenodd" stroke-miterlimit="4.00" viewBox="0 0 257 33"><desc>SVG generated by Keynote</desc><defs></defs><g transform="matrix(1.00, 0.00, -0.00, -1.00, 0.0, 33.0)"><text xml:space="preserve" font-family="TrebuchetMS" font-size="14.0" fill="#FEFFFF" transform="matrix(1.00, 0.00, -0.00, -1.00, 1.0, 21.0)">i</text><text xml:space="preserve" font-family="TrebuchetMS" font-size="14.0" fill="#FEFFFF" transform="matrix(1.00, 0.00, -0.00, -1.00, 5.0, 21.0)">n</text><text xml:space="preserve" font-family="TrebuchetMS" font-size="14.0" fill="#FEFFFF" transform="matrix(1.00, 0.00, -0.00, -1.00, 12.6, 21.0)">n</text><text xml:space="preserve" font-family="TrebuchetMS" font-size="14.0" fill="#FEFFFF" transform="matrix(1.00, 0.00, -0.00, -1.00, 20.3, 21.0)">e</text><text xml:space="preserve" font-family="TrebuchetMS" font-size="14.0" fill="#FEFFFF" transform="matrix(1.00, 0.00, -0.00, -1.00, 27.9, 21.0)">r</text><text xml:space="preserve" font-family="TrebuchetMS" font-size="14.0" fill="#FEFFFF" transform="matrix(1.00, 0.00, -0.00, -1.00, 31.5, 21.0)">.</text><text xml:space="preserve" font-family="TrebuchetMS" font-size="14.0" fill="#FEFFFF" transform="matrix(1.00, 0.00, -0.00, -1.00, 36.6, 21.0)">a</text><text xml:space="preserve" font-family="TrebuchetMS" font-size="14.0" fill="#FEFFFF" transform="matrix(1.00, 0.00, -0.00, -1.00, 44.0, 21.0)">d</text><text xml:space="preserve" font-family="TrebuchetMS" font-size="14.0" fill="#FEFFFF" transform="matrix(1.00, 0.00, -0.00, -1.00, 51.8, 21.0)">d</text><text xml:space="preserve" font-family="TrebuchetMS" font-size="14.0" fill="#FEFFFF" transform="matrix(1.00, 0.00, -0.00, -1.00, 59.6, 21.0)">E</text><text xml:space="preserve" font-family="TrebuchetMS" font-size="14.0" fill="#FEFFFF" transform="matrix(1.00, 0.00, -0.00, -1.00, 67.1, 21.0)">v</text><text xml:space="preserve" font-family="TrebuchetMS" font-size="14.0" fill="#FEFFFF" transform="matrix(1.00, 0.00, -0.00, -1.00, 73.9, 21.0)">e</text><text xml:space="preserve" font-family="TrebuchetMS" font-size="14.0" fill="#FEFFFF" transform="matrix(1.00, 0.00, -0.00, -1.00, 81.6, 21.0)">n</text><text xml:space="preserve" font-family="TrebuchetMS" font-size="14.0" fill="#FEFFFF" transform="matrix(1.00, 0.00, -0.00, -1.00, 89.2, 21.0)">t</text><text xml:space="preserve" font-family="TrebuchetMS" font-size="14.0" fill="#FEFFFF" transform="matrix(1.00, 0.00, -0.00, -1.00, 94.8, 21.0)">L</text><text xml:space="preserve" font-family="TrebuchetMS" font-size="14.0" fill="#FEFFFF" transform="matrix(1.00, 0.00, -0.00, -1.00, 101.9, 21.0)">i</text><text xml:space="preserve" font-family="TrebuchetMS" font-size="14.0" fill="#FEFFFF" transform="matrix(1.00, 0.00, -0.00, -1.00, 105.9, 21.0)">s</text><text xml:space="preserve" font-family="TrebuchetMS" font-size="14.0" fill="#FEFFFF" transform="matrix(1.00, 0.00, -0.00, -1.00, 111.5, 21.0)">t</text><text xml:space="preserve" font-family="TrebuchetMS" font-size="14.0" fill="#FEFFFF" transform="matrix(1.00, 0.00, -0.00, -1.00, 117.1, 21.0)">e</text><text xml:space="preserve" font-family="TrebuchetMS" font-size="14.0" fill="#FEFFFF" transform="matrix(1.00, 0.00, -0.00, -1.00, 124.7, 21.0)">n</text><text xml:space="preserve" font-family="TrebuchetMS" font-size="14.0" fill="#FEFFFF" transform="matrix(1.00, 0.00, -0.00, -1.00, 132.4, 21.0)">e</text><text xml:space="preserve" font-family="TrebuchetMS" font-size="14.0" fill="#FEFFFF" transform="matrix(1.00, 0.00, -0.00, -1.00, 140.0, 21.0)">r</text><text xml:space="preserve" font-family="TrebuchetMS" font-size="14.0" fill="#FEFFFF" transform="matrix(1.00, 0.00, -0.00, -1.00, 145.5, 21.0)">(</text><text xml:space="preserve" font-family="TrebuchetMS" font-size="14.0" fill="#FEFFFF" transform="matrix(1.00, 0.00, -0.00, -1.00, 150.6, 21.0)">‘</text><text xml:space="preserve" font-family="TrebuchetMS" font-size="14.0" fill="#FEFFFF" transform="matrix(1.00, 0.00, -0.00, -1.00, 155.7, 21.0)">c</text><text xml:space="preserve" font-family="TrebuchetMS" font-size="14.0" fill="#FEFFFF" transform="matrix(1.00, 0.00, -0.00, -1.00, 162.7, 21.0)">l</text><text xml:space="preserve" font-family="TrebuchetMS" font-size="14.0" fill="#FEFFFF" transform="matrix(1.00, 0.00, -0.00, -1.00, 166.8, 21.0)">i</text><text xml:space="preserve" font-family="TrebuchetMS" font-size="14.0" fill="#FEFFFF" transform="matrix(1.00, 0.00, -0.00, -1.00, 170.8, 21.0)">c</text><text xml:space="preserve" font-family="TrebuchetMS" font-size="14.0" fill="#FEFFFF" transform="matrix(1.00, 0.00, -0.00, -1.00, 177.7, 21.0)">k</text><text xml:space="preserve" font-family="TrebuchetMS" font-size="14.0" fill="#FEFFFF" transform="matrix(1.00, 0.00, -0.00, -1.00, 184.8, 21.0)">’</text><text xml:space="preserve" font-family="TrebuchetMS" font-size="14.0" fill="#FEFFFF" transform="matrix(1.00, 0.00, -0.00, -1.00, 189.9, 21.0)">,</text><text xml:space="preserve" font-family="TrebuchetMS" font-size="14.0" fill="#FEFFFF" transform="matrix(1.00, 0.00, -0.00, -1.00, 195.1, 21.0)"> </text><text xml:space="preserve" font-family="TrebuchetMS" font-size="14.0" fill="#FEFFFF" transform="matrix(1.00, 0.00, -0.00, -1.00, 199.3, 21.0)">o</text><text xml:space="preserve" font-family="TrebuchetMS" font-size="14.0" fill="#FEFFFF" transform="matrix(1.00, 0.00, -0.00, -1.00, 206.8, 21.0)">n</text><text xml:space="preserve" font-family="TrebuchetMS" font-size="14.0" fill="#FEFFFF" transform="matrix(1.00, 0.00, -0.00, -1.00, 214.4, 21.0)">C</text><text xml:space="preserve" font-family="TrebuchetMS" font-size="14.0" fill="#FEFFFF" transform="matrix(1.00, 0.00, -0.00, -1.00, 222.8, 21.0)">l</text><text xml:space="preserve" font-family="TrebuchetMS" font-size="14.0" fill="#FEFFFF" transform="matrix(1.00, 0.00, -0.00, -1.00, 226.9, 21.0)">i</text><text xml:space="preserve" font-family="TrebuchetMS" font-size="14.0" fill="#FEFFFF" transform="matrix(1.00, 0.00, -0.00, -1.00, 230.9, 21.0)">c</text><text xml:space="preserve" font-family="TrebuchetMS" font-size="14.0" fill="#FEFFFF" transform="matrix(1.00, 0.00, -0.00, -1.00, 237.9, 21.0)">k</text><text xml:space="preserve" font-family="TrebuchetMS" font-size="14.0" fill="#FEFFFF" transform="matrix(1.00, 0.00, -0.00, -1.00, 244.9, 21.0)">)</text><text xml:space="preserve" font-family="TrebuchetMS" font-size="14.0" fill="#FEFFFF" transform="matrix(1.00, 0.00, -0.00, -1.00, 250.1, 21.0)">;</text><text xml:space="preserve" font-family="TrebuchetMS" font-size="14.0" fill="#FEFFFF" transform="matrix(1.00, 0.00, -0.00, -1.00, 255.2, 21.0)"> </text><text xml:space="preserve" font-family="TrebuchetMS" font-size="14.0" fill="#FEFFFF" transform="matrix(1.00, 0.00, -0.00, -1.00, 1.0, 5.0)">o</text><text xml:space="preserve" font-family="TrebuchetMS" font-size="14.0" fill="#FEFFFF" transform="matrix(1.00, 0.00, -0.00, -1.00, 8.5, 5.0)">u</text><text xml:space="preserve" font-family="TrebuchetMS" font-size="14.0" fill="#FEFFFF" transform="matrix(1.00, 0.00, -0.00, -1.00, 16.2, 5.0)">t</text><text xml:space="preserve" font-family="TrebuchetMS" font-size="14.0" fill="#FEFFFF" transform="matrix(1.00, 0.00, -0.00, -1.00, 21.7, 5.0)">e</text><text xml:space="preserve" font-family="TrebuchetMS" font-size="14.0" fill="#FEFFFF" transform="matrix(1.00, 0.00, -0.00, -1.00, 29.4, 5.0)">r</text><text xml:space="preserve" font-family="TrebuchetMS" font-size="14.0" fill="#FEFFFF" transform="matrix(1.00, 0.00, -0.00, -1.00, 32.9, 5.0)">.</text><text xml:space="preserve" font-family="TrebuchetMS" font-size="14.0" fill="#FEFFFF" transform="matrix(1.00, 0.00, -0.00, -1.00, 38.1, 5.0)">a</text><text xml:space="preserve" font-family="TrebuchetMS" font-size="14.0" fill="#FEFFFF" transform="matrix(1.00, 0.00, -0.00, -1.00, 45.5, 5.0)">d</text><text xml:space="preserve" font-family="TrebuchetMS" font-size="14.0" fill="#FEFFFF" transform="matrix(1.00, 0.00, -0.00, -1.00, 53.3, 5.0)">d</text><text xml:space="preserve" font-family="TrebuchetMS" font-size="14.0" fill="#FEFFFF" transform="matrix(1.00, 0.00, -0.00, -1.00, 61.1, 5.0)">E</text><text xml:space="preserve" font-family="TrebuchetMS" font-size="14.0" fill="#FEFFFF" transform="matrix(1.00, 0.00, -0.00, -1.00, 68.6, 5.0)">v</text><text xml:space="preserve" font-family="TrebuchetMS" font-size="14.0" fill="#FEFFFF" transform="matrix(1.00, 0.00, -0.00, -1.00, 75.4, 5.0)">e</text><text xml:space="preserve" font-family="TrebuchetMS" font-size="14.0" fill="#FEFFFF" transform="matrix(1.00, 0.00, -0.00, -1.00, 83.1, 5.0)">n</text><text xml:space="preserve" font-family="TrebuchetMS" font-size="14.0" fill="#FEFFFF" transform="matrix(1.00, 0.00, -0.00, -1.00, 90.7, 5.0)">t</text><text xml:space="preserve" font-family="TrebuchetMS" font-size="14.0" fill="#FEFFFF" transform="matrix(1.00, 0.00, -0.00, -1.00, 96.3, 5.0)">L</text><text xml:space="preserve" font-family="TrebuchetMS" font-size="14.0" fill="#FEFFFF" transform="matrix(1.00, 0.00, -0.00, -1.00, 103.4, 5.0)">i</text><text xml:space="preserve" font-family="TrebuchetMS" font-size="14.0" fill="#FEFFFF" transform="matrix(1.00, 0.00, -0.00, -1.00, 107.4, 5.0)">s</text><text xml:space="preserve" font-family="TrebuchetMS" font-size="14.0" fill="#FEFFFF" transform="matrix(1.00, 0.00, -0.00, -1.00, 113.0, 5.0)">t</text><text xml:space="preserve" font-family="TrebuchetMS" font-size="14.0" fill="#FEFFFF" transform="matrix(1.00, 0.00, -0.00, -1.00, 118.6, 5.0)">e</text><text xml:space="preserve" font-family="TrebuchetMS" font-size="14.0" fill="#FEFFFF" transform="matrix(1.00, 0.00, -0.00, -1.00, 126.2, 5.0)">n</text><text xml:space="preserve" font-family="TrebuchetMS" font-size="14.0" fill="#FEFFFF" transform="matrix(1.00, 0.00, -0.00, -1.00, 133.9, 5.0)">e</text><text xml:space="preserve" font-family="TrebuchetMS" font-size="14.0" fill="#FEFFFF" transform="matrix(1.00, 0.00, -0.00, -1.00, 141.5, 5.0)">r</text><text xml:space="preserve" font-family="TrebuchetMS" font-size="14.0" fill="#FEFFFF" transform="matrix(1.00, 0.00, -0.00, -1.00, 147.0, 5.0)">(</text><text xml:space="preserve" font-family="TrebuchetMS" font-size="14.0" fill="#FEFFFF" transform="matrix(1.00, 0.00, -0.00, -1.00, 152.1, 5.0)">‘</text><text xml:space="preserve" font-family="TrebuchetMS" font-size="14.0" fill="#FEFFFF" transform="matrix(1.00, 0.00, -0.00, -1.00, 157.3, 5.0)">c</text><text xml:space="preserve" font-family="TrebuchetMS" font-size="14.0" fill="#FEFFFF" transform="matrix(1.00, 0.00, -0.00, -1.00, 164.2, 5.0)">l</text><text xml:space="preserve" font-family="TrebuchetMS" font-size="14.0" fill="#FEFFFF" transform="matrix(1.00, 0.00, -0.00, -1.00, 168.3, 5.0)">i</text><text xml:space="preserve" font-family="TrebuchetMS" font-size="14.0" fill="#FEFFFF" transform="matrix(1.00, 0.00, -0.00, -1.00, 172.3, 5.0)">c</text><text xml:space="preserve" font-family="TrebuchetMS" font-size="14.0" fill="#FEFFFF" transform="matrix(1.00, 0.00, -0.00, -1.00, 179.3, 5.0)">k</text><text xml:space="preserve" font-family="TrebuchetMS" font-size="14.0" fill="#FEFFFF" transform="matrix(1.00, 0.00, -0.00, -1.00, 186.3, 5.0)">’</text><text xml:space="preserve" font-family="TrebuchetMS" font-size="14.0" fill="#FEFFFF" transform="matrix(1.00, 0.00, -0.00, -1.00, 191.3, 5.0)">,</text><text xml:space="preserve" font-family="TrebuchetMS" font-size="14.0" fill="#FEFFFF" transform="matrix(1.00, 0.00, -0.00, -1.00, 196.5, 5.0)"> </text><text xml:space="preserve" font-family="TrebuchetMS" font-size="14.0" fill="#FEFFFF" transform="matrix(1.00, 0.00, -0.00, -1.00, 200.7, 5.0)">o</text><text xml:space="preserve" font-family="TrebuchetMS" font-size="14.0" fill="#FEFFFF" transform="matrix(1.00, 0.00, -0.00, -1.00, 208.2, 5.0)">n</text><text xml:space="preserve" font-family="TrebuchetMS" font-size="14.0" fill="#FEFFFF" transform="matrix(1.00, 0.00, -0.00, -1.00, 215.9, 5.0)">C</text><text xml:space="preserve" font-family="TrebuchetMS" font-size="14.0" fill="#FEFFFF" transform="matrix(1.00, 0.00, -0.00, -1.00, 224.2, 5.0)">l</text><text xml:space="preserve" font-family="TrebuchetMS" font-size="14.0" fill="#FEFFFF" transform="matrix(1.00, 0.00, -0.00, -1.00, 228.4, 5.0)">i</text><text xml:space="preserve" font-family="TrebuchetMS" font-size="14.0" fill="#FEFFFF" transform="matrix(1.00, 0.00, -0.00, -1.00, 232.4, 5.0)">c</text><text xml:space="preserve" font-family="TrebuchetMS" font-size="14.0" fill="#FEFFFF" transform="matrix(1.00, 0.00, -0.00, -1.00, 239.3, 5.0)">k</text><text xml:space="preserve" font-family="TrebuchetMS" font-size="14.0" fill="#FEFFFF" transform="matrix(1.00, 0.00, -0.00, -1.00, 246.4, 5.0)">)</text><text xml:space="preserve" font-family="TrebuchetMS" font-size="14.0" fill="#FEFFFF" transform="matrix(1.00, 0.00, -0.00, -1.00, 251.5, 5.0)">;</text></g></svg>