<?xml version="1.0" encoding="UTF-8" standalone="no"?><svg xmlns="http://www.w3.org/2000/svg" xmlns:xlink="http://www.w3.org/1999/xlink" clip-rule="evenodd" stroke-miterlimit="4.00" viewBox="0 0 86 62"><desc>SVG generated by Keynote</desc><defs></defs><g transform="matrix(1.00, 0.00, -0.00, -1.00, 0.0, 62.0)"><image xlink:href="9ADCAE0A4BF558E0724ACD342C1A8AB9.png" width="83.00" height="52.00" transform="matrix(1.00, 0.00, -0.00, -1.00, 1.9, 54.1)" opacity="0.35"></image><path d="M 36.4 0.0 C 16.3 0.0 0.0 6.9 0.0 15.4 C 0.0 19.9 4.5 23.9 11.7 26.8 L 0.7 42.2 L 33.5 30.8 C 34.4 30.8 35.4 30.9 36.4 30.9 C 56.5 30.9 72.8 24.0 72.8 15.4 C 72.8 6.9 56.5 0.0 36.4 0.0 Z M 36.4 0.0 " fill="none" stroke="#DDDDDD" stroke-width="2.00" stroke-linejoin="round" transform="matrix(1.00, 0.00, 0.00, -1.00, 6.9, 52.1)"></path><g><clipPath id="clip-650"><path d="M 6.9 21.2 L 79.7 21.2 L 79.7 52.1 L 6.9 52.1 Z M 6.9 21.2 "></path></clipPath><g clip-path="url(#clip-650)"><text xml:space="preserve" font-family="TrebuchetMS" font-size="14.0" fill="#FFFFFF" transform="matrix(1.00, 0.00, -0.00, -1.00, 38.0, 31.0)">…</text><text xml:space="preserve" font-family="TrebuchetMS" font-size="14.0" fill="#FFFFFF" transform="matrix(1.00, 0.00, -0.00, -1.00, 48.3, 31.0)"> </text></g></g></g></svg>