<?xml version="1.0" encoding="UTF-8" standalone="no"?><svg xmlns="http://www.w3.org/2000/svg" xmlns:xlink="http://www.w3.org/1999/xlink" clip-rule="evenodd" stroke-miterlimit="4.00" viewBox="0 0 256 186"><desc>SVG generated by Keynote</desc><defs></defs><g transform="matrix(1.00, 0.00, -0.00, -1.00, 0.0, 186.0)"><image xlink:href="96722358B7BBFBB8111EAC2BBEE308F6.png" width="253.00" height="177.00" transform="matrix(1.00, 0.00, -0.00, -1.00, 1.9, 179.0)" opacity="0.35"></image><path d="M 5.2 0.0 C 2.3 0.0 0.0 2.3 0.0 5.2 L 0.0 116.5 C 0.0 119.3 2.3 121.6 5.2 121.6 L 185.5 121.6 L 242.9 167.4 L 201.9 104.1 L 201.9 5.2 C 201.9 2.3 199.6 0.0 196.7 0.0 L 5.2 0.0 Z M 5.2 0.0 " fill="none" stroke="#DDDDDD" stroke-width="2.00" transform="matrix(1.00, 0.00, 0.00, -1.00, 6.9, 177.0)"></path><g><clipPath id="clip-333"><path d="M 6.9 55.3 L 208.9 55.3 L 208.9 177.0 L 6.9 177.0 Z M 6.9 55.3 "></path></clipPath><g clip-path="url(#clip-333)"><text xml:space="preserve" font-family="TrebuchetMS" font-size="16.0" fill="#FFFFFF" transform="matrix(1.00, 0.00, -0.00, -1.00, 12.0, 139.0)">Y</text><text xml:space="preserve" font-family="TrebuchetMS" font-size="16.0" fill="#FFFFFF" transform="matrix(1.00, 0.00, -0.00, -1.00, 19.4, 139.0)">e</text><text xml:space="preserve" font-family="TrebuchetMS" font-size="16.0" fill="#FFFFFF" transform="matrix(1.00, 0.00, -0.00, -1.00, 28.2, 139.0)">a</text><text xml:space="preserve" font-family="TrebuchetMS" font-size="16.0" fill="#FFFFFF" transform="matrix(1.00, 0.00, -0.00, -1.00, 36.6, 139.0)">h</text><text xml:space="preserve" font-family="TrebuchetMS" font-size="16.0" fill="#FFFFFF" transform="matrix(1.00, 0.00, -0.00, -1.00, 45.3, 139.0)">,</text><text xml:space="preserve" font-family="TrebuchetMS" font-size="16.0" fill="#FFFFFF" transform="matrix(1.00, 0.00, -0.00, -1.00, 51.2, 139.0)"> </text><text xml:space="preserve" font-family="TrebuchetMS" font-size="16.0" fill="#FFFFFF" transform="matrix(1.00, 0.00, -0.00, -1.00, 56.0, 139.0)">i</text><text xml:space="preserve" font-family="TrebuchetMS" font-size="16.0" fill="#FFFFFF" transform="matrix(1.00, 0.00, -0.00, -1.00, 60.6, 139.0)"> </text><text xml:space="preserve" font-family="TrebuchetMS" font-size="16.0" fill="#FFFFFF" transform="matrix(1.00, 0.00, -0.00, -1.00, 65.4, 139.0)">h</text><text xml:space="preserve" font-family="TrebuchetMS" font-size="16.0" fill="#FFFFFF" transform="matrix(1.00, 0.00, -0.00, -1.00, 74.2, 139.0)">a</text><text xml:space="preserve" font-family="TrebuchetMS" font-size="16.0" fill="#FFFFFF" transform="matrix(1.00, 0.00, -0.00, -1.00, 82.6, 139.0)">v</text><text xml:space="preserve" font-family="TrebuchetMS" font-size="16.0" fill="#FFFFFF" transform="matrix(1.00, 0.00, -0.00, -1.00, 90.4, 139.0)">e</text><text xml:space="preserve" font-family="TrebuchetMS" font-size="16.0" fill="#FFFFFF" transform="matrix(1.00, 0.00, -0.00, -1.00, 99.2, 139.0)"> </text><text xml:space="preserve" font-family="TrebuchetMS" font-size="16.0" fill="#FFFFFF" transform="matrix(1.00, 0.00, -0.00, -1.00, 104.0, 139.0)">c</text><text xml:space="preserve" font-family="TrebuchetMS" font-size="16.0" fill="#FFFFFF" transform="matrix(1.00, 0.00, -0.00, -1.00, 111.9, 139.0)">a</text><text xml:space="preserve" font-family="TrebuchetMS" font-size="16.0" fill="#FFFFFF" transform="matrix(1.00, 0.00, -0.00, -1.00, 120.3, 139.0)">l</text><text xml:space="preserve" font-family="TrebuchetMS" font-size="16.0" fill="#FFFFFF" transform="matrix(1.00, 0.00, -0.00, -1.00, 125.0, 139.0)">l</text><text xml:space="preserve" font-family="TrebuchetMS" font-size="16.0" fill="#FFFFFF" transform="matrix(1.00, 0.00, -0.00, -1.00, 129.8, 139.0)">-</text><text xml:space="preserve" font-family="TrebuchetMS" font-size="16.0" fill="#FFFFFF" transform="matrix(1.00, 0.00, -0.00, -1.00, 135.6, 139.0)">s</text><text xml:space="preserve" font-family="TrebuchetMS" font-size="16.0" fill="#FFFFFF" transform="matrix(1.00, 0.00, -0.00, -1.00, 142.1, 139.0)">t</text><text xml:space="preserve" font-family="TrebuchetMS" font-size="16.0" fill="#FFFFFF" transform="matrix(1.00, 0.00, -0.00, -1.00, 148.5, 139.0)">a</text><text xml:space="preserve" font-family="TrebuchetMS" font-size="16.0" fill="#FFFFFF" transform="matrix(1.00, 0.00, -0.00, -1.00, 156.9, 139.0)">c</text><text xml:space="preserve" font-family="TrebuchetMS" font-size="16.0" fill="#FFFFFF" transform="matrix(1.00, 0.00, -0.00, -1.00, 164.8, 139.0)">k</text><text xml:space="preserve" font-family="TrebuchetMS" font-size="16.0" fill="#FFFFFF" transform="matrix(1.00, 0.00, -0.00, -1.00, 172.9, 139.0)"> </text><text xml:space="preserve" font-family="TrebuchetMS" font-size="16.0" fill="#FFFFFF" transform="matrix(1.00, 0.00, -0.00, -1.00, 177.7, 139.0)">a</text><text xml:space="preserve" font-family="TrebuchetMS" font-size="16.0" fill="#FFFFFF" transform="matrix(1.00, 0.00, -0.00, -1.00, 186.1, 139.0)">n</text><text xml:space="preserve" font-family="TrebuchetMS" font-size="16.0" fill="#FFFFFF" transform="matrix(1.00, 0.00, -0.00, -1.00, 194.9, 139.0)">d</text><text xml:space="preserve" font-family="TrebuchetMS" font-size="16.0" fill="#FFFFFF" transform="matrix(1.00, 0.00, -0.00, -1.00, 203.8, 139.0)"> </text><text xml:space="preserve" font-family="TrebuchetMS" font-size="16.0" fill="#FFFFFF" transform="matrix(1.00, 0.00, -0.00, -1.00, 12.0, 120.0)">a</text><text xml:space="preserve" font-family="TrebuchetMS" font-size="16.0" fill="#FFFFFF" transform="matrix(1.00, 0.00, -0.00, -1.00, 20.4, 120.0)"> </text><text xml:space="preserve" font-family="TrebuchetMS" font-size="16.0" fill="#FFFFFF" transform="matrix(1.00, 0.00, -0.00, -1.00, 25.2, 120.0)">h</text><text xml:space="preserve" font-family="TrebuchetMS" font-size="16.0" fill="#FFFFFF" transform="matrix(1.00, 0.00, -0.00, -1.00, 34.0, 120.0)">e</text><text xml:space="preserve" font-family="TrebuchetMS" font-size="16.0" fill="#FFFFFF" transform="matrix(1.00, 0.00, -0.00, -1.00, 42.7, 120.0)">a</text><text xml:space="preserve" font-family="TrebuchetMS" font-size="16.0" fill="#FFFFFF" transform="matrix(1.00, 0.00, -0.00, -1.00, 51.1, 120.0)">p</text><text xml:space="preserve" font-family="TrebuchetMS" font-size="16.0" fill="#FFFFFF" transform="matrix(1.00, 0.00, -0.00, -1.00, 60.1, 120.0)">.</text><text xml:space="preserve" font-family="TrebuchetMS" font-size="16.0" fill="#FFFFFF" transform="matrix(1.00, 0.00, -0.00, -1.00, 65.9, 120.0)"> </text><text xml:space="preserve" font-family="TrebuchetMS" font-size="16.0" fill="#FFFFFF" transform="matrix(1.00, 0.00, -0.00, -1.00, 12.0, 82.0)">W</text><text xml:space="preserve" font-family="TrebuchetMS" font-size="16.0" fill="#FFFFFF" transform="matrix(1.00, 0.00, -0.00, -1.00, 25.6, 82.0)">T</text><text xml:space="preserve" font-family="TrebuchetMS" font-size="16.0" fill="#FFFFFF" transform="matrix(1.00, 0.00, -0.00, -1.00, 34.9, 82.0)">F</text><text xml:space="preserve" font-family="TrebuchetMS" font-size="16.0" fill="#FFFFFF" transform="matrix(1.00, 0.00, -0.00, -1.00, 43.3, 82.0)"> </text><text xml:space="preserve" font-family="TrebuchetMS" font-size="16.0" fill="#FFFFFF" transform="matrix(1.00, 0.00, -0.00, -1.00, 48.1, 82.0)">o</text><text xml:space="preserve" font-family="TrebuchetMS" font-size="16.0" fill="#FFFFFF" transform="matrix(1.00, 0.00, -0.00, -1.00, 56.7, 82.0)">t</text><text xml:space="preserve" font-family="TrebuchetMS" font-size="16.0" fill="#FFFFFF" transform="matrix(1.00, 0.00, -0.00, -1.00, 63.1, 82.0)">h</text><text xml:space="preserve" font-family="TrebuchetMS" font-size="16.0" fill="#FFFFFF" transform="matrix(1.00, 0.00, -0.00, -1.00, 71.8, 82.0)">e</text><text xml:space="preserve" font-family="TrebuchetMS" font-size="16.0" fill="#FFFFFF" transform="matrix(1.00, 0.00, -0.00, -1.00, 80.6, 82.0)">r</text><text xml:space="preserve" font-family="TrebuchetMS" font-size="16.0" fill="#FFFFFF" transform="matrix(1.00, 0.00, -0.00, -1.00, 86.8, 82.0)"> </text><text xml:space="preserve" font-family="TrebuchetMS" font-size="16.0" fill="#FFFFFF" transform="matrix(1.00, 0.00, -0.00, -1.00, 91.6, 82.0)">t</text><text xml:space="preserve" font-family="TrebuchetMS" font-size="16.0" fill="#FFFFFF" transform="matrix(1.00, 0.00, -0.00, -1.00, 97.9, 82.0)">h</text><text xml:space="preserve" font-family="TrebuchetMS" font-size="16.0" fill="#FFFFFF" transform="matrix(1.00, 0.00, -0.00, -1.00, 106.7, 82.0)">i</text><text xml:space="preserve" font-family="TrebuchetMS" font-size="16.0" fill="#FFFFFF" transform="matrix(1.00, 0.00, -0.00, -1.00, 111.3, 82.0)">n</text><text xml:space="preserve" font-family="TrebuchetMS" font-size="16.0" fill="#FFFFFF" transform="matrix(1.00, 0.00, -0.00, -1.00, 120.0, 82.0)">g</text><text xml:space="preserve" font-family="TrebuchetMS" font-size="16.0" fill="#FFFFFF" transform="matrix(1.00, 0.00, -0.00, -1.00, 128.0, 82.0)">s</text><text xml:space="preserve" font-family="TrebuchetMS" font-size="16.0" fill="#FFFFFF" transform="matrix(1.00, 0.00, -0.00, -1.00, 134.5, 82.0)"> </text><text xml:space="preserve" font-family="TrebuchetMS" font-size="16.0" fill="#FFFFFF" transform="matrix(1.00, 0.00, -0.00, -1.00, 139.3, 82.0)">?</text></g></g></g></svg>