<?xml version="1.0" encoding="UTF-8" standalone="no"?><svg xmlns="http://www.w3.org/2000/svg" xmlns:xlink="http://www.w3.org/1999/xlink" clip-rule="evenodd" stroke-miterlimit="4.00" viewBox="0 0 89 51"><desc>SVG generated by Keynote</desc><defs></defs><g transform="matrix(1.00, 0.00, -0.00, -1.00, 0.0, 51.0)"><image xlink:href="168B9FEFAC2CFB9E102AFF241FEE0F6B.png" width="86.00" height="42.00" transform="matrix(1.00, 0.00, -0.00, -0.99, 1.2, 43.2)" opacity="0.35"></image><path d="M 0.0 0.0 L 77.3 0.0 L 77.3 32.6 L 0.0 32.6 Z M 0.0 0.0 " fill="none" stroke="#FFC193" stroke-width="1.00" transform="matrix(1.00, 0.00, 0.00, -1.00, 5.7, 41.7)"></path><g><clipPath id="clip-601"><path d="M 6.7 10.1 L 82.0 10.1 L 82.0 40.7 L 6.7 40.7 Z M 6.7 10.1 "></path></clipPath><g clip-path="url(#clip-601)"><text xml:space="preserve" font-family="TrebuchetMS" font-size="10.0" fill="#FFFFFF" transform="matrix(1.00, 0.00, -0.00, -1.00, 27.0, 22.0)">P</text><text xml:space="preserve" font-family="TrebuchetMS" font-size="10.0" fill="#FFFFFF" transform="matrix(1.00, 0.00, -0.00, -1.00, 32.1, 22.0)">r</text><text xml:space="preserve" font-family="TrebuchetMS" font-size="10.0" fill="#FFFFFF" transform="matrix(1.00, 0.00, -0.00, -1.00, 36.0, 22.0)">o</text><text xml:space="preserve" font-family="TrebuchetMS" font-size="10.0" fill="#FFFFFF" transform="matrix(1.00, 0.00, -0.00, -1.00, 41.4, 22.0)">m</text><text xml:space="preserve" font-family="TrebuchetMS" font-size="10.0" fill="#FFFFFF" transform="matrix(1.00, 0.00, -0.00, -1.00, 49.6, 22.0)">i</text><text xml:space="preserve" font-family="TrebuchetMS" font-size="10.0" fill="#FFFFFF" transform="matrix(1.00, 0.00, -0.00, -1.00, 52.5, 22.0)">s</text><text xml:space="preserve" font-family="TrebuchetMS" font-size="10.0" fill="#FFFFFF" transform="matrix(1.00, 0.00, -0.00, -1.00, 56.6, 22.0)">e</text></g></g></g></svg>