<?xml version="1.0" encoding="UTF-8" standalone="no"?><svg xmlns="http://www.w3.org/2000/svg" xmlns:xlink="http://www.w3.org/1999/xlink" clip-rule="evenodd" stroke-miterlimit="4.00" viewBox="0 0 89 50"><desc>SVG generated by Keynote</desc><defs></defs><g transform="matrix(1.00, 0.00, -0.00, -1.00, 0.0, 50.0)"><image xlink:href="9B4ADD0580352A3F6946EDD4297B57E2.png" width="86.00" height="42.00" transform="matrix(1.00, 0.00, -0.00, -0.99, 1.2, 42.8)" opacity="0.35"></image><path d="M 0.0 0.0 L 77.3 0.0 L 77.3 32.6 L 0.0 32.6 Z M 0.0 0.0 " fill="none" stroke="#FFC193" stroke-width="1.00" transform="matrix(1.00, 0.00, 0.00, -1.00, 5.7, 41.3)"></path><g><clipPath id="clip-591"><path d="M 6.5 9.7 L 82.2 9.7 L 82.2 40.3 L 6.5 40.3 Z M 6.5 9.7 "></path></clipPath><g clip-path="url(#clip-591)"><text xml:space="preserve" font-family="TrebuchetMS" font-size="13.0" fill="#FFFFFF" transform="matrix(1.00, 0.00, -0.00, -1.00, 12.0, 21.0)">l</text><text xml:space="preserve" font-family="TrebuchetMS" font-size="13.0" fill="#FFFFFF" transform="matrix(1.00, 0.00, -0.00, -1.00, 15.8, 21.0)">o</text><text xml:space="preserve" font-family="TrebuchetMS" font-size="13.0" fill="#FFFFFF" transform="matrix(1.00, 0.00, -0.00, -1.00, 22.8, 21.0)">g</text><text xml:space="preserve" font-family="TrebuchetMS" font-size="13.0" fill="#FFFFFF" transform="matrix(1.00, 0.00, -0.00, -1.00, 29.3, 21.0)">(</text><text xml:space="preserve" font-family="TrebuchetMS" font-size="13.0" fill="#FFFFFF" transform="matrix(1.00, 0.00, -0.00, -1.00, 34.1, 21.0)">‘</text><text xml:space="preserve" font-family="TrebuchetMS" font-size="13.0" fill="#FFFFFF" transform="matrix(1.00, 0.00, -0.00, -1.00, 38.9, 21.0)">s</text><text xml:space="preserve" font-family="TrebuchetMS" font-size="13.0" fill="#FFFFFF" transform="matrix(1.00, 0.00, -0.00, -1.00, 44.1, 21.0)">t</text><text xml:space="preserve" font-family="TrebuchetMS" font-size="13.0" fill="#FFFFFF" transform="matrix(1.00, 0.00, -0.00, -1.00, 49.3, 21.0)">a</text><text xml:space="preserve" font-family="TrebuchetMS" font-size="13.0" fill="#FFFFFF" transform="matrix(1.00, 0.00, -0.00, -1.00, 56.1, 21.0)">r</text><text xml:space="preserve" font-family="TrebuchetMS" font-size="13.0" fill="#FFFFFF" transform="matrix(1.00, 0.00, -0.00, -1.00, 61.2, 21.0)">t</text><text xml:space="preserve" font-family="TrebuchetMS" font-size="13.0" fill="#FFFFFF" transform="matrix(1.00, 0.00, -0.00, -1.00, 66.3, 21.0)">’</text><text xml:space="preserve" font-family="TrebuchetMS" font-size="13.0" fill="#FFFFFF" transform="matrix(1.00, 0.00, -0.00, -1.00, 71.1, 21.0)">)</text></g></g></g></svg>