<?xml version="1.0" encoding="UTF-8" standalone="no"?><svg xmlns="http://www.w3.org/2000/svg" xmlns:xlink="http://www.w3.org/1999/xlink" clip-rule="evenodd" stroke-miterlimit="4.00" viewBox="0 0 80 50"><desc>SVG generated by Keynote</desc><defs></defs><g transform="matrix(1.00, 0.00, -0.00, -1.00, 0.0, 50.0)"><image xlink:href="../../187059C9-35CC-48DC-8EA8-4F9A9AC41135/assets/D92778ED9898565FEEA13C421296445B.png" width="77.00" height="42.00" transform="matrix(1.00, 0.00, -0.00, -0.99, 1.7, 42.9)" opacity="0.35"></image><path d="M 0.0 0.0 L 68.2 0.0 L 68.2 32.6 L 0.0 32.6 Z M 0.0 0.0 " fill="none" stroke="#FFC193" stroke-width="1.00" transform="matrix(1.00, 0.00, 0.00, -1.00, 6.2, 41.4)"></path><g><clipPath id="clip-288"><path d="M 5.6 9.6 L 75.0 9.6 L 75.0 41.0 L 5.6 41.0 Z M 5.6 9.6 "></path></clipPath><g clip-path="url(#clip-288)"><text xml:space="preserve" font-family="TrebuchetMS" font-size="18.0" fill="#FFFFFF" transform="matrix(1.00, 0.00, -0.00, -1.00, 21.0, 19.0)">m</text><text xml:space="preserve" font-family="TrebuchetMS" font-size="18.0" fill="#FFFFFF" transform="matrix(1.00, 0.00, -0.00, -1.00, 35.9, 19.0)">a</text><text xml:space="preserve" font-family="TrebuchetMS" font-size="18.0" fill="#FFFFFF" transform="matrix(1.00, 0.00, -0.00, -1.00, 45.4, 19.0)">i</text><text xml:space="preserve" font-family="TrebuchetMS" font-size="18.0" fill="#FFFFFF" transform="matrix(1.00, 0.00, -0.00, -1.00, 50.5, 19.0)">n</text></g></g></g></svg>