<?xml version="1.0" encoding="UTF-8" standalone="no"?><svg xmlns="http://www.w3.org/2000/svg" xmlns:xlink="http://www.w3.org/1999/xlink" clip-rule="evenodd" stroke-miterlimit="4.00" viewBox="0 0 108 50"><desc>SVG generated by Keynote</desc><defs></defs><g transform="matrix(1.00, 0.00, -0.00, -1.00, 0.0, 50.0)"><image xlink:href="../../187059C9-35CC-48DC-8EA8-4F9A9AC41135/assets/1ECFB0DBC4EA83FFF4C92CF548C58E27.png" width="105.00" height="42.00" transform="matrix(1.00, 0.00, -0.00, -0.99, 1.9, 42.9)" opacity="0.35"></image><path d="M 0.0 0.0 L 96.1 0.0 L 96.1 32.6 L 0.0 32.6 Z M 0.0 0.0 " fill="none" stroke="#FFC193" stroke-width="1.00" transform="matrix(1.00, 0.00, 0.00, -1.00, 6.4, 41.4)"></path><g><clipPath id="clip-294"><path d="M 6.3 9.8 L 102.5 9.8 L 102.5 40.4 L 6.3 40.4 Z M 6.3 9.8 "></path></clipPath><g clip-path="url(#clip-294)"><text xml:space="preserve" font-family="TrebuchetMS" font-size="16.0" fill="#FFFFFF" transform="matrix(1.00, 0.00, -0.00, -1.00, 14.0, 19.0)">s</text><text xml:space="preserve" font-family="TrebuchetMS" font-size="16.0" fill="#FFFFFF" transform="matrix(1.00, 0.00, -0.00, -1.00, 20.5, 19.0)">e</text><text xml:space="preserve" font-family="TrebuchetMS" font-size="16.0" fill="#FFFFFF" transform="matrix(1.00, 0.00, -0.00, -1.00, 29.2, 19.0)">t</text><text xml:space="preserve" font-family="TrebuchetMS" font-size="16.0" fill="#FFFFFF" transform="matrix(1.00, 0.00, -0.00, -1.00, 35.6, 19.0)">T</text><text xml:space="preserve" font-family="TrebuchetMS" font-size="16.0" fill="#FFFFFF" transform="matrix(1.00, 0.00, -0.00, -1.00, 44.2, 19.0)">i</text><text xml:space="preserve" font-family="TrebuchetMS" font-size="16.0" fill="#FFFFFF" transform="matrix(1.00, 0.00, -0.00, -1.00, 48.7, 19.0)">m</text><text xml:space="preserve" font-family="TrebuchetMS" font-size="16.0" fill="#FFFFFF" transform="matrix(1.00, 0.00, -0.00, -1.00, 62.0, 19.0)">e</text><text xml:space="preserve" font-family="TrebuchetMS" font-size="16.0" fill="#FFFFFF" transform="matrix(1.00, 0.00, -0.00, -1.00, 70.8, 19.0)">o</text><text xml:space="preserve" font-family="TrebuchetMS" font-size="16.0" fill="#FFFFFF" transform="matrix(1.00, 0.00, -0.00, -1.00, 79.3, 19.0)">u</text><text xml:space="preserve" font-family="TrebuchetMS" font-size="16.0" fill="#FFFFFF" transform="matrix(1.00, 0.00, -0.00, -1.00, 88.1, 19.0)">t</text></g></g></g></svg>