<?xml version="1.0" encoding="UTF-8" standalone="no"?><svg xmlns="http://www.w3.org/2000/svg" xmlns:xlink="http://www.w3.org/1999/xlink" clip-rule="evenodd" stroke-miterlimit="4.00" viewBox="0 0 168 50"><desc>SVG generated by Keynote</desc><defs></defs><g transform="matrix(1.00, 0.00, -0.00, -1.00, 0.0, 50.0)"><image xlink:href="EED1985ACBD627107E5120C0810A05FA.png" width="165.00" height="42.00" transform="matrix(1.00, 0.00, -0.00, -0.99, 1.5, 42.9)" opacity="0.35"></image><path d="M 0.0 0.0 L 155.7 0.0 L 155.7 32.6 L 0.0 32.6 Z M 0.0 0.0 " fill="none" stroke="#FFC193" stroke-width="1.00" transform="matrix(1.00, 0.00, 0.00, -1.00, 6.0, 41.4)"></path><g><clipPath id="clip-925"><path d="M 5.9 9.8 L 161.7 9.8 L 161.7 40.4 L 5.9 40.4 Z M 5.9 9.8 "></path></clipPath><g clip-path="url(#clip-925)"><text xml:space="preserve" font-family="TrebuchetMS" font-size="16.0" fill="#FFFFFF" transform="matrix(1.00, 0.00, -0.00, -1.00, 11.0, 19.0)">s</text><text xml:space="preserve" font-family="TrebuchetMS" font-size="16.0" fill="#FFFFFF" transform="matrix(1.00, 0.00, -0.00, -1.00, 17.5, 19.0)">e</text><text xml:space="preserve" font-family="TrebuchetMS" font-size="16.0" fill="#FFFFFF" transform="matrix(1.00, 0.00, -0.00, -1.00, 26.2, 19.0)">t</text><text xml:space="preserve" font-family="TrebuchetMS" font-size="16.0" fill="#FFFFFF" transform="matrix(1.00, 0.00, -0.00, -1.00, 32.6, 19.0)">T</text><text xml:space="preserve" font-family="TrebuchetMS" font-size="16.0" fill="#FFFFFF" transform="matrix(1.00, 0.00, -0.00, -1.00, 41.2, 19.0)">i</text><text xml:space="preserve" font-family="TrebuchetMS" font-size="16.0" fill="#FFFFFF" transform="matrix(1.00, 0.00, -0.00, -1.00, 45.7, 19.0)">m</text><text xml:space="preserve" font-family="TrebuchetMS" font-size="16.0" fill="#FFFFFF" transform="matrix(1.00, 0.00, -0.00, -1.00, 59.0, 19.0)">e</text><text xml:space="preserve" font-family="TrebuchetMS" font-size="16.0" fill="#FFFFFF" transform="matrix(1.00, 0.00, -0.00, -1.00, 67.8, 19.0)">o</text><text xml:space="preserve" font-family="TrebuchetMS" font-size="16.0" fill="#FFFFFF" transform="matrix(1.00, 0.00, -0.00, -1.00, 76.3, 19.0)">u</text><text xml:space="preserve" font-family="TrebuchetMS" font-size="16.0" fill="#FFFFFF" transform="matrix(1.00, 0.00, -0.00, -1.00, 85.1, 19.0)">t</text><text xml:space="preserve" font-family="TrebuchetMS" font-size="16.0" fill="#FFFFFF" transform="matrix(1.00, 0.00, -0.00, -1.00, 91.5, 19.0)"> </text><text xml:space="preserve" font-family="TrebuchetMS" font-size="16.0" fill="#FFFFFF" transform="matrix(1.00, 0.00, -0.00, -1.00, 96.3, 19.0)">C</text><text xml:space="preserve" font-family="TrebuchetMS" font-size="16.0" fill="#FFFFFF" transform="matrix(1.00, 0.00, -0.00, -1.00, 105.9, 19.0)">a</text><text xml:space="preserve" font-family="TrebuchetMS" font-size="16.0" fill="#FFFFFF" transform="matrix(1.00, 0.00, -0.00, -1.00, 114.3, 19.0)">l</text><text xml:space="preserve" font-family="TrebuchetMS" font-size="16.0" fill="#FFFFFF" transform="matrix(1.00, 0.00, -0.00, -1.00, 119.0, 19.0)">l</text><text xml:space="preserve" font-family="TrebuchetMS" font-size="16.0" fill="#FFFFFF" transform="matrix(1.00, 0.00, -0.00, -1.00, 123.7, 19.0)">b</text><text xml:space="preserve" font-family="TrebuchetMS" font-size="16.0" fill="#FFFFFF" transform="matrix(1.00, 0.00, -0.00, -1.00, 132.6, 19.0)">a</text><text xml:space="preserve" font-family="TrebuchetMS" font-size="16.0" fill="#FFFFFF" transform="matrix(1.00, 0.00, -0.00, -1.00, 141.0, 19.0)">c</text><text xml:space="preserve" font-family="TrebuchetMS" font-size="16.0" fill="#FFFFFF" transform="matrix(1.00, 0.00, -0.00, -1.00, 149.0, 19.0)">k</text></g></g></g></svg>