<?xml version="1.0" encoding="UTF-8" standalone="no"?><svg xmlns="http://www.w3.org/2000/svg" xmlns:xlink="http://www.w3.org/1999/xlink" clip-rule="evenodd" stroke-miterlimit="4.00" viewBox="0 0 89 50"><desc>SVG generated by Keynote</desc><defs></defs><g transform="matrix(1.00, 0.00, -0.00, -1.00, 0.0, 50.0)"><image xlink:href="D92F32AFD191AFF1AA44C9A0B3B61D4B.png" width="86.00" height="42.00" transform="matrix(1.00, 0.00, -0.00, -0.99, 1.2, 42.8)" opacity="0.35"></image><path d="M 0.0 0.0 L 77.3 0.0 L 77.3 32.6 L 0.0 32.6 Z M 0.0 0.0 " fill="none" stroke="#FFC193" stroke-width="1.00" transform="matrix(1.00, 0.00, 0.00, -1.00, 5.7, 41.3)"></path><g><clipPath id="clip-598"><path d="M 6.7 9.7 L 82.0 9.7 L 82.0 40.3 L 6.7 40.3 Z M 6.7 9.7 "></path></clipPath><g clip-path="url(#clip-598)"><text xml:space="preserve" font-family="TrebuchetMS" font-size="10.0" fill="#FFFFFF" transform="matrix(1.00, 0.00, -0.00, -1.00, 10.0, 22.0)">l</text><text xml:space="preserve" font-family="TrebuchetMS" font-size="10.0" fill="#FFFFFF" transform="matrix(1.00, 0.00, -0.00, -1.00, 12.9, 22.0)">o</text><text xml:space="preserve" font-family="TrebuchetMS" font-size="10.0" fill="#FFFFFF" transform="matrix(1.00, 0.00, -0.00, -1.00, 18.2, 22.0)">g</text><text xml:space="preserve" font-family="TrebuchetMS" font-size="10.0" fill="#FFFFFF" transform="matrix(1.00, 0.00, -0.00, -1.00, 23.2, 22.0)">(</text><text xml:space="preserve" font-family="TrebuchetMS" font-size="10.0" fill="#FFFFFF" transform="matrix(1.00, 0.00, -0.00, -1.00, 26.8, 22.0)">‘</text><text xml:space="preserve" font-family="TrebuchetMS" font-size="10.0" fill="#FFFFFF" transform="matrix(1.00, 0.00, -0.00, -1.00, 30.5, 22.0)">p</text><text xml:space="preserve" font-family="TrebuchetMS" font-size="10.0" fill="#FFFFFF" transform="matrix(1.00, 0.00, -0.00, -1.00, 36.0, 22.0)">r</text><text xml:space="preserve" font-family="TrebuchetMS" font-size="10.0" fill="#FFFFFF" transform="matrix(1.00, 0.00, -0.00, -1.00, 39.8, 22.0)">o</text><text xml:space="preserve" font-family="TrebuchetMS" font-size="10.0" fill="#FFFFFF" transform="matrix(1.00, 0.00, -0.00, -1.00, 45.2, 22.0)">m</text><text xml:space="preserve" font-family="TrebuchetMS" font-size="10.0" fill="#FFFFFF" transform="matrix(1.00, 0.00, -0.00, -1.00, 53.4, 22.0)">i</text><text xml:space="preserve" font-family="TrebuchetMS" font-size="10.0" fill="#FFFFFF" transform="matrix(1.00, 0.00, -0.00, -1.00, 56.2, 22.0)">s</text><text xml:space="preserve" font-family="TrebuchetMS" font-size="10.0" fill="#FFFFFF" transform="matrix(1.00, 0.00, -0.00, -1.00, 60.2, 22.0)">e</text><text xml:space="preserve" font-family="TrebuchetMS" font-size="10.0" fill="#FFFFFF" transform="matrix(1.00, 0.00, -0.00, -1.00, 65.6, 22.0)">2</text><text xml:space="preserve" font-family="TrebuchetMS" font-size="10.0" fill="#FFFFFF" transform="matrix(1.00, 0.00, -0.00, -1.00, 70.8, 22.0)">’</text><text xml:space="preserve" font-family="TrebuchetMS" font-size="10.0" fill="#FFFFFF" transform="matrix(1.00, 0.00, -0.00, -1.00, 74.5, 22.0)">)</text></g></g></g></svg>