<?xml version="1.0" encoding="UTF-8" standalone="no"?><svg xmlns="http://www.w3.org/2000/svg" xmlns:xlink="http://www.w3.org/1999/xlink" clip-rule="evenodd" stroke-miterlimit="4.00" viewBox="0 0 245 315"><desc>SVG generated by Keynote</desc><defs></defs><g transform="matrix(1.00, 0.00, -0.00, -1.00, 0.0, 315.0)"><text xml:space="preserve" font-family="TrebuchetMS" font-size="18.0" fill="#FEFFFF" transform="matrix(1.00, 0.00, -0.00, -1.00, 2.0, 300.0)">c</text><text xml:space="preserve" font-family="TrebuchetMS" font-size="18.0" fill="#FEFFFF" transform="matrix(1.00, 0.00, -0.00, -1.00, 10.9, 300.0)">o</text><text xml:space="preserve" font-family="TrebuchetMS" font-size="18.0" fill="#FEFFFF" transform="matrix(1.00, 0.00, -0.00, -1.00, 20.6, 300.0)">n</text><text xml:space="preserve" font-family="TrebuchetMS" font-size="18.0" fill="#FEFFFF" transform="matrix(1.00, 0.00, -0.00, -1.00, 30.4, 300.0)">s</text><text xml:space="preserve" font-family="TrebuchetMS" font-size="18.0" fill="#FEFFFF" transform="matrix(1.00, 0.00, -0.00, -1.00, 37.7, 300.0)">o</text><text xml:space="preserve" font-family="TrebuchetMS" font-size="18.0" fill="#FEFFFF" transform="matrix(1.00, 0.00, -0.00, -1.00, 47.3, 300.0)">l</text><text xml:space="preserve" font-family="TrebuchetMS" font-size="18.0" fill="#FEFFFF" transform="matrix(1.00, 0.00, -0.00, -1.00, 52.6, 300.0)">e</text><text xml:space="preserve" font-family="TrebuchetMS" font-size="18.0" fill="#FEFFFF" transform="matrix(1.00, 0.00, -0.00, -1.00, 62.5, 300.0)">.</text><text xml:space="preserve" font-family="TrebuchetMS" font-size="18.0" fill="#FEFFFF" transform="matrix(1.00, 0.00, -0.00, -1.00, 69.1, 300.0)">l</text><text xml:space="preserve" font-family="TrebuchetMS" font-size="18.0" fill="#FEFFFF" transform="matrix(1.00, 0.00, -0.00, -1.00, 74.4, 300.0)">o</text><text xml:space="preserve" font-family="TrebuchetMS" font-size="18.0" fill="#FEFFFF" transform="matrix(1.00, 0.00, -0.00, -1.00, 84.0, 300.0)">g</text><text xml:space="preserve" font-family="TrebuchetMS" font-size="18.0" fill="#FEFFFF" transform="matrix(1.00, 0.00, -0.00, -1.00, 93.1, 300.0)">(</text><text xml:space="preserve" font-family="TrebuchetMS" font-size="18.0" fill="#FEFFFF" transform="matrix(1.00, 0.00, -0.00, -1.00, 99.7, 300.0)">‘</text><text xml:space="preserve" font-family="TrebuchetMS" font-size="18.0" fill="#FEFFFF" transform="matrix(1.00, 0.00, -0.00, -1.00, 106.3, 300.0)">s</text><text xml:space="preserve" font-family="TrebuchetMS" font-size="18.0" fill="#FEFFFF" transform="matrix(1.00, 0.00, -0.00, -1.00, 113.6, 300.0)">c</text><text xml:space="preserve" font-family="TrebuchetMS" font-size="18.0" fill="#FEFFFF" transform="matrix(1.00, 0.00, -0.00, -1.00, 122.5, 300.0)">r</text><text xml:space="preserve" font-family="TrebuchetMS" font-size="18.0" fill="#FEFFFF" transform="matrix(1.00, 0.00, -0.00, -1.00, 129.5, 300.0)">i</text><text xml:space="preserve" font-family="TrebuchetMS" font-size="18.0" fill="#FEFFFF" transform="matrix(1.00, 0.00, -0.00, -1.00, 134.6, 300.0)">p</text><text xml:space="preserve" font-family="TrebuchetMS" font-size="18.0" fill="#FEFFFF" transform="matrix(1.00, 0.00, -0.00, -1.00, 144.7, 300.0)">t</text><text xml:space="preserve" font-family="TrebuchetMS" font-size="18.0" fill="#FEFFFF" transform="matrix(1.00, 0.00, -0.00, -1.00, 151.8, 300.0)"> </text><text xml:space="preserve" font-family="TrebuchetMS" font-size="18.0" fill="#FEFFFF" transform="matrix(1.00, 0.00, -0.00, -1.00, 157.2, 300.0)">s</text><text xml:space="preserve" font-family="TrebuchetMS" font-size="18.0" fill="#FEFFFF" transform="matrix(1.00, 0.00, -0.00, -1.00, 164.5, 300.0)">t</text><text xml:space="preserve" font-family="TrebuchetMS" font-size="18.0" fill="#FEFFFF" transform="matrix(1.00, 0.00, -0.00, -1.00, 171.7, 300.0)">a</text><text xml:space="preserve" font-family="TrebuchetMS" font-size="18.0" fill="#FEFFFF" transform="matrix(1.00, 0.00, -0.00, -1.00, 181.1, 300.0)">r</text><text xml:space="preserve" font-family="TrebuchetMS" font-size="18.0" fill="#FEFFFF" transform="matrix(1.00, 0.00, -0.00, -1.00, 188.1, 300.0)">t</text><text xml:space="preserve" font-family="TrebuchetMS" font-size="18.0" fill="#FEFFFF" transform="matrix(1.00, 0.00, -0.00, -1.00, 195.3, 300.0)">’</text><text xml:space="preserve" font-family="TrebuchetMS" font-size="18.0" fill="#FEFFFF" transform="matrix(1.00, 0.00, -0.00, -1.00, 201.9, 300.0)">)</text><text xml:space="preserve" font-family="TrebuchetMS" font-size="18.0" fill="#FEFFFF" transform="matrix(1.00, 0.00, -0.00, -1.00, 208.5, 300.0)">;</text><text xml:space="preserve" font-family="TrebuchetMS" font-size="18.0" fill="#FEFFFF" transform="matrix(1.00, 0.00, -0.00, -1.00, 215.1, 300.0)"> </text><text xml:space="preserve" font-family="TrebuchetMS" font-size="18.0" fill="#FEFFFF" transform="matrix(1.00, 0.00, -0.00, -1.00, 2.0, 258.0)">s</text><text xml:space="preserve" font-family="TrebuchetMS" font-size="18.0" fill="#FEFFFF" transform="matrix(1.00, 0.00, -0.00, -1.00, 9.3, 258.0)">e</text><text xml:space="preserve" font-family="TrebuchetMS" font-size="18.0" fill="#FEFFFF" transform="matrix(1.00, 0.00, -0.00, -1.00, 19.1, 258.0)">t</text><text xml:space="preserve" font-family="TrebuchetMS" font-size="18.0" fill="#FEFFFF" transform="matrix(1.00, 0.00, -0.00, -1.00, 26.3, 258.0)">T</text><text xml:space="preserve" font-family="TrebuchetMS" font-size="18.0" fill="#FEFFFF" transform="matrix(1.00, 0.00, -0.00, -1.00, 36.0, 258.0)">i</text><text xml:space="preserve" font-family="TrebuchetMS" font-size="18.0" fill="#FEFFFF" transform="matrix(1.00, 0.00, -0.00, -1.00, 41.1, 258.0)">m</text><text xml:space="preserve" font-family="TrebuchetMS" font-size="18.0" fill="#FEFFFF" transform="matrix(1.00, 0.00, -0.00, -1.00, 56.0, 258.0)">e</text><text xml:space="preserve" font-family="TrebuchetMS" font-size="18.0" fill="#FEFFFF" transform="matrix(1.00, 0.00, -0.00, -1.00, 65.9, 258.0)">o</text><text xml:space="preserve" font-family="TrebuchetMS" font-size="18.0" fill="#FEFFFF" transform="matrix(1.00, 0.00, -0.00, -1.00, 75.5, 258.0)">u</text><text xml:space="preserve" font-family="TrebuchetMS" font-size="18.0" fill="#FEFFFF" transform="matrix(1.00, 0.00, -0.00, -1.00, 85.4, 258.0)">t</text><text xml:space="preserve" font-family="TrebuchetMS" font-size="18.0" fill="#FEFFFF" transform="matrix(1.00, 0.00, -0.00, -1.00, 92.5, 258.0)">(</text><text xml:space="preserve" font-family="TrebuchetMS" font-size="18.0" fill="#FEFFFF" transform="matrix(1.00, 0.00, -0.00, -1.00, 99.1, 258.0)">f</text><text xml:space="preserve" font-family="TrebuchetMS" font-size="18.0" fill="#FEFFFF" transform="matrix(1.00, 0.00, -0.00, -1.00, 105.8, 258.0)">u</text><text xml:space="preserve" font-family="TrebuchetMS" font-size="18.0" fill="#FEFFFF" transform="matrix(1.00, 0.00, -0.00, -1.00, 115.6, 258.0)">n</text><text xml:space="preserve" font-family="TrebuchetMS" font-size="18.0" fill="#FEFFFF" transform="matrix(1.00, 0.00, -0.00, -1.00, 125.5, 258.0)">c</text><text xml:space="preserve" font-family="TrebuchetMS" font-size="18.0" fill="#FEFFFF" transform="matrix(1.00, 0.00, -0.00, -1.00, 134.4, 258.0)">t</text><text xml:space="preserve" font-family="TrebuchetMS" font-size="18.0" fill="#FEFFFF" transform="matrix(1.00, 0.00, -0.00, -1.00, 141.5, 258.0)">i</text><text xml:space="preserve" font-family="TrebuchetMS" font-size="18.0" fill="#FEFFFF" transform="matrix(1.00, 0.00, -0.00, -1.00, 146.7, 258.0)">o</text><text xml:space="preserve" font-family="TrebuchetMS" font-size="18.0" fill="#FEFFFF" transform="matrix(1.00, 0.00, -0.00, -1.00, 156.3, 258.0)">n</text><text xml:space="preserve" font-family="TrebuchetMS" font-size="18.0" fill="#FEFFFF" transform="matrix(1.00, 0.00, -0.00, -1.00, 166.2, 258.0)">(</text><text xml:space="preserve" font-family="TrebuchetMS" font-size="18.0" fill="#FEFFFF" transform="matrix(1.00, 0.00, -0.00, -1.00, 172.8, 258.0)">)</text><text xml:space="preserve" font-family="TrebuchetMS" font-size="18.0" fill="#FEFFFF" transform="matrix(1.00, 0.00, -0.00, -1.00, 179.4, 258.0)"> </text><text xml:space="preserve" font-family="TrebuchetMS" font-size="18.0" fill="#FEFFFF" transform="matrix(1.00, 0.00, -0.00, -1.00, 184.8, 258.0)">{</text><text xml:space="preserve" font-family="TrebuchetMS" font-size="18.0" fill="#FEFFFF" transform="matrix(1.00, 0.00, -0.00, -1.00, 191.4, 258.0)"> </text><text xml:space="preserve" font-family="TrebuchetMS" font-size="18.0" fill="#FEFFFF" transform="matrix(1.00, 0.00, -0.00, -1.00, 2.0, 237.0)"> </text><text xml:space="preserve" font-family="TrebuchetMS" font-size="18.0" fill="#FEFFFF" transform="matrix(1.00, 0.00, -0.00, -1.00, 7.4, 237.0)"> </text><text xml:space="preserve" font-family="TrebuchetMS" font-size="18.0" fill="#FEFFFF" transform="matrix(1.00, 0.00, -0.00, -1.00, 12.9, 237.0)">c</text><text xml:space="preserve" font-family="TrebuchetMS" font-size="18.0" fill="#FEFFFF" transform="matrix(1.00, 0.00, -0.00, -1.00, 21.8, 237.0)">o</text><text xml:space="preserve" font-family="TrebuchetMS" font-size="18.0" fill="#FEFFFF" transform="matrix(1.00, 0.00, -0.00, -1.00, 31.4, 237.0)">n</text><text xml:space="preserve" font-family="TrebuchetMS" font-size="18.0" fill="#FEFFFF" transform="matrix(1.00, 0.00, -0.00, -1.00, 41.3, 237.0)">s</text><text xml:space="preserve" font-family="TrebuchetMS" font-size="18.0" fill="#FEFFFF" transform="matrix(1.00, 0.00, -0.00, -1.00, 48.5, 237.0)">o</text><text xml:space="preserve" font-family="TrebuchetMS" font-size="18.0" fill="#FEFFFF" transform="matrix(1.00, 0.00, -0.00, -1.00, 58.2, 237.0)">l</text><text xml:space="preserve" font-family="TrebuchetMS" font-size="18.0" fill="#FEFFFF" transform="matrix(1.00, 0.00, -0.00, -1.00, 63.5, 237.0)">e</text><text xml:space="preserve" font-family="TrebuchetMS" font-size="18.0" fill="#FEFFFF" transform="matrix(1.00, 0.00, -0.00, -1.00, 73.3, 237.0)">.</text><text xml:space="preserve" font-family="TrebuchetMS" font-size="18.0" fill="#FEFFFF" transform="matrix(1.00, 0.00, -0.00, -1.00, 79.9, 237.0)">l</text><text xml:space="preserve" font-family="TrebuchetMS" font-size="18.0" fill="#FEFFFF" transform="matrix(1.00, 0.00, -0.00, -1.00, 85.3, 237.0)">o</text><text xml:space="preserve" font-family="TrebuchetMS" font-size="18.0" fill="#FEFFFF" transform="matrix(1.00, 0.00, -0.00, -1.00, 94.9, 237.0)">g</text><text xml:space="preserve" font-family="TrebuchetMS" font-size="18.0" fill="#FEFFFF" transform="matrix(1.00, 0.00, -0.00, -1.00, 103.9, 237.0)">(</text><text xml:space="preserve" font-family="TrebuchetMS" font-size="18.0" fill="#FEFFFF" transform="matrix(1.00, 0.00, -0.00, -1.00, 110.6, 237.0)">‘</text><text xml:space="preserve" font-family="TrebuchetMS" font-size="18.0" fill="#FEFFFF" transform="matrix(1.00, 0.00, -0.00, -1.00, 117.2, 237.0)">s</text><text xml:space="preserve" font-family="TrebuchetMS" font-size="18.0" fill="#FEFFFF" transform="matrix(1.00, 0.00, -0.00, -1.00, 124.4, 237.0)">e</text><text xml:space="preserve" font-family="TrebuchetMS" font-size="18.0" fill="#FEFFFF" transform="matrix(1.00, 0.00, -0.00, -1.00, 134.3, 237.0)">t</text><text xml:space="preserve" font-family="TrebuchetMS" font-size="18.0" fill="#FEFFFF" transform="matrix(1.00, 0.00, -0.00, -1.00, 141.4, 237.0)">T</text><text xml:space="preserve" font-family="TrebuchetMS" font-size="18.0" fill="#FEFFFF" transform="matrix(1.00, 0.00, -0.00, -1.00, 151.1, 237.0)">i</text><text xml:space="preserve" font-family="TrebuchetMS" font-size="18.0" fill="#FEFFFF" transform="matrix(1.00, 0.00, -0.00, -1.00, 156.2, 237.0)">m</text><text xml:space="preserve" font-family="TrebuchetMS" font-size="18.0" fill="#FEFFFF" transform="matrix(1.00, 0.00, -0.00, -1.00, 171.2, 237.0)">e</text><text xml:space="preserve" font-family="TrebuchetMS" font-size="18.0" fill="#FEFFFF" transform="matrix(1.00, 0.00, -0.00, -1.00, 181.0, 237.0)">o</text><text xml:space="preserve" font-family="TrebuchetMS" font-size="18.0" fill="#FEFFFF" transform="matrix(1.00, 0.00, -0.00, -1.00, 190.7, 237.0)">u</text><text xml:space="preserve" font-family="TrebuchetMS" font-size="18.0" fill="#FEFFFF" transform="matrix(1.00, 0.00, -0.00, -1.00, 200.5, 237.0)">t</text><text xml:space="preserve" font-family="TrebuchetMS" font-size="18.0" fill="#FEFFFF" transform="matrix(1.00, 0.00, -0.00, -1.00, 207.7, 237.0)">’</text><text xml:space="preserve" font-family="TrebuchetMS" font-size="18.0" fill="#FEFFFF" transform="matrix(1.00, 0.00, -0.00, -1.00, 214.2, 237.0)">)</text><text xml:space="preserve" font-family="TrebuchetMS" font-size="18.0" fill="#FEFFFF" transform="matrix(1.00, 0.00, -0.00, -1.00, 220.8, 237.0)">;</text><text xml:space="preserve" font-family="TrebuchetMS" font-size="18.0" fill="#FEFFFF" transform="matrix(1.00, 0.00, -0.00, -1.00, 227.5, 237.0)"> </text><text xml:space="preserve" font-family="TrebuchetMS" font-size="18.0" fill="#FEFFFF" transform="matrix(1.00, 0.00, -0.00, -1.00, 2.0, 216.0)">}</text><text xml:space="preserve" font-family="TrebuchetMS" font-size="18.0" fill="#FEFFFF" transform="matrix(1.00, 0.00, -0.00, -1.00, 8.6, 216.0)">,</text><text xml:space="preserve" font-family="TrebuchetMS" font-size="18.0" fill="#FEFFFF" transform="matrix(1.00, 0.00, -0.00, -1.00, 15.2, 216.0)"> </text><text xml:space="preserve" font-family="TrebuchetMS" font-size="18.0" fill="#FEFFFF" transform="matrix(1.00, 0.00, -0.00, -1.00, 20.7, 216.0)">0</text><text xml:space="preserve" font-family="TrebuchetMS" font-size="18.0" fill="#FEFFFF" transform="matrix(1.00, 0.00, -0.00, -1.00, 30.1, 216.0)">)</text><text xml:space="preserve" font-family="TrebuchetMS" font-size="18.0" fill="#FEFFFF" transform="matrix(1.00, 0.00, -0.00, -1.00, 36.7, 216.0)">;</text><text xml:space="preserve" font-family="TrebuchetMS" font-size="18.0" fill="#FEFFFF" transform="matrix(1.00, 0.00, -0.00, -1.00, 43.3, 216.0)"> </text><text xml:space="preserve" font-family="TrebuchetMS" font-size="18.0" fill="#FEFFFF" transform="matrix(1.00, 0.00, -0.00, -1.00, 2.0, 174.0)">P</text><text xml:space="preserve" font-family="TrebuchetMS" font-size="18.0" fill="#FEFFFF" transform="matrix(1.00, 0.00, -0.00, -1.00, 11.2, 174.0)">r</text><text xml:space="preserve" font-family="TrebuchetMS" font-size="18.0" fill="#FEFFFF" transform="matrix(1.00, 0.00, -0.00, -1.00, 18.2, 174.0)">o</text><text xml:space="preserve" font-family="TrebuchetMS" font-size="18.0" fill="#FEFFFF" transform="matrix(1.00, 0.00, -0.00, -1.00, 27.8, 174.0)">m</text><text xml:space="preserve" font-family="TrebuchetMS" font-size="18.0" fill="#FEFFFF" transform="matrix(1.00, 0.00, -0.00, -1.00, 42.8, 174.0)">i</text><text xml:space="preserve" font-family="TrebuchetMS" font-size="18.0" fill="#FEFFFF" transform="matrix(1.00, 0.00, -0.00, -1.00, 47.9, 174.0)">s</text><text xml:space="preserve" font-family="TrebuchetMS" font-size="18.0" fill="#FEFFFF" transform="matrix(1.00, 0.00, -0.00, -1.00, 55.2, 174.0)">e</text><text xml:space="preserve" font-family="TrebuchetMS" font-size="18.0" fill="#FEFFFF" transform="matrix(1.00, 0.00, -0.00, -1.00, 65.0, 174.0)">.</text><text xml:space="preserve" font-family="TrebuchetMS" font-size="18.0" fill="#FEFFFF" transform="matrix(1.00, 0.00, -0.00, -1.00, 71.6, 174.0)">r</text><text xml:space="preserve" font-family="TrebuchetMS" font-size="18.0" fill="#FEFFFF" transform="matrix(1.00, 0.00, -0.00, -1.00, 78.6, 174.0)">e</text><text xml:space="preserve" font-family="TrebuchetMS" font-size="18.0" fill="#FEFFFF" transform="matrix(1.00, 0.00, -0.00, -1.00, 88.5, 174.0)">s</text><text xml:space="preserve" font-family="TrebuchetMS" font-size="18.0" fill="#FEFFFF" transform="matrix(1.00, 0.00, -0.00, -1.00, 95.7, 174.0)">o</text><text xml:space="preserve" font-family="TrebuchetMS" font-size="18.0" fill="#FEFFFF" transform="matrix(1.00, 0.00, -0.00, -1.00, 105.4, 174.0)">l</text><text xml:space="preserve" font-family="TrebuchetMS" font-size="18.0" fill="#FEFFFF" transform="matrix(1.00, 0.00, -0.00, -1.00, 110.7, 174.0)">v</text><text xml:space="preserve" font-family="TrebuchetMS" font-size="18.0" fill="#FEFFFF" transform="matrix(1.00, 0.00, -0.00, -1.00, 119.5, 174.0)">e</text><text xml:space="preserve" font-family="TrebuchetMS" font-size="18.0" fill="#FEFFFF" transform="matrix(1.00, 0.00, -0.00, -1.00, 129.3, 174.0)">(</text><text xml:space="preserve" font-family="TrebuchetMS" font-size="18.0" fill="#FEFFFF" transform="matrix(1.00, 0.00, -0.00, -1.00, 136.0, 174.0)">)</text><text xml:space="preserve" font-family="TrebuchetMS" font-size="18.0" fill="#FEFFFF" transform="matrix(1.00, 0.00, -0.00, -1.00, 142.6, 174.0)"> </text><text xml:space="preserve" font-family="TrebuchetMS" font-size="18.0" fill="#FEFFFF" transform="matrix(1.00, 0.00, -0.00, -1.00, 2.0, 153.0)"> </text><text xml:space="preserve" font-family="TrebuchetMS" font-size="18.0" fill="#FEFFFF" transform="matrix(1.00, 0.00, -0.00, -1.00, 7.4, 153.0)"> </text><text xml:space="preserve" font-family="TrebuchetMS" font-size="18.0" fill="#FEFFFF" transform="matrix(1.00, 0.00, -0.00, -1.00, 12.9, 153.0)"> </text><text xml:space="preserve" font-family="TrebuchetMS" font-size="18.0" fill="#FEFFFF" transform="matrix(1.00, 0.00, -0.00, -1.00, 18.3, 153.0)"> </text><text xml:space="preserve" font-family="TrebuchetMS" font-size="18.0" fill="#FEFFFF" transform="matrix(1.00, 0.00, -0.00, -1.00, 23.7, 153.0)">.</text><text xml:space="preserve" font-family="TrebuchetMS" font-size="18.0" fill="#FEFFFF" transform="matrix(1.00, 0.00, -0.00, -1.00, 30.3, 153.0)">t</text><text xml:space="preserve" font-family="TrebuchetMS" font-size="18.0" fill="#FEFFFF" transform="matrix(1.00, 0.00, -0.00, -1.00, 37.4, 153.0)">h</text><text xml:space="preserve" font-family="TrebuchetMS" font-size="18.0" fill="#FEFFFF" transform="matrix(1.00, 0.00, -0.00, -1.00, 47.3, 153.0)">e</text><text xml:space="preserve" font-family="TrebuchetMS" font-size="18.0" fill="#FEFFFF" transform="matrix(1.00, 0.00, -0.00, -1.00, 57.1, 153.0)">n</text><text xml:space="preserve" font-family="TrebuchetMS" font-size="18.0" fill="#FEFFFF" transform="matrix(1.00, 0.00, -0.00, -1.00, 66.9, 153.0)">(</text><text xml:space="preserve" font-family="TrebuchetMS" font-size="18.0" fill="#FEFFFF" transform="matrix(1.00, 0.00, -0.00, -1.00, 73.6, 153.0)">f</text><text xml:space="preserve" font-family="TrebuchetMS" font-size="18.0" fill="#FEFFFF" transform="matrix(1.00, 0.00, -0.00, -1.00, 80.2, 153.0)">u</text><text xml:space="preserve" font-family="TrebuchetMS" font-size="18.0" fill="#FEFFFF" transform="matrix(1.00, 0.00, -0.00, -1.00, 90.0, 153.0)">n</text><text xml:space="preserve" font-family="TrebuchetMS" font-size="18.0" fill="#FEFFFF" transform="matrix(1.00, 0.00, -0.00, -1.00, 99.9, 153.0)">c</text><text xml:space="preserve" font-family="TrebuchetMS" font-size="18.0" fill="#FEFFFF" transform="matrix(1.00, 0.00, -0.00, -1.00, 108.8, 153.0)">t</text><text xml:space="preserve" font-family="TrebuchetMS" font-size="18.0" fill="#FEFFFF" transform="matrix(1.00, 0.00, -0.00, -1.00, 115.9, 153.0)">i</text><text xml:space="preserve" font-family="TrebuchetMS" font-size="18.0" fill="#FEFFFF" transform="matrix(1.00, 0.00, -0.00, -1.00, 121.1, 153.0)">o</text><text xml:space="preserve" font-family="TrebuchetMS" font-size="18.0" fill="#FEFFFF" transform="matrix(1.00, 0.00, -0.00, -1.00, 130.7, 153.0)">n</text><text xml:space="preserve" font-family="TrebuchetMS" font-size="18.0" fill="#FEFFFF" transform="matrix(1.00, 0.00, -0.00, -1.00, 140.5, 153.0)">(</text><text xml:space="preserve" font-family="TrebuchetMS" font-size="18.0" fill="#FEFFFF" transform="matrix(1.00, 0.00, -0.00, -1.00, 147.2, 153.0)">)</text><text xml:space="preserve" font-family="TrebuchetMS" font-size="18.0" fill="#FEFFFF" transform="matrix(1.00, 0.00, -0.00, -1.00, 153.8, 153.0)"> </text><text xml:space="preserve" font-family="TrebuchetMS" font-size="18.0" fill="#FEFFFF" transform="matrix(1.00, 0.00, -0.00, -1.00, 159.2, 153.0)">{</text><text xml:space="preserve" font-family="TrebuchetMS" font-size="18.0" fill="#FEFFFF" transform="matrix(1.00, 0.00, -0.00, -1.00, 165.8, 153.0)"> </text><text xml:space="preserve" font-family="TrebuchetMS" font-size="18.0" fill="#FEFFFF" transform="matrix(1.00, 0.00, -0.00, -1.00, 2.0, 132.0)"> </text><text xml:space="preserve" font-family="TrebuchetMS" font-size="18.0" fill="#FEFFFF" transform="matrix(1.00, 0.00, -0.00, -1.00, 7.4, 132.0)"> </text><text xml:space="preserve" font-family="TrebuchetMS" font-size="18.0" fill="#FEFFFF" transform="matrix(1.00, 0.00, -0.00, -1.00, 12.9, 132.0)"> </text><text xml:space="preserve" font-family="TrebuchetMS" font-size="18.0" fill="#FEFFFF" transform="matrix(1.00, 0.00, -0.00, -1.00, 18.3, 132.0)"> </text><text xml:space="preserve" font-family="TrebuchetMS" font-size="18.0" fill="#FEFFFF" transform="matrix(1.00, 0.00, -0.00, -1.00, 23.7, 132.0)"> </text><text xml:space="preserve" font-family="TrebuchetMS" font-size="18.0" fill="#FEFFFF" transform="matrix(1.00, 0.00, -0.00, -1.00, 29.1, 132.0)"> </text><text xml:space="preserve" font-family="TrebuchetMS" font-size="18.0" fill="#FEFFFF" transform="matrix(1.00, 0.00, -0.00, -1.00, 34.6, 132.0)"> </text><text xml:space="preserve" font-family="TrebuchetMS" font-size="18.0" fill="#FEFFFF" transform="matrix(1.00, 0.00, -0.00, -1.00, 40.0, 132.0)"> </text><text xml:space="preserve" font-family="TrebuchetMS" font-size="18.0" fill="#FEFFFF" transform="matrix(1.00, 0.00, -0.00, -1.00, 45.4, 132.0)">c</text><text xml:space="preserve" font-family="TrebuchetMS" font-size="18.0" fill="#FEFFFF" transform="matrix(1.00, 0.00, -0.00, -1.00, 54.3, 132.0)">o</text><text xml:space="preserve" font-family="TrebuchetMS" font-size="18.0" fill="#FEFFFF" transform="matrix(1.00, 0.00, -0.00, -1.00, 64.0, 132.0)">n</text><text xml:space="preserve" font-family="TrebuchetMS" font-size="18.0" fill="#FEFFFF" transform="matrix(1.00, 0.00, -0.00, -1.00, 73.8, 132.0)">s</text><text xml:space="preserve" font-family="TrebuchetMS" font-size="18.0" fill="#FEFFFF" transform="matrix(1.00, 0.00, -0.00, -1.00, 81.1, 132.0)">o</text><text xml:space="preserve" font-family="TrebuchetMS" font-size="18.0" fill="#FEFFFF" transform="matrix(1.00, 0.00, -0.00, -1.00, 90.8, 132.0)">l</text><text xml:space="preserve" font-family="TrebuchetMS" font-size="18.0" fill="#FEFFFF" transform="matrix(1.00, 0.00, -0.00, -1.00, 96.1, 132.0)">e</text><text xml:space="preserve" font-family="TrebuchetMS" font-size="18.0" fill="#FEFFFF" transform="matrix(1.00, 0.00, -0.00, -1.00, 105.9, 132.0)">.</text><text xml:space="preserve" font-family="TrebuchetMS" font-size="18.0" fill="#FEFFFF" transform="matrix(1.00, 0.00, -0.00, -1.00, 112.5, 132.0)">l</text><text xml:space="preserve" font-family="TrebuchetMS" font-size="18.0" fill="#FEFFFF" transform="matrix(1.00, 0.00, -0.00, -1.00, 117.8, 132.0)">o</text><text xml:space="preserve" font-family="TrebuchetMS" font-size="18.0" fill="#FEFFFF" transform="matrix(1.00, 0.00, -0.00, -1.00, 127.5, 132.0)">g</text><text xml:space="preserve" font-family="TrebuchetMS" font-size="18.0" fill="#FEFFFF" transform="matrix(1.00, 0.00, -0.00, -1.00, 136.5, 132.0)">(</text><text xml:space="preserve" font-family="TrebuchetMS" font-size="18.0" fill="#FEFFFF" transform="matrix(1.00, 0.00, -0.00, -1.00, 143.1, 132.0)">‘</text><text xml:space="preserve" font-family="TrebuchetMS" font-size="18.0" fill="#FEFFFF" transform="matrix(1.00, 0.00, -0.00, -1.00, 149.7, 132.0)">p</text><text xml:space="preserve" font-family="TrebuchetMS" font-size="18.0" fill="#FEFFFF" transform="matrix(1.00, 0.00, -0.00, -1.00, 159.8, 132.0)">r</text><text xml:space="preserve" font-family="TrebuchetMS" font-size="18.0" fill="#FEFFFF" transform="matrix(1.00, 0.00, -0.00, -1.00, 166.8, 132.0)">o</text><text xml:space="preserve" font-family="TrebuchetMS" font-size="18.0" fill="#FEFFFF" transform="matrix(1.00, 0.00, -0.00, -1.00, 176.4, 132.0)">m</text><text xml:space="preserve" font-family="TrebuchetMS" font-size="18.0" fill="#FEFFFF" transform="matrix(1.00, 0.00, -0.00, -1.00, 191.3, 132.0)">i</text><text xml:space="preserve" font-family="TrebuchetMS" font-size="18.0" fill="#FEFFFF" transform="matrix(1.00, 0.00, -0.00, -1.00, 196.5, 132.0)">s</text><text xml:space="preserve" font-family="TrebuchetMS" font-size="18.0" fill="#FEFFFF" transform="matrix(1.00, 0.00, -0.00, -1.00, 203.8, 132.0)">e</text><text xml:space="preserve" font-family="TrebuchetMS" font-size="18.0" fill="#FEFFFF" transform="matrix(1.00, 0.00, -0.00, -1.00, 213.6, 132.0)">1</text><text xml:space="preserve" font-family="TrebuchetMS" font-size="18.0" fill="#FEFFFF" transform="matrix(1.00, 0.00, -0.00, -1.00, 223.0, 132.0)">’</text><text xml:space="preserve" font-family="TrebuchetMS" font-size="18.0" fill="#FEFFFF" transform="matrix(1.00, 0.00, -0.00, -1.00, 229.6, 132.0)">)</text><text xml:space="preserve" font-family="TrebuchetMS" font-size="18.0" fill="#FEFFFF" transform="matrix(1.00, 0.00, -0.00, -1.00, 236.2, 132.0)">;</text><text xml:space="preserve" font-family="TrebuchetMS" font-size="18.0" fill="#FEFFFF" transform="matrix(1.00, 0.00, -0.00, -1.00, 242.8, 132.0)"> </text><text xml:space="preserve" font-family="TrebuchetMS" font-size="18.0" fill="#FEFFFF" transform="matrix(1.00, 0.00, -0.00, -1.00, 2.0, 111.0)"> </text><text xml:space="preserve" font-family="TrebuchetMS" font-size="18.0" fill="#FEFFFF" transform="matrix(1.00, 0.00, -0.00, -1.00, 7.4, 111.0)"> </text><text xml:space="preserve" font-family="TrebuchetMS" font-size="18.0" fill="#FEFFFF" transform="matrix(1.00, 0.00, -0.00, -1.00, 12.9, 111.0)"> </text><text xml:space="preserve" font-family="TrebuchetMS" font-size="18.0" fill="#FEFFFF" transform="matrix(1.00, 0.00, -0.00, -1.00, 18.3, 111.0)"> </text><text xml:space="preserve" font-family="TrebuchetMS" font-size="18.0" fill="#FEFFFF" transform="matrix(1.00, 0.00, -0.00, -1.00, 23.7, 111.0)">}</text><text xml:space="preserve" font-family="TrebuchetMS" font-size="18.0" fill="#FEFFFF" transform="matrix(1.00, 0.00, -0.00, -1.00, 30.3, 111.0)">)</text><text xml:space="preserve" font-family="TrebuchetMS" font-size="18.0" fill="#FEFFFF" transform="matrix(1.00, 0.00, -0.00, -1.00, 36.9, 111.0)"> </text><text xml:space="preserve" font-family="TrebuchetMS" font-size="18.0" fill="#FEFFFF" transform="matrix(1.00, 0.00, -0.00, -1.00, 2.0, 90.0)"> </text><text xml:space="preserve" font-family="TrebuchetMS" font-size="18.0" fill="#FEFFFF" transform="matrix(1.00, 0.00, -0.00, -1.00, 7.4, 90.0)"> </text><text xml:space="preserve" font-family="TrebuchetMS" font-size="18.0" fill="#FEFFFF" transform="matrix(1.00, 0.00, -0.00, -1.00, 12.9, 90.0)"> </text><text xml:space="preserve" font-family="TrebuchetMS" font-size="18.0" fill="#FEFFFF" transform="matrix(1.00, 0.00, -0.00, -1.00, 18.3, 90.0)"> </text><text xml:space="preserve" font-family="TrebuchetMS" font-size="18.0" fill="#FEFFFF" transform="matrix(1.00, 0.00, -0.00, -1.00, 23.7, 90.0)">.</text><text xml:space="preserve" font-family="TrebuchetMS" font-size="18.0" fill="#FEFFFF" transform="matrix(1.00, 0.00, -0.00, -1.00, 30.3, 90.0)">t</text><text xml:space="preserve" font-family="TrebuchetMS" font-size="18.0" fill="#FEFFFF" transform="matrix(1.00, 0.00, -0.00, -1.00, 37.4, 90.0)">h</text><text xml:space="preserve" font-family="TrebuchetMS" font-size="18.0" fill="#FEFFFF" transform="matrix(1.00, 0.00, -0.00, -1.00, 47.3, 90.0)">e</text><text xml:space="preserve" font-family="TrebuchetMS" font-size="18.0" fill="#FEFFFF" transform="matrix(1.00, 0.00, -0.00, -1.00, 57.1, 90.0)">n</text><text xml:space="preserve" font-family="TrebuchetMS" font-size="18.0" fill="#FEFFFF" transform="matrix(1.00, 0.00, -0.00, -1.00, 66.9, 90.0)">(</text><text xml:space="preserve" font-family="TrebuchetMS" font-size="18.0" fill="#FEFFFF" transform="matrix(1.00, 0.00, -0.00, -1.00, 73.6, 90.0)">f</text><text xml:space="preserve" font-family="TrebuchetMS" font-size="18.0" fill="#FEFFFF" transform="matrix(1.00, 0.00, -0.00, -1.00, 80.2, 90.0)">u</text><text xml:space="preserve" font-family="TrebuchetMS" font-size="18.0" fill="#FEFFFF" transform="matrix(1.00, 0.00, -0.00, -1.00, 90.0, 90.0)">n</text><text xml:space="preserve" font-family="TrebuchetMS" font-size="18.0" fill="#FEFFFF" transform="matrix(1.00, 0.00, -0.00, -1.00, 99.9, 90.0)">c</text><text xml:space="preserve" font-family="TrebuchetMS" font-size="18.0" fill="#FEFFFF" transform="matrix(1.00, 0.00, -0.00, -1.00, 108.8, 90.0)">t</text><text xml:space="preserve" font-family="TrebuchetMS" font-size="18.0" fill="#FEFFFF" transform="matrix(1.00, 0.00, -0.00, -1.00, 115.9, 90.0)">i</text><text xml:space="preserve" font-family="TrebuchetMS" font-size="18.0" fill="#FEFFFF" transform="matrix(1.00, 0.00, -0.00, -1.00, 121.1, 90.0)">o</text><text xml:space="preserve" font-family="TrebuchetMS" font-size="18.0" fill="#FEFFFF" transform="matrix(1.00, 0.00, -0.00, -1.00, 130.7, 90.0)">n</text><text xml:space="preserve" font-family="TrebuchetMS" font-size="18.0" fill="#FEFFFF" transform="matrix(1.00, 0.00, -0.00, -1.00, 140.5, 90.0)">(</text><text xml:space="preserve" font-family="TrebuchetMS" font-size="18.0" fill="#FEFFFF" transform="matrix(1.00, 0.00, -0.00, -1.00, 147.2, 90.0)">)</text><text xml:space="preserve" font-family="TrebuchetMS" font-size="18.0" fill="#FEFFFF" transform="matrix(1.00, 0.00, -0.00, -1.00, 153.8, 90.0)"> </text><text xml:space="preserve" font-family="TrebuchetMS" font-size="18.0" fill="#FEFFFF" transform="matrix(1.00, 0.00, -0.00, -1.00, 159.2, 90.0)">{</text><text xml:space="preserve" font-family="TrebuchetMS" font-size="18.0" fill="#FEFFFF" transform="matrix(1.00, 0.00, -0.00, -1.00, 165.8, 90.0)"> </text><text xml:space="preserve" font-family="TrebuchetMS" font-size="18.0" fill="#FEFFFF" transform="matrix(1.00, 0.00, -0.00, -1.00, 2.0, 69.0)"> </text><text xml:space="preserve" font-family="TrebuchetMS" font-size="18.0" fill="#FEFFFF" transform="matrix(1.00, 0.00, -0.00, -1.00, 7.4, 69.0)"> </text><text xml:space="preserve" font-family="TrebuchetMS" font-size="18.0" fill="#FEFFFF" transform="matrix(1.00, 0.00, -0.00, -1.00, 12.9, 69.0)"> </text><text xml:space="preserve" font-family="TrebuchetMS" font-size="18.0" fill="#FEFFFF" transform="matrix(1.00, 0.00, -0.00, -1.00, 18.3, 69.0)"> </text><text xml:space="preserve" font-family="TrebuchetMS" font-size="18.0" fill="#FEFFFF" transform="matrix(1.00, 0.00, -0.00, -1.00, 23.7, 69.0)"> </text><text xml:space="preserve" font-family="TrebuchetMS" font-size="18.0" fill="#FEFFFF" transform="matrix(1.00, 0.00, -0.00, -1.00, 29.1, 69.0)"> </text><text xml:space="preserve" font-family="TrebuchetMS" font-size="18.0" fill="#FEFFFF" transform="matrix(1.00, 0.00, -0.00, -1.00, 34.6, 69.0)"> </text><text xml:space="preserve" font-family="TrebuchetMS" font-size="18.0" fill="#FEFFFF" transform="matrix(1.00, 0.00, -0.00, -1.00, 40.0, 69.0)"> </text><text xml:space="preserve" font-family="TrebuchetMS" font-size="18.0" fill="#FEFFFF" transform="matrix(1.00, 0.00, -0.00, -1.00, 45.4, 69.0)">c</text><text xml:space="preserve" font-family="TrebuchetMS" font-size="18.0" fill="#FEFFFF" transform="matrix(1.00, 0.00, -0.00, -1.00, 54.3, 69.0)">o</text><text xml:space="preserve" font-family="TrebuchetMS" font-size="18.0" fill="#FEFFFF" transform="matrix(1.00, 0.00, -0.00, -1.00, 64.0, 69.0)">n</text><text xml:space="preserve" font-family="TrebuchetMS" font-size="18.0" fill="#FEFFFF" transform="matrix(1.00, 0.00, -0.00, -1.00, 73.8, 69.0)">s</text><text xml:space="preserve" font-family="TrebuchetMS" font-size="18.0" fill="#FEFFFF" transform="matrix(1.00, 0.00, -0.00, -1.00, 81.1, 69.0)">o</text><text xml:space="preserve" font-family="TrebuchetMS" font-size="18.0" fill="#FEFFFF" transform="matrix(1.00, 0.00, -0.00, -1.00, 90.8, 69.0)">l</text><text xml:space="preserve" font-family="TrebuchetMS" font-size="18.0" fill="#FEFFFF" transform="matrix(1.00, 0.00, -0.00, -1.00, 96.1, 69.0)">e</text><text xml:space="preserve" font-family="TrebuchetMS" font-size="18.0" fill="#FEFFFF" transform="matrix(1.00, 0.00, -0.00, -1.00, 105.9, 69.0)">.</text><text xml:space="preserve" font-family="TrebuchetMS" font-size="18.0" fill="#FEFFFF" transform="matrix(1.00, 0.00, -0.00, -1.00, 112.5, 69.0)">l</text><text xml:space="preserve" font-family="TrebuchetMS" font-size="18.0" fill="#FEFFFF" transform="matrix(1.00, 0.00, -0.00, -1.00, 117.8, 69.0)">o</text><text xml:space="preserve" font-family="TrebuchetMS" font-size="18.0" fill="#FEFFFF" transform="matrix(1.00, 0.00, -0.00, -1.00, 127.5, 69.0)">g</text><text xml:space="preserve" font-family="TrebuchetMS" font-size="18.0" fill="#FEFFFF" transform="matrix(1.00, 0.00, -0.00, -1.00, 136.5, 69.0)">(</text><text xml:space="preserve" font-family="TrebuchetMS" font-size="18.0" fill="#FEFFFF" transform="matrix(1.00, 0.00, -0.00, -1.00, 143.1, 69.0)">‘</text><text xml:space="preserve" font-family="TrebuchetMS" font-size="18.0" fill="#FEFFFF" transform="matrix(1.00, 0.00, -0.00, -1.00, 149.7, 69.0)">p</text><text xml:space="preserve" font-family="TrebuchetMS" font-size="18.0" fill="#FEFFFF" transform="matrix(1.00, 0.00, -0.00, -1.00, 159.8, 69.0)">r</text><text xml:space="preserve" font-family="TrebuchetMS" font-size="18.0" fill="#FEFFFF" transform="matrix(1.00, 0.00, -0.00, -1.00, 166.8, 69.0)">o</text><text xml:space="preserve" font-family="TrebuchetMS" font-size="18.0" fill="#FEFFFF" transform="matrix(1.00, 0.00, -0.00, -1.00, 176.4, 69.0)">m</text><text xml:space="preserve" font-family="TrebuchetMS" font-size="18.0" fill="#FEFFFF" transform="matrix(1.00, 0.00, -0.00, -1.00, 191.3, 69.0)">i</text><text xml:space="preserve" font-family="TrebuchetMS" font-size="18.0" fill="#FEFFFF" transform="matrix(1.00, 0.00, -0.00, -1.00, 196.5, 69.0)">s</text><text xml:space="preserve" font-family="TrebuchetMS" font-size="18.0" fill="#FEFFFF" transform="matrix(1.00, 0.00, -0.00, -1.00, 203.8, 69.0)">e</text><text xml:space="preserve" font-family="TrebuchetMS" font-size="18.0" fill="#FEFFFF" transform="matrix(1.00, 0.00, -0.00, -1.00, 213.6, 69.0)">2</text><text xml:space="preserve" font-family="TrebuchetMS" font-size="18.0" fill="#FEFFFF" transform="matrix(1.00, 0.00, -0.00, -1.00, 223.0, 69.0)">’</text><text xml:space="preserve" font-family="TrebuchetMS" font-size="18.0" fill="#FEFFFF" transform="matrix(1.00, 0.00, -0.00, -1.00, 229.6, 69.0)">)</text><text xml:space="preserve" font-family="TrebuchetMS" font-size="18.0" fill="#FEFFFF" transform="matrix(1.00, 0.00, -0.00, -1.00, 236.2, 69.0)">;</text><text xml:space="preserve" font-family="TrebuchetMS" font-size="18.0" fill="#FEFFFF" transform="matrix(1.00, 0.00, -0.00, -1.00, 242.8, 69.0)"> </text><text xml:space="preserve" font-family="TrebuchetMS" font-size="18.0" fill="#FEFFFF" transform="matrix(1.00, 0.00, -0.00, -1.00, 2.0, 48.0)"> </text><text xml:space="preserve" font-family="TrebuchetMS" font-size="18.0" fill="#FEFFFF" transform="matrix(1.00, 0.00, -0.00, -1.00, 7.4, 48.0)"> </text><text xml:space="preserve" font-family="TrebuchetMS" font-size="18.0" fill="#FEFFFF" transform="matrix(1.00, 0.00, -0.00, -1.00, 12.9, 48.0)"> </text><text xml:space="preserve" font-family="TrebuchetMS" font-size="18.0" fill="#FEFFFF" transform="matrix(1.00, 0.00, -0.00, -1.00, 18.3, 48.0)"> </text><text xml:space="preserve" font-family="TrebuchetMS" font-size="18.0" fill="#FEFFFF" transform="matrix(1.00, 0.00, -0.00, -1.00, 23.7, 48.0)">}</text><text xml:space="preserve" font-family="TrebuchetMS" font-size="18.0" fill="#FEFFFF" transform="matrix(1.00, 0.00, -0.00, -1.00, 30.3, 48.0)">)</text><text xml:space="preserve" font-family="TrebuchetMS" font-size="18.0" fill="#FEFFFF" transform="matrix(1.00, 0.00, -0.00, -1.00, 36.9, 48.0)">;</text><text xml:space="preserve" font-family="TrebuchetMS" font-size="18.0" fill="#FEFFFF" transform="matrix(1.00, 0.00, -0.00, -1.00, 43.5, 48.0)"> </text><text xml:space="preserve" font-family="TrebuchetMS" font-size="18.0" fill="#FEFFFF" transform="matrix(1.00, 0.00, -0.00, -1.00, 2.0, 6.0)">c</text><text xml:space="preserve" font-family="TrebuchetMS" font-size="18.0" fill="#FEFFFF" transform="matrix(1.00, 0.00, -0.00, -1.00, 10.9, 6.0)">o</text><text xml:space="preserve" font-family="TrebuchetMS" font-size="18.0" fill="#FEFFFF" transform="matrix(1.00, 0.00, -0.00, -1.00, 20.6, 6.0)">n</text><text xml:space="preserve" font-family="TrebuchetMS" font-size="18.0" fill="#FEFFFF" transform="matrix(1.00, 0.00, -0.00, -1.00, 30.4, 6.0)">s</text><text xml:space="preserve" font-family="TrebuchetMS" font-size="18.0" fill="#FEFFFF" transform="matrix(1.00, 0.00, -0.00, -1.00, 37.7, 6.0)">o</text><text xml:space="preserve" font-family="TrebuchetMS" font-size="18.0" fill="#FEFFFF" transform="matrix(1.00, 0.00, -0.00, -1.00, 47.3, 6.0)">l</text><text xml:space="preserve" font-family="TrebuchetMS" font-size="18.0" fill="#FEFFFF" transform="matrix(1.00, 0.00, -0.00, -1.00, 52.6, 6.0)">e</text><text xml:space="preserve" font-family="TrebuchetMS" font-size="18.0" fill="#FEFFFF" transform="matrix(1.00, 0.00, -0.00, -1.00, 62.5, 6.0)">.</text><text xml:space="preserve" font-family="TrebuchetMS" font-size="18.0" fill="#FEFFFF" transform="matrix(1.00, 0.00, -0.00, -1.00, 69.1, 6.0)">l</text><text xml:space="preserve" font-family="TrebuchetMS" font-size="18.0" fill="#FEFFFF" transform="matrix(1.00, 0.00, -0.00, -1.00, 74.4, 6.0)">o</text><text xml:space="preserve" font-family="TrebuchetMS" font-size="18.0" fill="#FEFFFF" transform="matrix(1.00, 0.00, -0.00, -1.00, 84.0, 6.0)">g</text><text xml:space="preserve" font-family="TrebuchetMS" font-size="18.0" fill="#FEFFFF" transform="matrix(1.00, 0.00, -0.00, -1.00, 93.1, 6.0)">(</text><text xml:space="preserve" font-family="TrebuchetMS" font-size="18.0" fill="#FEFFFF" transform="matrix(1.00, 0.00, -0.00, -1.00, 99.7, 6.0)">‘</text><text xml:space="preserve" font-family="TrebuchetMS" font-size="18.0" fill="#FEFFFF" transform="matrix(1.00, 0.00, -0.00, -1.00, 106.3, 6.0)">s</text><text xml:space="preserve" font-family="TrebuchetMS" font-size="18.0" fill="#FEFFFF" transform="matrix(1.00, 0.00, -0.00, -1.00, 113.6, 6.0)">c</text><text xml:space="preserve" font-family="TrebuchetMS" font-size="18.0" fill="#FEFFFF" transform="matrix(1.00, 0.00, -0.00, -1.00, 122.5, 6.0)">r</text><text xml:space="preserve" font-family="TrebuchetMS" font-size="18.0" fill="#FEFFFF" transform="matrix(1.00, 0.00, -0.00, -1.00, 129.5, 6.0)">i</text><text xml:space="preserve" font-family="TrebuchetMS" font-size="18.0" fill="#FEFFFF" transform="matrix(1.00, 0.00, -0.00, -1.00, 134.6, 6.0)">p</text><text xml:space="preserve" font-family="TrebuchetMS" font-size="18.0" fill="#FEFFFF" transform="matrix(1.00, 0.00, -0.00, -1.00, 144.7, 6.0)">t</text><text xml:space="preserve" font-family="TrebuchetMS" font-size="18.0" fill="#FEFFFF" transform="matrix(1.00, 0.00, -0.00, -1.00, 151.8, 6.0)"> </text><text xml:space="preserve" font-family="TrebuchetMS" font-size="18.0" fill="#FEFFFF" transform="matrix(1.00, 0.00, -0.00, -1.00, 157.2, 6.0)">e</text><text xml:space="preserve" font-family="TrebuchetMS" font-size="18.0" fill="#FEFFFF" transform="matrix(1.00, 0.00, -0.00, -1.00, 167.1, 6.0)">n</text><text xml:space="preserve" font-family="TrebuchetMS" font-size="18.0" fill="#FEFFFF" transform="matrix(1.00, 0.00, -0.00, -1.00, 176.9, 6.0)">d</text><text xml:space="preserve" font-family="TrebuchetMS" font-size="18.0" fill="#FEFFFF" transform="matrix(1.00, 0.00, -0.00, -1.00, 186.9, 6.0)">’</text><text xml:space="preserve" font-family="TrebuchetMS" font-size="18.0" fill="#FEFFFF" transform="matrix(1.00, 0.00, -0.00, -1.00, 193.5, 6.0)">)</text><text xml:space="preserve" font-family="TrebuchetMS" font-size="18.0" fill="#FEFFFF" transform="matrix(1.00, 0.00, -0.00, -1.00, 200.1, 6.0)">;</text></g></svg>