<?xml version="1.0" encoding="UTF-8" standalone="no"?><svg xmlns="http://www.w3.org/2000/svg" xmlns:xlink="http://www.w3.org/1999/xlink" clip-rule="evenodd" stroke-miterlimit="4.00" viewBox="0 0 720 540"><desc>SVG generated by Keynote</desc><defs></defs><g transform="matrix(1.00, 0.00, -0.00, -1.00, 0.0, 540.0)"><g><clipPath id="clip-940"><path d="M 0.0 540.0 L 720.0 540.0 L 720.0 0.0 L 0.0 0.0 Z M 0.0 540.0 "></path></clipPath><g clip-path="url(#clip-940)"><image xlink:href="../../2E34FD03-1090-4811-8D08-B00F3B774E14/assets/E4B59F63A6EDA017B41703A0F53BFDB9.png" width="720.00" height="540.00" transform="matrix(1.00, 0.00, -0.00, -1.00, 0.0, 540.0)"></image></g></g><g><clipPath id="clip-941"><path d="M 21.6 455.2 L 698.4 455.2 L 698.4 500.0 L 21.6 500.0 Z M 21.6 455.2 "></path></clipPath><g clip-path="url(#clip-941)"><text xml:space="preserve" font-family="Helvetica" font-size="30.0" fill="#FFFFFF" transform="matrix(1.00, 0.00, -0.00, -1.00, 207.0, 462.0)">M</text><text xml:space="preserve" font-family="Helvetica" font-size="30.0" fill="#FFFFFF" transform="matrix(1.00, 0.00, -0.00, -1.00, 232.0, 462.0)">i</text><text xml:space="preserve" font-family="Helvetica" font-size="30.0" fill="#FFFFFF" transform="matrix(1.00, 0.00, -0.00, -1.00, 238.7, 462.0)">c</text><text xml:space="preserve" font-family="Helvetica" font-size="30.0" fill="#FFFFFF" transform="matrix(1.00, 0.00, -0.00, -1.00, 253.7, 462.0)">r</text><text xml:space="preserve" font-family="Helvetica" font-size="30.0" fill="#FFFFFF" transform="matrix(1.00, 0.00, -0.00, -1.00, 263.7, 462.0)">o</text><text xml:space="preserve" font-family="Helvetica" font-size="30.0" fill="#FFFFFF" transform="matrix(1.00, 0.00, -0.00, -1.00, 280.3, 462.0)">-</text><text xml:space="preserve" font-family="Helvetica" font-size="30.0" fill="#FFFFFF" transform="matrix(1.00, 0.00, -0.00, -1.00, 290.3, 462.0)">t</text><text xml:space="preserve" font-family="Helvetica" font-size="30.0" fill="#FFFFFF" transform="matrix(1.00, 0.00, -0.00, -1.00, 298.7, 462.0)">a</text><text xml:space="preserve" font-family="Helvetica" font-size="30.0" fill="#FFFFFF" transform="matrix(1.00, 0.00, -0.00, -1.00, 315.4, 462.0)">s</text><text xml:space="preserve" font-family="Helvetica" font-size="30.0" fill="#FFFFFF" transform="matrix(1.00, 0.00, -0.00, -1.00, 330.4, 462.0)">k</text><text xml:space="preserve" font-family="Helvetica" font-size="30.0" fill="#FFFFFF" transform="matrix(1.00, 0.00, -0.00, -1.00, 345.4, 462.0)">s</text><text xml:space="preserve" font-family="Helvetica" font-size="30.0" fill="#FFFFFF" transform="matrix(1.00, 0.00, -0.00, -1.00, 360.4, 462.0)"> </text><text xml:space="preserve" font-family="Helvetica" font-size="30.0" fill="#FFFFFF" transform="matrix(1.00, 0.00, -0.00, -1.00, 367.0, 462.0)">A</text><text xml:space="preserve" font-family="Helvetica" font-size="30.0" fill="#FFFFFF" transform="matrix(1.00, 0.00, -0.00, -1.00, 387.0, 462.0)">p</text><text xml:space="preserve" font-family="Helvetica" font-size="30.0" fill="#FFFFFF" transform="matrix(1.00, 0.00, -0.00, -1.00, 403.7, 462.0)">p</text><text xml:space="preserve" font-family="Helvetica" font-size="30.0" fill="#FFFFFF" transform="matrix(1.00, 0.00, -0.00, -1.00, 420.4, 462.0)">l</text><text xml:space="preserve" font-family="Helvetica" font-size="30.0" fill="#FFFFFF" transform="matrix(1.00, 0.00, -0.00, -1.00, 427.1, 462.0)">i</text><text xml:space="preserve" font-family="Helvetica" font-size="30.0" fill="#FFFFFF" transform="matrix(1.00, 0.00, -0.00, -1.00, 433.8, 462.0)">c</text><text xml:space="preserve" font-family="Helvetica" font-size="30.0" fill="#FFFFFF" transform="matrix(1.00, 0.00, -0.00, -1.00, 448.8, 462.0)">a</text><text xml:space="preserve" font-family="Helvetica" font-size="30.0" fill="#FFFFFF" transform="matrix(1.00, 0.00, -0.00, -1.00, 465.5, 462.0)">t</text><text xml:space="preserve" font-family="Helvetica" font-size="30.0" fill="#FFFFFF" transform="matrix(1.00, 0.00, -0.00, -1.00, 473.8, 462.0)">i</text><text xml:space="preserve" font-family="Helvetica" font-size="30.0" fill="#FFFFFF" transform="matrix(1.00, 0.00, -0.00, -1.00, 480.5, 462.0)">o</text><text xml:space="preserve" font-family="Helvetica" font-size="30.0" fill="#FFFFFF" transform="matrix(1.00, 0.00, -0.00, -1.00, 497.2, 462.0)">n</text></g></g></g></svg>