<?xml version="1.0" encoding="UTF-8" standalone="no"?><svg xmlns="http://www.w3.org/2000/svg" xmlns:xlink="http://www.w3.org/1999/xlink" clip-rule="evenodd" stroke-miterlimit="4.00" viewBox="0 0 104 51"><desc>SVG generated by Keynote</desc><defs></defs><g transform="matrix(1.00, 0.00, -0.00, -1.00, 0.0, 51.0)"><image xlink:href="AFE1EE0D40969B67195BE11F7244630A.png" width="101.00" height="43.00" transform="matrix(1.00, 0.00, -0.00, -0.99, 1.5, 43.9)" opacity="0.35"></image><path d="M 6.5 41.9 L 97.9 41.9 L 97.9 9.3 L 6.5 9.3 Z M 6.5 41.9 " fill="#FFBD47"></path><path d="M 0.0 0.0 L 91.4 0.0 L 91.4 32.6 L 0.0 32.6 Z M 0.0 0.0 " fill="none" stroke="#BA8933" stroke-width="2.00" stroke-linejoin="round" transform="matrix(1.00, 0.00, 0.00, -1.00, 6.5, 41.9)"></path><g><clipPath id="clip-602"><path d="M 7.3 10.3 L 97.1 10.3 L 97.1 40.9 L 7.3 40.9 Z M 7.3 10.3 "></path></clipPath><g clip-path="url(#clip-602)"><text xml:space="preserve" font-family="TrebuchetMS" font-size="13.0" fill="#FFFFFF" transform="matrix(1.00, 0.00, -0.00, -1.00, 14.0, 21.0)">P</text><text xml:space="preserve" font-family="TrebuchetMS" font-size="13.0" fill="#FFFFFF" transform="matrix(1.00, 0.00, -0.00, -1.00, 20.6, 21.0)">r</text><text xml:space="preserve" font-family="TrebuchetMS" font-size="13.0" fill="#FFFFFF" transform="matrix(1.00, 0.00, -0.00, -1.00, 25.7, 21.0)">o</text><text xml:space="preserve" font-family="TrebuchetMS" font-size="13.0" fill="#FFFFFF" transform="matrix(1.00, 0.00, -0.00, -1.00, 32.7, 21.0)">m</text><text xml:space="preserve" font-family="TrebuchetMS" font-size="13.0" fill="#FFFFFF" transform="matrix(1.00, 0.00, -0.00, -1.00, 43.4, 21.0)">i</text><text xml:space="preserve" font-family="TrebuchetMS" font-size="13.0" fill="#FFFFFF" transform="matrix(1.00, 0.00, -0.00, -1.00, 47.2, 21.0)">s</text><text xml:space="preserve" font-family="TrebuchetMS" font-size="13.0" fill="#FFFFFF" transform="matrix(1.00, 0.00, -0.00, -1.00, 52.4, 21.0)">e</text><text xml:space="preserve" font-family="TrebuchetMS" font-size="13.0" fill="#FFFFFF" transform="matrix(1.00, 0.00, -0.00, -1.00, 59.5, 21.0)"> </text><text xml:space="preserve" font-family="TrebuchetMS" font-size="13.0" fill="#FFFFFF" transform="matrix(1.00, 0.00, -0.00, -1.00, 63.4, 21.0)">t</text><text xml:space="preserve" font-family="TrebuchetMS" font-size="13.0" fill="#FFFFFF" transform="matrix(1.00, 0.00, -0.00, -1.00, 68.6, 21.0)">h</text><text xml:space="preserve" font-family="TrebuchetMS" font-size="13.0" fill="#FFFFFF" transform="matrix(1.00, 0.00, -0.00, -1.00, 75.7, 21.0)">e</text><text xml:space="preserve" font-family="TrebuchetMS" font-size="13.0" fill="#FFFFFF" transform="matrix(1.00, 0.00, -0.00, -1.00, 82.8, 21.0)">n</text></g></g></g></svg>