<?xml version="1.0" encoding="UTF-8" standalone="no"?><svg xmlns="http://www.w3.org/2000/svg" xmlns:xlink="http://www.w3.org/1999/xlink" clip-rule="evenodd" stroke-miterlimit="4.00" viewBox="0 0 720 540"><desc>SVG generated by Keynote</desc><defs></defs><g transform="matrix(1.00, 0.00, -0.00, -1.00, 0.0, 540.0)"><g><clipPath id="clip-623"><path d="M 0.0 540.0 L 720.0 540.0 L 720.0 0.0 L 0.0 0.0 Z M 0.0 540.0 "></path></clipPath><g clip-path="url(#clip-623)"><image xlink:href="../../2E34FD03-1090-4811-8D08-B00F3B774E14/assets/E4B59F63A6EDA017B41703A0F53BFDB9.png" width="720.00" height="540.00" transform="matrix(1.00, 0.00, -0.00, -1.00, 0.0, 540.0)"></image></g></g><text xml:space="preserve" font-family="Helvetica" font-size="28.0" fill="#FFFFFF" transform="matrix(1.00, 0.00, -0.00, -1.00, 30.0, 492.0)">W</text><text xml:space="preserve" font-family="Helvetica" font-size="28.0" fill="#FFFFFF" transform="matrix(1.00, 0.00, -0.00, -1.00, 55.4, 492.0)">a</text><text xml:space="preserve" font-family="Helvetica" font-size="28.0" fill="#FFFFFF" transform="matrix(1.00, 0.00, -0.00, -1.00, 71.0, 492.0)">r</text><text xml:space="preserve" font-family="Helvetica" font-size="28.0" fill="#FFFFFF" transform="matrix(1.00, 0.00, -0.00, -1.00, 80.3, 492.0)">m</text><text xml:space="preserve" font-family="Helvetica" font-size="28.0" fill="#FFFFFF" transform="matrix(1.00, 0.00, -0.00, -1.00, 103.6, 492.0)">i</text><text xml:space="preserve" font-family="Helvetica" font-size="28.0" fill="#FFFFFF" transform="matrix(1.00, 0.00, -0.00, -1.00, 109.8, 492.0)">n</text><text xml:space="preserve" font-family="Helvetica" font-size="28.0" fill="#FFFFFF" transform="matrix(1.00, 0.00, -0.00, -1.00, 125.4, 492.0)">g</text><text xml:space="preserve" font-family="Helvetica" font-size="28.0" fill="#FFFFFF" transform="matrix(1.00, 0.00, -0.00, -1.00, 141.0, 492.0)"> </text><text xml:space="preserve" font-family="Helvetica" font-size="28.0" fill="#FFFFFF" transform="matrix(1.00, 0.00, -0.00, -1.00, 148.8, 492.0)">U</text><text xml:space="preserve" font-family="Helvetica" font-size="28.0" fill="#FFFFFF" transform="matrix(1.00, 0.00, -0.00, -1.00, 169.0, 492.0)">p</text><image xlink:href="B40669548034FDB6885A1ABBCA4369E8.png" width="164.00" height="158.00" transform="matrix(1.00, 0.00, -0.00, -1.00, 543.2, 516.9)" opacity="0.35"></image><path d="M 0.0 0.0 L 154.8 0.0 L 154.8 149.4 L 0.0 149.4 Z M 0.0 0.0 " fill="none" stroke="#A7A7A7" stroke-width="1.00" transform="matrix(1.00, 0.00, 0.00, -1.00, 547.7, 515.4)"></path><g opacity="0.77"><g><clipPath id="clip-624"><path d="M 495.0 451.0 L 629.0 451.0 L 629.0 540.0 L 495.0 540.0 Z M 495.0 451.0 "></path></clipPath><g clip-path="url(#clip-624)"><image xlink:href="893A6BF108335D9C7FC5C6D81ECC17FD.png" width="132.00" height="124.00" transform="matrix(1.00, 0.00, -0.00, -1.00, 496.3, 576.4)"></image><path d="M 536.3 528.9 L 587.8 528.9 L 587.8 501.4 L 536.3 501.4 Z M 536.3 528.9 " fill="#DDDDDD"></path></g></g><g><clipPath id="clip-625"><path d="M 535.6 501.4 L 588.5 501.4 L 588.5 528.9 L 535.6 528.9 Z M 535.6 501.4 "></path></clipPath><g clip-path="url(#clip-625)"><text xml:space="preserve" font-family="TrebuchetMS" font-size="15.0" fill="#000000" transform="matrix(1.00, 0.00, -0.00, -1.00, 540.0, 511.0)">C</text><text xml:space="preserve" font-family="TrebuchetMS" font-size="15.0" fill="#000000" transform="matrix(1.00, 0.00, -0.00, -1.00, 547.7, 511.0)">o</text><text xml:space="preserve" font-family="TrebuchetMS" font-size="15.0" fill="#000000" transform="matrix(1.00, 0.00, -0.00, -1.00, 554.4, 511.0)">n</text><text xml:space="preserve" font-family="TrebuchetMS" font-size="15.0" fill="#000000" transform="matrix(1.00, 0.00, -0.00, -1.00, 561.4, 511.0)">s</text><text xml:space="preserve" font-family="TrebuchetMS" font-size="15.0" fill="#000000" transform="matrix(1.00, 0.00, -0.00, -1.00, 566.2, 511.0)">o</text><text xml:space="preserve" font-family="TrebuchetMS" font-size="15.0" fill="#000000" transform="matrix(1.00, 0.00, -0.00, -1.00, 572.9, 511.0)">l</text><text xml:space="preserve" font-family="TrebuchetMS" font-size="15.0" fill="#000000" transform="matrix(1.00, 0.00, -0.00, -1.00, 576.0, 511.0)">e</text></g></g></g></g></svg>