<?xml version="1.0" encoding="UTF-8" standalone="no"?><svg xmlns="http://www.w3.org/2000/svg" xmlns:xlink="http://www.w3.org/1999/xlink" clip-rule="evenodd" stroke-miterlimit="4.00" viewBox="0 0 720 540"><desc>SVG generated by Keynote</desc><defs></defs><g transform="matrix(1.00, 0.00, -0.00, -1.00, 0.0, 540.0)"><g><clipPath id="clip-747"><path d="M 0.0 540.0 L 720.0 540.0 L 720.0 0.0 L 0.0 0.0 Z M 0.0 540.0 "></path></clipPath><g clip-path="url(#clip-747)"><image xlink:href="../../2E34FD03-1090-4811-8D08-B00F3B774E14/assets/E4B59F63A6EDA017B41703A0F53BFDB9.png" width="720.00" height="540.00" transform="matrix(1.00, 0.00, -0.00, -1.00, 0.0, 540.0)"></image></g></g><g><clipPath id="clip-748"><path d="M 21.6 455.2 L 698.4 455.2 L 698.4 500.0 L 21.6 500.0 Z M 21.6 455.2 "></path></clipPath><g clip-path="url(#clip-748)"><text xml:space="preserve" font-family="Helvetica" font-size="30.0" fill="#FFFFFF" transform="matrix(1.00, 0.00, -0.00, -1.00, 181.0, 462.0)">C</text><text xml:space="preserve" font-family="Helvetica" font-size="30.0" fill="#FFFFFF" transform="matrix(1.00, 0.00, -0.00, -1.00, 202.7, 462.0)">o</text><text xml:space="preserve" font-family="Helvetica" font-size="30.0" fill="#FFFFFF" transform="matrix(1.00, 0.00, -0.00, -1.00, 219.4, 462.0)">n</text><text xml:space="preserve" font-family="Helvetica" font-size="30.0" fill="#FFFFFF" transform="matrix(1.00, 0.00, -0.00, -1.00, 236.1, 462.0)">c</text><text xml:space="preserve" font-family="Helvetica" font-size="30.0" fill="#FFFFFF" transform="matrix(1.00, 0.00, -0.00, -1.00, 251.1, 462.0)">u</text><text xml:space="preserve" font-family="Helvetica" font-size="30.0" fill="#FFFFFF" transform="matrix(1.00, 0.00, -0.00, -1.00, 267.7, 462.0)">r</text><text xml:space="preserve" font-family="Helvetica" font-size="30.0" fill="#FFFFFF" transform="matrix(1.00, 0.00, -0.00, -1.00, 277.7, 462.0)">r</text><text xml:space="preserve" font-family="Helvetica" font-size="30.0" fill="#FFFFFF" transform="matrix(1.00, 0.00, -0.00, -1.00, 287.7, 462.0)">e</text><text xml:space="preserve" font-family="Helvetica" font-size="30.0" fill="#FFFFFF" transform="matrix(1.00, 0.00, -0.00, -1.00, 304.4, 462.0)">n</text><text xml:space="preserve" font-family="Helvetica" font-size="30.0" fill="#FFFFFF" transform="matrix(1.00, 0.00, -0.00, -1.00, 321.1, 462.0)">c</text><text xml:space="preserve" font-family="Helvetica" font-size="30.0" fill="#FFFFFF" transform="matrix(1.00, 0.00, -0.00, -1.00, 336.1, 462.0)">y</text><text xml:space="preserve" font-family="Helvetica" font-size="30.0" fill="#FFFFFF" transform="matrix(1.00, 0.00, -0.00, -1.00, 351.1, 462.0)"> </text><text xml:space="preserve" font-family="Helvetica" font-size="30.0" fill="#FFFFFF" transform="matrix(1.00, 0.00, -0.00, -1.00, 359.4, 462.0)">&amp;</text><text xml:space="preserve" font-family="Helvetica" font-size="30.0" fill="#FFFFFF" transform="matrix(1.00, 0.00, -0.00, -1.00, 379.4, 462.0)"> </text><text xml:space="preserve" font-family="Helvetica" font-size="30.0" fill="#FFFFFF" transform="matrix(1.00, 0.00, -0.00, -1.00, 387.8, 462.0)">E</text><text xml:space="preserve" font-family="Helvetica" font-size="30.0" fill="#FFFFFF" transform="matrix(1.00, 0.00, -0.00, -1.00, 407.8, 462.0)">v</text><text xml:space="preserve" font-family="Helvetica" font-size="30.0" fill="#FFFFFF" transform="matrix(1.00, 0.00, -0.00, -1.00, 422.8, 462.0)">e</text><text xml:space="preserve" font-family="Helvetica" font-size="30.0" fill="#FFFFFF" transform="matrix(1.00, 0.00, -0.00, -1.00, 439.5, 462.0)">n</text><text xml:space="preserve" font-family="Helvetica" font-size="30.0" fill="#FFFFFF" transform="matrix(1.00, 0.00, -0.00, -1.00, 456.2, 462.0)">t</text><text xml:space="preserve" font-family="Helvetica" font-size="30.0" fill="#FFFFFF" transform="matrix(1.00, 0.00, -0.00, -1.00, 464.5, 462.0)"> </text><text xml:space="preserve" font-family="Helvetica" font-size="30.0" fill="#FFFFFF" transform="matrix(1.00, 0.00, -0.00, -1.00, 472.8, 462.0)">L</text><text xml:space="preserve" font-family="Helvetica" font-size="30.0" fill="#FFFFFF" transform="matrix(1.00, 0.00, -0.00, -1.00, 489.5, 462.0)">o</text><text xml:space="preserve" font-family="Helvetica" font-size="30.0" fill="#FFFFFF" transform="matrix(1.00, 0.00, -0.00, -1.00, 506.2, 462.0)">o</text><text xml:space="preserve" font-family="Helvetica" font-size="30.0" fill="#FFFFFF" transform="matrix(1.00, 0.00, -0.00, -1.00, 522.9, 462.0)">p</text></g></g><text xml:space="preserve" font-family="TrebuchetMS" font-size="18.0" fill="#FFFFFF" transform="matrix(1.00, 0.00, -0.00, -1.00, 452.0, 246.0)">E</text><text xml:space="preserve" font-family="TrebuchetMS" font-size="18.0" fill="#FFFFFF" transform="matrix(1.00, 0.00, -0.00, -1.00, 461.6, 246.0)">x</text><text xml:space="preserve" font-family="TrebuchetMS" font-size="18.0" fill="#FFFFFF" transform="matrix(1.00, 0.00, -0.00, -1.00, 470.7, 246.0)">p</text><text xml:space="preserve" font-family="TrebuchetMS" font-size="18.0" fill="#FFFFFF" transform="matrix(1.00, 0.00, -0.00, -1.00, 480.7, 246.0)">e</text><text xml:space="preserve" font-family="TrebuchetMS" font-size="18.0" fill="#FFFFFF" transform="matrix(1.00, 0.00, -0.00, -1.00, 490.5, 246.0)">c</text><text xml:space="preserve" font-family="TrebuchetMS" font-size="18.0" fill="#FFFFFF" transform="matrix(1.00, 0.00, -0.00, -1.00, 499.4, 246.0)">t</text><text xml:space="preserve" font-family="TrebuchetMS" font-size="18.0" fill="#FFFFFF" transform="matrix(1.00, 0.00, -0.00, -1.00, 512.0, 246.0)">n</text><text xml:space="preserve" font-family="TrebuchetMS" font-size="18.0" fill="#FFFFFF" transform="matrix(1.00, 0.00, -0.00, -1.00, 521.8, 246.0)">o</text><text xml:space="preserve" font-family="TrebuchetMS" font-size="18.0" fill="#FFFFFF" transform="matrix(1.00, 0.00, -0.00, -1.00, 531.5, 246.0)">t</text><text xml:space="preserve" font-family="TrebuchetMS" font-size="18.0" fill="#FFFFFF" transform="matrix(1.00, 0.00, -0.00, -1.00, 544.0, 246.0)">r</text><text xml:space="preserve" font-family="TrebuchetMS" font-size="18.0" fill="#FFFFFF" transform="matrix(1.00, 0.00, -0.00, -1.00, 551.0, 246.0)">e</text><text xml:space="preserve" font-family="TrebuchetMS" font-size="18.0" fill="#FFFFFF" transform="matrix(1.00, 0.00, -0.00, -1.00, 560.8, 246.0)">a</text><text xml:space="preserve" font-family="TrebuchetMS" font-size="18.0" fill="#FFFFFF" transform="matrix(1.00, 0.00, -0.00, -1.00, 570.3, 246.0)">l</text><text xml:space="preserve" font-family="TrebuchetMS" font-size="18.0" fill="#FFFFFF" transform="matrix(1.00, 0.00, -0.00, -1.00, 575.6, 246.0)">l</text><text xml:space="preserve" font-family="TrebuchetMS" font-size="18.0" fill="#FFFFFF" transform="matrix(1.00, 0.00, -0.00, -1.00, 580.9, 246.0)">y</text><text xml:space="preserve" font-family="TrebuchetMS" font-size="18.0" fill="#FFFFFF" transform="matrix(1.00, 0.00, -0.00, -1.00, 587.6, 246.0)">.</text><text xml:space="preserve" font-family="TrebuchetMS" font-size="18.0" fill="#FFFFFF" transform="matrix(1.00, 0.00, -0.00, -1.00, 155.0, 246.0)">O</text><text xml:space="preserve" font-family="TrebuchetMS" font-size="18.0" fill="#FFFFFF" transform="matrix(1.00, 0.00, -0.00, -1.00, 167.1, 246.0)">n</text><text xml:space="preserve" font-family="TrebuchetMS" font-size="18.0" fill="#FFFFFF" transform="matrix(1.00, 0.00, -0.00, -1.00, 177.0, 246.0)">e</text><text xml:space="preserve" font-family="TrebuchetMS" font-size="18.0" fill="#FFFFFF" transform="matrix(1.00, 0.00, -0.00, -1.00, 192.2, 246.0)">t</text><text xml:space="preserve" font-family="TrebuchetMS" font-size="18.0" fill="#FFFFFF" transform="matrix(1.00, 0.00, -0.00, -1.00, 199.3, 246.0)">h</text><text xml:space="preserve" font-family="TrebuchetMS" font-size="18.0" fill="#FFFFFF" transform="matrix(1.00, 0.00, -0.00, -1.00, 209.2, 246.0)">i</text><text xml:space="preserve" font-family="TrebuchetMS" font-size="18.0" fill="#FFFFFF" transform="matrix(1.00, 0.00, -0.00, -1.00, 214.3, 246.0)">n</text><text xml:space="preserve" font-family="TrebuchetMS" font-size="18.0" fill="#FFFFFF" transform="matrix(1.00, 0.00, -0.00, -1.00, 224.1, 246.0)">g</text><text xml:space="preserve" font-family="TrebuchetMS" font-size="18.0" fill="#FFFFFF" transform="matrix(1.00, 0.00, -0.00, -1.00, 238.6, 246.0)">a</text><text xml:space="preserve" font-family="TrebuchetMS" font-size="18.0" fill="#FFFFFF" transform="matrix(1.00, 0.00, -0.00, -1.00, 248.1, 246.0)">t</text><text xml:space="preserve" font-family="TrebuchetMS" font-size="18.0" fill="#FFFFFF" transform="matrix(1.00, 0.00, -0.00, -1.00, 260.6, 246.0)">a</text><text xml:space="preserve" font-family="TrebuchetMS" font-size="18.0" fill="#FFFFFF" transform="matrix(1.00, 0.00, -0.00, -1.00, 275.5, 246.0)">t</text><text xml:space="preserve" font-family="TrebuchetMS" font-size="18.0" fill="#FFFFFF" transform="matrix(1.00, 0.00, -0.00, -1.00, 282.6, 246.0)">i</text><text xml:space="preserve" font-family="TrebuchetMS" font-size="18.0" fill="#FFFFFF" transform="matrix(1.00, 0.00, -0.00, -1.00, 287.8, 246.0)">m</text><text xml:space="preserve" font-family="TrebuchetMS" font-size="18.0" fill="#FFFFFF" transform="matrix(1.00, 0.00, -0.00, -1.00, 302.7, 246.0)">e</text><text xml:space="preserve" font-family="TrebuchetMS" font-size="18.0" fill="#FFFFFF" transform="matrix(1.00, 0.00, -0.00, -1.00, 317.9, 246.0)">?</text></g></svg>