<?xml version="1.0" encoding="UTF-8" standalone="no"?><svg xmlns="http://www.w3.org/2000/svg" xmlns:xlink="http://www.w3.org/1999/xlink" clip-rule="evenodd" stroke-miterlimit="4.00" viewBox="0 0 720 540"><desc>SVG generated by Keynote</desc><defs><linearGradient id="gradSh1.4" x1="0.0" y1="0.0" x2="100.0" y2="0.0" gradientUnits="userSpaceOnUse" gradientTransform="matrix(0.00, 0.06, 0.06, 0.00, 607.6, 456.5)"><stop offset="0.00000" stop-color="#FFB7B0"></stop><stop offset="0.00953" stop-color="#FFB7B1"></stop><stop offset="1.00000" stop-color="#FFEBEA"></stop></linearGradient></defs><g transform="matrix(1.00, 0.00, -0.00, -1.00, 0.0, 540.0)"><g><clipPath id="clip-130"><path d="M 0.0 540.0 L 720.0 540.0 L 720.0 0.0 L 0.0 0.0 Z M 0.0 540.0 "></path></clipPath><g clip-path="url(#clip-130)"><image xlink:href="../../2E34FD03-1090-4811-8D08-B00F3B774E14/assets/E4B59F63A6EDA017B41703A0F53BFDB9.png" width="720.00" height="540.00" transform="matrix(1.00, 0.00, -0.00, -1.00, 0.0, 540.0)"></image></g></g><g><clipPath id="clip-131"><path d="M 537.0 385.6 L 711.3 385.6 L 711.3 522.4 L 537.0 522.4 Z M 537.0 385.6 "></path></clipPath><g clip-path="url(#clip-131)"><image xlink:href="4580AC7209C85E85C265B091603ABF70.png" width="172.00" height="135.00" transform="matrix(1.00, 0.00, -0.00, -1.00, 538.0, 521.4)" opacity="0.07"></image><path d="M 0.0 0.0 L 163.3 0.0 L 163.3 125.9 L 0.0 125.9 Z M 0.0 0.0 " fill="none" stroke="#A7A7A7" stroke-opacity="0.20" stroke-width="1.00" transform="matrix(1.00, 0.00, 0.00, -1.00, 542.5, 519.9)"></path></g></g><g><clipPath id="clip-132"><path d="M 564.8 440.3 L 594.6 440.3 L 594.6 505.7 L 564.8 505.7 Z M 564.8 440.3 "></path></clipPath><g clip-path="url(#clip-132)"><image xlink:href="32BB1224D5F3A9124DFE47DA77EDDCE8.png" width="28.00" height="63.00" transform="matrix(0.99, 0.00, -0.00, -1.01, 565.8, 504.7)" opacity="0.07"></image><path d="M 0.0 0.0 L 18.9 0.0 L 18.9 54.5 L 0.0 54.5 Z M 0.0 0.0 " fill="none" stroke="#A7A7A7" stroke-opacity="0.20" stroke-width="1.00" transform="matrix(1.00, 0.00, 0.00, -1.00, 570.3, 503.2)"></path></g></g><g><clipPath id="clip-133"><path d="M 588.4 440.3 L 618.3 440.3 L 618.3 505.7 L 588.4 505.7 Z M 588.4 440.3 "></path></clipPath><g clip-path="url(#clip-133)"><image xlink:href="../../33506A68-10FB-43B5-BCFE-F7F304207DBB/assets/32BB1224D5F3A9124DFE47DA77EDDCE8.png" width="28.00" height="63.00" transform="matrix(0.99, 0.00, -0.00, -1.01, 589.4, 504.7)" opacity="0.07"></image><path d="M 0.0 0.0 L 18.9 0.0 L 18.9 54.5 L 0.0 54.5 Z M 0.0 0.0 " fill="none" stroke="#A7A7A7" stroke-opacity="0.20" stroke-width="1.00" transform="matrix(1.00, 0.00, 0.00, -1.00, 593.9, 503.2)"></path></g></g><g opacity="0.20"><g><clipPath id="clip-134"><path d="M 576.5 507.1 L 583.2 507.1 L 583.2 507.9 L 576.5 507.9 Z M 576.5 507.1 "></path></clipPath><g clip-path="url(#clip-134)"><text xml:space="preserve" font-family="TrebuchetMS" font-size="18.0" fill="#FFFFFF" transform="matrix(1.00, 0.00, -0.00, -1.00, 577.0, 491.0)">S</text></g></g></g><g opacity="0.20"><g><clipPath id="clip-135"><path d="M 600.0 506.8 L 606.1 506.8 L 606.1 507.6 L 600.0 507.6 Z M 600.0 506.8 "></path></clipPath><g clip-path="url(#clip-135)"><text xml:space="preserve" font-family="TrebuchetMS" font-size="18.0" fill="#FFFFFF" transform="matrix(1.00, 0.00, -0.00, -1.00, 600.0, 491.0)">H</text></g></g></g><g><clipPath id="clip-136"><path d="M 566.4 441.2 L 593.1 441.2 L 593.1 460.9 L 566.4 460.9 Z M 566.4 441.2 "></path></clipPath><g clip-path="url(#clip-136)"><image xlink:href="774D81D699B7B57112F666D460DC14CD.png" width="25.00" height="18.00" transform="matrix(0.99, 0.00, -0.00, -0.99, 567.4, 459.9)" opacity="0.07"></image><path d="M 0.0 0.0 L 15.7 0.0 L 15.7 8.8 L 0.0 8.8 Z M 0.0 0.0 " fill="none" stroke="#FFC193" stroke-opacity="0.20" stroke-width="1.00" transform="matrix(1.00, 0.00, 0.00, -1.00, 571.9, 458.4)"></path></g></g><g><clipPath id="clip-137"><path d="M 566.4 450.9 L 593.1 450.9 L 593.1 470.6 L 566.4 470.6 Z M 566.4 450.9 "></path></clipPath><g clip-path="url(#clip-137)"><image xlink:href="../../33506A68-10FB-43B5-BCFE-F7F304207DBB/assets/774D81D699B7B57112F666D460DC14CD.png" width="25.00" height="18.00" transform="matrix(0.99, 0.00, -0.00, -0.99, 567.4, 469.6)" opacity="0.07"></image><path d="M 0.0 0.0 L 15.7 0.0 L 15.7 8.8 L 0.0 8.8 Z M 0.0 0.0 " fill="none" stroke="#FFC193" stroke-opacity="0.20" stroke-width="1.00" transform="matrix(1.00, 0.00, 0.00, -1.00, 571.9, 468.1)"></path></g></g><g><clipPath id="clip-138"><path d="M 566.4 460.6 L 593.1 460.6 L 593.1 480.3 L 566.4 480.3 Z M 566.4 460.6 "></path></clipPath><g clip-path="url(#clip-138)"><image xlink:href="../../33506A68-10FB-43B5-BCFE-F7F304207DBB/assets/774D81D699B7B57112F666D460DC14CD.png" width="25.00" height="18.00" transform="matrix(0.99, 0.00, -0.00, -0.99, 567.4, 479.3)" opacity="0.07"></image><path d="M 0.0 0.0 L 15.7 0.0 L 15.7 8.8 L 0.0 8.8 Z M 0.0 0.0 " fill="none" stroke="#FFC193" stroke-opacity="0.20" stroke-width="1.00" transform="matrix(1.00, 0.00, 0.00, -1.00, 571.9, 477.8)"></path></g></g><g><clipPath id="clip-139"><path d="M 591.9 473.9 L 606.2 473.9 L 606.2 488.3 L 591.9 488.3 Z M 591.9 473.9 "></path></clipPath><g clip-path="url(#clip-139)"><image xlink:href="8AF612BF6AA7774226AE19CC5D5D1AB0.png" width="12.00" height="12.00" transform="matrix(1.02, 0.00, -0.00, -1.03, 592.9, 487.3)" opacity="0.07"></image><path d="M 596.9 486.3 L 601.2 486.3 L 601.2 481.9 L 596.9 481.9 Z M 596.9 486.3 " fill="#DAA492" fill-opacity="0.20"></path></g></g><g><clipPath id="clip-140"><path d="M 600.4 468.8 L 614.7 468.8 L 614.7 483.2 L 600.4 483.2 Z M 600.4 468.8 "></path></clipPath><g clip-path="url(#clip-140)"><image xlink:href="../../33506A68-10FB-43B5-BCFE-F7F304207DBB/assets/8AF612BF6AA7774226AE19CC5D5D1AB0.png" width="12.00" height="12.00" transform="matrix(1.02, 0.00, -0.00, -1.03, 601.4, 482.2)" opacity="0.07"></image><path d="M 605.4 481.2 L 609.7 481.2 L 609.7 476.8 L 605.4 476.8 Z M 605.4 481.2 " fill="#FF8427" fill-opacity="0.20"></path></g></g><g><clipPath id="clip-141"><path d="M 591.9 453.6 L 606.2 453.6 L 606.2 468.0 L 591.9 468.0 Z M 591.9 453.6 "></path></clipPath><g clip-path="url(#clip-141)"><image xlink:href="../../33506A68-10FB-43B5-BCFE-F7F304207DBB/assets/8AF612BF6AA7774226AE19CC5D5D1AB0.png" width="12.00" height="12.00" transform="matrix(1.02, 0.00, -0.00, -1.03, 592.9, 467.0)" opacity="0.07"></image><path d="M 596.9 466.0 L 601.2 466.0 L 601.2 461.6 L 596.9 461.6 Z M 596.9 466.0 " fill="#DDDDDD" fill-opacity="0.20"></path></g></g><g><clipPath id="clip-142"><path d="M 596.2 461.1 L 610.5 461.1 L 610.5 475.5 L 596.2 475.5 Z M 596.2 461.1 "></path></clipPath><g clip-path="url(#clip-142)"><image xlink:href="../../33506A68-10FB-43B5-BCFE-F7F304207DBB/assets/8AF612BF6AA7774226AE19CC5D5D1AB0.png" width="12.00" height="12.00" transform="matrix(1.02, 0.00, -0.00, -1.03, 597.2, 474.5)" opacity="0.07"></image></g></g><g><clipPath id="clip-143"><path d="M 596.2 461.1 L 610.5 461.1 L 610.5 475.5 L 596.2 475.5 Z M 596.2 461.1 "></path></clipPath><g clip-path="url(#clip-143)"><g opacity="0.20"><g><clipPath id="clip-144"><path d="M 601.2 473.5 L 605.5 473.5 L 605.5 469.1 L 601.2 469.1 Z M 601.2 473.5 "></path></clipPath><g clip-path="url(#clip-144)"><g><clipPath id="clip-145"><path d="M 601.0 469.0 L 606.0 469.0 L 606.0 474.0 L 601.0 474.0 Z M 601.0 469.0 "></path></clipPath><g clip-path="url(#clip-145)"><image xlink:href="../../08CB438B-0720-4EA2-AF4C-9E07406D244A/assets/B7B6145CAF99AEB9BD2364C17C353129.jpeg" width="500.00" height="500.00" transform="matrix(1.00, 0.00, -0.00, -1.00, 601.2, 473.5)"></image></g></g></g></g></g></g></g><g><clipPath id="clip-146"><path d="M 600.4 449.5 L 614.7 449.5 L 614.7 463.9 L 600.4 463.9 Z M 600.4 449.5 "></path></clipPath><g clip-path="url(#clip-146)"><image xlink:href="../../33506A68-10FB-43B5-BCFE-F7F304207DBB/assets/8AF612BF6AA7774226AE19CC5D5D1AB0.png" width="12.00" height="12.00" transform="matrix(1.02, 0.00, -0.00, -1.03, 601.4, 462.9)" opacity="0.07"></image></g></g><g><clipPath id="clip-147"><path d="M 600.4 449.5 L 614.7 449.5 L 614.7 463.9 L 600.4 463.9 Z M 600.4 449.5 "></path></clipPath><g clip-path="url(#clip-147)"><g opacity="0.20"><g><clipPath id="clip-148"><path d="M 605.4 461.9 L 609.7 461.9 L 609.7 457.5 L 605.4 457.5 Z M 605.4 461.9 "></path></clipPath><g clip-path="url(#clip-148)"><g><clipPath id="clip-149"><path d="M 605.0 457.0 L 610.0 457.0 L 610.0 462.0 L 605.0 462.0 Z M 605.0 457.0 "></path></clipPath><g clip-path="url(#clip-149)"><path d="M 605.0 457.0 L 610.0 457.0 L 610.0 462.0 L 605.0 462.0 Z M 605.0 457.0 " fill="url(#gradSh1.4)"></path></g></g></g></g></g></g></g><g opacity="0.20"><g><clipPath id="clip-150"><path d="M 586.0 438.0 L 612.0 438.0 L 612.0 438.8 L 586.0 438.8 Z M 586.0 438.0 "></path></clipPath><g clip-path="url(#clip-150)"><text xml:space="preserve" font-family="TrebuchetMS" font-size="18.0" fill="#FFFFFF" transform="matrix(1.00, 0.00, -0.00, -1.00, 590.0, 422.0)">E</text></g></g></g><g><clipPath id="clip-151"><path d="M 558.4 394.6 L 695.3 394.6 L 695.3 434.3 L 558.4 434.3 Z M 558.4 394.6 "></path></clipPath><g clip-path="url(#clip-151)"><image xlink:href="934FE50E0A8A7532434D4F096712AC4F.png" width="135.00" height="38.00" transform="matrix(1.00, 0.00, -0.00, -0.99, 559.4, 433.3)" opacity="0.07"></image><path d="M 0.0 0.0 L 125.9 0.0 L 125.9 28.8 L 0.0 28.8 Z M 0.0 0.0 " fill="none" stroke="#A7A7A7" stroke-opacity="0.20" stroke-width="1.00" transform="matrix(1.00, 0.00, 0.00, -1.00, 563.9, 431.8)"></path></g></g><g opacity="0.20"><g><clipPath id="clip-152"><path d="M 660.8 504.5 L 672.0 504.5 L 672.0 505.3 L 660.8 505.3 Z M 660.8 504.5 "></path></clipPath><g clip-path="url(#clip-152)"><text xml:space="preserve" font-family="TrebuchetMS" font-size="18.0" fill="#FFFFFF" transform="matrix(1.00, 0.00, -0.00, -1.00, 661.0, 488.0)">W</text></g></g></g><g><clipPath id="clip-153"><path d="M 648.7 448.2 L 684.0 448.2 L 684.0 504.3 L 648.7 504.3 Z M 648.7 448.2 "></path></clipPath><g clip-path="url(#clip-153)"><image xlink:href="2D886E2931CC735972C1CE463A5898B0.png" width="33.00" height="54.00" transform="matrix(1.01, 0.00, -0.00, -1.00, 649.7, 503.3)" opacity="0.07"></image><path d="M 0.0 0.0 L 24.3 0.0 L 24.3 45.1 L 0.0 45.1 Z M 0.0 0.0 " fill="none" stroke="#A7A7A7" stroke-opacity="0.20" stroke-width="1.00" transform="matrix(1.00, 0.00, 0.00, -1.00, 654.2, 501.8)"></path></g></g><g opacity="0.20"><g><clipPath id="clip-154"><path d="M 663.2 492.0 L 670.7 492.0 L 670.7 492.8 L 663.2 492.8 Z M 663.2 492.0 "></path></clipPath><g clip-path="url(#clip-154)"><text xml:space="preserve" font-family="TrebuchetMS" font-size="18.0" fill="#FFFFFF" transform="matrix(1.00, 0.00, -0.00, -1.00, 663.0, 476.0)">T</text></g></g></g><g opacity="0.20"><g><clipPath id="clip-155"><path d="M 664.0 483.2 L 668.7 483.2 L 668.7 484.0 L 664.0 484.0 Z M 664.0 483.2 "></path></clipPath><g clip-path="url(#clip-155)"><text xml:space="preserve" font-family="TrebuchetMS" font-size="18.0" fill="#FFFFFF" transform="matrix(1.00, 0.00, -0.00, -1.00, 664.0, 467.0)">A</text></g></g></g><g opacity="0.20"><g><clipPath id="clip-156"><path d="M 664.0 474.5 L 668.7 474.5 L 668.7 475.3 L 664.0 475.3 Z M 664.0 474.5 "></path></clipPath><g clip-path="url(#clip-156)"><text xml:space="preserve" font-family="TrebuchetMS" font-size="18.0" fill="#FFFFFF" transform="matrix(1.00, 0.00, -0.00, -1.00, 664.0, 458.0)">D</text></g></g></g><g opacity="0.20"><g><clipPath id="clip-157"><path d="M 664.5 465.4 L 668.2 465.4 L 668.2 466.2 L 664.5 466.2 Z M 664.5 465.4 "></path></clipPath><g clip-path="url(#clip-157)"><text xml:space="preserve" font-family="TrebuchetMS" font-size="18.0" fill="#FFFFFF" transform="matrix(1.00, 0.00, -0.00, -1.00, 664.0, 449.0)">e</text></g></g></g><g opacity="0.20"><g><clipPath id="clip-158"><path d="M 543.0 415.9 L 563.0 415.9 L 563.0 420.7 L 543.0 420.7 Z M 543.0 415.9 "></path></clipPath><g clip-path="url(#clip-158)"><text xml:space="preserve" font-family="TrebuchetMS" font-size="16.0" fill="#FFFFFF" transform="matrix(1.00, 0.00, -0.00, -1.00, 548.0, 405.0)">C</text></g></g></g><g><clipPath id="clip-159"><path d="M 582.2 465.2 L 657.1 486.2 L 662.4 467.3 L 587.5 446.3 Z M 582.2 465.2 "></path></clipPath><g clip-path="url(#clip-159)"><image xlink:href="5CAD9CB7F121DA362F0BD207FB05176C.png" width="76.00" height="18.00" transform="matrix(0.96, 0.27, 0.26, -0.94, 583.4, 464.5)" opacity="0.07"></image></g></g><g><clipPath id="clip-160"><path d="M 582.2 465.2 L 657.1 486.2 L 662.4 467.3 L 587.5 446.3 Z M 582.2 465.2 "></path></clipPath><g clip-path="url(#clip-160)"><g opacity="0.20"><g><clipPath id="clip-161"><path d="M 588.0 455.0 L 657.0 455.0 L 657.0 484.0 L 588.0 484.0 Z M 588.0 455.0 "></path></clipPath><g clip-path="url(#clip-161)"><path d="M 0.0 0.0 L 58.2 0.0 L 59.2 0.0 " fill="none" stroke="#CC9738" stroke-width="2.00" stroke-dasharray="2.0, 2.0" transform="matrix(0.96, 0.27, 0.27, -0.96, 589.7, 460.1)"></path><path d="M 647.0 471.2 L 654.9 478.4 L 644.4 480.4 Z M 647.0 471.2 " fill="#CC9738"></path></g></g></g></g></g><g><clipPath id="clip-162"><path d="M 562.4 399.9 L 594.0 399.9 L 594.0 429.0 L 562.4 429.0 Z M 562.4 399.9 "></path></clipPath><g clip-path="url(#clip-162)"><image xlink:href="59C34F3B3B5D576F0B9149299B5EBB41.png" width="30.00" height="27.00" transform="matrix(0.99, 0.00, -0.00, -1.00, 563.4, 428.0)" opacity="0.07"></image><path d="M 4.5 0.0 L 15.1 0.0 C 16.4 0.0 17.1 0.0 17.8 0.2 C 18.5 0.5 19.1 1.1 19.4 1.9 C 19.6 2.6 19.6 3.2 19.6 4.5 L 19.6 12.6 C 19.6 13.9 19.6 14.5 19.4 15.2 C 19.1 16.0 18.5 16.6 17.8 16.9 C 17.1 17.1 16.4 17.1 15.1 17.1 L 4.5 17.1 C 3.2 17.1 2.6 17.1 1.9 16.9 C 1.1 16.6 0.5 16.0 0.2 15.2 C 0.0 14.5 0.0 13.9 0.0 12.6 L 0.0 4.5 C 0.0 3.2 0.0 2.6 0.2 1.9 C 0.5 1.1 1.1 0.5 1.9 0.2 C 2.6 0.0 3.2 0.0 4.5 0.0 Z M 4.5 0.0 " fill="none" stroke="#D8927F" stroke-opacity="0.20" stroke-width="2.00" stroke-linejoin="round" transform="matrix(1.00, 0.00, 0.00, -1.00, 568.4, 426.0)"></path></g></g><g><clipPath id="clip-163"><path d="M 588.6 400.0 L 620.2 400.0 L 620.2 429.1 L 588.6 429.1 Z M 588.6 400.0 "></path></clipPath><g clip-path="url(#clip-163)"><image xlink:href="../../33506A68-10FB-43B5-BCFE-F7F304207DBB/assets/59C34F3B3B5D576F0B9149299B5EBB41.png" width="30.00" height="27.00" transform="matrix(0.99, 0.00, -0.00, -1.00, 589.6, 428.1)" opacity="0.07"></image><path d="M 4.5 0.0 L 15.1 0.0 C 16.4 0.0 17.1 0.0 17.8 0.2 C 18.5 0.5 19.1 1.1 19.4 1.9 C 19.6 2.6 19.6 3.2 19.6 4.5 L 19.6 12.6 C 19.6 13.9 19.6 14.5 19.4 15.2 C 19.1 16.0 18.5 16.6 17.8 16.9 C 17.1 17.1 16.4 17.1 15.1 17.1 L 4.5 17.1 C 3.2 17.1 2.6 17.1 1.9 16.9 C 1.1 16.6 0.5 16.0 0.2 15.2 C 0.0 14.5 0.0 13.9 0.0 12.6 L 0.0 4.5 C 0.0 3.2 0.0 2.6 0.2 1.9 C 0.5 1.1 1.1 0.5 1.9 0.2 C 2.6 0.0 3.2 0.0 4.5 0.0 Z M 4.5 0.0 " fill="none" stroke="#D8927F" stroke-opacity="0.20" stroke-width="2.00" stroke-linejoin="round" transform="matrix(1.00, 0.00, 0.00, -1.00, 594.6, 426.1)"></path></g></g><g><clipPath id="clip-164"><path d="M 614.7 400.0 L 646.3 400.0 L 646.3 429.1 L 614.7 429.1 Z M 614.7 400.0 "></path></clipPath><g clip-path="url(#clip-164)"><image xlink:href="../../33506A68-10FB-43B5-BCFE-F7F304207DBB/assets/59C34F3B3B5D576F0B9149299B5EBB41.png" width="30.00" height="27.00" transform="matrix(0.99, 0.00, -0.00, -1.00, 615.7, 428.1)" opacity="0.07"></image><path d="M 4.5 0.0 L 15.1 0.0 C 16.4 0.0 17.1 0.0 17.8 0.2 C 18.5 0.5 19.1 1.1 19.4 1.9 C 19.6 2.6 19.6 3.2 19.6 4.5 L 19.6 12.6 C 19.6 13.9 19.6 14.5 19.4 15.2 C 19.1 16.0 18.5 16.6 17.8 16.9 C 17.1 17.1 16.4 17.1 15.1 17.1 L 4.5 17.1 C 3.2 17.1 2.6 17.1 1.9 16.9 C 1.1 16.6 0.5 16.0 0.2 15.2 C 0.0 14.5 0.0 13.9 0.0 12.6 L 0.0 4.5 C 0.0 3.2 0.0 2.6 0.2 1.9 C 0.5 1.1 1.1 0.5 1.9 0.2 C 2.6 0.0 3.2 0.0 4.5 0.0 Z M 4.5 0.0 " fill="none" stroke="#D8927F" stroke-opacity="0.20" stroke-width="2.00" stroke-linejoin="round" transform="matrix(1.00, 0.00, 0.00, -1.00, 620.7, 426.1)"></path></g></g><g><clipPath id="clip-165"><path d="M 640.9 399.9 L 672.5 399.9 L 672.5 429.0 L 640.9 429.0 Z M 640.9 399.9 "></path></clipPath><g clip-path="url(#clip-165)"><image xlink:href="../../33506A68-10FB-43B5-BCFE-F7F304207DBB/assets/59C34F3B3B5D576F0B9149299B5EBB41.png" width="30.00" height="27.00" transform="matrix(0.99, 0.00, -0.00, -1.00, 641.9, 428.0)" opacity="0.07"></image><path d="M 4.5 0.0 L 15.1 0.0 C 16.4 0.0 17.1 0.0 17.8 0.2 C 18.5 0.5 19.1 1.1 19.4 1.9 C 19.6 2.6 19.6 3.2 19.6 4.5 L 19.6 12.6 C 19.6 13.9 19.6 14.5 19.4 15.2 C 19.1 16.0 18.5 16.6 17.8 16.9 C 17.1 17.1 16.4 17.1 15.1 17.1 L 4.5 17.1 C 3.2 17.1 2.6 17.1 1.9 16.9 C 1.1 16.6 0.5 16.0 0.2 15.2 C 0.0 14.5 0.0 13.9 0.0 12.6 L 0.0 4.5 C 0.0 3.2 0.0 2.6 0.2 1.9 C 0.5 1.1 1.1 0.5 1.9 0.2 C 2.6 0.0 3.2 0.0 4.5 0.0 Z M 4.5 0.0 " fill="none" stroke="#D8927F" stroke-opacity="0.20" stroke-width="2.00" stroke-linejoin="round" transform="matrix(1.00, 0.00, 0.00, -1.00, 646.9, 426.0)"></path></g></g><g><clipPath id="clip-166"><path d="M 675.9 458.5 L 675.9 424.2 L 656.3 424.2 L 656.3 458.5 Z M 675.9 458.5 "></path></clipPath><g clip-path="url(#clip-166)"><image xlink:href="83539AAB3582C1644AD24940274F26A1.png" width="32.00" height="18.00" transform="matrix(0.00, -1.01, -0.98, 0.00, 674.9, 457.5)" opacity="0.07"></image></g></g><g><clipPath id="clip-167"><path d="M 675.9 458.5 L 675.9 424.2 L 656.3 424.2 L 656.3 458.5 Z M 675.9 458.5 "></path></clipPath><g clip-path="url(#clip-167)"><g opacity="0.20"><g><clipPath id="clip-168"><path d="M 661.0 432.0 L 671.0 432.0 L 671.0 457.0 L 661.0 457.0 Z M 661.0 432.0 "></path></clipPath><g clip-path="url(#clip-168)"><path d="M 0.0 0.0 L 14.7 0.0 L 15.7 0.0 " fill="none" stroke="#CC9738" stroke-width="2.00" stroke-dasharray="2.0, 2.0" transform="matrix(0.00, -1.00, -1.00, 0.00, 666.1, 456.5)"></path><path d="M 661.3 441.8 L 666.1 432.2 L 670.9 441.8 Z M 661.3 441.8 " fill="#CC9738"></path></g></g></g></g></g><g><clipPath id="clip-169"><path d="M 575.3 434.1 L 584.4 434.1 L 584.4 443.1 L 575.3 443.1 Z M 575.3 434.1 "></path></clipPath><g clip-path="url(#clip-169)"><image xlink:href="../../08CB438B-0720-4EA2-AF4C-9E07406D244A/assets/1FAADBDC57E8599B3BDE544551FE98B7.png" width="34.00" height="34.00" transform="matrix(0.26, 0.00, -0.00, -0.26, 575.0, 443.0)" opacity="0.20"></image></g></g><g><clipPath id="clip-170"><path d="M 532.9 510.7 L 552.1 510.7 L 552.1 529.8 L 532.9 529.8 Z M 532.9 510.7 "></path></clipPath><g clip-path="url(#clip-170)"><image xlink:href="../../08CB438B-0720-4EA2-AF4C-9E07406D244A/assets/3650FBFB20B7640FD1A2D2D8721F2EBC.png" width="71.00" height="71.00" transform="matrix(0.27, 0.00, -0.00, -0.27, 533.0, 530.0)" opacity="0.20"></image></g></g><g><clipPath id="clip-171"><path d="M 560.1 436.3 L 623.4 436.3 L 623.4 513.6 L 560.1 513.6 Z M 560.1 436.3 "></path></clipPath><g clip-path="url(#clip-171)"><image xlink:href="20FB089FF639BFE8503CEAD4B16B5CB3.png" width="61.00" height="75.00" transform="matrix(1.00, 0.00, -0.00, -1.00, 561.1, 512.6)" opacity="0.07"></image><path d="M 0.0 0.0 L 52.3 0.0 L 52.3 66.2 L 0.0 66.2 Z M 0.0 0.0 " fill="none" stroke="#A7A7A7" stroke-opacity="0.20" stroke-width="1.00" transform="matrix(1.00, 0.00, 0.00, -1.00, 565.6, 511.1)"></path></g></g><g><clipPath id="clip-172"><path d="M 561.2 506.5 L 570.2 506.5 L 570.2 515.5 L 561.2 515.5 Z M 561.2 506.5 "></path></clipPath><g clip-path="url(#clip-172)"><image xlink:href="../../08CB438B-0720-4EA2-AF4C-9E07406D244A/assets/FF380B54FEDD024B6D43B70E1AC7183F.png" width="34.00" height="34.00" transform="matrix(0.26, 0.00, -0.00, -0.29, 561.0, 516.0)" opacity="0.20"></image></g></g><image xlink:href="8DCB3B733FA0CDEEDA9BB93639177EE9.png" width="100.00" height="226.00" transform="matrix(1.00, 0.00, -0.00, -1.00, 366.7, 404.7)" opacity="0.35"></image><path d="M 0.0 0.0 L 91.4 0.0 L 91.4 217.4 L 0.0 217.4 Z M 0.0 0.0 " fill="none" stroke="#A7A7A7" stroke-width="1.00" transform="matrix(1.00, 0.00, 0.00, -1.00, 371.2, 403.2)"></path><text xml:space="preserve" font-family="TrebuchetMS" font-size="18.0" fill="#FFFFFF" transform="matrix(1.00, 0.00, -0.00, -1.00, 395.0, 417.0)">S</text><text xml:space="preserve" font-family="TrebuchetMS" font-size="18.0" fill="#FFFFFF" transform="matrix(1.00, 0.00, -0.00, -1.00, 403.7, 417.0)">t</text><text xml:space="preserve" font-family="TrebuchetMS" font-size="18.0" fill="#FFFFFF" transform="matrix(1.00, 0.00, -0.00, -1.00, 410.8, 417.0)">a</text><text xml:space="preserve" font-family="TrebuchetMS" font-size="18.0" fill="#FFFFFF" transform="matrix(1.00, 0.00, -0.00, -1.00, 420.3, 417.0)">c</text><text xml:space="preserve" font-family="TrebuchetMS" font-size="18.0" fill="#FFFFFF" transform="matrix(1.00, 0.00, -0.00, -1.00, 429.2, 417.0)">k</text><text xml:space="preserve" font-family="TrebuchetMS" font-size="18.0" fill="#FFFFFF" transform="matrix(1.00, 0.00, -0.00, -1.00, 73.0, 388.0)">c</text><text xml:space="preserve" font-family="TrebuchetMS" font-size="18.0" fill="#FFFFFF" transform="matrix(1.00, 0.00, -0.00, -1.00, 81.9, 388.0)">o</text><text xml:space="preserve" font-family="TrebuchetMS" font-size="18.0" fill="#FFFFFF" transform="matrix(1.00, 0.00, -0.00, -1.00, 91.6, 388.0)">n</text><text xml:space="preserve" font-family="TrebuchetMS" font-size="18.0" fill="#FFFFFF" transform="matrix(1.00, 0.00, -0.00, -1.00, 101.4, 388.0)">s</text><text xml:space="preserve" font-family="TrebuchetMS" font-size="18.0" fill="#FFFFFF" transform="matrix(1.00, 0.00, -0.00, -1.00, 108.7, 388.0)">o</text><text xml:space="preserve" font-family="TrebuchetMS" font-size="18.0" fill="#FFFFFF" transform="matrix(1.00, 0.00, -0.00, -1.00, 118.3, 388.0)">l</text><text xml:space="preserve" font-family="TrebuchetMS" font-size="18.0" fill="#FFFFFF" transform="matrix(1.00, 0.00, -0.00, -1.00, 123.6, 388.0)">e</text><text xml:space="preserve" font-family="TrebuchetMS" font-size="18.0" fill="#FFFFFF" transform="matrix(1.00, 0.00, -0.00, -1.00, 133.5, 388.0)">.</text><text xml:space="preserve" font-family="TrebuchetMS" font-size="18.0" fill="#FFFFFF" transform="matrix(1.00, 0.00, -0.00, -1.00, 140.1, 388.0)">l</text><text xml:space="preserve" font-family="TrebuchetMS" font-size="18.0" fill="#FFFFFF" transform="matrix(1.00, 0.00, -0.00, -1.00, 145.4, 388.0)">o</text><text xml:space="preserve" font-family="TrebuchetMS" font-size="18.0" fill="#FFFFFF" transform="matrix(1.00, 0.00, -0.00, -1.00, 155.0, 388.0)">g</text><text xml:space="preserve" font-family="TrebuchetMS" font-size="18.0" fill="#FFFFFF" transform="matrix(1.00, 0.00, -0.00, -1.00, 164.1, 388.0)">(</text><text xml:space="preserve" font-family="TrebuchetMS" font-size="18.0" fill="#FFFFFF" transform="matrix(1.00, 0.00, -0.00, -1.00, 170.7, 388.0)">‘</text><text xml:space="preserve" font-family="TrebuchetMS" font-size="18.0" fill="#FFFFFF" transform="matrix(1.00, 0.00, -0.00, -1.00, 177.3, 388.0)">s</text><text xml:space="preserve" font-family="TrebuchetMS" font-size="18.0" fill="#FFFFFF" transform="matrix(1.00, 0.00, -0.00, -1.00, 184.6, 388.0)">c</text><text xml:space="preserve" font-family="TrebuchetMS" font-size="18.0" fill="#FFFFFF" transform="matrix(1.00, 0.00, -0.00, -1.00, 193.5, 388.0)">r</text><text xml:space="preserve" font-family="TrebuchetMS" font-size="18.0" fill="#FFFFFF" transform="matrix(1.00, 0.00, -0.00, -1.00, 200.5, 388.0)">i</text><text xml:space="preserve" font-family="TrebuchetMS" font-size="18.0" fill="#FFFFFF" transform="matrix(1.00, 0.00, -0.00, -1.00, 205.6, 388.0)">p</text><text xml:space="preserve" font-family="TrebuchetMS" font-size="18.0" fill="#FFFFFF" transform="matrix(1.00, 0.00, -0.00, -1.00, 215.7, 388.0)">t</text><text xml:space="preserve" font-family="TrebuchetMS" font-size="18.0" fill="#FFFFFF" transform="matrix(1.00, 0.00, -0.00, -1.00, 222.8, 388.0)"> </text><text xml:space="preserve" font-family="TrebuchetMS" font-size="18.0" fill="#FFFFFF" transform="matrix(1.00, 0.00, -0.00, -1.00, 228.2, 388.0)">s</text><text xml:space="preserve" font-family="TrebuchetMS" font-size="18.0" fill="#FFFFFF" transform="matrix(1.00, 0.00, -0.00, -1.00, 235.5, 388.0)">t</text><text xml:space="preserve" font-family="TrebuchetMS" font-size="18.0" fill="#FFFFFF" transform="matrix(1.00, 0.00, -0.00, -1.00, 242.7, 388.0)">a</text><text xml:space="preserve" font-family="TrebuchetMS" font-size="18.0" fill="#FFFFFF" transform="matrix(1.00, 0.00, -0.00, -1.00, 252.1, 388.0)">r</text><text xml:space="preserve" font-family="TrebuchetMS" font-size="18.0" fill="#FFFFFF" transform="matrix(1.00, 0.00, -0.00, -1.00, 259.1, 388.0)">t</text><text xml:space="preserve" font-family="TrebuchetMS" font-size="18.0" fill="#FFFFFF" transform="matrix(1.00, 0.00, -0.00, -1.00, 266.3, 388.0)">’</text><text xml:space="preserve" font-family="TrebuchetMS" font-size="18.0" fill="#FFFFFF" transform="matrix(1.00, 0.00, -0.00, -1.00, 272.9, 388.0)">)</text><text xml:space="preserve" font-family="TrebuchetMS" font-size="18.0" fill="#FFFFFF" transform="matrix(1.00, 0.00, -0.00, -1.00, 279.5, 388.0)">;</text><text xml:space="preserve" font-family="TrebuchetMS" font-size="18.0" fill="#FFFFFF" transform="matrix(1.00, 0.00, -0.00, -1.00, 286.1, 388.0)"> </text><text xml:space="preserve" font-family="TrebuchetMS" font-size="18.0" fill="#FFFFFF" transform="matrix(1.00, 0.00, -0.00, -1.00, 73.0, 346.0)">s</text><text xml:space="preserve" font-family="TrebuchetMS" font-size="18.0" fill="#FFFFFF" transform="matrix(1.00, 0.00, -0.00, -1.00, 80.3, 346.0)">e</text><text xml:space="preserve" font-family="TrebuchetMS" font-size="18.0" fill="#FFFFFF" transform="matrix(1.00, 0.00, -0.00, -1.00, 90.1, 346.0)">t</text><text xml:space="preserve" font-family="TrebuchetMS" font-size="18.0" fill="#FFFFFF" transform="matrix(1.00, 0.00, -0.00, -1.00, 97.3, 346.0)">T</text><text xml:space="preserve" font-family="TrebuchetMS" font-size="18.0" fill="#FFFFFF" transform="matrix(1.00, 0.00, -0.00, -1.00, 107.0, 346.0)">i</text><text xml:space="preserve" font-family="TrebuchetMS" font-size="18.0" fill="#FFFFFF" transform="matrix(1.00, 0.00, -0.00, -1.00, 112.1, 346.0)">m</text><text xml:space="preserve" font-family="TrebuchetMS" font-size="18.0" fill="#FFFFFF" transform="matrix(1.00, 0.00, -0.00, -1.00, 127.0, 346.0)">e</text><text xml:space="preserve" font-family="TrebuchetMS" font-size="18.0" fill="#FFFFFF" transform="matrix(1.00, 0.00, -0.00, -1.00, 136.9, 346.0)">o</text><text xml:space="preserve" font-family="TrebuchetMS" font-size="18.0" fill="#FFFFFF" transform="matrix(1.00, 0.00, -0.00, -1.00, 146.5, 346.0)">u</text><text xml:space="preserve" font-family="TrebuchetMS" font-size="18.0" fill="#FFFFFF" transform="matrix(1.00, 0.00, -0.00, -1.00, 156.4, 346.0)">t</text><text xml:space="preserve" font-family="TrebuchetMS" font-size="18.0" fill="#FFFFFF" transform="matrix(1.00, 0.00, -0.00, -1.00, 163.5, 346.0)">(</text><text xml:space="preserve" font-family="TrebuchetMS" font-size="18.0" fill="#FFFFFF" transform="matrix(1.00, 0.00, -0.00, -1.00, 170.1, 346.0)">f</text><text xml:space="preserve" font-family="TrebuchetMS" font-size="18.0" fill="#FFFFFF" transform="matrix(1.00, 0.00, -0.00, -1.00, 176.8, 346.0)">u</text><text xml:space="preserve" font-family="TrebuchetMS" font-size="18.0" fill="#FFFFFF" transform="matrix(1.00, 0.00, -0.00, -1.00, 186.6, 346.0)">n</text><text xml:space="preserve" font-family="TrebuchetMS" font-size="18.0" fill="#FFFFFF" transform="matrix(1.00, 0.00, -0.00, -1.00, 196.5, 346.0)">c</text><text xml:space="preserve" font-family="TrebuchetMS" font-size="18.0" fill="#FFFFFF" transform="matrix(1.00, 0.00, -0.00, -1.00, 205.4, 346.0)">t</text><text xml:space="preserve" font-family="TrebuchetMS" font-size="18.0" fill="#FFFFFF" transform="matrix(1.00, 0.00, -0.00, -1.00, 212.5, 346.0)">i</text><text xml:space="preserve" font-family="TrebuchetMS" font-size="18.0" fill="#FFFFFF" transform="matrix(1.00, 0.00, -0.00, -1.00, 217.7, 346.0)">o</text><text xml:space="preserve" font-family="TrebuchetMS" font-size="18.0" fill="#FFFFFF" transform="matrix(1.00, 0.00, -0.00, -1.00, 227.3, 346.0)">n</text><text xml:space="preserve" font-family="TrebuchetMS" font-size="18.0" fill="#FFFFFF" transform="matrix(1.00, 0.00, -0.00, -1.00, 237.2, 346.0)">(</text><text xml:space="preserve" font-family="TrebuchetMS" font-size="18.0" fill="#FFFFFF" transform="matrix(1.00, 0.00, -0.00, -1.00, 243.8, 346.0)">)</text><text xml:space="preserve" font-family="TrebuchetMS" font-size="18.0" fill="#FFFFFF" transform="matrix(1.00, 0.00, -0.00, -1.00, 250.4, 346.0)"> </text><text xml:space="preserve" font-family="TrebuchetMS" font-size="18.0" fill="#FFFFFF" transform="matrix(1.00, 0.00, -0.00, -1.00, 255.8, 346.0)">{</text><text xml:space="preserve" font-family="TrebuchetMS" font-size="18.0" fill="#FFFFFF" transform="matrix(1.00, 0.00, -0.00, -1.00, 262.4, 346.0)"> </text><text xml:space="preserve" font-family="TrebuchetMS" font-size="18.0" fill="#FFFFFF" transform="matrix(1.00, 0.00, -0.00, -1.00, 73.0, 325.0)"> </text><text xml:space="preserve" font-family="TrebuchetMS" font-size="18.0" fill="#FFFFFF" transform="matrix(1.00, 0.00, -0.00, -1.00, 78.4, 325.0)"> </text><text xml:space="preserve" font-family="TrebuchetMS" font-size="18.0" fill="#FFFFFF" transform="matrix(1.00, 0.00, -0.00, -1.00, 83.9, 325.0)"> </text><text xml:space="preserve" font-family="TrebuchetMS" font-size="18.0" fill="#FFFFFF" transform="matrix(1.00, 0.00, -0.00, -1.00, 89.3, 325.0)"> </text><text xml:space="preserve" font-family="TrebuchetMS" font-size="18.0" fill="#FFFFFF" transform="matrix(1.00, 0.00, -0.00, -1.00, 94.7, 325.0)">c</text><text xml:space="preserve" font-family="TrebuchetMS" font-size="18.0" fill="#FFFFFF" transform="matrix(1.00, 0.00, -0.00, -1.00, 103.6, 325.0)">o</text><text xml:space="preserve" font-family="TrebuchetMS" font-size="18.0" fill="#FFFFFF" transform="matrix(1.00, 0.00, -0.00, -1.00, 113.3, 325.0)">n</text><text xml:space="preserve" font-family="TrebuchetMS" font-size="18.0" fill="#FFFFFF" transform="matrix(1.00, 0.00, -0.00, -1.00, 123.1, 325.0)">s</text><text xml:space="preserve" font-family="TrebuchetMS" font-size="18.0" fill="#FFFFFF" transform="matrix(1.00, 0.00, -0.00, -1.00, 130.4, 325.0)">o</text><text xml:space="preserve" font-family="TrebuchetMS" font-size="18.0" fill="#FFFFFF" transform="matrix(1.00, 0.00, -0.00, -1.00, 140.1, 325.0)">l</text><text xml:space="preserve" font-family="TrebuchetMS" font-size="18.0" fill="#FFFFFF" transform="matrix(1.00, 0.00, -0.00, -1.00, 145.4, 325.0)">e</text><text xml:space="preserve" font-family="TrebuchetMS" font-size="18.0" fill="#FFFFFF" transform="matrix(1.00, 0.00, -0.00, -1.00, 155.2, 325.0)">.</text><text xml:space="preserve" font-family="TrebuchetMS" font-size="18.0" fill="#FFFFFF" transform="matrix(1.00, 0.00, -0.00, -1.00, 161.8, 325.0)">l</text><text xml:space="preserve" font-family="TrebuchetMS" font-size="18.0" fill="#FFFFFF" transform="matrix(1.00, 0.00, -0.00, -1.00, 167.1, 325.0)">o</text><text xml:space="preserve" font-family="TrebuchetMS" font-size="18.0" fill="#FFFFFF" transform="matrix(1.00, 0.00, -0.00, -1.00, 176.8, 325.0)">g</text><text xml:space="preserve" font-family="TrebuchetMS" font-size="18.0" fill="#FFFFFF" transform="matrix(1.00, 0.00, -0.00, -1.00, 185.8, 325.0)">(</text><text xml:space="preserve" font-family="TrebuchetMS" font-size="18.0" fill="#FFFFFF" transform="matrix(1.00, 0.00, -0.00, -1.00, 192.4, 325.0)">‘</text><text xml:space="preserve" font-family="TrebuchetMS" font-size="18.0" fill="#FFFFFF" transform="matrix(1.00, 0.00, -0.00, -1.00, 199.0, 325.0)">s</text><text xml:space="preserve" font-family="TrebuchetMS" font-size="18.0" fill="#FFFFFF" transform="matrix(1.00, 0.00, -0.00, -1.00, 206.3, 325.0)">e</text><text xml:space="preserve" font-family="TrebuchetMS" font-size="18.0" fill="#FFFFFF" transform="matrix(1.00, 0.00, -0.00, -1.00, 216.1, 325.0)">t</text><text xml:space="preserve" font-family="TrebuchetMS" font-size="18.0" fill="#FFFFFF" transform="matrix(1.00, 0.00, -0.00, -1.00, 223.3, 325.0)">T</text><text xml:space="preserve" font-family="TrebuchetMS" font-size="18.0" fill="#FFFFFF" transform="matrix(1.00, 0.00, -0.00, -1.00, 233.0, 325.0)">i</text><text xml:space="preserve" font-family="TrebuchetMS" font-size="18.0" fill="#FFFFFF" transform="matrix(1.00, 0.00, -0.00, -1.00, 238.1, 325.0)">m</text><text xml:space="preserve" font-family="TrebuchetMS" font-size="18.0" fill="#FFFFFF" transform="matrix(1.00, 0.00, -0.00, -1.00, 253.0, 325.0)">e</text><text xml:space="preserve" font-family="TrebuchetMS" font-size="18.0" fill="#FFFFFF" transform="matrix(1.00, 0.00, -0.00, -1.00, 262.9, 325.0)">o</text><text xml:space="preserve" font-family="TrebuchetMS" font-size="18.0" fill="#FFFFFF" transform="matrix(1.00, 0.00, -0.00, -1.00, 272.5, 325.0)">u</text><text xml:space="preserve" font-family="TrebuchetMS" font-size="18.0" fill="#FFFFFF" transform="matrix(1.00, 0.00, -0.00, -1.00, 282.4, 325.0)">t</text><text xml:space="preserve" font-family="TrebuchetMS" font-size="18.0" fill="#FFFFFF" transform="matrix(1.00, 0.00, -0.00, -1.00, 289.5, 325.0)">’</text><text xml:space="preserve" font-family="TrebuchetMS" font-size="18.0" fill="#FFFFFF" transform="matrix(1.00, 0.00, -0.00, -1.00, 296.1, 325.0)">)</text><text xml:space="preserve" font-family="TrebuchetMS" font-size="18.0" fill="#FFFFFF" transform="matrix(1.00, 0.00, -0.00, -1.00, 302.7, 325.0)">;</text><text xml:space="preserve" font-family="TrebuchetMS" font-size="18.0" fill="#FFFFFF" transform="matrix(1.00, 0.00, -0.00, -1.00, 309.3, 325.0)"> </text><text xml:space="preserve" font-family="TrebuchetMS" font-size="18.0" fill="#FFFFFF" transform="matrix(1.00, 0.00, -0.00, -1.00, 73.0, 304.0)">}</text><text xml:space="preserve" font-family="TrebuchetMS" font-size="18.0" fill="#FFFFFF" transform="matrix(1.00, 0.00, -0.00, -1.00, 79.6, 304.0)">,</text><text xml:space="preserve" font-family="TrebuchetMS" font-size="18.0" fill="#FFFFFF" transform="matrix(1.00, 0.00, -0.00, -1.00, 86.2, 304.0)"> </text><text xml:space="preserve" font-family="TrebuchetMS" font-size="18.0" fill="#FFFFFF" transform="matrix(1.00, 0.00, -0.00, -1.00, 91.7, 304.0)">1</text><text xml:space="preserve" font-family="TrebuchetMS" font-size="18.0" fill="#FFFFFF" transform="matrix(1.00, 0.00, -0.00, -1.00, 101.1, 304.0)">0</text><text xml:space="preserve" font-family="TrebuchetMS" font-size="18.0" fill="#FFFFFF" transform="matrix(1.00, 0.00, -0.00, -1.00, 110.5, 304.0)">0</text><text xml:space="preserve" font-family="TrebuchetMS" font-size="18.0" fill="#FFFFFF" transform="matrix(1.00, 0.00, -0.00, -1.00, 120.0, 304.0)">0</text><text xml:space="preserve" font-family="TrebuchetMS" font-size="18.0" fill="#FFFFFF" transform="matrix(1.00, 0.00, -0.00, -1.00, 129.4, 304.0)">)</text><text xml:space="preserve" font-family="TrebuchetMS" font-size="18.0" fill="#FFFFFF" transform="matrix(1.00, 0.00, -0.00, -1.00, 136.0, 304.0)">;</text><text xml:space="preserve" font-family="TrebuchetMS" font-size="18.0" fill="#FFFFFF" transform="matrix(1.00, 0.00, -0.00, -1.00, 142.6, 304.0)"> </text><text xml:space="preserve" font-family="TrebuchetMS" font-size="18.0" fill="#FFFFFF" transform="matrix(1.00, 0.00, -0.00, -1.00, 73.0, 262.0)">c</text><text xml:space="preserve" font-family="TrebuchetMS" font-size="18.0" fill="#FFFFFF" transform="matrix(1.00, 0.00, -0.00, -1.00, 81.9, 262.0)">o</text><text xml:space="preserve" font-family="TrebuchetMS" font-size="18.0" fill="#FFFFFF" transform="matrix(1.00, 0.00, -0.00, -1.00, 91.6, 262.0)">n</text><text xml:space="preserve" font-family="TrebuchetMS" font-size="18.0" fill="#FFFFFF" transform="matrix(1.00, 0.00, -0.00, -1.00, 101.4, 262.0)">s</text><text xml:space="preserve" font-family="TrebuchetMS" font-size="18.0" fill="#FFFFFF" transform="matrix(1.00, 0.00, -0.00, -1.00, 108.7, 262.0)">o</text><text xml:space="preserve" font-family="TrebuchetMS" font-size="18.0" fill="#FFFFFF" transform="matrix(1.00, 0.00, -0.00, -1.00, 118.3, 262.0)">l</text><text xml:space="preserve" font-family="TrebuchetMS" font-size="18.0" fill="#FFFFFF" transform="matrix(1.00, 0.00, -0.00, -1.00, 123.6, 262.0)">e</text><text xml:space="preserve" font-family="TrebuchetMS" font-size="18.0" fill="#FFFFFF" transform="matrix(1.00, 0.00, -0.00, -1.00, 133.5, 262.0)">.</text><text xml:space="preserve" font-family="TrebuchetMS" font-size="18.0" fill="#FFFFFF" transform="matrix(1.00, 0.00, -0.00, -1.00, 140.1, 262.0)">l</text><text xml:space="preserve" font-family="TrebuchetMS" font-size="18.0" fill="#FFFFFF" transform="matrix(1.00, 0.00, -0.00, -1.00, 145.4, 262.0)">o</text><text xml:space="preserve" font-family="TrebuchetMS" font-size="18.0" fill="#FFFFFF" transform="matrix(1.00, 0.00, -0.00, -1.00, 155.0, 262.0)">g</text><text xml:space="preserve" font-family="TrebuchetMS" font-size="18.0" fill="#FFFFFF" transform="matrix(1.00, 0.00, -0.00, -1.00, 164.1, 262.0)">(</text><text xml:space="preserve" font-family="TrebuchetMS" font-size="18.0" fill="#FFFFFF" transform="matrix(1.00, 0.00, -0.00, -1.00, 170.7, 262.0)">‘</text><text xml:space="preserve" font-family="TrebuchetMS" font-size="18.0" fill="#FFFFFF" transform="matrix(1.00, 0.00, -0.00, -1.00, 177.3, 262.0)">s</text><text xml:space="preserve" font-family="TrebuchetMS" font-size="18.0" fill="#FFFFFF" transform="matrix(1.00, 0.00, -0.00, -1.00, 184.6, 262.0)">c</text><text xml:space="preserve" font-family="TrebuchetMS" font-size="18.0" fill="#FFFFFF" transform="matrix(1.00, 0.00, -0.00, -1.00, 193.5, 262.0)">r</text><text xml:space="preserve" font-family="TrebuchetMS" font-size="18.0" fill="#FFFFFF" transform="matrix(1.00, 0.00, -0.00, -1.00, 200.5, 262.0)">i</text><text xml:space="preserve" font-family="TrebuchetMS" font-size="18.0" fill="#FFFFFF" transform="matrix(1.00, 0.00, -0.00, -1.00, 205.6, 262.0)">p</text><text xml:space="preserve" font-family="TrebuchetMS" font-size="18.0" fill="#FFFFFF" transform="matrix(1.00, 0.00, -0.00, -1.00, 215.7, 262.0)">t</text><text xml:space="preserve" font-family="TrebuchetMS" font-size="18.0" fill="#FFFFFF" transform="matrix(1.00, 0.00, -0.00, -1.00, 222.8, 262.0)"> </text><text xml:space="preserve" font-family="TrebuchetMS" font-size="18.0" fill="#FFFFFF" transform="matrix(1.00, 0.00, -0.00, -1.00, 228.2, 262.0)">e</text><text xml:space="preserve" font-family="TrebuchetMS" font-size="18.0" fill="#FFFFFF" transform="matrix(1.00, 0.00, -0.00, -1.00, 238.1, 262.0)">n</text><text xml:space="preserve" font-family="TrebuchetMS" font-size="18.0" fill="#FFFFFF" transform="matrix(1.00, 0.00, -0.00, -1.00, 247.9, 262.0)">d</text><text xml:space="preserve" font-family="TrebuchetMS" font-size="18.0" fill="#FFFFFF" transform="matrix(1.00, 0.00, -0.00, -1.00, 257.9, 262.0)">’</text><text xml:space="preserve" font-family="TrebuchetMS" font-size="18.0" fill="#FFFFFF" transform="matrix(1.00, 0.00, -0.00, -1.00, 264.5, 262.0)">)</text><text xml:space="preserve" font-family="TrebuchetMS" font-size="18.0" fill="#FFFFFF" transform="matrix(1.00, 0.00, -0.00, -1.00, 271.1, 262.0)">;</text><image xlink:href="../../33506A68-10FB-43B5-BCFE-F7F304207DBB/assets/8DCB3B733FA0CDEEDA9BB93639177EE9.png" width="100.00" height="226.00" transform="matrix(1.00, 0.00, -0.00, -1.00, 510.7, 405.7)" opacity="0.35"></image><path d="M 0.0 0.0 L 91.4 0.0 L 91.4 217.4 L 0.0 217.4 Z M 0.0 0.0 " fill="none" stroke="#A7A7A7" stroke-width="1.00" transform="matrix(1.00, 0.00, 0.00, -1.00, 515.2, 404.2)"></path><text xml:space="preserve" font-family="TrebuchetMS" font-size="18.0" fill="#FFFFFF" transform="matrix(1.00, 0.00, -0.00, -1.00, 539.0, 418.0)">W</text><text xml:space="preserve" font-family="TrebuchetMS" font-size="18.0" fill="#FFFFFF" transform="matrix(1.00, 0.00, -0.00, -1.00, 553.5, 418.0)">e</text><text xml:space="preserve" font-family="TrebuchetMS" font-size="18.0" fill="#FFFFFF" transform="matrix(1.00, 0.00, -0.00, -1.00, 563.3, 418.0)">b</text><text xml:space="preserve" font-family="TrebuchetMS" font-size="18.0" fill="#FFFFFF" transform="matrix(1.00, 0.00, -0.00, -1.00, 573.4, 418.0)">A</text><text xml:space="preserve" font-family="TrebuchetMS" font-size="18.0" fill="#FFFFFF" transform="matrix(1.00, 0.00, -0.00, -1.00, 584.0, 418.0)">P</text><text xml:space="preserve" font-family="TrebuchetMS" font-size="18.0" fill="#FFFFFF" transform="matrix(1.00, 0.00, -0.00, -1.00, 594.0, 418.0)">I</text><image xlink:href="D484FC4716772A1CD3BE28D476467643.png" width="341.00" height="116.00" transform="matrix(1.00, 0.00, -0.00, -1.00, 367.7, 130.8)" opacity="0.35"></image><path d="M 0.0 0.0 L 332.4 0.0 L 332.4 106.7 L 0.0 106.7 Z M 0.0 0.0 " fill="none" stroke="#A7A7A7" stroke-width="1.00" transform="matrix(1.00, 0.00, 0.00, -1.00, 372.2, 129.3)"></path><image xlink:href="../../08CB438B-0720-4EA2-AF4C-9E07406D244A/assets/1FAADBDC57E8599B3BDE544551FE98B7.png" width="34.00" height="34.00" transform="matrix(1.00, 0.00, -0.00, -1.00, 400.0, 175.0)"></image><text xml:space="preserve" font-family="TrebuchetMS" font-size="16.0" fill="#FFFFFF" transform="matrix(1.00, 0.00, -0.00, -1.00, 303.0, 81.0)">T</text><text xml:space="preserve" font-family="TrebuchetMS" font-size="16.0" fill="#FFFFFF" transform="matrix(1.00, 0.00, -0.00, -1.00, 310.3, 81.0)">a</text><text xml:space="preserve" font-family="TrebuchetMS" font-size="16.0" fill="#FFFFFF" transform="matrix(1.00, 0.00, -0.00, -1.00, 318.7, 81.0)">s</text><text xml:space="preserve" font-family="TrebuchetMS" font-size="16.0" fill="#FFFFFF" transform="matrix(1.00, 0.00, -0.00, -1.00, 325.2, 81.0)">k</text><text xml:space="preserve" font-family="TrebuchetMS" font-size="16.0" fill="#FFFFFF" transform="matrix(1.00, 0.00, -0.00, -1.00, 333.2, 81.0)"> </text><text xml:space="preserve" font-family="TrebuchetMS" font-size="16.0" fill="#FFFFFF" transform="matrix(1.00, 0.00, -0.00, -1.00, 338.1, 81.0)"> </text><text xml:space="preserve" font-family="TrebuchetMS" font-size="16.0" fill="#FFFFFF" transform="matrix(1.00, 0.00, -0.00, -1.00, 295.0, 62.0)">Q</text><text xml:space="preserve" font-family="TrebuchetMS" font-size="16.0" fill="#FFFFFF" transform="matrix(1.00, 0.00, -0.00, -1.00, 305.8, 62.0)">u</text><text xml:space="preserve" font-family="TrebuchetMS" font-size="16.0" fill="#FFFFFF" transform="matrix(1.00, 0.00, -0.00, -1.00, 314.6, 62.0)">e</text><text xml:space="preserve" font-family="TrebuchetMS" font-size="16.0" fill="#FFFFFF" transform="matrix(1.00, 0.00, -0.00, -1.00, 323.3, 62.0)">u</text><text xml:space="preserve" font-family="TrebuchetMS" font-size="16.0" fill="#FFFFFF" transform="matrix(1.00, 0.00, -0.00, -1.00, 332.1, 62.0)">e</text><image xlink:href="830FA512879928FE9502E2F22AAC5FB3.png" width="90.00" height="42.00" transform="matrix(1.00, 0.00, -0.00, -0.99, 371.8, 226.5)" opacity="0.35"></image><path d="M 0.0 0.0 L 81.2 0.0 L 81.2 32.6 L 0.0 32.6 Z M 0.0 0.0 " fill="none" stroke="#FFC193" stroke-width="1.00" transform="matrix(1.00, 0.00, 0.00, -1.00, 376.3, 225.0)"></path><g><clipPath id="clip-173"><path d="M 375.7 193.2 L 458.1 193.2 L 458.1 224.6 L 375.7 224.6 Z M 375.7 193.2 "></path></clipPath><g clip-path="url(#clip-173)"><text xml:space="preserve" font-family="TrebuchetMS" font-size="18.0" fill="#FFFFFF" transform="matrix(1.00, 0.00, -0.00, -1.00, 391.0, 202.0)">m</text><text xml:space="preserve" font-family="TrebuchetMS" font-size="18.0" fill="#FFFFFF" transform="matrix(1.00, 0.00, -0.00, -1.00, 405.9, 202.0)">a</text><text xml:space="preserve" font-family="TrebuchetMS" font-size="18.0" fill="#FFFFFF" transform="matrix(1.00, 0.00, -0.00, -1.00, 415.4, 202.0)">i</text><text xml:space="preserve" font-family="TrebuchetMS" font-size="18.0" fill="#FFFFFF" transform="matrix(1.00, 0.00, -0.00, -1.00, 420.5, 202.0)">n</text><text xml:space="preserve" font-family="TrebuchetMS" font-size="18.0" fill="#FFFFFF" transform="matrix(1.00, 0.00, -0.00, -1.00, 430.4, 202.0)">(</text><text xml:space="preserve" font-family="TrebuchetMS" font-size="18.0" fill="#FFFFFF" transform="matrix(1.00, 0.00, -0.00, -1.00, 437.0, 202.0)">)</text></g></g><image xlink:href="58B72B46203F11E67BA738D4DD652D8B.png" width="165.00" height="178.00" transform="matrix(1.00, 0.00, -0.00, -1.00, 48.3, 195.5)" opacity="0.35"></image><path d="M 0.0 0.0 L 155.7 0.0 L 155.7 169.3 L 0.0 169.3 Z M 0.0 0.0 " fill="none" stroke="#A7A7A7" stroke-width="1.00" transform="matrix(1.00, 0.00, 0.00, -1.00, 52.8, 194.0)"></path><g opacity="0.77"><g><clipPath id="clip-174"><path d="M 0.0 130.0 L 134.0 130.0 L 134.0 258.0 L 0.0 258.0 Z M 0.0 130.0 "></path></clipPath><g clip-path="url(#clip-174)"><image xlink:href="893A6BF108335D9C7FC5C6D81ECC17FD.png" width="132.00" height="124.00" transform="matrix(1.00, 0.00, -0.00, -1.00, 1.4, 255.1)"></image><path d="M 41.4 207.5 L 92.8 207.5 L 92.8 180.0 L 41.4 180.0 Z M 41.4 207.5 " fill="#DDDDDD"></path></g></g><g><clipPath id="clip-175"><path d="M 40.6 180.0 L 93.6 180.0 L 93.6 207.5 L 40.6 207.5 Z M 40.6 180.0 "></path></clipPath><g clip-path="url(#clip-175)"><text xml:space="preserve" font-family="TrebuchetMS" font-size="15.0" fill="#000000" transform="matrix(1.00, 0.00, -0.00, -1.00, 45.0, 189.0)">C</text><text xml:space="preserve" font-family="TrebuchetMS" font-size="15.0" fill="#000000" transform="matrix(1.00, 0.00, -0.00, -1.00, 52.7, 189.0)">o</text><text xml:space="preserve" font-family="TrebuchetMS" font-size="15.0" fill="#000000" transform="matrix(1.00, 0.00, -0.00, -1.00, 59.4, 189.0)">n</text><text xml:space="preserve" font-family="TrebuchetMS" font-size="15.0" fill="#000000" transform="matrix(1.00, 0.00, -0.00, -1.00, 66.4, 189.0)">s</text><text xml:space="preserve" font-family="TrebuchetMS" font-size="15.0" fill="#000000" transform="matrix(1.00, 0.00, -0.00, -1.00, 71.2, 189.0)">o</text><text xml:space="preserve" font-family="TrebuchetMS" font-size="15.0" fill="#000000" transform="matrix(1.00, 0.00, -0.00, -1.00, 77.9, 189.0)">l</text><text xml:space="preserve" font-family="TrebuchetMS" font-size="15.0" fill="#000000" transform="matrix(1.00, 0.00, -0.00, -1.00, 81.0, 189.0)">e</text></g></g></g></g></svg>