<?xml version="1.0" encoding="UTF-8" standalone="no"?><svg xmlns="http://www.w3.org/2000/svg" xmlns:xlink="http://www.w3.org/1999/xlink" clip-rule="evenodd" stroke-miterlimit="4.00" viewBox="0 0 120 51"><desc>SVG generated by Keynote</desc><defs></defs><g transform="matrix(1.00, 0.00, -0.00, -1.00, 0.0, 51.0)"><image xlink:href="3533E33D68CE616C9E6A09389B1044A4.png" width="117.00" height="42.00" transform="matrix(1.00, 0.00, -0.00, -0.99, 1.7, 43.0)" opacity="0.35"></image><path d="M 0.0 0.0 L 108.1 0.0 L 108.1 32.6 L 0.0 32.6 Z M 0.0 0.0 " fill="none" stroke="#FFC193" stroke-width="1.00" transform="matrix(1.00, 0.00, 0.00, -1.00, 6.2, 41.5)"></path><g><clipPath id="clip-109"><path d="M 5.6 9.7 L 114.9 9.7 L 114.9 41.2 L 5.6 41.2 Z M 5.6 9.7 "></path></clipPath><g clip-path="url(#clip-109)"><text xml:space="preserve" font-family="TrebuchetMS" font-size="18.0" fill="#FFFFFF" transform="matrix(1.00, 0.00, -0.00, -1.00, 15.0, 19.0)">g</text><text xml:space="preserve" font-family="TrebuchetMS" font-size="18.0" fill="#FFFFFF" transform="matrix(1.00, 0.00, -0.00, -1.00, 24.0, 19.0)">e</text><text xml:space="preserve" font-family="TrebuchetMS" font-size="18.0" fill="#FFFFFF" transform="matrix(1.00, 0.00, -0.00, -1.00, 33.9, 19.0)">t</text><text xml:space="preserve" font-family="TrebuchetMS" font-size="18.0" fill="#FFFFFF" transform="matrix(1.00, 0.00, -0.00, -1.00, 41.0, 19.0)">S</text><text xml:space="preserve" font-family="TrebuchetMS" font-size="18.0" fill="#FFFFFF" transform="matrix(1.00, 0.00, -0.00, -1.00, 49.7, 19.0)">y</text><text xml:space="preserve" font-family="TrebuchetMS" font-size="18.0" fill="#FFFFFF" transform="matrix(1.00, 0.00, -0.00, -1.00, 58.5, 19.0)">n</text><text xml:space="preserve" font-family="TrebuchetMS" font-size="18.0" fill="#FFFFFF" transform="matrix(1.00, 0.00, -0.00, -1.00, 68.4, 19.0)">c</text><text xml:space="preserve" font-family="TrebuchetMS" font-size="18.0" fill="#FFFFFF" transform="matrix(1.00, 0.00, -0.00, -1.00, 77.3, 19.0)">(</text><text xml:space="preserve" font-family="TrebuchetMS" font-size="18.0" fill="#FFFFFF" transform="matrix(1.00, 0.00, -0.00, -1.00, 83.9, 19.0)">b</text><text xml:space="preserve" font-family="TrebuchetMS" font-size="18.0" fill="#FFFFFF" transform="matrix(1.00, 0.00, -0.00, -1.00, 93.9, 19.0)">i</text><text xml:space="preserve" font-family="TrebuchetMS" font-size="18.0" fill="#FFFFFF" transform="matrix(1.00, 0.00, -0.00, -1.00, 99.0, 19.0)">)</text></g></g></g></svg>