<?xml version="1.0" encoding="UTF-8" standalone="no"?><svg xmlns="http://www.w3.org/2000/svg" xmlns:xlink="http://www.w3.org/1999/xlink" clip-rule="evenodd" stroke-miterlimit="4.00" viewBox="0 0 120 50"><desc>SVG generated by Keynote</desc><defs></defs><g transform="matrix(1.00, 0.00, -0.00, -1.00, 0.0, 50.0)"><image xlink:href="7FA629F9D4D417297A20787D29DB7CDF.png" width="117.00" height="42.00" transform="matrix(1.00, 0.00, -0.00, -0.99, 1.7, 42.7)" opacity="0.35"></image><path d="M 0.0 0.0 L 108.1 0.0 L 108.1 32.6 L 0.0 32.6 Z M 0.0 0.0 " fill="none" stroke="#FFC193" stroke-width="1.00" transform="matrix(1.00, 0.00, 0.00, -1.00, 6.2, 41.2)"></path><g><clipPath id="clip-411"><path d="M 6.4 9.6 L 114.0 9.6 L 114.0 40.2 L 6.4 40.2 Z M 6.4 9.6 "></path></clipPath><g clip-path="url(#clip-411)"><text xml:space="preserve" font-family="TrebuchetMS" font-size="15.0" fill="#FFFFFF" transform="matrix(1.00, 0.00, -0.00, -1.00, 11.0, 20.0)">g</text><text xml:space="preserve" font-family="TrebuchetMS" font-size="15.0" fill="#FFFFFF" transform="matrix(1.00, 0.00, -0.00, -1.00, 18.5, 20.0)">e</text><text xml:space="preserve" font-family="TrebuchetMS" font-size="15.0" fill="#FFFFFF" transform="matrix(1.00, 0.00, -0.00, -1.00, 26.7, 20.0)">t</text><text xml:space="preserve" font-family="TrebuchetMS" font-size="15.0" fill="#FFFFFF" transform="matrix(1.00, 0.00, -0.00, -1.00, 32.7, 20.0)">S</text><text xml:space="preserve" font-family="TrebuchetMS" font-size="15.0" fill="#FFFFFF" transform="matrix(1.00, 0.00, -0.00, -1.00, 39.9, 20.0)">y</text><text xml:space="preserve" font-family="TrebuchetMS" font-size="15.0" fill="#FFFFFF" transform="matrix(1.00, 0.00, -0.00, -1.00, 47.3, 20.0)">n</text><text xml:space="preserve" font-family="TrebuchetMS" font-size="15.0" fill="#FFFFFF" transform="matrix(1.00, 0.00, -0.00, -1.00, 55.5, 20.0)">c</text><text xml:space="preserve" font-family="TrebuchetMS" font-size="15.0" fill="#FFFFFF" transform="matrix(1.00, 0.00, -0.00, -1.00, 62.9, 20.0)">(</text><text xml:space="preserve" font-family="TrebuchetMS" font-size="15.0" fill="#FFFFFF" transform="matrix(1.00, 0.00, -0.00, -1.00, 68.4, 20.0)">s</text><text xml:space="preserve" font-family="TrebuchetMS" font-size="15.0" fill="#FFFFFF" transform="matrix(1.00, 0.00, -0.00, -1.00, 74.5, 20.0)">h</text><text xml:space="preserve" font-family="TrebuchetMS" font-size="15.0" fill="#FFFFFF" transform="matrix(1.00, 0.00, -0.00, -1.00, 82.7, 20.0)">u</text><text xml:space="preserve" font-family="TrebuchetMS" font-size="15.0" fill="#FFFFFF" transform="matrix(1.00, 0.00, -0.00, -1.00, 90.9, 20.0)">a</text><text xml:space="preserve" font-family="TrebuchetMS" font-size="15.0" fill="#FFFFFF" transform="matrix(1.00, 0.00, -0.00, -1.00, 98.8, 20.0)">i</text><text xml:space="preserve" font-family="TrebuchetMS" font-size="15.0" fill="#FFFFFF" transform="matrix(1.00, 0.00, -0.00, -1.00, 103.0, 20.0)">)</text></g></g></g></svg>