<?xml version="1.0" encoding="UTF-8" standalone="no"?><svg xmlns="http://www.w3.org/2000/svg" xmlns:xlink="http://www.w3.org/1999/xlink" clip-rule="evenodd" stroke-miterlimit="4.00" viewBox="0 0 720 540"><desc>SVG generated by Keynote</desc><defs></defs><g transform="matrix(1.00, 0.00, -0.00, -1.00, 0.0, 540.0)"><g><clipPath id="clip-643"><path d="M 0.0 540.0 L 720.0 540.0 L 720.0 0.0 L 0.0 0.0 Z M 0.0 540.0 "></path></clipPath><g clip-path="url(#clip-643)"><image xlink:href="../../2E34FD03-1090-4811-8D08-B00F3B774E14/assets/E4B59F63A6EDA017B41703A0F53BFDB9.png" width="720.00" height="540.00" transform="matrix(1.00, 0.00, -0.00, -1.00, 0.0, 540.0)"></image></g></g><image xlink:href="../../865D1667-0174-4E47-A514-3236D4FC0DEE/assets/EF968026A98ED1197CC2FA7EEE3B0D84.png" width="137.00" height="137.00" transform="matrix(1.00, 0.00, -0.00, -1.00, 54.0, 302.0)"></image><image xlink:href="../../865D1667-0174-4E47-A514-3236D4FC0DEE/assets/0D2C630B457F0C03B2B1F7CA19DD7233.png" width="144.00" height="144.00" transform="matrix(1.00, 0.00, -0.00, -1.00, 533.0, 302.0)"></image><image xlink:href="../../3486381D-4CF6-49D9-A434-FF82CE436622/assets/B5CAC01C60B3BB6768DFB44F04FA4F1A.png" width="126.00" height="129.00" transform="matrix(1.01, 0.00, -0.00, -1.00, 59.0, 298.0)"></image><image xlink:href="../../3486381D-4CF6-49D9-A434-FF82CE436622/assets/4D6F144A4807C7537A9F3F360538E2F3.png" width="221.00" height="117.00" transform="matrix(1.00, 0.00, -0.00, -1.00, 104.8, 393.2)" opacity="0.35"></image><path d="M 105.3 0.0 C 47.2 -0.0 0.0 19.2 0.0 43.0 C 0.0 55.4 13.0 66.4 33.6 74.3 L 1.3 106.9 L 73.4 83.7 C 83.5 85.0 94.1 85.9 105.3 85.9 C 163.5 85.9 210.7 66.7 210.7 43.0 C 210.7 19.2 163.5 0.0 105.3 0.0 Z M 105.3 0.0 " fill="none" stroke="#DDDDDD" stroke-width="2.00" transform="matrix(1.00, 0.00, 0.00, -1.00, 109.8, 391.2)"></path><g><clipPath id="clip-644"><path d="M 109.8 305.3 L 320.5 305.3 L 320.5 391.2 L 109.8 391.2 Z M 109.8 305.3 "></path></clipPath><g clip-path="url(#clip-644)"><text xml:space="preserve" font-family="Helvetica" font-size="17.0" fill="#FFFFFF" transform="matrix(1.00, 0.00, -0.00, -1.00, 130.0, 342.0)">w</text><text xml:space="preserve" font-family="Helvetica" font-size="17.0" fill="#FFFFFF" transform="matrix(1.00, 0.00, -0.00, -1.00, 142.3, 342.0)">h</text><text xml:space="preserve" font-family="Helvetica" font-size="17.0" fill="#FFFFFF" transform="matrix(1.00, 0.00, -0.00, -1.00, 151.7, 342.0)">a</text><text xml:space="preserve" font-family="Helvetica" font-size="17.0" fill="#FFFFFF" transform="matrix(1.00, 0.00, -0.00, -1.00, 161.2, 342.0)">t</text><text xml:space="preserve" font-family="Helvetica" font-size="17.0" fill="#FFFFFF" transform="matrix(1.00, 0.00, -0.00, -1.00, 165.9, 342.0)"> </text><text xml:space="preserve" font-family="Helvetica" font-size="17.0" fill="#FFFFFF" transform="matrix(1.00, 0.00, -0.00, -1.00, 170.6, 342.0)">a</text><text xml:space="preserve" font-family="Helvetica" font-size="17.0" fill="#FFFFFF" transform="matrix(1.00, 0.00, -0.00, -1.00, 180.1, 342.0)">r</text><text xml:space="preserve" font-family="Helvetica" font-size="17.0" fill="#FFFFFF" transform="matrix(1.00, 0.00, -0.00, -1.00, 185.8, 342.0)">e</text><text xml:space="preserve" font-family="Helvetica" font-size="17.0" fill="#FFFFFF" transform="matrix(1.00, 0.00, -0.00, -1.00, 195.2, 342.0)"> </text><text xml:space="preserve" font-family="Helvetica" font-size="17.0" fill="#FFFFFF" transform="matrix(1.00, 0.00, -0.00, -1.00, 199.9, 342.0)">t</text><text xml:space="preserve" font-family="Helvetica" font-size="17.0" fill="#FFFFFF" transform="matrix(1.00, 0.00, -0.00, -1.00, 204.7, 342.0)">h</text><text xml:space="preserve" font-family="Helvetica" font-size="17.0" fill="#FFFFFF" transform="matrix(1.00, 0.00, -0.00, -1.00, 214.1, 342.0)">o</text><text xml:space="preserve" font-family="Helvetica" font-size="17.0" fill="#FFFFFF" transform="matrix(1.00, 0.00, -0.00, -1.00, 223.6, 342.0)">s</text><text xml:space="preserve" font-family="Helvetica" font-size="17.0" fill="#FFFFFF" transform="matrix(1.00, 0.00, -0.00, -1.00, 232.1, 342.0)">e</text><text xml:space="preserve" font-family="Helvetica" font-size="17.0" fill="#FFFFFF" transform="matrix(1.00, 0.00, -0.00, -1.00, 241.5, 342.0)"> </text><text xml:space="preserve" font-family="Helvetica" font-size="17.0" fill="#FFFFFF" transform="matrix(1.00, 0.00, -0.00, -1.00, 246.2, 342.0)">t</text><text xml:space="preserve" font-family="Helvetica" font-size="17.0" fill="#FFFFFF" transform="matrix(1.00, 0.00, -0.00, -1.00, 251.0, 342.0)">h</text><text xml:space="preserve" font-family="Helvetica" font-size="17.0" fill="#FFFFFF" transform="matrix(1.00, 0.00, -0.00, -1.00, 260.4, 342.0)">i</text><text xml:space="preserve" font-family="Helvetica" font-size="17.0" fill="#FFFFFF" transform="matrix(1.00, 0.00, -0.00, -1.00, 264.2, 342.0)">n</text><text xml:space="preserve" font-family="Helvetica" font-size="17.0" fill="#FFFFFF" transform="matrix(1.00, 0.00, -0.00, -1.00, 273.7, 342.0)">g</text><text xml:space="preserve" font-family="Helvetica" font-size="17.0" fill="#FFFFFF" transform="matrix(1.00, 0.00, -0.00, -1.00, 283.1, 342.0)">s</text><text xml:space="preserve" font-family="Helvetica" font-size="17.0" fill="#FFFFFF" transform="matrix(1.00, 0.00, -0.00, -1.00, 291.6, 342.0)">?</text></g></g><image xlink:href="../../3486381D-4CF6-49D9-A434-FF82CE436622/assets/FB347C61C5C256DE15213E95A803E66D.png" width="135.00" height="91.00" transform="matrix(1.00, 0.00, -0.00, -1.00, 467.9, 366.2)" opacity="0.35"></image><path d="M 4.5 0.0 C 2.0 0.0 0.0 2.0 0.0 4.5 L 0.0 37.0 C 0.0 39.5 2.0 41.5 4.5 41.5 L 75.7 41.5 L 125.6 81.3 L 90.0 26.3 L 90.0 4.5 C 90.0 2.0 87.9 0.0 85.4 0.0 L 4.5 0.0 Z M 4.5 0.0 " fill="none" stroke="#DDDDDD" stroke-width="2.00" transform="matrix(1.00, 0.00, 0.00, -1.00, 472.9, 364.2)"></path><g><clipPath id="clip-645"><path d="M 472.9 322.8 L 562.9 322.8 L 562.9 364.2 L 472.9 364.2 Z M 472.9 322.8 "></path></clipPath><g clip-path="url(#clip-645)"><text xml:space="preserve" font-family="TrebuchetMS" font-size="16.0" fill="#FFFFFF" transform="matrix(1.00, 0.00, -0.00, -1.00, 478.0, 338.0)">…</text><text xml:space="preserve" font-family="TrebuchetMS" font-size="16.0" fill="#FFFFFF" transform="matrix(1.00, 0.00, -0.00, -1.00, 489.8, 338.0)">…</text><text xml:space="preserve" font-family="TrebuchetMS" font-size="16.0" fill="#FFFFFF" transform="matrix(1.00, 0.00, -0.00, -1.00, 501.5, 338.0)"> </text></g></g></g></svg>