<?xml version="1.0" encoding="UTF-8" standalone="no"?><svg xmlns="http://www.w3.org/2000/svg" xmlns:xlink="http://www.w3.org/1999/xlink" clip-rule="evenodd" stroke-miterlimit="4.00" viewBox="0 0 206 126"><desc>SVG generated by Keynote</desc><defs></defs><g transform="matrix(1.00, 0.00, -0.00, -1.00, 0.0, 126.0)"><image xlink:href="7EAE369C3361505686CC97586F35D2D5.png" width="203.00" height="117.00" transform="matrix(1.00, 0.00, -0.00, -1.00, 1.6, 118.1)" opacity="0.35"></image><path d="M 103.2 116.6 C 49.6 116.6 6.1 97.4 6.1 73.6 C 6.1 61.3 18.0 50.3 36.7 42.5 L 7.5 9.7 L 73.9 32.9 C 83.2 31.6 92.9 30.7 103.2 30.7 C 156.8 30.7 200.2 49.9 200.2 73.6 C 200.2 97.4 156.8 116.6 103.2 116.6 Z M 103.2 116.6 " fill="#FFFFFF"></path><path d="M 97.0 0.0 C 43.4 0.0 0.0 19.2 0.0 43.0 C 0.0 55.3 11.8 66.3 30.6 74.1 L 1.3 106.9 L 67.8 83.7 C 77.1 85.0 86.8 85.9 97.0 85.9 C 150.6 85.9 194.1 66.7 194.1 43.0 C 194.1 19.2 150.6 0.0 97.0 0.0 Z M 97.0 0.0 " fill="none" stroke="#E74B21" stroke-width="1.00" transform="matrix(1.00, 0.00, 0.00, -1.00, 6.1, 116.6)"></path><g><clipPath id="clip-18"><path d="M 6.1 30.7 L 200.2 30.7 L 200.2 116.6 L 6.1 116.6 Z M 6.1 30.7 "></path></clipPath><g clip-path="url(#clip-18)"><text xml:space="preserve" font-family="Helvetica" font-size="26.0" fill="#000000" transform="matrix(1.00, 0.00, -0.00, -1.00, 22.0, 65.0)">w</text><text xml:space="preserve" font-family="Helvetica" font-size="26.0" fill="#000000" transform="matrix(1.00, 0.00, -0.00, -1.00, 40.8, 65.0)">h</text><text xml:space="preserve" font-family="Helvetica" font-size="26.0" fill="#000000" transform="matrix(1.00, 0.00, -0.00, -1.00, 55.2, 65.0)">a</text><text xml:space="preserve" font-family="Helvetica" font-size="26.0" fill="#000000" transform="matrix(1.00, 0.00, -0.00, -1.00, 69.7, 65.0)">t</text><text xml:space="preserve" font-family="Helvetica" font-size="26.0" fill="#000000" transform="matrix(1.00, 0.00, -0.00, -1.00, 76.9, 65.0)"> </text><text xml:space="preserve" font-family="Helvetica" font-size="26.0" fill="#000000" transform="matrix(1.00, 0.00, -0.00, -1.00, 84.1, 65.0)">a</text><text xml:space="preserve" font-family="Helvetica" font-size="26.0" fill="#000000" transform="matrix(1.00, 0.00, -0.00, -1.00, 98.6, 65.0)">r</text><text xml:space="preserve" font-family="Helvetica" font-size="26.0" fill="#000000" transform="matrix(1.00, 0.00, -0.00, -1.00, 107.3, 65.0)">e</text><text xml:space="preserve" font-family="Helvetica" font-size="26.0" fill="#000000" transform="matrix(1.00, 0.00, -0.00, -1.00, 121.7, 65.0)"> </text><text xml:space="preserve" font-family="Helvetica" font-size="26.0" fill="#000000" transform="matrix(1.00, 0.00, -0.00, -1.00, 129.0, 65.0)">y</text><text xml:space="preserve" font-family="Helvetica" font-size="26.0" fill="#000000" transform="matrix(1.00, 0.00, -0.00, -1.00, 142.0, 65.0)">o</text><text xml:space="preserve" font-family="Helvetica" font-size="26.0" fill="#000000" transform="matrix(1.00, 0.00, -0.00, -1.00, 156.4, 65.0)">u</text><text xml:space="preserve" font-family="Helvetica" font-size="26.0" fill="#000000" transform="matrix(1.00, 0.00, -0.00, -1.00, 170.9, 65.0)">?</text></g></g></g></svg>