<?xml version="1.0" encoding="UTF-8" standalone="no"?><svg xmlns="http://www.w3.org/2000/svg" xmlns:xlink="http://www.w3.org/1999/xlink" clip-rule="evenodd" stroke-miterlimit="4.00" viewBox="0 0 137 99"><desc>SVG generated by Keynote</desc><defs></defs><g transform="matrix(1.00, 0.00, -0.00, -1.00, 0.0, 99.0)"><image xlink:href="9E9063A2409168566A1A27F49EC077ED.png" width="135.00" height="90.00" transform="matrix(1.00, 0.00, -0.00, -1.00, 1.4, 91.7)" opacity="0.35"></image><path d="M 10.4 90.2 C 7.9 90.2 5.9 88.2 5.9 85.7 L 5.9 53.3 C 5.9 50.8 7.9 48.7 10.4 48.7 L 81.6 48.7 L 131.6 8.9 L 95.9 64.0 L 95.9 85.7 C 95.9 88.2 93.9 90.2 91.4 90.2 L 10.4 90.2 Z M 10.4 90.2 " fill="#FFFFFF"></path><path d="M 4.5 0.0 C 2.0 0.0 0.0 2.0 0.0 4.5 L 0.0 37.0 C 0.0 39.5 2.0 41.5 4.5 41.5 L 75.7 41.5 L 125.6 81.3 L 90.0 26.3 L 90.0 4.5 C 90.0 2.0 87.9 0.0 85.4 0.0 L 4.5 0.0 Z M 4.5 0.0 " fill="none" stroke="#E74B21" stroke-width="1.00" transform="matrix(1.00, 0.00, 0.00, -1.00, 5.9, 90.2)"></path><g><clipPath id="clip-23"><path d="M 5.4 48.8 L 96.4 48.8 L 96.4 90.2 L 5.4 90.2 Z M 5.4 48.8 "></path></clipPath><g clip-path="url(#clip-23)"><text xml:space="preserve" font-family="TrebuchetMS" font-size="16.0" fill="#000000" transform="matrix(1.00, 0.00, -0.00, -1.00, 10.0, 64.0)">…</text><text xml:space="preserve" font-family="TrebuchetMS" font-size="16.0" fill="#000000" transform="matrix(1.00, 0.00, -0.00, -1.00, 21.8, 64.0)">…</text><text xml:space="preserve" font-family="TrebuchetMS" font-size="16.0" fill="#000000" transform="matrix(1.00, 0.00, -0.00, -1.00, 33.5, 64.0)"> </text></g></g></g></svg>