<?xml version="1.0" encoding="UTF-8" standalone="no"?><svg xmlns="http://www.w3.org/2000/svg" xmlns:xlink="http://www.w3.org/1999/xlink" clip-rule="evenodd" stroke-miterlimit="4.00" viewBox="0 0 224 126"><desc>SVG generated by Keynote</desc><defs></defs><g transform="matrix(1.00, 0.00, -0.00, -1.00, 0.0, 126.0)"><image xlink:href="4D6F144A4807C7537A9F3F360538E2F3.png" width="221.00" height="117.00" transform="matrix(1.00, 0.00, -0.00, -1.00, 1.8, 118.2)" opacity="0.35"></image><path d="M 105.3 0.0 C 47.2 -0.0 0.0 19.2 0.0 43.0 C 0.0 55.4 13.0 66.4 33.6 74.3 L 1.3 106.9 L 73.4 83.7 C 83.5 85.0 94.1 85.9 105.3 85.9 C 163.5 85.9 210.7 66.7 210.7 43.0 C 210.7 19.2 163.5 0.0 105.3 0.0 Z M 105.3 0.0 " fill="none" stroke="#DDDDDD" stroke-width="2.00" transform="matrix(1.00, 0.00, 0.00, -1.00, 6.8, 116.2)"></path><g><clipPath id="clip-641"><path d="M 6.8 30.3 L 217.5 30.3 L 217.5 116.2 L 6.8 116.2 Z M 6.8 30.3 "></path></clipPath><g clip-path="url(#clip-641)"><text xml:space="preserve" font-family="Helvetica" font-size="17.0" fill="#FFFFFF" transform="matrix(1.00, 0.00, -0.00, -1.00, 27.0, 67.0)">w</text><text xml:space="preserve" font-family="Helvetica" font-size="17.0" fill="#FFFFFF" transform="matrix(1.00, 0.00, -0.00, -1.00, 39.3, 67.0)">h</text><text xml:space="preserve" font-family="Helvetica" font-size="17.0" fill="#FFFFFF" transform="matrix(1.00, 0.00, -0.00, -1.00, 48.7, 67.0)">a</text><text xml:space="preserve" font-family="Helvetica" font-size="17.0" fill="#FFFFFF" transform="matrix(1.00, 0.00, -0.00, -1.00, 58.2, 67.0)">t</text><text xml:space="preserve" font-family="Helvetica" font-size="17.0" fill="#FFFFFF" transform="matrix(1.00, 0.00, -0.00, -1.00, 62.9, 67.0)"> </text><text xml:space="preserve" font-family="Helvetica" font-size="17.0" fill="#FFFFFF" transform="matrix(1.00, 0.00, -0.00, -1.00, 67.6, 67.0)">a</text><text xml:space="preserve" font-family="Helvetica" font-size="17.0" fill="#FFFFFF" transform="matrix(1.00, 0.00, -0.00, -1.00, 77.1, 67.0)">r</text><text xml:space="preserve" font-family="Helvetica" font-size="17.0" fill="#FFFFFF" transform="matrix(1.00, 0.00, -0.00, -1.00, 82.8, 67.0)">e</text><text xml:space="preserve" font-family="Helvetica" font-size="17.0" fill="#FFFFFF" transform="matrix(1.00, 0.00, -0.00, -1.00, 92.2, 67.0)"> </text><text xml:space="preserve" font-family="Helvetica" font-size="17.0" fill="#FFFFFF" transform="matrix(1.00, 0.00, -0.00, -1.00, 96.9, 67.0)">t</text><text xml:space="preserve" font-family="Helvetica" font-size="17.0" fill="#FFFFFF" transform="matrix(1.00, 0.00, -0.00, -1.00, 101.7, 67.0)">h</text><text xml:space="preserve" font-family="Helvetica" font-size="17.0" fill="#FFFFFF" transform="matrix(1.00, 0.00, -0.00, -1.00, 111.1, 67.0)">o</text><text xml:space="preserve" font-family="Helvetica" font-size="17.0" fill="#FFFFFF" transform="matrix(1.00, 0.00, -0.00, -1.00, 120.6, 67.0)">s</text><text xml:space="preserve" font-family="Helvetica" font-size="17.0" fill="#FFFFFF" transform="matrix(1.00, 0.00, -0.00, -1.00, 129.1, 67.0)">e</text><text xml:space="preserve" font-family="Helvetica" font-size="17.0" fill="#FFFFFF" transform="matrix(1.00, 0.00, -0.00, -1.00, 138.5, 67.0)"> </text><text xml:space="preserve" font-family="Helvetica" font-size="17.0" fill="#FFFFFF" transform="matrix(1.00, 0.00, -0.00, -1.00, 143.2, 67.0)">t</text><text xml:space="preserve" font-family="Helvetica" font-size="17.0" fill="#FFFFFF" transform="matrix(1.00, 0.00, -0.00, -1.00, 148.0, 67.0)">h</text><text xml:space="preserve" font-family="Helvetica" font-size="17.0" fill="#FFFFFF" transform="matrix(1.00, 0.00, -0.00, -1.00, 157.4, 67.0)">i</text><text xml:space="preserve" font-family="Helvetica" font-size="17.0" fill="#FFFFFF" transform="matrix(1.00, 0.00, -0.00, -1.00, 161.2, 67.0)">n</text><text xml:space="preserve" font-family="Helvetica" font-size="17.0" fill="#FFFFFF" transform="matrix(1.00, 0.00, -0.00, -1.00, 170.7, 67.0)">g</text><text xml:space="preserve" font-family="Helvetica" font-size="17.0" fill="#FFFFFF" transform="matrix(1.00, 0.00, -0.00, -1.00, 180.1, 67.0)">s</text><text xml:space="preserve" font-family="Helvetica" font-size="17.0" fill="#FFFFFF" transform="matrix(1.00, 0.00, -0.00, -1.00, 188.6, 67.0)">?</text></g></g></g></svg>