<?xml version="1.0" encoding="UTF-8" standalone="no"?><svg xmlns="http://www.w3.org/2000/svg" xmlns:xlink="http://www.w3.org/1999/xlink" clip-rule="evenodd" stroke-miterlimit="4.00" viewBox="0 0 224 126"><desc>SVG generated by Keynote</desc><defs></defs><g transform="matrix(1.00, 0.00, -0.00, -1.00, 0.0, 126.0)"><image xlink:href="E4E66FD99153A2B418439A4BDD21A227.png" width="221.00" height="117.00" transform="matrix(1.00, 0.00, -0.00, -1.00, 1.8, 118.5)" opacity="0.35"></image><path d="M 105.3 0.0 C 47.2 -0.0 0.0 19.2 0.0 43.0 C 0.0 55.4 13.0 66.4 33.6 74.3 L 1.3 106.9 L 73.4 83.7 C 83.5 85.0 94.1 85.9 105.3 85.9 C 163.5 85.9 210.7 66.7 210.7 43.0 C 210.7 19.2 163.5 0.0 105.3 0.0 Z M 105.3 0.0 " fill="none" stroke="#DDDDDD" stroke-width="2.00" transform="matrix(1.00, 0.00, 0.00, -1.00, 6.8, 116.5)"></path><g><clipPath id="clip-639"><path d="M 6.8 30.6 L 217.5 30.6 L 217.5 116.5 L 6.8 116.5 Z M 6.8 30.6 "></path></clipPath><g clip-path="url(#clip-639)"><text xml:space="preserve" font-family="Helvetica" font-size="21.0" fill="#FFFFFF" transform="matrix(1.00, 0.00, -0.00, -1.00, 26.0, 66.0)">H</text><text xml:space="preserve" font-family="Helvetica" font-size="21.0" fill="#FFFFFF" transform="matrix(1.00, 0.00, -0.00, -1.00, 41.2, 66.0)">o</text><text xml:space="preserve" font-family="Helvetica" font-size="21.0" fill="#FFFFFF" transform="matrix(1.00, 0.00, -0.00, -1.00, 52.9, 66.0)">w</text><text xml:space="preserve" font-family="Helvetica" font-size="21.0" fill="#FFFFFF" transform="matrix(1.00, 0.00, -0.00, -1.00, 68.0, 66.0)"> </text><text xml:space="preserve" font-family="Helvetica" font-size="21.0" fill="#FFFFFF" transform="matrix(1.00, 0.00, -0.00, -1.00, 73.9, 66.0)">d</text><text xml:space="preserve" font-family="Helvetica" font-size="21.0" fill="#FFFFFF" transform="matrix(1.00, 0.00, -0.00, -1.00, 85.5, 66.0)">o</text><text xml:space="preserve" font-family="Helvetica" font-size="21.0" fill="#FFFFFF" transform="matrix(1.00, 0.00, -0.00, -1.00, 97.2, 66.0)"> </text><text xml:space="preserve" font-family="Helvetica" font-size="21.0" fill="#FFFFFF" transform="matrix(1.00, 0.00, -0.00, -1.00, 103.1, 66.0)">y</text><text xml:space="preserve" font-family="Helvetica" font-size="21.0" fill="#FFFFFF" transform="matrix(1.00, 0.00, -0.00, -1.00, 113.6, 66.0)">o</text><text xml:space="preserve" font-family="Helvetica" font-size="21.0" fill="#FFFFFF" transform="matrix(1.00, 0.00, -0.00, -1.00, 125.2, 66.0)">u</text><text xml:space="preserve" font-family="Helvetica" font-size="21.0" fill="#FFFFFF" transform="matrix(1.00, 0.00, -0.00, -1.00, 136.9, 66.0)"> </text><text xml:space="preserve" font-family="Helvetica" font-size="21.0" fill="#FFFFFF" transform="matrix(1.00, 0.00, -0.00, -1.00, 142.7, 66.0)">w</text><text xml:space="preserve" font-family="Helvetica" font-size="21.0" fill="#FFFFFF" transform="matrix(1.00, 0.00, -0.00, -1.00, 157.9, 66.0)">o</text><text xml:space="preserve" font-family="Helvetica" font-size="21.0" fill="#FFFFFF" transform="matrix(1.00, 0.00, -0.00, -1.00, 169.6, 66.0)">r</text><text xml:space="preserve" font-family="Helvetica" font-size="21.0" fill="#FFFFFF" transform="matrix(1.00, 0.00, -0.00, -1.00, 176.6, 66.0)">k</text><text xml:space="preserve" font-family="Helvetica" font-size="21.0" fill="#FFFFFF" transform="matrix(1.00, 0.00, -0.00, -1.00, 187.1, 66.0)">?</text></g></g></g></svg>