<?xml version="1.0" encoding="UTF-8" standalone="no"?><svg xmlns="http://www.w3.org/2000/svg" xmlns:xlink="http://www.w3.org/1999/xlink" clip-rule="evenodd" stroke-miterlimit="4.00" viewBox="0 0 208 127"><desc>SVG generated by Keynote</desc><defs></defs><g transform="matrix(1.00, 0.00, -0.00, -1.00, 0.0, 127.0)"><image xlink:href="49B667AACD4A7A537C88C07D27733790.png" width="205.00" height="118.00" transform="matrix(1.00, 0.00, -0.00, -1.00, 1.1, 119.6)" opacity="0.35"></image><path d="M 97.0 0.0 C 43.4 0.0 0.0 19.2 0.0 43.0 C 0.0 55.3 11.8 66.3 30.6 74.1 L 1.3 106.9 L 67.8 83.7 C 77.1 85.0 86.8 85.9 97.0 85.9 C 150.6 85.9 194.1 66.7 194.1 43.0 C 194.1 19.2 150.6 0.0 97.0 0.0 Z M 97.0 0.0 " fill="none" stroke="#DDDDDD" stroke-width="2.00" transform="matrix(1.00, 0.00, 0.00, -1.00, 7.1, 117.6)"></path><g><clipPath id="clip-321"><path d="M 7.1 31.7 L 201.2 31.7 L 201.2 117.6 L 7.1 117.6 Z M 7.1 31.7 "></path></clipPath><g clip-path="url(#clip-321)"><text xml:space="preserve" font-family="Helvetica" font-size="26.0" fill="#FFFFFF" transform="matrix(1.00, 0.00, -0.00, -1.00, 23.0, 66.0)">w</text><text xml:space="preserve" font-family="Helvetica" font-size="26.0" fill="#FFFFFF" transform="matrix(1.00, 0.00, -0.00, -1.00, 41.8, 66.0)">h</text><text xml:space="preserve" font-family="Helvetica" font-size="26.0" fill="#FFFFFF" transform="matrix(1.00, 0.00, -0.00, -1.00, 56.2, 66.0)">a</text><text xml:space="preserve" font-family="Helvetica" font-size="26.0" fill="#FFFFFF" transform="matrix(1.00, 0.00, -0.00, -1.00, 70.7, 66.0)">t</text><text xml:space="preserve" font-family="Helvetica" font-size="26.0" fill="#FFFFFF" transform="matrix(1.00, 0.00, -0.00, -1.00, 77.9, 66.0)"> </text><text xml:space="preserve" font-family="Helvetica" font-size="26.0" fill="#FFFFFF" transform="matrix(1.00, 0.00, -0.00, -1.00, 85.1, 66.0)">a</text><text xml:space="preserve" font-family="Helvetica" font-size="26.0" fill="#FFFFFF" transform="matrix(1.00, 0.00, -0.00, -1.00, 99.6, 66.0)">r</text><text xml:space="preserve" font-family="Helvetica" font-size="26.0" fill="#FFFFFF" transform="matrix(1.00, 0.00, -0.00, -1.00, 108.3, 66.0)">e</text><text xml:space="preserve" font-family="Helvetica" font-size="26.0" fill="#FFFFFF" transform="matrix(1.00, 0.00, -0.00, -1.00, 122.7, 66.0)"> </text><text xml:space="preserve" font-family="Helvetica" font-size="26.0" fill="#FFFFFF" transform="matrix(1.00, 0.00, -0.00, -1.00, 130.0, 66.0)">y</text><text xml:space="preserve" font-family="Helvetica" font-size="26.0" fill="#FFFFFF" transform="matrix(1.00, 0.00, -0.00, -1.00, 143.0, 66.0)">o</text><text xml:space="preserve" font-family="Helvetica" font-size="26.0" fill="#FFFFFF" transform="matrix(1.00, 0.00, -0.00, -1.00, 157.4, 66.0)">u</text><text xml:space="preserve" font-family="Helvetica" font-size="26.0" fill="#FFFFFF" transform="matrix(1.00, 0.00, -0.00, -1.00, 171.9, 66.0)">?</text></g></g></g></svg>