<?xml version="1.0" encoding="UTF-8" standalone="no"?><svg xmlns="http://www.w3.org/2000/svg" xmlns:xlink="http://www.w3.org/1999/xlink" clip-rule="evenodd" stroke-miterlimit="4.00" viewBox="0 0 157 30"><desc>SVG generated by Keynote</desc><defs></defs><g transform="matrix(1.00, 0.00, -0.00, -1.00, 0.0, 30.0)"><text xml:space="preserve" font-family="Helvetica" font-size="28.0" fill="#FFFFFF" transform="matrix(1.00, 0.00, -0.00, -1.00, 1.0, 8.0)">W</text><text xml:space="preserve" font-family="Helvetica" font-size="28.0" fill="#FFFFFF" transform="matrix(1.00, 0.00, -0.00, -1.00, 26.4, 8.0)">a</text><text xml:space="preserve" font-family="Helvetica" font-size="28.0" fill="#FFFFFF" transform="matrix(1.00, 0.00, -0.00, -1.00, 42.0, 8.0)">r</text><text xml:space="preserve" font-family="Helvetica" font-size="28.0" fill="#FFFFFF" transform="matrix(1.00, 0.00, -0.00, -1.00, 51.3, 8.0)">m</text><text xml:space="preserve" font-family="Helvetica" font-size="28.0" fill="#FFFFFF" transform="matrix(1.00, 0.00, -0.00, -1.00, 74.6, 8.0)">i</text><text xml:space="preserve" font-family="Helvetica" font-size="28.0" fill="#FFFFFF" transform="matrix(1.00, 0.00, -0.00, -1.00, 80.8, 8.0)">n</text><text xml:space="preserve" font-family="Helvetica" font-size="28.0" fill="#FFFFFF" transform="matrix(1.00, 0.00, -0.00, -1.00, 96.4, 8.0)">g</text><text xml:space="preserve" font-family="Helvetica" font-size="28.0" fill="#FFFFFF" transform="matrix(1.00, 0.00, -0.00, -1.00, 112.0, 8.0)"> </text><text xml:space="preserve" font-family="Helvetica" font-size="28.0" fill="#FFFFFF" transform="matrix(1.00, 0.00, -0.00, -1.00, 119.8, 8.0)">U</text><text xml:space="preserve" font-family="Helvetica" font-size="28.0" fill="#FFFFFF" transform="matrix(1.00, 0.00, -0.00, -1.00, 140.0, 8.0)">p</text></g></svg>