<?xml version="1.0" encoding="UTF-8" standalone="no"?><svg xmlns="http://www.w3.org/2000/svg" xmlns:xlink="http://www.w3.org/1999/xlink" clip-rule="evenodd" stroke-miterlimit="4.00" viewBox="0 0 14 101"><desc>SVG generated by Keynote</desc><defs></defs><g transform="matrix(1.00, 0.00, -0.00, -1.00, 0.0, 101.0)"><text xml:space="preserve" font-family="TrebuchetMS" font-size="18.0" fill="#78A9FE" transform="matrix(1.00, 0.00, -0.00, -1.00, 3.0, 86.0)">0</text><text xml:space="preserve" font-family="TrebuchetMS" font-size="18.0" fill="#78A9FE" transform="matrix(1.00, 0.00, -0.00, -1.00, 12.4, 86.0)"> </text><text xml:space="preserve" font-family="TrebuchetMS" font-size="18.0" fill="#78A9FE" transform="matrix(1.00, 0.00, -0.00, -1.00, 3.0, 65.0)">1</text><text xml:space="preserve" font-family="TrebuchetMS" font-size="18.0" fill="#78A9FE" transform="matrix(1.00, 0.00, -0.00, -1.00, 12.4, 65.0)"> </text><text xml:space="preserve" font-family="TrebuchetMS" font-size="18.0" fill="#78A9FE" transform="matrix(1.00, 0.00, -0.00, -1.00, 3.0, 44.0)">2</text><text xml:space="preserve" font-family="TrebuchetMS" font-size="18.0" fill="#78A9FE" transform="matrix(1.00, 0.00, -0.00, -1.00, 12.4, 44.0)"> </text><text xml:space="preserve" font-family="TrebuchetMS" font-size="18.0" fill="#78A9FE" transform="matrix(1.00, 0.00, -0.00, -1.00, 3.0, 23.0)">3</text><text xml:space="preserve" font-family="TrebuchetMS" font-size="18.0" fill="#78A9FE" transform="matrix(1.00, 0.00, -0.00, -1.00, 12.4, 23.0)"> </text><text xml:space="preserve" font-family="TrebuchetMS" font-size="18.0" fill="#78A9FE" transform="matrix(1.00, 0.00, -0.00, -1.00, 3.0, 2.0)">4</text></g></svg>