<?xml version="1.0" encoding="UTF-8" standalone="no"?><svg xmlns="http://www.w3.org/2000/svg" xmlns:xlink="http://www.w3.org/1999/xlink" clip-rule="evenodd" stroke-miterlimit="4.00" viewBox="0 0 245 315"><desc>SVG generated by Keynote</desc><defs></defs><g transform="matrix(1.00, 0.00, -0.00, -1.00, 0.0, 315.0)"><text xml:space="preserve" font-family="TrebuchetMS" font-size="18.0" fill="#FEFFFF" transform="matrix(1.00, 0.00, -0.00, -1.00, 2.0, 299.0)">c</text><text xml:space="preserve" font-family="TrebuchetMS" font-size="18.0" fill="#FEFFFF" transform="matrix(1.00, 0.00, -0.00, -1.00, 10.9, 299.0)">o</text><text xml:space="preserve" font-family="TrebuchetMS" font-size="18.0" fill="#FEFFFF" transform="matrix(1.00, 0.00, -0.00, -1.00, 20.6, 299.0)">n</text><text xml:space="preserve" font-family="TrebuchetMS" font-size="18.0" fill="#FEFFFF" transform="matrix(1.00, 0.00, -0.00, -1.00, 30.4, 299.0)">s</text><text xml:space="preserve" font-family="TrebuchetMS" font-size="18.0" fill="#FEFFFF" transform="matrix(1.00, 0.00, -0.00, -1.00, 37.7, 299.0)">o</text><text xml:space="preserve" font-family="TrebuchetMS" font-size="18.0" fill="#FEFFFF" transform="matrix(1.00, 0.00, -0.00, -1.00, 47.3, 299.0)">l</text><text xml:space="preserve" font-family="TrebuchetMS" font-size="18.0" fill="#FEFFFF" transform="matrix(1.00, 0.00, -0.00, -1.00, 52.6, 299.0)">e</text><text xml:space="preserve" font-family="TrebuchetMS" font-size="18.0" fill="#FEFFFF" transform="matrix(1.00, 0.00, -0.00, -1.00, 62.5, 299.0)">.</text><text xml:space="preserve" font-family="TrebuchetMS" font-size="18.0" fill="#FEFFFF" transform="matrix(1.00, 0.00, -0.00, -1.00, 69.1, 299.0)">l</text><text xml:space="preserve" font-family="TrebuchetMS" font-size="18.0" fill="#FEFFFF" transform="matrix(1.00, 0.00, -0.00, -1.00, 74.4, 299.0)">o</text><text xml:space="preserve" font-family="TrebuchetMS" font-size="18.0" fill="#FEFFFF" transform="matrix(1.00, 0.00, -0.00, -1.00, 84.0, 299.0)">g</text><text xml:space="preserve" font-family="TrebuchetMS" font-size="18.0" fill="#FEFFFF" transform="matrix(1.00, 0.00, -0.00, -1.00, 93.1, 299.0)">(</text><text xml:space="preserve" font-family="TrebuchetMS" font-size="18.0" fill="#FEFFFF" transform="matrix(1.00, 0.00, -0.00, -1.00, 99.7, 299.0)">‘</text><text xml:space="preserve" font-family="TrebuchetMS" font-size="18.0" fill="#FEFFFF" transform="matrix(1.00, 0.00, -0.00, -1.00, 106.3, 299.0)">s</text><text xml:space="preserve" font-family="TrebuchetMS" font-size="18.0" fill="#FEFFFF" transform="matrix(1.00, 0.00, -0.00, -1.00, 113.6, 299.0)">c</text><text xml:space="preserve" font-family="TrebuchetMS" font-size="18.0" fill="#FEFFFF" transform="matrix(1.00, 0.00, -0.00, -1.00, 122.5, 299.0)">r</text><text xml:space="preserve" font-family="TrebuchetMS" font-size="18.0" fill="#FEFFFF" transform="matrix(1.00, 0.00, -0.00, -1.00, 129.5, 299.0)">i</text><text xml:space="preserve" font-family="TrebuchetMS" font-size="18.0" fill="#FEFFFF" transform="matrix(1.00, 0.00, -0.00, -1.00, 134.6, 299.0)">p</text><text xml:space="preserve" font-family="TrebuchetMS" font-size="18.0" fill="#FEFFFF" transform="matrix(1.00, 0.00, -0.00, -1.00, 144.7, 299.0)">t</text><text xml:space="preserve" font-family="TrebuchetMS" font-size="18.0" fill="#FEFFFF" transform="matrix(1.00, 0.00, -0.00, -1.00, 151.8, 299.0)"> </text><text xml:space="preserve" font-family="TrebuchetMS" font-size="18.0" fill="#FEFFFF" transform="matrix(1.00, 0.00, -0.00, -1.00, 157.2, 299.0)">s</text><text xml:space="preserve" font-family="TrebuchetMS" font-size="18.0" fill="#FEFFFF" transform="matrix(1.00, 0.00, -0.00, -1.00, 164.5, 299.0)">t</text><text xml:space="preserve" font-family="TrebuchetMS" font-size="18.0" fill="#FEFFFF" transform="matrix(1.00, 0.00, -0.00, -1.00, 171.7, 299.0)">a</text><text xml:space="preserve" font-family="TrebuchetMS" font-size="18.0" fill="#FEFFFF" transform="matrix(1.00, 0.00, -0.00, -1.00, 181.1, 299.0)">r</text><text xml:space="preserve" font-family="TrebuchetMS" font-size="18.0" fill="#FEFFFF" transform="matrix(1.00, 0.00, -0.00, -1.00, 188.1, 299.0)">t</text><text xml:space="preserve" font-family="TrebuchetMS" font-size="18.0" fill="#FEFFFF" transform="matrix(1.00, 0.00, -0.00, -1.00, 195.3, 299.0)">’</text><text xml:space="preserve" font-family="TrebuchetMS" font-size="18.0" fill="#FEFFFF" transform="matrix(1.00, 0.00, -0.00, -1.00, 201.9, 299.0)">)</text><text xml:space="preserve" font-family="TrebuchetMS" font-size="18.0" fill="#FEFFFF" transform="matrix(1.00, 0.00, -0.00, -1.00, 208.5, 299.0)">;</text><text xml:space="preserve" font-family="TrebuchetMS" font-size="18.0" fill="#FEFFFF" transform="matrix(1.00, 0.00, -0.00, -1.00, 215.1, 299.0)"> </text><text xml:space="preserve" font-family="TrebuchetMS" font-size="18.0" fill="#FEFFFF" transform="matrix(1.00, 0.00, -0.00, -1.00, 2.0, 257.0)">s</text><text xml:space="preserve" font-family="TrebuchetMS" font-size="18.0" fill="#FEFFFF" transform="matrix(1.00, 0.00, -0.00, -1.00, 9.3, 257.0)">e</text><text xml:space="preserve" font-family="TrebuchetMS" font-size="18.0" fill="#FEFFFF" transform="matrix(1.00, 0.00, -0.00, -1.00, 19.1, 257.0)">t</text><text xml:space="preserve" font-family="TrebuchetMS" font-size="18.0" fill="#FEFFFF" transform="matrix(1.00, 0.00, -0.00, -1.00, 26.3, 257.0)">T</text><text xml:space="preserve" font-family="TrebuchetMS" font-size="18.0" fill="#FEFFFF" transform="matrix(1.00, 0.00, -0.00, -1.00, 36.0, 257.0)">i</text><text xml:space="preserve" font-family="TrebuchetMS" font-size="18.0" fill="#FEFFFF" transform="matrix(1.00, 0.00, -0.00, -1.00, 41.1, 257.0)">m</text><text xml:space="preserve" font-family="TrebuchetMS" font-size="18.0" fill="#FEFFFF" transform="matrix(1.00, 0.00, -0.00, -1.00, 56.0, 257.0)">e</text><text xml:space="preserve" font-family="TrebuchetMS" font-size="18.0" fill="#FEFFFF" transform="matrix(1.00, 0.00, -0.00, -1.00, 65.9, 257.0)">o</text><text xml:space="preserve" font-family="TrebuchetMS" font-size="18.0" fill="#FEFFFF" transform="matrix(1.00, 0.00, -0.00, -1.00, 75.5, 257.0)">u</text><text xml:space="preserve" font-family="TrebuchetMS" font-size="18.0" fill="#FEFFFF" transform="matrix(1.00, 0.00, -0.00, -1.00, 85.4, 257.0)">t</text><text xml:space="preserve" font-family="TrebuchetMS" font-size="18.0" fill="#FEFFFF" transform="matrix(1.00, 0.00, -0.00, -1.00, 92.5, 257.0)">(</text><text xml:space="preserve" font-family="TrebuchetMS" font-size="18.0" fill="#FEFFFF" transform="matrix(1.00, 0.00, -0.00, -1.00, 99.1, 257.0)">f</text><text xml:space="preserve" font-family="TrebuchetMS" font-size="18.0" fill="#FEFFFF" transform="matrix(1.00, 0.00, -0.00, -1.00, 105.8, 257.0)">u</text><text xml:space="preserve" font-family="TrebuchetMS" font-size="18.0" fill="#FEFFFF" transform="matrix(1.00, 0.00, -0.00, -1.00, 115.6, 257.0)">n</text><text xml:space="preserve" font-family="TrebuchetMS" font-size="18.0" fill="#FEFFFF" transform="matrix(1.00, 0.00, -0.00, -1.00, 125.5, 257.0)">c</text><text xml:space="preserve" font-family="TrebuchetMS" font-size="18.0" fill="#FEFFFF" transform="matrix(1.00, 0.00, -0.00, -1.00, 134.4, 257.0)">t</text><text xml:space="preserve" font-family="TrebuchetMS" font-size="18.0" fill="#FEFFFF" transform="matrix(1.00, 0.00, -0.00, -1.00, 141.5, 257.0)">i</text><text xml:space="preserve" font-family="TrebuchetMS" font-size="18.0" fill="#FEFFFF" transform="matrix(1.00, 0.00, -0.00, -1.00, 146.7, 257.0)">o</text><text xml:space="preserve" font-family="TrebuchetMS" font-size="18.0" fill="#FEFFFF" transform="matrix(1.00, 0.00, -0.00, -1.00, 156.3, 257.0)">n</text><text xml:space="preserve" font-family="TrebuchetMS" font-size="18.0" fill="#FEFFFF" transform="matrix(1.00, 0.00, -0.00, -1.00, 166.2, 257.0)">(</text><text xml:space="preserve" font-family="TrebuchetMS" font-size="18.0" fill="#FEFFFF" transform="matrix(1.00, 0.00, -0.00, -1.00, 172.8, 257.0)">)</text><text xml:space="preserve" font-family="TrebuchetMS" font-size="18.0" fill="#FEFFFF" transform="matrix(1.00, 0.00, -0.00, -1.00, 179.4, 257.0)"> </text><text xml:space="preserve" font-family="TrebuchetMS" font-size="18.0" fill="#FEFFFF" transform="matrix(1.00, 0.00, -0.00, -1.00, 184.8, 257.0)">{</text><text xml:space="preserve" font-family="TrebuchetMS" font-size="18.0" fill="#FEFFFF" transform="matrix(1.00, 0.00, -0.00, -1.00, 191.4, 257.0)"> </text><text xml:space="preserve" font-family="TrebuchetMS" font-size="18.0" fill="#FEFFFF" transform="matrix(1.00, 0.00, -0.00, -1.00, 2.0, 236.0)"> </text><text xml:space="preserve" font-family="TrebuchetMS" font-size="18.0" fill="#FEFFFF" transform="matrix(1.00, 0.00, -0.00, -1.00, 7.4, 236.0)"> </text><text xml:space="preserve" font-family="TrebuchetMS" font-size="18.0" fill="#FEFFFF" transform="matrix(1.00, 0.00, -0.00, -1.00, 12.9, 236.0)">c</text><text xml:space="preserve" font-family="TrebuchetMS" font-size="18.0" fill="#FEFFFF" transform="matrix(1.00, 0.00, -0.00, -1.00, 21.8, 236.0)">o</text><text xml:space="preserve" font-family="TrebuchetMS" font-size="18.0" fill="#FEFFFF" transform="matrix(1.00, 0.00, -0.00, -1.00, 31.4, 236.0)">n</text><text xml:space="preserve" font-family="TrebuchetMS" font-size="18.0" fill="#FEFFFF" transform="matrix(1.00, 0.00, -0.00, -1.00, 41.3, 236.0)">s</text><text xml:space="preserve" font-family="TrebuchetMS" font-size="18.0" fill="#FEFFFF" transform="matrix(1.00, 0.00, -0.00, -1.00, 48.5, 236.0)">o</text><text xml:space="preserve" font-family="TrebuchetMS" font-size="18.0" fill="#FEFFFF" transform="matrix(1.00, 0.00, -0.00, -1.00, 58.2, 236.0)">l</text><text xml:space="preserve" font-family="TrebuchetMS" font-size="18.0" fill="#FEFFFF" transform="matrix(1.00, 0.00, -0.00, -1.00, 63.5, 236.0)">e</text><text xml:space="preserve" font-family="TrebuchetMS" font-size="18.0" fill="#FEFFFF" transform="matrix(1.00, 0.00, -0.00, -1.00, 73.3, 236.0)">.</text><text xml:space="preserve" font-family="TrebuchetMS" font-size="18.0" fill="#FEFFFF" transform="matrix(1.00, 0.00, -0.00, -1.00, 79.9, 236.0)">l</text><text xml:space="preserve" font-family="TrebuchetMS" font-size="18.0" fill="#FEFFFF" transform="matrix(1.00, 0.00, -0.00, -1.00, 85.3, 236.0)">o</text><text xml:space="preserve" font-family="TrebuchetMS" font-size="18.0" fill="#FEFFFF" transform="matrix(1.00, 0.00, -0.00, -1.00, 94.9, 236.0)">g</text><text xml:space="preserve" font-family="TrebuchetMS" font-size="18.0" fill="#FEFFFF" transform="matrix(1.00, 0.00, -0.00, -1.00, 103.9, 236.0)">(</text><text xml:space="preserve" font-family="TrebuchetMS" font-size="18.0" fill="#FEFFFF" transform="matrix(1.00, 0.00, -0.00, -1.00, 110.6, 236.0)">‘</text><text xml:space="preserve" font-family="TrebuchetMS" font-size="18.0" fill="#FEFFFF" transform="matrix(1.00, 0.00, -0.00, -1.00, 117.2, 236.0)">s</text><text xml:space="preserve" font-family="TrebuchetMS" font-size="18.0" fill="#FEFFFF" transform="matrix(1.00, 0.00, -0.00, -1.00, 124.4, 236.0)">e</text><text xml:space="preserve" font-family="TrebuchetMS" font-size="18.0" fill="#FEFFFF" transform="matrix(1.00, 0.00, -0.00, -1.00, 134.3, 236.0)">t</text><text xml:space="preserve" font-family="TrebuchetMS" font-size="18.0" fill="#FEFFFF" transform="matrix(1.00, 0.00, -0.00, -1.00, 141.4, 236.0)">T</text><text xml:space="preserve" font-family="TrebuchetMS" font-size="18.0" fill="#FEFFFF" transform="matrix(1.00, 0.00, -0.00, -1.00, 151.1, 236.0)">i</text><text xml:space="preserve" font-family="TrebuchetMS" font-size="18.0" fill="#FEFFFF" transform="matrix(1.00, 0.00, -0.00, -1.00, 156.2, 236.0)">m</text><text xml:space="preserve" font-family="TrebuchetMS" font-size="18.0" fill="#FEFFFF" transform="matrix(1.00, 0.00, -0.00, -1.00, 171.2, 236.0)">e</text><text xml:space="preserve" font-family="TrebuchetMS" font-size="18.0" fill="#FEFFFF" transform="matrix(1.00, 0.00, -0.00, -1.00, 181.0, 236.0)">o</text><text xml:space="preserve" font-family="TrebuchetMS" font-size="18.0" fill="#FEFFFF" transform="matrix(1.00, 0.00, -0.00, -1.00, 190.7, 236.0)">u</text><text xml:space="preserve" font-family="TrebuchetMS" font-size="18.0" fill="#FEFFFF" transform="matrix(1.00, 0.00, -0.00, -1.00, 200.5, 236.0)">t</text><text xml:space="preserve" font-family="TrebuchetMS" font-size="18.0" fill="#FEFFFF" transform="matrix(1.00, 0.00, -0.00, -1.00, 207.7, 236.0)">’</text><text xml:space="preserve" font-family="TrebuchetMS" font-size="18.0" fill="#FEFFFF" transform="matrix(1.00, 0.00, -0.00, -1.00, 214.2, 236.0)">)</text><text xml:space="preserve" font-family="TrebuchetMS" font-size="18.0" fill="#FEFFFF" transform="matrix(1.00, 0.00, -0.00, -1.00, 220.8, 236.0)">;</text><text xml:space="preserve" font-family="TrebuchetMS" font-size="18.0" fill="#FEFFFF" transform="matrix(1.00, 0.00, -0.00, -1.00, 227.5, 236.0)"> </text><text xml:space="preserve" font-family="TrebuchetMS" font-size="18.0" fill="#FEFFFF" transform="matrix(1.00, 0.00, -0.00, -1.00, 2.0, 215.0)">}</text><text xml:space="preserve" font-family="TrebuchetMS" font-size="18.0" fill="#FEFFFF" transform="matrix(1.00, 0.00, -0.00, -1.00, 8.6, 215.0)">,</text><text xml:space="preserve" font-family="TrebuchetMS" font-size="18.0" fill="#FEFFFF" transform="matrix(1.00, 0.00, -0.00, -1.00, 15.2, 215.0)"> </text><text xml:space="preserve" font-family="TrebuchetMS" font-size="18.0" fill="#FEFFFF" transform="matrix(1.00, 0.00, -0.00, -1.00, 20.7, 215.0)">0</text><text xml:space="preserve" font-family="TrebuchetMS" font-size="18.0" fill="#FEFFFF" transform="matrix(1.00, 0.00, -0.00, -1.00, 30.1, 215.0)">)</text><text xml:space="preserve" font-family="TrebuchetMS" font-size="18.0" fill="#FEFFFF" transform="matrix(1.00, 0.00, -0.00, -1.00, 36.7, 215.0)">;</text><text xml:space="preserve" font-family="TrebuchetMS" font-size="18.0" fill="#FEFFFF" transform="matrix(1.00, 0.00, -0.00, -1.00, 43.3, 215.0)"> </text><text xml:space="preserve" font-family="TrebuchetMS" font-size="18.0" fill="#FEFFFF" transform="matrix(1.00, 0.00, -0.00, -1.00, 2.0, 173.0)">P</text><text xml:space="preserve" font-family="TrebuchetMS" font-size="18.0" fill="#FEFFFF" transform="matrix(1.00, 0.00, -0.00, -1.00, 11.2, 173.0)">r</text><text xml:space="preserve" font-family="TrebuchetMS" font-size="18.0" fill="#FEFFFF" transform="matrix(1.00, 0.00, -0.00, -1.00, 18.2, 173.0)">o</text><text xml:space="preserve" font-family="TrebuchetMS" font-size="18.0" fill="#FEFFFF" transform="matrix(1.00, 0.00, -0.00, -1.00, 27.8, 173.0)">m</text><text xml:space="preserve" font-family="TrebuchetMS" font-size="18.0" fill="#FEFFFF" transform="matrix(1.00, 0.00, -0.00, -1.00, 42.8, 173.0)">i</text><text xml:space="preserve" font-family="TrebuchetMS" font-size="18.0" fill="#FEFFFF" transform="matrix(1.00, 0.00, -0.00, -1.00, 47.9, 173.0)">s</text><text xml:space="preserve" font-family="TrebuchetMS" font-size="18.0" fill="#FEFFFF" transform="matrix(1.00, 0.00, -0.00, -1.00, 55.2, 173.0)">e</text><text xml:space="preserve" font-family="TrebuchetMS" font-size="18.0" fill="#FEFFFF" transform="matrix(1.00, 0.00, -0.00, -1.00, 65.0, 173.0)">.</text><text xml:space="preserve" font-family="TrebuchetMS" font-size="18.0" fill="#FEFFFF" transform="matrix(1.00, 0.00, -0.00, -1.00, 71.6, 173.0)">r</text><text xml:space="preserve" font-family="TrebuchetMS" font-size="18.0" fill="#FEFFFF" transform="matrix(1.00, 0.00, -0.00, -1.00, 78.6, 173.0)">e</text><text xml:space="preserve" font-family="TrebuchetMS" font-size="18.0" fill="#FEFFFF" transform="matrix(1.00, 0.00, -0.00, -1.00, 88.5, 173.0)">s</text><text xml:space="preserve" font-family="TrebuchetMS" font-size="18.0" fill="#FEFFFF" transform="matrix(1.00, 0.00, -0.00, -1.00, 95.7, 173.0)">o</text><text xml:space="preserve" font-family="TrebuchetMS" font-size="18.0" fill="#FEFFFF" transform="matrix(1.00, 0.00, -0.00, -1.00, 105.4, 173.0)">l</text><text xml:space="preserve" font-family="TrebuchetMS" font-size="18.0" fill="#FEFFFF" transform="matrix(1.00, 0.00, -0.00, -1.00, 110.7, 173.0)">v</text><text xml:space="preserve" font-family="TrebuchetMS" font-size="18.0" fill="#FEFFFF" transform="matrix(1.00, 0.00, -0.00, -1.00, 119.5, 173.0)">e</text><text xml:space="preserve" font-family="TrebuchetMS" font-size="18.0" fill="#FEFFFF" transform="matrix(1.00, 0.00, -0.00, -1.00, 129.3, 173.0)">(</text><text xml:space="preserve" font-family="TrebuchetMS" font-size="18.0" fill="#FEFFFF" transform="matrix(1.00, 0.00, -0.00, -1.00, 136.0, 173.0)">)</text><text xml:space="preserve" font-family="TrebuchetMS" font-size="18.0" fill="#FEFFFF" transform="matrix(1.00, 0.00, -0.00, -1.00, 142.6, 173.0)"> </text><text xml:space="preserve" font-family="TrebuchetMS" font-size="18.0" fill="#FEFFFF" transform="matrix(1.00, 0.00, -0.00, -1.00, 2.0, 152.0)"> </text><text xml:space="preserve" font-family="TrebuchetMS" font-size="18.0" fill="#FEFFFF" transform="matrix(1.00, 0.00, -0.00, -1.00, 7.4, 152.0)"> </text><text xml:space="preserve" font-family="TrebuchetMS" font-size="18.0" fill="#FEFFFF" transform="matrix(1.00, 0.00, -0.00, -1.00, 12.9, 152.0)"> </text><text xml:space="preserve" font-family="TrebuchetMS" font-size="18.0" fill="#FEFFFF" transform="matrix(1.00, 0.00, -0.00, -1.00, 18.3, 152.0)"> </text><text xml:space="preserve" font-family="TrebuchetMS" font-size="18.0" fill="#FEFFFF" transform="matrix(1.00, 0.00, -0.00, -1.00, 23.7, 152.0)">.</text><text xml:space="preserve" font-family="TrebuchetMS" font-size="18.0" fill="#FEFFFF" transform="matrix(1.00, 0.00, -0.00, -1.00, 30.3, 152.0)">t</text><text xml:space="preserve" font-family="TrebuchetMS" font-size="18.0" fill="#FEFFFF" transform="matrix(1.00, 0.00, -0.00, -1.00, 37.4, 152.0)">h</text><text xml:space="preserve" font-family="TrebuchetMS" font-size="18.0" fill="#FEFFFF" transform="matrix(1.00, 0.00, -0.00, -1.00, 47.3, 152.0)">e</text><text xml:space="preserve" font-family="TrebuchetMS" font-size="18.0" fill="#FEFFFF" transform="matrix(1.00, 0.00, -0.00, -1.00, 57.1, 152.0)">n</text><text xml:space="preserve" font-family="TrebuchetMS" font-size="18.0" fill="#FEFFFF" transform="matrix(1.00, 0.00, -0.00, -1.00, 66.9, 152.0)">(</text><text xml:space="preserve" font-family="TrebuchetMS" font-size="18.0" fill="#FEFFFF" transform="matrix(1.00, 0.00, -0.00, -1.00, 73.6, 152.0)">f</text><text xml:space="preserve" font-family="TrebuchetMS" font-size="18.0" fill="#FEFFFF" transform="matrix(1.00, 0.00, -0.00, -1.00, 80.2, 152.0)">u</text><text xml:space="preserve" font-family="TrebuchetMS" font-size="18.0" fill="#FEFFFF" transform="matrix(1.00, 0.00, -0.00, -1.00, 90.0, 152.0)">n</text><text xml:space="preserve" font-family="TrebuchetMS" font-size="18.0" fill="#FEFFFF" transform="matrix(1.00, 0.00, -0.00, -1.00, 99.9, 152.0)">c</text><text xml:space="preserve" font-family="TrebuchetMS" font-size="18.0" fill="#FEFFFF" transform="matrix(1.00, 0.00, -0.00, -1.00, 108.8, 152.0)">t</text><text xml:space="preserve" font-family="TrebuchetMS" font-size="18.0" fill="#FEFFFF" transform="matrix(1.00, 0.00, -0.00, -1.00, 115.9, 152.0)">i</text><text xml:space="preserve" font-family="TrebuchetMS" font-size="18.0" fill="#FEFFFF" transform="matrix(1.00, 0.00, -0.00, -1.00, 121.1, 152.0)">o</text><text xml:space="preserve" font-family="TrebuchetMS" font-size="18.0" fill="#FEFFFF" transform="matrix(1.00, 0.00, -0.00, -1.00, 130.7, 152.0)">n</text><text xml:space="preserve" font-family="TrebuchetMS" font-size="18.0" fill="#FEFFFF" transform="matrix(1.00, 0.00, -0.00, -1.00, 140.5, 152.0)">(</text><text xml:space="preserve" font-family="TrebuchetMS" font-size="18.0" fill="#FEFFFF" transform="matrix(1.00, 0.00, -0.00, -1.00, 147.2, 152.0)">)</text><text xml:space="preserve" font-family="TrebuchetMS" font-size="18.0" fill="#FEFFFF" transform="matrix(1.00, 0.00, -0.00, -1.00, 153.8, 152.0)"> </text><text xml:space="preserve" font-family="TrebuchetMS" font-size="18.0" fill="#FEFFFF" transform="matrix(1.00, 0.00, -0.00, -1.00, 159.2, 152.0)">{</text><text xml:space="preserve" font-family="TrebuchetMS" font-size="18.0" fill="#FEFFFF" transform="matrix(1.00, 0.00, -0.00, -1.00, 165.8, 152.0)"> </text><text xml:space="preserve" font-family="TrebuchetMS" font-size="18.0" fill="#FEFFFF" transform="matrix(1.00, 0.00, -0.00, -1.00, 2.0, 131.0)"> </text><text xml:space="preserve" font-family="TrebuchetMS" font-size="18.0" fill="#FEFFFF" transform="matrix(1.00, 0.00, -0.00, -1.00, 7.4, 131.0)"> </text><text xml:space="preserve" font-family="TrebuchetMS" font-size="18.0" fill="#FEFFFF" transform="matrix(1.00, 0.00, -0.00, -1.00, 12.9, 131.0)"> </text><text xml:space="preserve" font-family="TrebuchetMS" font-size="18.0" fill="#FEFFFF" transform="matrix(1.00, 0.00, -0.00, -1.00, 18.3, 131.0)"> </text><text xml:space="preserve" font-family="TrebuchetMS" font-size="18.0" fill="#FEFFFF" transform="matrix(1.00, 0.00, -0.00, -1.00, 23.7, 131.0)"> </text><text xml:space="preserve" font-family="TrebuchetMS" font-size="18.0" fill="#FEFFFF" transform="matrix(1.00, 0.00, -0.00, -1.00, 29.1, 131.0)"> </text><text xml:space="preserve" font-family="TrebuchetMS" font-size="18.0" fill="#FEFFFF" transform="matrix(1.00, 0.00, -0.00, -1.00, 34.6, 131.0)"> </text><text xml:space="preserve" font-family="TrebuchetMS" font-size="18.0" fill="#FEFFFF" transform="matrix(1.00, 0.00, -0.00, -1.00, 40.0, 131.0)"> </text><text xml:space="preserve" font-family="TrebuchetMS" font-size="18.0" fill="#FEFFFF" transform="matrix(1.00, 0.00, -0.00, -1.00, 45.4, 131.0)">c</text><text xml:space="preserve" font-family="TrebuchetMS" font-size="18.0" fill="#FEFFFF" transform="matrix(1.00, 0.00, -0.00, -1.00, 54.3, 131.0)">o</text><text xml:space="preserve" font-family="TrebuchetMS" font-size="18.0" fill="#FEFFFF" transform="matrix(1.00, 0.00, -0.00, -1.00, 64.0, 131.0)">n</text><text xml:space="preserve" font-family="TrebuchetMS" font-size="18.0" fill="#FEFFFF" transform="matrix(1.00, 0.00, -0.00, -1.00, 73.8, 131.0)">s</text><text xml:space="preserve" font-family="TrebuchetMS" font-size="18.0" fill="#FEFFFF" transform="matrix(1.00, 0.00, -0.00, -1.00, 81.1, 131.0)">o</text><text xml:space="preserve" font-family="TrebuchetMS" font-size="18.0" fill="#FEFFFF" transform="matrix(1.00, 0.00, -0.00, -1.00, 90.8, 131.0)">l</text><text xml:space="preserve" font-family="TrebuchetMS" font-size="18.0" fill="#FEFFFF" transform="matrix(1.00, 0.00, -0.00, -1.00, 96.1, 131.0)">e</text><text xml:space="preserve" font-family="TrebuchetMS" font-size="18.0" fill="#FEFFFF" transform="matrix(1.00, 0.00, -0.00, -1.00, 105.9, 131.0)">.</text><text xml:space="preserve" font-family="TrebuchetMS" font-size="18.0" fill="#FEFFFF" transform="matrix(1.00, 0.00, -0.00, -1.00, 112.5, 131.0)">l</text><text xml:space="preserve" font-family="TrebuchetMS" font-size="18.0" fill="#FEFFFF" transform="matrix(1.00, 0.00, -0.00, -1.00, 117.8, 131.0)">o</text><text xml:space="preserve" font-family="TrebuchetMS" font-size="18.0" fill="#FEFFFF" transform="matrix(1.00, 0.00, -0.00, -1.00, 127.5, 131.0)">g</text><text xml:space="preserve" font-family="TrebuchetMS" font-size="18.0" fill="#FEFFFF" transform="matrix(1.00, 0.00, -0.00, -1.00, 136.5, 131.0)">(</text><text xml:space="preserve" font-family="TrebuchetMS" font-size="18.0" fill="#FEFFFF" transform="matrix(1.00, 0.00, -0.00, -1.00, 143.1, 131.0)">‘</text><text xml:space="preserve" font-family="TrebuchetMS" font-size="18.0" fill="#FEFFFF" transform="matrix(1.00, 0.00, -0.00, -1.00, 149.7, 131.0)">p</text><text xml:space="preserve" font-family="TrebuchetMS" font-size="18.0" fill="#FEFFFF" transform="matrix(1.00, 0.00, -0.00, -1.00, 159.8, 131.0)">r</text><text xml:space="preserve" font-family="TrebuchetMS" font-size="18.0" fill="#FEFFFF" transform="matrix(1.00, 0.00, -0.00, -1.00, 166.8, 131.0)">o</text><text xml:space="preserve" font-family="TrebuchetMS" font-size="18.0" fill="#FEFFFF" transform="matrix(1.00, 0.00, -0.00, -1.00, 176.4, 131.0)">m</text><text xml:space="preserve" font-family="TrebuchetMS" font-size="18.0" fill="#FEFFFF" transform="matrix(1.00, 0.00, -0.00, -1.00, 191.3, 131.0)">i</text><text xml:space="preserve" font-family="TrebuchetMS" font-size="18.0" fill="#FEFFFF" transform="matrix(1.00, 0.00, -0.00, -1.00, 196.5, 131.0)">s</text><text xml:space="preserve" font-family="TrebuchetMS" font-size="18.0" fill="#FEFFFF" transform="matrix(1.00, 0.00, -0.00, -1.00, 203.8, 131.0)">e</text><text xml:space="preserve" font-family="TrebuchetMS" font-size="18.0" fill="#FEFFFF" transform="matrix(1.00, 0.00, -0.00, -1.00, 213.6, 131.0)">1</text><text xml:space="preserve" font-family="TrebuchetMS" font-size="18.0" fill="#FEFFFF" transform="matrix(1.00, 0.00, -0.00, -1.00, 223.0, 131.0)">’</text><text xml:space="preserve" font-family="TrebuchetMS" font-size="18.0" fill="#FEFFFF" transform="matrix(1.00, 0.00, -0.00, -1.00, 229.6, 131.0)">)</text><text xml:space="preserve" font-family="TrebuchetMS" font-size="18.0" fill="#FEFFFF" transform="matrix(1.00, 0.00, -0.00, -1.00, 236.2, 131.0)">;</text><text xml:space="preserve" font-family="TrebuchetMS" font-size="18.0" fill="#FEFFFF" transform="matrix(1.00, 0.00, -0.00, -1.00, 242.8, 131.0)"> </text><text xml:space="preserve" font-family="TrebuchetMS" font-size="18.0" fill="#FEFFFF" transform="matrix(1.00, 0.00, -0.00, -1.00, 2.0, 110.0)"> </text><text xml:space="preserve" font-family="TrebuchetMS" font-size="18.0" fill="#FEFFFF" transform="matrix(1.00, 0.00, -0.00, -1.00, 7.4, 110.0)"> </text><text xml:space="preserve" font-family="TrebuchetMS" font-size="18.0" fill="#FEFFFF" transform="matrix(1.00, 0.00, -0.00, -1.00, 12.9, 110.0)"> </text><text xml:space="preserve" font-family="TrebuchetMS" font-size="18.0" fill="#FEFFFF" transform="matrix(1.00, 0.00, -0.00, -1.00, 18.3, 110.0)"> </text><text xml:space="preserve" font-family="TrebuchetMS" font-size="18.0" fill="#FEFFFF" transform="matrix(1.00, 0.00, -0.00, -1.00, 23.7, 110.0)">}</text><text xml:space="preserve" font-family="TrebuchetMS" font-size="18.0" fill="#FEFFFF" transform="matrix(1.00, 0.00, -0.00, -1.00, 30.3, 110.0)">)</text><text xml:space="preserve" font-family="TrebuchetMS" font-size="18.0" fill="#FEFFFF" transform="matrix(1.00, 0.00, -0.00, -1.00, 36.9, 110.0)"> </text><text xml:space="preserve" font-family="TrebuchetMS" font-size="18.0" fill="#FEFFFF" transform="matrix(1.00, 0.00, -0.00, -1.00, 2.0, 89.0)"> </text><text xml:space="preserve" font-family="TrebuchetMS" font-size="18.0" fill="#FEFFFF" transform="matrix(1.00, 0.00, -0.00, -1.00, 7.4, 89.0)"> </text><text xml:space="preserve" font-family="TrebuchetMS" font-size="18.0" fill="#FEFFFF" transform="matrix(1.00, 0.00, -0.00, -1.00, 12.9, 89.0)"> </text><text xml:space="preserve" font-family="TrebuchetMS" font-size="18.0" fill="#FEFFFF" transform="matrix(1.00, 0.00, -0.00, -1.00, 18.3, 89.0)"> </text><text xml:space="preserve" font-family="TrebuchetMS" font-size="18.0" fill="#FEFFFF" transform="matrix(1.00, 0.00, -0.00, -1.00, 23.7, 89.0)">.</text><text xml:space="preserve" font-family="TrebuchetMS" font-size="18.0" fill="#FEFFFF" transform="matrix(1.00, 0.00, -0.00, -1.00, 30.3, 89.0)">t</text><text xml:space="preserve" font-family="TrebuchetMS" font-size="18.0" fill="#FEFFFF" transform="matrix(1.00, 0.00, -0.00, -1.00, 37.4, 89.0)">h</text><text xml:space="preserve" font-family="TrebuchetMS" font-size="18.0" fill="#FEFFFF" transform="matrix(1.00, 0.00, -0.00, -1.00, 47.3, 89.0)">e</text><text xml:space="preserve" font-family="TrebuchetMS" font-size="18.0" fill="#FEFFFF" transform="matrix(1.00, 0.00, -0.00, -1.00, 57.1, 89.0)">n</text><text xml:space="preserve" font-family="TrebuchetMS" font-size="18.0" fill="#FEFFFF" transform="matrix(1.00, 0.00, -0.00, -1.00, 66.9, 89.0)">(</text><text xml:space="preserve" font-family="TrebuchetMS" font-size="18.0" fill="#FEFFFF" transform="matrix(1.00, 0.00, -0.00, -1.00, 73.6, 89.0)">f</text><text xml:space="preserve" font-family="TrebuchetMS" font-size="18.0" fill="#FEFFFF" transform="matrix(1.00, 0.00, -0.00, -1.00, 80.2, 89.0)">u</text><text xml:space="preserve" font-family="TrebuchetMS" font-size="18.0" fill="#FEFFFF" transform="matrix(1.00, 0.00, -0.00, -1.00, 90.0, 89.0)">n</text><text xml:space="preserve" font-family="TrebuchetMS" font-size="18.0" fill="#FEFFFF" transform="matrix(1.00, 0.00, -0.00, -1.00, 99.9, 89.0)">c</text><text xml:space="preserve" font-family="TrebuchetMS" font-size="18.0" fill="#FEFFFF" transform="matrix(1.00, 0.00, -0.00, -1.00, 108.8, 89.0)">t</text><text xml:space="preserve" font-family="TrebuchetMS" font-size="18.0" fill="#FEFFFF" transform="matrix(1.00, 0.00, -0.00, -1.00, 115.9, 89.0)">i</text><text xml:space="preserve" font-family="TrebuchetMS" font-size="18.0" fill="#FEFFFF" transform="matrix(1.00, 0.00, -0.00, -1.00, 121.1, 89.0)">o</text><text xml:space="preserve" font-family="TrebuchetMS" font-size="18.0" fill="#FEFFFF" transform="matrix(1.00, 0.00, -0.00, -1.00, 130.7, 89.0)">n</text><text xml:space="preserve" font-family="TrebuchetMS" font-size="18.0" fill="#FEFFFF" transform="matrix(1.00, 0.00, -0.00, -1.00, 140.5, 89.0)">(</text><text xml:space="preserve" font-family="TrebuchetMS" font-size="18.0" fill="#FEFFFF" transform="matrix(1.00, 0.00, -0.00, -1.00, 147.2, 89.0)">)</text><text xml:space="preserve" font-family="TrebuchetMS" font-size="18.0" fill="#FEFFFF" transform="matrix(1.00, 0.00, -0.00, -1.00, 153.8, 89.0)"> </text><text xml:space="preserve" font-family="TrebuchetMS" font-size="18.0" fill="#FEFFFF" transform="matrix(1.00, 0.00, -0.00, -1.00, 159.2, 89.0)">{</text><text xml:space="preserve" font-family="TrebuchetMS" font-size="18.0" fill="#FEFFFF" transform="matrix(1.00, 0.00, -0.00, -1.00, 165.8, 89.0)"> </text><text xml:space="preserve" font-family="TrebuchetMS" font-size="18.0" fill="#FEFFFF" transform="matrix(1.00, 0.00, -0.00, -1.00, 2.0, 68.0)"> </text><text xml:space="preserve" font-family="TrebuchetMS" font-size="18.0" fill="#FEFFFF" transform="matrix(1.00, 0.00, -0.00, -1.00, 7.4, 68.0)"> </text><text xml:space="preserve" font-family="TrebuchetMS" font-size="18.0" fill="#FEFFFF" transform="matrix(1.00, 0.00, -0.00, -1.00, 12.9, 68.0)"> </text><text xml:space="preserve" font-family="TrebuchetMS" font-size="18.0" fill="#FEFFFF" transform="matrix(1.00, 0.00, -0.00, -1.00, 18.3, 68.0)"> </text><text xml:space="preserve" font-family="TrebuchetMS" font-size="18.0" fill="#FEFFFF" transform="matrix(1.00, 0.00, -0.00, -1.00, 23.7, 68.0)"> </text><text xml:space="preserve" font-family="TrebuchetMS" font-size="18.0" fill="#FEFFFF" transform="matrix(1.00, 0.00, -0.00, -1.00, 29.1, 68.0)"> </text><text xml:space="preserve" font-family="TrebuchetMS" font-size="18.0" fill="#FEFFFF" transform="matrix(1.00, 0.00, -0.00, -1.00, 34.6, 68.0)"> </text><text xml:space="preserve" font-family="TrebuchetMS" font-size="18.0" fill="#FEFFFF" transform="matrix(1.00, 0.00, -0.00, -1.00, 40.0, 68.0)"> </text><text xml:space="preserve" font-family="TrebuchetMS" font-size="18.0" fill="#FEFFFF" transform="matrix(1.00, 0.00, -0.00, -1.00, 45.4, 68.0)">c</text><text xml:space="preserve" font-family="TrebuchetMS" font-size="18.0" fill="#FEFFFF" transform="matrix(1.00, 0.00, -0.00, -1.00, 54.3, 68.0)">o</text><text xml:space="preserve" font-family="TrebuchetMS" font-size="18.0" fill="#FEFFFF" transform="matrix(1.00, 0.00, -0.00, -1.00, 64.0, 68.0)">n</text><text xml:space="preserve" font-family="TrebuchetMS" font-size="18.0" fill="#FEFFFF" transform="matrix(1.00, 0.00, -0.00, -1.00, 73.8, 68.0)">s</text><text xml:space="preserve" font-family="TrebuchetMS" font-size="18.0" fill="#FEFFFF" transform="matrix(1.00, 0.00, -0.00, -1.00, 81.1, 68.0)">o</text><text xml:space="preserve" font-family="TrebuchetMS" font-size="18.0" fill="#FEFFFF" transform="matrix(1.00, 0.00, -0.00, -1.00, 90.8, 68.0)">l</text><text xml:space="preserve" font-family="TrebuchetMS" font-size="18.0" fill="#FEFFFF" transform="matrix(1.00, 0.00, -0.00, -1.00, 96.1, 68.0)">e</text><text xml:space="preserve" font-family="TrebuchetMS" font-size="18.0" fill="#FEFFFF" transform="matrix(1.00, 0.00, -0.00, -1.00, 105.9, 68.0)">.</text><text xml:space="preserve" font-family="TrebuchetMS" font-size="18.0" fill="#FEFFFF" transform="matrix(1.00, 0.00, -0.00, -1.00, 112.5, 68.0)">l</text><text xml:space="preserve" font-family="TrebuchetMS" font-size="18.0" fill="#FEFFFF" transform="matrix(1.00, 0.00, -0.00, -1.00, 117.8, 68.0)">o</text><text xml:space="preserve" font-family="TrebuchetMS" font-size="18.0" fill="#FEFFFF" transform="matrix(1.00, 0.00, -0.00, -1.00, 127.5, 68.0)">g</text><text xml:space="preserve" font-family="TrebuchetMS" font-size="18.0" fill="#FEFFFF" transform="matrix(1.00, 0.00, -0.00, -1.00, 136.5, 68.0)">(</text><text xml:space="preserve" font-family="TrebuchetMS" font-size="18.0" fill="#FEFFFF" transform="matrix(1.00, 0.00, -0.00, -1.00, 143.1, 68.0)">‘</text><text xml:space="preserve" font-family="TrebuchetMS" font-size="18.0" fill="#FEFFFF" transform="matrix(1.00, 0.00, -0.00, -1.00, 149.7, 68.0)">p</text><text xml:space="preserve" font-family="TrebuchetMS" font-size="18.0" fill="#FEFFFF" transform="matrix(1.00, 0.00, -0.00, -1.00, 159.8, 68.0)">r</text><text xml:space="preserve" font-family="TrebuchetMS" font-size="18.0" fill="#FEFFFF" transform="matrix(1.00, 0.00, -0.00, -1.00, 166.8, 68.0)">o</text><text xml:space="preserve" font-family="TrebuchetMS" font-size="18.0" fill="#FEFFFF" transform="matrix(1.00, 0.00, -0.00, -1.00, 176.4, 68.0)">m</text><text xml:space="preserve" font-family="TrebuchetMS" font-size="18.0" fill="#FEFFFF" transform="matrix(1.00, 0.00, -0.00, -1.00, 191.3, 68.0)">i</text><text xml:space="preserve" font-family="TrebuchetMS" font-size="18.0" fill="#FEFFFF" transform="matrix(1.00, 0.00, -0.00, -1.00, 196.5, 68.0)">s</text><text xml:space="preserve" font-family="TrebuchetMS" font-size="18.0" fill="#FEFFFF" transform="matrix(1.00, 0.00, -0.00, -1.00, 203.8, 68.0)">e</text><text xml:space="preserve" font-family="TrebuchetMS" font-size="18.0" fill="#FEFFFF" transform="matrix(1.00, 0.00, -0.00, -1.00, 213.6, 68.0)">2</text><text xml:space="preserve" font-family="TrebuchetMS" font-size="18.0" fill="#FEFFFF" transform="matrix(1.00, 0.00, -0.00, -1.00, 223.0, 68.0)">’</text><text xml:space="preserve" font-family="TrebuchetMS" font-size="18.0" fill="#FEFFFF" transform="matrix(1.00, 0.00, -0.00, -1.00, 229.6, 68.0)">)</text><text xml:space="preserve" font-family="TrebuchetMS" font-size="18.0" fill="#FEFFFF" transform="matrix(1.00, 0.00, -0.00, -1.00, 236.2, 68.0)">;</text><text xml:space="preserve" font-family="TrebuchetMS" font-size="18.0" fill="#FEFFFF" transform="matrix(1.00, 0.00, -0.00, -1.00, 242.8, 68.0)"> </text><text xml:space="preserve" font-family="TrebuchetMS" font-size="18.0" fill="#FEFFFF" transform="matrix(1.00, 0.00, -0.00, -1.00, 2.0, 47.0)"> </text><text xml:space="preserve" font-family="TrebuchetMS" font-size="18.0" fill="#FEFFFF" transform="matrix(1.00, 0.00, -0.00, -1.00, 7.4, 47.0)"> </text><text xml:space="preserve" font-family="TrebuchetMS" font-size="18.0" fill="#FEFFFF" transform="matrix(1.00, 0.00, -0.00, -1.00, 12.9, 47.0)"> </text><text xml:space="preserve" font-family="TrebuchetMS" font-size="18.0" fill="#FEFFFF" transform="matrix(1.00, 0.00, -0.00, -1.00, 18.3, 47.0)"> </text><text xml:space="preserve" font-family="TrebuchetMS" font-size="18.0" fill="#FEFFFF" transform="matrix(1.00, 0.00, -0.00, -1.00, 23.7, 47.0)">}</text><text xml:space="preserve" font-family="TrebuchetMS" font-size="18.0" fill="#FEFFFF" transform="matrix(1.00, 0.00, -0.00, -1.00, 30.3, 47.0)">)</text><text xml:space="preserve" font-family="TrebuchetMS" font-size="18.0" fill="#FEFFFF" transform="matrix(1.00, 0.00, -0.00, -1.00, 36.9, 47.0)">;</text><text xml:space="preserve" font-family="TrebuchetMS" font-size="18.0" fill="#FEFFFF" transform="matrix(1.00, 0.00, -0.00, -1.00, 43.5, 47.0)"> </text><text xml:space="preserve" font-family="TrebuchetMS" font-size="18.0" fill="#FEFFFF" transform="matrix(1.00, 0.00, -0.00, -1.00, 2.0, 5.0)">c</text><text xml:space="preserve" font-family="TrebuchetMS" font-size="18.0" fill="#FEFFFF" transform="matrix(1.00, 0.00, -0.00, -1.00, 10.9, 5.0)">o</text><text xml:space="preserve" font-family="TrebuchetMS" font-size="18.0" fill="#FEFFFF" transform="matrix(1.00, 0.00, -0.00, -1.00, 20.6, 5.0)">n</text><text xml:space="preserve" font-family="TrebuchetMS" font-size="18.0" fill="#FEFFFF" transform="matrix(1.00, 0.00, -0.00, -1.00, 30.4, 5.0)">s</text><text xml:space="preserve" font-family="TrebuchetMS" font-size="18.0" fill="#FEFFFF" transform="matrix(1.00, 0.00, -0.00, -1.00, 37.7, 5.0)">o</text><text xml:space="preserve" font-family="TrebuchetMS" font-size="18.0" fill="#FEFFFF" transform="matrix(1.00, 0.00, -0.00, -1.00, 47.3, 5.0)">l</text><text xml:space="preserve" font-family="TrebuchetMS" font-size="18.0" fill="#FEFFFF" transform="matrix(1.00, 0.00, -0.00, -1.00, 52.6, 5.0)">e</text><text xml:space="preserve" font-family="TrebuchetMS" font-size="18.0" fill="#FEFFFF" transform="matrix(1.00, 0.00, -0.00, -1.00, 62.5, 5.0)">.</text><text xml:space="preserve" font-family="TrebuchetMS" font-size="18.0" fill="#FEFFFF" transform="matrix(1.00, 0.00, -0.00, -1.00, 69.1, 5.0)">l</text><text xml:space="preserve" font-family="TrebuchetMS" font-size="18.0" fill="#FEFFFF" transform="matrix(1.00, 0.00, -0.00, -1.00, 74.4, 5.0)">o</text><text xml:space="preserve" font-family="TrebuchetMS" font-size="18.0" fill="#FEFFFF" transform="matrix(1.00, 0.00, -0.00, -1.00, 84.0, 5.0)">g</text><text xml:space="preserve" font-family="TrebuchetMS" font-size="18.0" fill="#FEFFFF" transform="matrix(1.00, 0.00, -0.00, -1.00, 93.1, 5.0)">(</text><text xml:space="preserve" font-family="TrebuchetMS" font-size="18.0" fill="#FEFFFF" transform="matrix(1.00, 0.00, -0.00, -1.00, 99.7, 5.0)">‘</text><text xml:space="preserve" font-family="TrebuchetMS" font-size="18.0" fill="#FEFFFF" transform="matrix(1.00, 0.00, -0.00, -1.00, 106.3, 5.0)">s</text><text xml:space="preserve" font-family="TrebuchetMS" font-size="18.0" fill="#FEFFFF" transform="matrix(1.00, 0.00, -0.00, -1.00, 113.6, 5.0)">c</text><text xml:space="preserve" font-family="TrebuchetMS" font-size="18.0" fill="#FEFFFF" transform="matrix(1.00, 0.00, -0.00, -1.00, 122.5, 5.0)">r</text><text xml:space="preserve" font-family="TrebuchetMS" font-size="18.0" fill="#FEFFFF" transform="matrix(1.00, 0.00, -0.00, -1.00, 129.5, 5.0)">i</text><text xml:space="preserve" font-family="TrebuchetMS" font-size="18.0" fill="#FEFFFF" transform="matrix(1.00, 0.00, -0.00, -1.00, 134.6, 5.0)">p</text><text xml:space="preserve" font-family="TrebuchetMS" font-size="18.0" fill="#FEFFFF" transform="matrix(1.00, 0.00, -0.00, -1.00, 144.7, 5.0)">t</text><text xml:space="preserve" font-family="TrebuchetMS" font-size="18.0" fill="#FEFFFF" transform="matrix(1.00, 0.00, -0.00, -1.00, 151.8, 5.0)"> </text><text xml:space="preserve" font-family="TrebuchetMS" font-size="18.0" fill="#FEFFFF" transform="matrix(1.00, 0.00, -0.00, -1.00, 157.2, 5.0)">e</text><text xml:space="preserve" font-family="TrebuchetMS" font-size="18.0" fill="#FEFFFF" transform="matrix(1.00, 0.00, -0.00, -1.00, 167.1, 5.0)">n</text><text xml:space="preserve" font-family="TrebuchetMS" font-size="18.0" fill="#FEFFFF" transform="matrix(1.00, 0.00, -0.00, -1.00, 176.9, 5.0)">d</text><text xml:space="preserve" font-family="TrebuchetMS" font-size="18.0" fill="#FEFFFF" transform="matrix(1.00, 0.00, -0.00, -1.00, 186.9, 5.0)">’</text><text xml:space="preserve" font-family="TrebuchetMS" font-size="18.0" fill="#FEFFFF" transform="matrix(1.00, 0.00, -0.00, -1.00, 193.5, 5.0)">)</text><text xml:space="preserve" font-family="TrebuchetMS" font-size="18.0" fill="#FEFFFF" transform="matrix(1.00, 0.00, -0.00, -1.00, 200.1, 5.0)">;</text></g></svg>