<?xml version="1.0" encoding="UTF-8" standalone="no"?><svg xmlns="http://www.w3.org/2000/svg" xmlns:xlink="http://www.w3.org/1999/xlink" clip-rule="evenodd" stroke-miterlimit="4.00" viewBox="0 0 93 59"><desc>SVG generated by Keynote</desc><defs></defs><g transform="matrix(1.00, 0.00, -0.00, -1.00, 0.0, 59.0)"><text xml:space="preserve" font-family="TrebuchetMS" font-size="18.0" fill="#78A9FE" transform="matrix(1.00, 0.00, -0.00, -1.00, 1.0, 44.0)">s</text><text xml:space="preserve" font-family="TrebuchetMS" font-size="18.0" fill="#78A9FE" transform="matrix(1.00, 0.00, -0.00, -1.00, 8.3, 44.0)">c</text><text xml:space="preserve" font-family="TrebuchetMS" font-size="18.0" fill="#78A9FE" transform="matrix(1.00, 0.00, -0.00, -1.00, 17.2, 44.0)">r</text><text xml:space="preserve" font-family="TrebuchetMS" font-size="18.0" fill="#78A9FE" transform="matrix(1.00, 0.00, -0.00, -1.00, 24.2, 44.0)">i</text><text xml:space="preserve" font-family="TrebuchetMS" font-size="18.0" fill="#78A9FE" transform="matrix(1.00, 0.00, -0.00, -1.00, 29.3, 44.0)">p</text><text xml:space="preserve" font-family="TrebuchetMS" font-size="18.0" fill="#78A9FE" transform="matrix(1.00, 0.00, -0.00, -1.00, 39.3, 44.0)">t</text><text xml:space="preserve" font-family="TrebuchetMS" font-size="18.0" fill="#78A9FE" transform="matrix(1.00, 0.00, -0.00, -1.00, 46.5, 44.0)"> </text><text xml:space="preserve" font-family="TrebuchetMS" font-size="18.0" fill="#78A9FE" transform="matrix(1.00, 0.00, -0.00, -1.00, 51.9, 44.0)">s</text><text xml:space="preserve" font-family="TrebuchetMS" font-size="18.0" fill="#78A9FE" transform="matrix(1.00, 0.00, -0.00, -1.00, 59.2, 44.0)">t</text><text xml:space="preserve" font-family="TrebuchetMS" font-size="18.0" fill="#78A9FE" transform="matrix(1.00, 0.00, -0.00, -1.00, 66.4, 44.0)">a</text><text xml:space="preserve" font-family="TrebuchetMS" font-size="18.0" fill="#78A9FE" transform="matrix(1.00, 0.00, -0.00, -1.00, 75.8, 44.0)">r</text><text xml:space="preserve" font-family="TrebuchetMS" font-size="18.0" fill="#78A9FE" transform="matrix(1.00, 0.00, -0.00, -1.00, 82.8, 44.0)">t</text><text xml:space="preserve" font-family="TrebuchetMS" font-size="18.0" fill="#78A9FE" transform="matrix(1.00, 0.00, -0.00, -1.00, 90.0, 44.0)"> </text><text xml:space="preserve" font-family="TrebuchetMS" font-size="18.0" fill="#78A9FE" transform="matrix(1.00, 0.00, -0.00, -1.00, 1.0, 23.0)">s</text><text xml:space="preserve" font-family="TrebuchetMS" font-size="18.0" fill="#78A9FE" transform="matrix(1.00, 0.00, -0.00, -1.00, 8.3, 23.0)">c</text><text xml:space="preserve" font-family="TrebuchetMS" font-size="18.0" fill="#78A9FE" transform="matrix(1.00, 0.00, -0.00, -1.00, 17.2, 23.0)">r</text><text xml:space="preserve" font-family="TrebuchetMS" font-size="18.0" fill="#78A9FE" transform="matrix(1.00, 0.00, -0.00, -1.00, 24.2, 23.0)">i</text><text xml:space="preserve" font-family="TrebuchetMS" font-size="18.0" fill="#78A9FE" transform="matrix(1.00, 0.00, -0.00, -1.00, 29.3, 23.0)">p</text><text xml:space="preserve" font-family="TrebuchetMS" font-size="18.0" fill="#78A9FE" transform="matrix(1.00, 0.00, -0.00, -1.00, 39.3, 23.0)">t</text><text xml:space="preserve" font-family="TrebuchetMS" font-size="18.0" fill="#78A9FE" transform="matrix(1.00, 0.00, -0.00, -1.00, 46.5, 23.0)"> </text><text xml:space="preserve" font-family="TrebuchetMS" font-size="18.0" fill="#78A9FE" transform="matrix(1.00, 0.00, -0.00, -1.00, 51.9, 23.0)">e</text><text xml:space="preserve" font-family="TrebuchetMS" font-size="18.0" fill="#78A9FE" transform="matrix(1.00, 0.00, -0.00, -1.00, 61.8, 23.0)">n</text><text xml:space="preserve" font-family="TrebuchetMS" font-size="18.0" fill="#78A9FE" transform="matrix(1.00, 0.00, -0.00, -1.00, 71.6, 23.0)">d</text><text xml:space="preserve" font-family="TrebuchetMS" font-size="18.0" fill="#78A9FE" transform="matrix(1.00, 0.00, -0.00, -1.00, 81.6, 23.0)"> </text><text xml:space="preserve" font-family="TrebuchetMS" font-size="18.0" fill="#78A9FE" transform="matrix(1.00, 0.00, -0.00, -1.00, 1.0, 2.0)">s</text><text xml:space="preserve" font-family="TrebuchetMS" font-size="18.0" fill="#78A9FE" transform="matrix(1.00, 0.00, -0.00, -1.00, 8.3, 2.0)">e</text><text xml:space="preserve" font-family="TrebuchetMS" font-size="18.0" fill="#78A9FE" transform="matrix(1.00, 0.00, -0.00, -1.00, 18.1, 2.0)">t</text><text xml:space="preserve" font-family="TrebuchetMS" font-size="18.0" fill="#78A9FE" transform="matrix(1.00, 0.00, -0.00, -1.00, 25.3, 2.0)">T</text><text xml:space="preserve" font-family="TrebuchetMS" font-size="18.0" fill="#78A9FE" transform="matrix(1.00, 0.00, -0.00, -1.00, 35.0, 2.0)">i</text><text xml:space="preserve" font-family="TrebuchetMS" font-size="18.0" fill="#78A9FE" transform="matrix(1.00, 0.00, -0.00, -1.00, 40.1, 2.0)">m</text><text xml:space="preserve" font-family="TrebuchetMS" font-size="18.0" fill="#78A9FE" transform="matrix(1.00, 0.00, -0.00, -1.00, 55.0, 2.0)">e</text><text xml:space="preserve" font-family="TrebuchetMS" font-size="18.0" fill="#78A9FE" transform="matrix(1.00, 0.00, -0.00, -1.00, 64.9, 2.0)">o</text><text xml:space="preserve" font-family="TrebuchetMS" font-size="18.0" fill="#78A9FE" transform="matrix(1.00, 0.00, -0.00, -1.00, 74.5, 2.0)">u</text><text xml:space="preserve" font-family="TrebuchetMS" font-size="18.0" fill="#78A9FE" transform="matrix(1.00, 0.00, -0.00, -1.00, 84.4, 2.0)">t</text></g></svg>