<?xml version="1.0" encoding="UTF-8" standalone="no"?><svg xmlns="http://www.w3.org/2000/svg" xmlns:xlink="http://www.w3.org/1999/xlink" clip-rule="evenodd" stroke-miterlimit="4.00" viewBox="0 0 242 315"><desc>SVG generated by Keynote</desc><defs></defs><g transform="matrix(1.00, 0.00, -0.00, -1.00, 0.0, 315.0)"><text xml:space="preserve" font-family="TrebuchetMS" font-size="18.0" fill="#FEFFFF" transform="matrix(1.00, 0.00, -0.00, -1.00, 2.0, 299.0)">s</text><text xml:space="preserve" font-family="TrebuchetMS" font-size="18.0" fill="#FEFFFF" transform="matrix(1.00, 0.00, -0.00, -1.00, 9.3, 299.0)">e</text><text xml:space="preserve" font-family="TrebuchetMS" font-size="18.0" fill="#FEFFFF" transform="matrix(1.00, 0.00, -0.00, -1.00, 19.1, 299.0)">t</text><text xml:space="preserve" font-family="TrebuchetMS" font-size="18.0" fill="#FEFFFF" transform="matrix(1.00, 0.00, -0.00, -1.00, 26.3, 299.0)">T</text><text xml:space="preserve" font-family="TrebuchetMS" font-size="18.0" fill="#FEFFFF" transform="matrix(1.00, 0.00, -0.00, -1.00, 36.0, 299.0)">i</text><text xml:space="preserve" font-family="TrebuchetMS" font-size="18.0" fill="#FEFFFF" transform="matrix(1.00, 0.00, -0.00, -1.00, 41.1, 299.0)">m</text><text xml:space="preserve" font-family="TrebuchetMS" font-size="18.0" fill="#FEFFFF" transform="matrix(1.00, 0.00, -0.00, -1.00, 56.0, 299.0)">e</text><text xml:space="preserve" font-family="TrebuchetMS" font-size="18.0" fill="#FEFFFF" transform="matrix(1.00, 0.00, -0.00, -1.00, 65.9, 299.0)">o</text><text xml:space="preserve" font-family="TrebuchetMS" font-size="18.0" fill="#FEFFFF" transform="matrix(1.00, 0.00, -0.00, -1.00, 75.5, 299.0)">u</text><text xml:space="preserve" font-family="TrebuchetMS" font-size="18.0" fill="#FEFFFF" transform="matrix(1.00, 0.00, -0.00, -1.00, 85.4, 299.0)">t</text><text xml:space="preserve" font-family="TrebuchetMS" font-size="18.0" fill="#FEFFFF" transform="matrix(1.00, 0.00, -0.00, -1.00, 92.5, 299.0)">(</text><text xml:space="preserve" font-family="TrebuchetMS" font-size="18.0" fill="#FEFFFF" transform="matrix(1.00, 0.00, -0.00, -1.00, 99.1, 299.0)">f</text><text xml:space="preserve" font-family="TrebuchetMS" font-size="18.0" fill="#FEFFFF" transform="matrix(1.00, 0.00, -0.00, -1.00, 105.8, 299.0)">u</text><text xml:space="preserve" font-family="TrebuchetMS" font-size="18.0" fill="#FEFFFF" transform="matrix(1.00, 0.00, -0.00, -1.00, 115.6, 299.0)">n</text><text xml:space="preserve" font-family="TrebuchetMS" font-size="18.0" fill="#FEFFFF" transform="matrix(1.00, 0.00, -0.00, -1.00, 125.5, 299.0)">c</text><text xml:space="preserve" font-family="TrebuchetMS" font-size="18.0" fill="#FEFFFF" transform="matrix(1.00, 0.00, -0.00, -1.00, 134.4, 299.0)">t</text><text xml:space="preserve" font-family="TrebuchetMS" font-size="18.0" fill="#FEFFFF" transform="matrix(1.00, 0.00, -0.00, -1.00, 141.5, 299.0)">i</text><text xml:space="preserve" font-family="TrebuchetMS" font-size="18.0" fill="#FEFFFF" transform="matrix(1.00, 0.00, -0.00, -1.00, 146.7, 299.0)">o</text><text xml:space="preserve" font-family="TrebuchetMS" font-size="18.0" fill="#FEFFFF" transform="matrix(1.00, 0.00, -0.00, -1.00, 156.3, 299.0)">n</text><text xml:space="preserve" font-family="TrebuchetMS" font-size="18.0" fill="#FEFFFF" transform="matrix(1.00, 0.00, -0.00, -1.00, 166.2, 299.0)">(</text><text xml:space="preserve" font-family="TrebuchetMS" font-size="18.0" fill="#FEFFFF" transform="matrix(1.00, 0.00, -0.00, -1.00, 172.8, 299.0)">)</text><text xml:space="preserve" font-family="TrebuchetMS" font-size="18.0" fill="#FEFFFF" transform="matrix(1.00, 0.00, -0.00, -1.00, 179.4, 299.0)"> </text><text xml:space="preserve" font-family="TrebuchetMS" font-size="18.0" fill="#FEFFFF" transform="matrix(1.00, 0.00, -0.00, -1.00, 184.7, 299.0)">{</text><text xml:space="preserve" font-family="TrebuchetMS" font-size="18.0" fill="#FEFFFF" transform="matrix(1.00, 0.00, -0.00, -1.00, 191.3, 299.0)"> </text><text xml:space="preserve" font-family="TrebuchetMS" font-size="18.0" fill="#FEFFFF" transform="matrix(1.00, 0.00, -0.00, -1.00, 2.0, 278.0)"> </text><text xml:space="preserve" font-family="TrebuchetMS" font-size="18.0" fill="#FEFFFF" transform="matrix(1.00, 0.00, -0.00, -1.00, 7.4, 278.0)"> </text><text xml:space="preserve" font-family="TrebuchetMS" font-size="18.0" fill="#FEFFFF" transform="matrix(1.00, 0.00, -0.00, -1.00, 12.9, 278.0)"> </text><text xml:space="preserve" font-family="TrebuchetMS" font-size="18.0" fill="#FEFFFF" transform="matrix(1.00, 0.00, -0.00, -1.00, 18.3, 278.0)"> </text><text xml:space="preserve" font-family="TrebuchetMS" font-size="18.0" fill="#FEFFFF" transform="matrix(1.00, 0.00, -0.00, -1.00, 23.7, 278.0)">c</text><text xml:space="preserve" font-family="TrebuchetMS" font-size="18.0" fill="#FEFFFF" transform="matrix(1.00, 0.00, -0.00, -1.00, 32.6, 278.0)">o</text><text xml:space="preserve" font-family="TrebuchetMS" font-size="18.0" fill="#FEFFFF" transform="matrix(1.00, 0.00, -0.00, -1.00, 42.3, 278.0)">n</text><text xml:space="preserve" font-family="TrebuchetMS" font-size="18.0" fill="#FEFFFF" transform="matrix(1.00, 0.00, -0.00, -1.00, 52.1, 278.0)">s</text><text xml:space="preserve" font-family="TrebuchetMS" font-size="18.0" fill="#FEFFFF" transform="matrix(1.00, 0.00, -0.00, -1.00, 59.4, 278.0)">o</text><text xml:space="preserve" font-family="TrebuchetMS" font-size="18.0" fill="#FEFFFF" transform="matrix(1.00, 0.00, -0.00, -1.00, 69.1, 278.0)">l</text><text xml:space="preserve" font-family="TrebuchetMS" font-size="18.0" fill="#FEFFFF" transform="matrix(1.00, 0.00, -0.00, -1.00, 74.4, 278.0)">e</text><text xml:space="preserve" font-family="TrebuchetMS" font-size="18.0" fill="#FEFFFF" transform="matrix(1.00, 0.00, -0.00, -1.00, 84.2, 278.0)">.</text><text xml:space="preserve" font-family="TrebuchetMS" font-size="18.0" fill="#FEFFFF" transform="matrix(1.00, 0.00, -0.00, -1.00, 90.8, 278.0)">l</text><text xml:space="preserve" font-family="TrebuchetMS" font-size="18.0" fill="#FEFFFF" transform="matrix(1.00, 0.00, -0.00, -1.00, 96.1, 278.0)">o</text><text xml:space="preserve" font-family="TrebuchetMS" font-size="18.0" fill="#FEFFFF" transform="matrix(1.00, 0.00, -0.00, -1.00, 105.8, 278.0)">g</text><text xml:space="preserve" font-family="TrebuchetMS" font-size="18.0" fill="#FEFFFF" transform="matrix(1.00, 0.00, -0.00, -1.00, 114.8, 278.0)">(</text><text xml:space="preserve" font-family="TrebuchetMS" font-size="18.0" fill="#FEFFFF" transform="matrix(1.00, 0.00, -0.00, -1.00, 121.4, 278.0)">4</text><text xml:space="preserve" font-family="TrebuchetMS" font-size="18.0" fill="#FEFFFF" transform="matrix(1.00, 0.00, -0.00, -1.00, 130.9, 278.0)">)</text><text xml:space="preserve" font-family="TrebuchetMS" font-size="18.0" fill="#FEFFFF" transform="matrix(1.00, 0.00, -0.00, -1.00, 137.5, 278.0)">;</text><text xml:space="preserve" font-family="TrebuchetMS" font-size="18.0" fill="#FEFFFF" transform="matrix(1.00, 0.00, -0.00, -1.00, 144.0, 278.0)"> </text><text xml:space="preserve" font-family="TrebuchetMS" font-size="18.0" fill="#FEFFFF" transform="matrix(1.00, 0.00, -0.00, -1.00, 2.0, 257.0)">}</text><text xml:space="preserve" font-family="TrebuchetMS" font-size="18.0" fill="#FEFFFF" transform="matrix(1.00, 0.00, -0.00, -1.00, 8.6, 257.0)">,</text><text xml:space="preserve" font-family="TrebuchetMS" font-size="18.0" fill="#FEFFFF" transform="matrix(1.00, 0.00, -0.00, -1.00, 15.2, 257.0)"> </text><text xml:space="preserve" font-family="TrebuchetMS" font-size="18.0" fill="#FEFFFF" transform="matrix(1.00, 0.00, -0.00, -1.00, 20.7, 257.0)">3</text><text xml:space="preserve" font-family="TrebuchetMS" font-size="18.0" fill="#FEFFFF" transform="matrix(1.00, 0.00, -0.00, -1.00, 30.1, 257.0)">0</text><text xml:space="preserve" font-family="TrebuchetMS" font-size="18.0" fill="#FEFFFF" transform="matrix(1.00, 0.00, -0.00, -1.00, 39.5, 257.0)">0</text><text xml:space="preserve" font-family="TrebuchetMS" font-size="18.0" fill="#FEFFFF" transform="matrix(1.00, 0.00, -0.00, -1.00, 49.0, 257.0)">)</text><text xml:space="preserve" font-family="TrebuchetMS" font-size="18.0" fill="#FEFFFF" transform="matrix(1.00, 0.00, -0.00, -1.00, 55.6, 257.0)">;</text><text xml:space="preserve" font-family="TrebuchetMS" font-size="18.0" fill="#FEFFFF" transform="matrix(1.00, 0.00, -0.00, -1.00, 62.2, 257.0)"> </text><text xml:space="preserve" font-family="TrebuchetMS" font-size="18.0" fill="#FEFFFF" transform="matrix(1.00, 0.00, -0.00, -1.00, 2.0, 215.0)">s</text><text xml:space="preserve" font-family="TrebuchetMS" font-size="18.0" fill="#FEFFFF" transform="matrix(1.00, 0.00, -0.00, -1.00, 9.3, 215.0)">e</text><text xml:space="preserve" font-family="TrebuchetMS" font-size="18.0" fill="#FEFFFF" transform="matrix(1.00, 0.00, -0.00, -1.00, 19.1, 215.0)">t</text><text xml:space="preserve" font-family="TrebuchetMS" font-size="18.0" fill="#FEFFFF" transform="matrix(1.00, 0.00, -0.00, -1.00, 26.3, 215.0)">T</text><text xml:space="preserve" font-family="TrebuchetMS" font-size="18.0" fill="#FEFFFF" transform="matrix(1.00, 0.00, -0.00, -1.00, 36.0, 215.0)">i</text><text xml:space="preserve" font-family="TrebuchetMS" font-size="18.0" fill="#FEFFFF" transform="matrix(1.00, 0.00, -0.00, -1.00, 41.1, 215.0)">m</text><text xml:space="preserve" font-family="TrebuchetMS" font-size="18.0" fill="#FEFFFF" transform="matrix(1.00, 0.00, -0.00, -1.00, 56.0, 215.0)">e</text><text xml:space="preserve" font-family="TrebuchetMS" font-size="18.0" fill="#FEFFFF" transform="matrix(1.00, 0.00, -0.00, -1.00, 65.9, 215.0)">o</text><text xml:space="preserve" font-family="TrebuchetMS" font-size="18.0" fill="#FEFFFF" transform="matrix(1.00, 0.00, -0.00, -1.00, 75.5, 215.0)">u</text><text xml:space="preserve" font-family="TrebuchetMS" font-size="18.0" fill="#FEFFFF" transform="matrix(1.00, 0.00, -0.00, -1.00, 85.4, 215.0)">t</text><text xml:space="preserve" font-family="TrebuchetMS" font-size="18.0" fill="#FEFFFF" transform="matrix(1.00, 0.00, -0.00, -1.00, 92.5, 215.0)">(</text><text xml:space="preserve" font-family="TrebuchetMS" font-size="18.0" fill="#FEFFFF" transform="matrix(1.00, 0.00, -0.00, -1.00, 99.1, 215.0)">f</text><text xml:space="preserve" font-family="TrebuchetMS" font-size="18.0" fill="#FEFFFF" transform="matrix(1.00, 0.00, -0.00, -1.00, 105.8, 215.0)">u</text><text xml:space="preserve" font-family="TrebuchetMS" font-size="18.0" fill="#FEFFFF" transform="matrix(1.00, 0.00, -0.00, -1.00, 115.6, 215.0)">n</text><text xml:space="preserve" font-family="TrebuchetMS" font-size="18.0" fill="#FEFFFF" transform="matrix(1.00, 0.00, -0.00, -1.00, 125.5, 215.0)">c</text><text xml:space="preserve" font-family="TrebuchetMS" font-size="18.0" fill="#FEFFFF" transform="matrix(1.00, 0.00, -0.00, -1.00, 134.4, 215.0)">t</text><text xml:space="preserve" font-family="TrebuchetMS" font-size="18.0" fill="#FEFFFF" transform="matrix(1.00, 0.00, -0.00, -1.00, 141.5, 215.0)">i</text><text xml:space="preserve" font-family="TrebuchetMS" font-size="18.0" fill="#FEFFFF" transform="matrix(1.00, 0.00, -0.00, -1.00, 146.7, 215.0)">o</text><text xml:space="preserve" font-family="TrebuchetMS" font-size="18.0" fill="#FEFFFF" transform="matrix(1.00, 0.00, -0.00, -1.00, 156.3, 215.0)">n</text><text xml:space="preserve" font-family="TrebuchetMS" font-size="18.0" fill="#FEFFFF" transform="matrix(1.00, 0.00, -0.00, -1.00, 166.2, 215.0)">(</text><text xml:space="preserve" font-family="TrebuchetMS" font-size="18.0" fill="#FEFFFF" transform="matrix(1.00, 0.00, -0.00, -1.00, 172.8, 215.0)">)</text><text xml:space="preserve" font-family="TrebuchetMS" font-size="18.0" fill="#FEFFFF" transform="matrix(1.00, 0.00, -0.00, -1.00, 179.4, 215.0)"> </text><text xml:space="preserve" font-family="TrebuchetMS" font-size="18.0" fill="#FEFFFF" transform="matrix(1.00, 0.00, -0.00, -1.00, 184.7, 215.0)">{</text><text xml:space="preserve" font-family="TrebuchetMS" font-size="18.0" fill="#FEFFFF" transform="matrix(1.00, 0.00, -0.00, -1.00, 191.3, 215.0)"> </text><text xml:space="preserve" font-family="TrebuchetMS" font-size="18.0" fill="#FEFFFF" transform="matrix(1.00, 0.00, -0.00, -1.00, 2.0, 194.0)"> </text><text xml:space="preserve" font-family="TrebuchetMS" font-size="18.0" fill="#FEFFFF" transform="matrix(1.00, 0.00, -0.00, -1.00, 7.4, 194.0)"> </text><text xml:space="preserve" font-family="TrebuchetMS" font-size="18.0" fill="#FEFFFF" transform="matrix(1.00, 0.00, -0.00, -1.00, 12.9, 194.0)"> </text><text xml:space="preserve" font-family="TrebuchetMS" font-size="18.0" fill="#FEFFFF" transform="matrix(1.00, 0.00, -0.00, -1.00, 18.3, 194.0)"> </text><text xml:space="preserve" font-family="TrebuchetMS" font-size="18.0" fill="#FEFFFF" transform="matrix(1.00, 0.00, -0.00, -1.00, 23.7, 194.0)">c</text><text xml:space="preserve" font-family="TrebuchetMS" font-size="18.0" fill="#FEFFFF" transform="matrix(1.00, 0.00, -0.00, -1.00, 32.6, 194.0)">o</text><text xml:space="preserve" font-family="TrebuchetMS" font-size="18.0" fill="#FEFFFF" transform="matrix(1.00, 0.00, -0.00, -1.00, 42.3, 194.0)">n</text><text xml:space="preserve" font-family="TrebuchetMS" font-size="18.0" fill="#FEFFFF" transform="matrix(1.00, 0.00, -0.00, -1.00, 52.1, 194.0)">s</text><text xml:space="preserve" font-family="TrebuchetMS" font-size="18.0" fill="#FEFFFF" transform="matrix(1.00, 0.00, -0.00, -1.00, 59.4, 194.0)">o</text><text xml:space="preserve" font-family="TrebuchetMS" font-size="18.0" fill="#FEFFFF" transform="matrix(1.00, 0.00, -0.00, -1.00, 69.1, 194.0)">l</text><text xml:space="preserve" font-family="TrebuchetMS" font-size="18.0" fill="#FEFFFF" transform="matrix(1.00, 0.00, -0.00, -1.00, 74.4, 194.0)">e</text><text xml:space="preserve" font-family="TrebuchetMS" font-size="18.0" fill="#FEFFFF" transform="matrix(1.00, 0.00, -0.00, -1.00, 84.2, 194.0)">.</text><text xml:space="preserve" font-family="TrebuchetMS" font-size="18.0" fill="#FEFFFF" transform="matrix(1.00, 0.00, -0.00, -1.00, 90.8, 194.0)">l</text><text xml:space="preserve" font-family="TrebuchetMS" font-size="18.0" fill="#FEFFFF" transform="matrix(1.00, 0.00, -0.00, -1.00, 96.1, 194.0)">o</text><text xml:space="preserve" font-family="TrebuchetMS" font-size="18.0" fill="#FEFFFF" transform="matrix(1.00, 0.00, -0.00, -1.00, 105.8, 194.0)">g</text><text xml:space="preserve" font-family="TrebuchetMS" font-size="18.0" fill="#FEFFFF" transform="matrix(1.00, 0.00, -0.00, -1.00, 114.8, 194.0)">(</text><text xml:space="preserve" font-family="TrebuchetMS" font-size="18.0" fill="#FEFFFF" transform="matrix(1.00, 0.00, -0.00, -1.00, 121.4, 194.0)">3</text><text xml:space="preserve" font-family="TrebuchetMS" font-size="18.0" fill="#FEFFFF" transform="matrix(1.00, 0.00, -0.00, -1.00, 130.9, 194.0)">)</text><text xml:space="preserve" font-family="TrebuchetMS" font-size="18.0" fill="#FEFFFF" transform="matrix(1.00, 0.00, -0.00, -1.00, 137.5, 194.0)">;</text><text xml:space="preserve" font-family="TrebuchetMS" font-size="18.0" fill="#FEFFFF" transform="matrix(1.00, 0.00, -0.00, -1.00, 144.0, 194.0)"> </text><text xml:space="preserve" font-family="TrebuchetMS" font-size="18.0" fill="#FEFFFF" transform="matrix(1.00, 0.00, -0.00, -1.00, 2.0, 173.0)">}</text><text xml:space="preserve" font-family="TrebuchetMS" font-size="18.0" fill="#FEFFFF" transform="matrix(1.00, 0.00, -0.00, -1.00, 8.6, 173.0)">,</text><text xml:space="preserve" font-family="TrebuchetMS" font-size="18.0" fill="#FEFFFF" transform="matrix(1.00, 0.00, -0.00, -1.00, 15.2, 173.0)"> </text><text xml:space="preserve" font-family="TrebuchetMS" font-size="18.0" fill="#FEFFFF" transform="matrix(1.00, 0.00, -0.00, -1.00, 20.7, 173.0)">2</text><text xml:space="preserve" font-family="TrebuchetMS" font-size="18.0" fill="#FEFFFF" transform="matrix(1.00, 0.00, -0.00, -1.00, 30.1, 173.0)">0</text><text xml:space="preserve" font-family="TrebuchetMS" font-size="18.0" fill="#FEFFFF" transform="matrix(1.00, 0.00, -0.00, -1.00, 39.5, 173.0)">0</text><text xml:space="preserve" font-family="TrebuchetMS" font-size="18.0" fill="#FEFFFF" transform="matrix(1.00, 0.00, -0.00, -1.00, 49.0, 173.0)">)</text><text xml:space="preserve" font-family="TrebuchetMS" font-size="18.0" fill="#FEFFFF" transform="matrix(1.00, 0.00, -0.00, -1.00, 55.6, 173.0)">;</text><text xml:space="preserve" font-family="TrebuchetMS" font-size="18.0" fill="#FEFFFF" transform="matrix(1.00, 0.00, -0.00, -1.00, 62.2, 173.0)"> </text><text xml:space="preserve" font-family="TrebuchetMS" font-size="18.0" fill="#FEFFFF" transform="matrix(1.00, 0.00, -0.00, -1.00, 2.0, 131.0)">f</text><text xml:space="preserve" font-family="TrebuchetMS" font-size="18.0" fill="#FEFFFF" transform="matrix(1.00, 0.00, -0.00, -1.00, 8.6, 131.0)">o</text><text xml:space="preserve" font-family="TrebuchetMS" font-size="18.0" fill="#FEFFFF" transform="matrix(1.00, 0.00, -0.00, -1.00, 18.3, 131.0)">r</text><text xml:space="preserve" font-family="TrebuchetMS" font-size="18.0" fill="#FEFFFF" transform="matrix(1.00, 0.00, -0.00, -1.00, 25.3, 131.0)"> </text><text xml:space="preserve" font-family="TrebuchetMS" font-size="18.0" fill="#FEFFFF" transform="matrix(1.00, 0.00, -0.00, -1.00, 30.7, 131.0)">(</text><text xml:space="preserve" font-family="TrebuchetMS" font-size="18.0" fill="#FEFFFF" transform="matrix(1.00, 0.00, -0.00, -1.00, 37.3, 131.0)">v</text><text xml:space="preserve" font-family="TrebuchetMS" font-size="18.0" fill="#FEFFFF" transform="matrix(1.00, 0.00, -0.00, -1.00, 46.1, 131.0)">a</text><text xml:space="preserve" font-family="TrebuchetMS" font-size="18.0" fill="#FEFFFF" transform="matrix(1.00, 0.00, -0.00, -1.00, 55.6, 131.0)">r</text><text xml:space="preserve" font-family="TrebuchetMS" font-size="18.0" fill="#FEFFFF" transform="matrix(1.00, 0.00, -0.00, -1.00, 62.6, 131.0)"> </text><text xml:space="preserve" font-family="TrebuchetMS" font-size="18.0" fill="#FEFFFF" transform="matrix(1.00, 0.00, -0.00, -1.00, 68.0, 131.0)">i</text><text xml:space="preserve" font-family="TrebuchetMS" font-size="18.0" fill="#FEFFFF" transform="matrix(1.00, 0.00, -0.00, -1.00, 73.2, 131.0)">=</text><text xml:space="preserve" font-family="TrebuchetMS" font-size="18.0" fill="#FEFFFF" transform="matrix(1.00, 0.00, -0.00, -1.00, 82.6, 131.0)">0</text><text xml:space="preserve" font-family="TrebuchetMS" font-size="18.0" fill="#FEFFFF" transform="matrix(1.00, 0.00, -0.00, -1.00, 92.1, 131.0)">;</text><text xml:space="preserve" font-family="TrebuchetMS" font-size="18.0" fill="#FEFFFF" transform="matrix(1.00, 0.00, -0.00, -1.00, 98.7, 131.0)"> </text><text xml:space="preserve" font-family="TrebuchetMS" font-size="18.0" fill="#FEFFFF" transform="matrix(1.00, 0.00, -0.00, -1.00, 104.1, 131.0)">i</text><text xml:space="preserve" font-family="TrebuchetMS" font-size="18.0" fill="#FEFFFF" transform="matrix(1.00, 0.00, -0.00, -1.00, 109.3, 131.0)">&lt;</text><text xml:space="preserve" font-family="TrebuchetMS" font-size="18.0" fill="#FEFFFF" transform="matrix(1.00, 0.00, -0.00, -1.00, 118.7, 131.0)">1</text><text xml:space="preserve" font-family="TrebuchetMS" font-size="18.0" fill="#FEFFFF" transform="matrix(1.00, 0.00, -0.00, -1.00, 128.2, 131.0)">0</text><text xml:space="preserve" font-family="TrebuchetMS" font-size="18.0" fill="#FEFFFF" transform="matrix(1.00, 0.00, -0.00, -1.00, 137.6, 131.0)">0</text><text xml:space="preserve" font-family="TrebuchetMS" font-size="18.0" fill="#FEFFFF" transform="matrix(1.00, 0.00, -0.00, -1.00, 147.1, 131.0)">0</text><text xml:space="preserve" font-family="TrebuchetMS" font-size="18.0" fill="#FEFFFF" transform="matrix(1.00, 0.00, -0.00, -1.00, 156.5, 131.0)">0</text><text xml:space="preserve" font-family="TrebuchetMS" font-size="18.0" fill="#FEFFFF" transform="matrix(1.00, 0.00, -0.00, -1.00, 166.0, 131.0)">0</text><text xml:space="preserve" font-family="TrebuchetMS" font-size="18.0" fill="#FEFFFF" transform="matrix(1.00, 0.00, -0.00, -1.00, 175.4, 131.0)">0</text><text xml:space="preserve" font-family="TrebuchetMS" font-size="18.0" fill="#FEFFFF" transform="matrix(1.00, 0.00, -0.00, -1.00, 184.9, 131.0)">;</text><text xml:space="preserve" font-family="TrebuchetMS" font-size="18.0" fill="#FEFFFF" transform="matrix(1.00, 0.00, -0.00, -1.00, 191.5, 131.0)"> </text><text xml:space="preserve" font-family="TrebuchetMS" font-size="18.0" fill="#FEFFFF" transform="matrix(1.00, 0.00, -0.00, -1.00, 196.9, 131.0)">i</text><text xml:space="preserve" font-family="TrebuchetMS" font-size="18.0" fill="#FEFFFF" transform="matrix(1.00, 0.00, -0.00, -1.00, 202.1, 131.0)">+</text><text xml:space="preserve" font-family="TrebuchetMS" font-size="18.0" fill="#FEFFFF" transform="matrix(1.00, 0.00, -0.00, -1.00, 211.5, 131.0)">+</text><text xml:space="preserve" font-family="TrebuchetMS" font-size="18.0" fill="#FEFFFF" transform="matrix(1.00, 0.00, -0.00, -1.00, 221.0, 131.0)">)</text><text xml:space="preserve" font-family="TrebuchetMS" font-size="18.0" fill="#FEFFFF" transform="matrix(1.00, 0.00, -0.00, -1.00, 227.6, 131.0)"> </text><text xml:space="preserve" font-family="TrebuchetMS" font-size="18.0" fill="#FEFFFF" transform="matrix(1.00, 0.00, -0.00, -1.00, 233.0, 131.0)">{</text><text xml:space="preserve" font-family="TrebuchetMS" font-size="18.0" fill="#FEFFFF" transform="matrix(1.00, 0.00, -0.00, -1.00, 239.7, 131.0)"> </text><text xml:space="preserve" font-family="TrebuchetMS" font-size="18.0" fill="#FEFFFF" transform="matrix(1.00, 0.00, -0.00, -1.00, 2.0, 110.0)"> </text><text xml:space="preserve" font-family="TrebuchetMS" font-size="18.0" fill="#FEFFFF" transform="matrix(1.00, 0.00, -0.00, -1.00, 7.4, 110.0)"> </text><text xml:space="preserve" font-family="TrebuchetMS" font-size="18.0" fill="#FEFFFF" transform="matrix(1.00, 0.00, -0.00, -1.00, 12.9, 110.0)"> </text><text xml:space="preserve" font-family="TrebuchetMS" font-size="18.0" fill="#FEFFFF" transform="matrix(1.00, 0.00, -0.00, -1.00, 18.3, 110.0)"> </text><text xml:space="preserve" font-family="TrebuchetMS" font-size="18.0" fill="#FEFFFF" transform="matrix(1.00, 0.00, -0.00, -1.00, 23.7, 110.0)">c</text><text xml:space="preserve" font-family="TrebuchetMS" font-size="18.0" fill="#FEFFFF" transform="matrix(1.00, 0.00, -0.00, -1.00, 32.6, 110.0)">o</text><text xml:space="preserve" font-family="TrebuchetMS" font-size="18.0" fill="#FEFFFF" transform="matrix(1.00, 0.00, -0.00, -1.00, 42.3, 110.0)">n</text><text xml:space="preserve" font-family="TrebuchetMS" font-size="18.0" fill="#FEFFFF" transform="matrix(1.00, 0.00, -0.00, -1.00, 52.1, 110.0)">s</text><text xml:space="preserve" font-family="TrebuchetMS" font-size="18.0" fill="#FEFFFF" transform="matrix(1.00, 0.00, -0.00, -1.00, 59.4, 110.0)">o</text><text xml:space="preserve" font-family="TrebuchetMS" font-size="18.0" fill="#FEFFFF" transform="matrix(1.00, 0.00, -0.00, -1.00, 69.1, 110.0)">l</text><text xml:space="preserve" font-family="TrebuchetMS" font-size="18.0" fill="#FEFFFF" transform="matrix(1.00, 0.00, -0.00, -1.00, 74.4, 110.0)">e</text><text xml:space="preserve" font-family="TrebuchetMS" font-size="18.0" fill="#FEFFFF" transform="matrix(1.00, 0.00, -0.00, -1.00, 84.2, 110.0)">.</text><text xml:space="preserve" font-family="TrebuchetMS" font-size="18.0" fill="#FEFFFF" transform="matrix(1.00, 0.00, -0.00, -1.00, 90.8, 110.0)">l</text><text xml:space="preserve" font-family="TrebuchetMS" font-size="18.0" fill="#FEFFFF" transform="matrix(1.00, 0.00, -0.00, -1.00, 96.1, 110.0)">o</text><text xml:space="preserve" font-family="TrebuchetMS" font-size="18.0" fill="#FEFFFF" transform="matrix(1.00, 0.00, -0.00, -1.00, 105.8, 110.0)">g</text><text xml:space="preserve" font-family="TrebuchetMS" font-size="18.0" fill="#FEFFFF" transform="matrix(1.00, 0.00, -0.00, -1.00, 114.8, 110.0)">(</text><text xml:space="preserve" font-family="TrebuchetMS" font-size="18.0" fill="#FEFFFF" transform="matrix(1.00, 0.00, -0.00, -1.00, 121.4, 110.0)">1</text><text xml:space="preserve" font-family="TrebuchetMS" font-size="18.0" fill="#FEFFFF" transform="matrix(1.00, 0.00, -0.00, -1.00, 130.9, 110.0)">)</text><text xml:space="preserve" font-family="TrebuchetMS" font-size="18.0" fill="#FEFFFF" transform="matrix(1.00, 0.00, -0.00, -1.00, 137.5, 110.0)">;</text><text xml:space="preserve" font-family="TrebuchetMS" font-size="18.0" fill="#FEFFFF" transform="matrix(1.00, 0.00, -0.00, -1.00, 144.0, 110.0)"> </text><text xml:space="preserve" font-family="TrebuchetMS" font-size="18.0" fill="#FEFFFF" transform="matrix(1.00, 0.00, -0.00, -1.00, 2.0, 89.0)">}</text><text xml:space="preserve" font-family="TrebuchetMS" font-size="18.0" fill="#FEFFFF" transform="matrix(1.00, 0.00, -0.00, -1.00, 8.6, 89.0)"> </text><text xml:space="preserve" font-family="TrebuchetMS" font-size="18.0" fill="#FEFFFF" transform="matrix(1.00, 0.00, -0.00, -1.00, 2.0, 47.0)">s</text><text xml:space="preserve" font-family="TrebuchetMS" font-size="18.0" fill="#FEFFFF" transform="matrix(1.00, 0.00, -0.00, -1.00, 9.3, 47.0)">e</text><text xml:space="preserve" font-family="TrebuchetMS" font-size="18.0" fill="#FEFFFF" transform="matrix(1.00, 0.00, -0.00, -1.00, 19.1, 47.0)">t</text><text xml:space="preserve" font-family="TrebuchetMS" font-size="18.0" fill="#FEFFFF" transform="matrix(1.00, 0.00, -0.00, -1.00, 26.3, 47.0)">T</text><text xml:space="preserve" font-family="TrebuchetMS" font-size="18.0" fill="#FEFFFF" transform="matrix(1.00, 0.00, -0.00, -1.00, 36.0, 47.0)">i</text><text xml:space="preserve" font-family="TrebuchetMS" font-size="18.0" fill="#FEFFFF" transform="matrix(1.00, 0.00, -0.00, -1.00, 41.1, 47.0)">m</text><text xml:space="preserve" font-family="TrebuchetMS" font-size="18.0" fill="#FEFFFF" transform="matrix(1.00, 0.00, -0.00, -1.00, 56.0, 47.0)">e</text><text xml:space="preserve" font-family="TrebuchetMS" font-size="18.0" fill="#FEFFFF" transform="matrix(1.00, 0.00, -0.00, -1.00, 65.9, 47.0)">o</text><text xml:space="preserve" font-family="TrebuchetMS" font-size="18.0" fill="#FEFFFF" transform="matrix(1.00, 0.00, -0.00, -1.00, 75.5, 47.0)">u</text><text xml:space="preserve" font-family="TrebuchetMS" font-size="18.0" fill="#FEFFFF" transform="matrix(1.00, 0.00, -0.00, -1.00, 85.4, 47.0)">t</text><text xml:space="preserve" font-family="TrebuchetMS" font-size="18.0" fill="#FEFFFF" transform="matrix(1.00, 0.00, -0.00, -1.00, 92.5, 47.0)">(</text><text xml:space="preserve" font-family="TrebuchetMS" font-size="18.0" fill="#FEFFFF" transform="matrix(1.00, 0.00, -0.00, -1.00, 99.1, 47.0)">f</text><text xml:space="preserve" font-family="TrebuchetMS" font-size="18.0" fill="#FEFFFF" transform="matrix(1.00, 0.00, -0.00, -1.00, 105.8, 47.0)">u</text><text xml:space="preserve" font-family="TrebuchetMS" font-size="18.0" fill="#FEFFFF" transform="matrix(1.00, 0.00, -0.00, -1.00, 115.6, 47.0)">n</text><text xml:space="preserve" font-family="TrebuchetMS" font-size="18.0" fill="#FEFFFF" transform="matrix(1.00, 0.00, -0.00, -1.00, 125.5, 47.0)">c</text><text xml:space="preserve" font-family="TrebuchetMS" font-size="18.0" fill="#FEFFFF" transform="matrix(1.00, 0.00, -0.00, -1.00, 134.4, 47.0)">t</text><text xml:space="preserve" font-family="TrebuchetMS" font-size="18.0" fill="#FEFFFF" transform="matrix(1.00, 0.00, -0.00, -1.00, 141.5, 47.0)">i</text><text xml:space="preserve" font-family="TrebuchetMS" font-size="18.0" fill="#FEFFFF" transform="matrix(1.00, 0.00, -0.00, -1.00, 146.7, 47.0)">o</text><text xml:space="preserve" font-family="TrebuchetMS" font-size="18.0" fill="#FEFFFF" transform="matrix(1.00, 0.00, -0.00, -1.00, 156.3, 47.0)">n</text><text xml:space="preserve" font-family="TrebuchetMS" font-size="18.0" fill="#FEFFFF" transform="matrix(1.00, 0.00, -0.00, -1.00, 166.2, 47.0)">(</text><text xml:space="preserve" font-family="TrebuchetMS" font-size="18.0" fill="#FEFFFF" transform="matrix(1.00, 0.00, -0.00, -1.00, 172.8, 47.0)">)</text><text xml:space="preserve" font-family="TrebuchetMS" font-size="18.0" fill="#FEFFFF" transform="matrix(1.00, 0.00, -0.00, -1.00, 179.4, 47.0)"> </text><text xml:space="preserve" font-family="TrebuchetMS" font-size="18.0" fill="#FEFFFF" transform="matrix(1.00, 0.00, -0.00, -1.00, 184.7, 47.0)">{</text><text xml:space="preserve" font-family="TrebuchetMS" font-size="18.0" fill="#FEFFFF" transform="matrix(1.00, 0.00, -0.00, -1.00, 191.3, 47.0)"> </text><text xml:space="preserve" font-family="TrebuchetMS" font-size="18.0" fill="#FEFFFF" transform="matrix(1.00, 0.00, -0.00, -1.00, 2.0, 26.0)"> </text><text xml:space="preserve" font-family="TrebuchetMS" font-size="18.0" fill="#FEFFFF" transform="matrix(1.00, 0.00, -0.00, -1.00, 7.4, 26.0)"> </text><text xml:space="preserve" font-family="TrebuchetMS" font-size="18.0" fill="#FEFFFF" transform="matrix(1.00, 0.00, -0.00, -1.00, 12.9, 26.0)"> </text><text xml:space="preserve" font-family="TrebuchetMS" font-size="18.0" fill="#FEFFFF" transform="matrix(1.00, 0.00, -0.00, -1.00, 18.3, 26.0)"> </text><text xml:space="preserve" font-family="TrebuchetMS" font-size="18.0" fill="#FEFFFF" transform="matrix(1.00, 0.00, -0.00, -1.00, 23.7, 26.0)">c</text><text xml:space="preserve" font-family="TrebuchetMS" font-size="18.0" fill="#FEFFFF" transform="matrix(1.00, 0.00, -0.00, -1.00, 32.6, 26.0)">o</text><text xml:space="preserve" font-family="TrebuchetMS" font-size="18.0" fill="#FEFFFF" transform="matrix(1.00, 0.00, -0.00, -1.00, 42.3, 26.0)">n</text><text xml:space="preserve" font-family="TrebuchetMS" font-size="18.0" fill="#FEFFFF" transform="matrix(1.00, 0.00, -0.00, -1.00, 52.1, 26.0)">s</text><text xml:space="preserve" font-family="TrebuchetMS" font-size="18.0" fill="#FEFFFF" transform="matrix(1.00, 0.00, -0.00, -1.00, 59.4, 26.0)">o</text><text xml:space="preserve" font-family="TrebuchetMS" font-size="18.0" fill="#FEFFFF" transform="matrix(1.00, 0.00, -0.00, -1.00, 69.1, 26.0)">l</text><text xml:space="preserve" font-family="TrebuchetMS" font-size="18.0" fill="#FEFFFF" transform="matrix(1.00, 0.00, -0.00, -1.00, 74.4, 26.0)">e</text><text xml:space="preserve" font-family="TrebuchetMS" font-size="18.0" fill="#FEFFFF" transform="matrix(1.00, 0.00, -0.00, -1.00, 84.2, 26.0)">.</text><text xml:space="preserve" font-family="TrebuchetMS" font-size="18.0" fill="#FEFFFF" transform="matrix(1.00, 0.00, -0.00, -1.00, 90.8, 26.0)">l</text><text xml:space="preserve" font-family="TrebuchetMS" font-size="18.0" fill="#FEFFFF" transform="matrix(1.00, 0.00, -0.00, -1.00, 96.1, 26.0)">o</text><text xml:space="preserve" font-family="TrebuchetMS" font-size="18.0" fill="#FEFFFF" transform="matrix(1.00, 0.00, -0.00, -1.00, 105.8, 26.0)">g</text><text xml:space="preserve" font-family="TrebuchetMS" font-size="18.0" fill="#FEFFFF" transform="matrix(1.00, 0.00, -0.00, -1.00, 114.8, 26.0)">(</text><text xml:space="preserve" font-family="TrebuchetMS" font-size="18.0" fill="#FEFFFF" transform="matrix(1.00, 0.00, -0.00, -1.00, 121.4, 26.0)">2</text><text xml:space="preserve" font-family="TrebuchetMS" font-size="18.0" fill="#FEFFFF" transform="matrix(1.00, 0.00, -0.00, -1.00, 130.9, 26.0)">)</text><text xml:space="preserve" font-family="TrebuchetMS" font-size="18.0" fill="#FEFFFF" transform="matrix(1.00, 0.00, -0.00, -1.00, 137.5, 26.0)">;</text><text xml:space="preserve" font-family="TrebuchetMS" font-size="18.0" fill="#FEFFFF" transform="matrix(1.00, 0.00, -0.00, -1.00, 144.0, 26.0)"> </text><text xml:space="preserve" font-family="TrebuchetMS" font-size="18.0" fill="#FEFFFF" transform="matrix(1.00, 0.00, -0.00, -1.00, 2.0, 5.0)">}</text><text xml:space="preserve" font-family="TrebuchetMS" font-size="18.0" fill="#FEFFFF" transform="matrix(1.00, 0.00, -0.00, -1.00, 8.6, 5.0)">,</text><text xml:space="preserve" font-family="TrebuchetMS" font-size="18.0" fill="#FEFFFF" transform="matrix(1.00, 0.00, -0.00, -1.00, 15.2, 5.0)"> </text><text xml:space="preserve" font-family="TrebuchetMS" font-size="18.0" fill="#FEFFFF" transform="matrix(1.00, 0.00, -0.00, -1.00, 20.7, 5.0)">1</text><text xml:space="preserve" font-family="TrebuchetMS" font-size="18.0" fill="#FEFFFF" transform="matrix(1.00, 0.00, -0.00, -1.00, 30.1, 5.0)">0</text><text xml:space="preserve" font-family="TrebuchetMS" font-size="18.0" fill="#FEFFFF" transform="matrix(1.00, 0.00, -0.00, -1.00, 39.5, 5.0)">0</text><text xml:space="preserve" font-family="TrebuchetMS" font-size="18.0" fill="#FEFFFF" transform="matrix(1.00, 0.00, -0.00, -1.00, 49.0, 5.0)">)</text><text xml:space="preserve" font-family="TrebuchetMS" font-size="18.0" fill="#FEFFFF" transform="matrix(1.00, 0.00, -0.00, -1.00, 55.6, 5.0)">;</text><text xml:space="preserve" font-family="TrebuchetMS" font-size="18.0" fill="#FEFFFF" transform="matrix(1.00, 0.00, -0.00, -1.00, 62.2, 5.0)"> </text></g></svg>