<?xml version="1.0" encoding="UTF-8" standalone="no"?><svg xmlns="http://www.w3.org/2000/svg" xmlns:xlink="http://www.w3.org/1999/xlink" clip-rule="evenodd" stroke-miterlimit="4.00" viewBox="0 0 720 540"><desc>SVG generated by Keynote</desc><defs></defs><g transform="matrix(1.00, 0.00, -0.00, -1.00, 0.0, 540.0)"><g><clipPath id="clip-272"><path d="M 0.0 540.0 L 720.0 540.0 L 720.0 0.0 L 0.0 0.0 Z M 0.0 540.0 "></path></clipPath><g clip-path="url(#clip-272)"><image xlink:href="../../2E34FD03-1090-4811-8D08-B00F3B774E14/assets/E4B59F63A6EDA017B41703A0F53BFDB9.png" width="720.00" height="540.00" transform="matrix(1.00, 0.00, -0.00, -1.00, 0.0, 540.0)"></image></g></g><text xml:space="preserve" font-family="Helvetica" font-size="28.0" fill="#00B0F0" transform="matrix(1.00, 0.00, -0.00, -1.00, 30.0, 492.0)">W</text><text xml:space="preserve" font-family="Helvetica" font-size="28.0" fill="#00B0F0" transform="matrix(1.00, 0.00, -0.00, -1.00, 55.9, 492.0)">e</text><text xml:space="preserve" font-family="Helvetica" font-size="28.0" fill="#00B0F0" transform="matrix(1.00, 0.00, -0.00, -1.00, 71.5, 492.0)">b</text><text xml:space="preserve" font-family="Helvetica" font-size="28.0" fill="#00B0F0" transform="matrix(1.00, 0.00, -0.00, -1.00, 87.1, 492.0)"> </text><text xml:space="preserve" font-family="Helvetica" font-size="28.0" fill="#00B0F0" transform="matrix(1.00, 0.00, -0.00, -1.00, 93.3, 492.0)">A</text><text xml:space="preserve" font-family="Helvetica" font-size="28.0" fill="#00B0F0" transform="matrix(1.00, 0.00, -0.00, -1.00, 112.0, 492.0)">P</text><text xml:space="preserve" font-family="Helvetica" font-size="28.0" fill="#00B0F0" transform="matrix(1.00, 0.00, -0.00, -1.00, 130.7, 492.0)">I</text><text xml:space="preserve" font-family="ArialMT" font-size="24.0" fill="#FFFFFF" transform="matrix(1.00, 0.00, -0.00, -1.00, 63.7, 394.9)">•</text><text xml:space="preserve" font-family="Helvetica" font-size="24.0" fill="#FFFFFF" transform="matrix(1.00, 0.00, -0.00, -1.00, 77.0, 394.0)">X</text><text xml:space="preserve" font-family="Helvetica" font-size="24.0" fill="#FFFFFF" transform="matrix(1.00, 0.00, -0.00, -1.00, 93.0, 394.0)">M</text><text xml:space="preserve" font-family="Helvetica" font-size="24.0" fill="#FFFFFF" transform="matrix(1.00, 0.00, -0.00, -1.00, 113.0, 394.0)">L</text><text xml:space="preserve" font-family="Helvetica" font-size="24.0" fill="#FFFFFF" transform="matrix(1.00, 0.00, -0.00, -1.00, 126.4, 394.0)">H</text><text xml:space="preserve" font-family="Helvetica" font-size="24.0" fill="#FFFFFF" transform="matrix(1.00, 0.00, -0.00, -1.00, 143.7, 394.0)">t</text><text xml:space="preserve" font-family="Helvetica" font-size="24.0" fill="#FFFFFF" transform="matrix(1.00, 0.00, -0.00, -1.00, 150.4, 394.0)">t</text><text xml:space="preserve" font-family="Helvetica" font-size="24.0" fill="#FFFFFF" transform="matrix(1.00, 0.00, -0.00, -1.00, 157.0, 394.0)">p</text><text xml:space="preserve" font-family="Helvetica" font-size="24.0" fill="#FFFFFF" transform="matrix(1.00, 0.00, -0.00, -1.00, 170.4, 394.0)">R</text><text xml:space="preserve" font-family="Helvetica" font-size="24.0" fill="#FFFFFF" transform="matrix(1.00, 0.00, -0.00, -1.00, 187.7, 394.0)">e</text><text xml:space="preserve" font-family="Helvetica" font-size="24.0" fill="#FFFFFF" transform="matrix(1.00, 0.00, -0.00, -1.00, 201.1, 394.0)">q</text><text xml:space="preserve" font-family="Helvetica" font-size="24.0" fill="#FFFFFF" transform="matrix(1.00, 0.00, -0.00, -1.00, 214.4, 394.0)">u</text><text xml:space="preserve" font-family="Helvetica" font-size="24.0" fill="#FFFFFF" transform="matrix(1.00, 0.00, -0.00, -1.00, 227.8, 394.0)">e</text><text xml:space="preserve" font-family="Helvetica" font-size="24.0" fill="#FFFFFF" transform="matrix(1.00, 0.00, -0.00, -1.00, 241.1, 394.0)">s</text><text xml:space="preserve" font-family="Helvetica" font-size="24.0" fill="#FFFFFF" transform="matrix(1.00, 0.00, -0.00, -1.00, 253.1, 394.0)">t</text><text xml:space="preserve" font-family="ArialMT" font-size="24.0" fill="#FFFFFF" transform="matrix(1.00, 0.00, -0.00, -1.00, 63.7, 365.8)">•</text><text xml:space="preserve" font-family="Helvetica" font-size="24.0" fill="#FFFFFF" transform="matrix(1.00, 0.00, -0.00, -1.00, 77.0, 365.0)">W</text><text xml:space="preserve" font-family="Helvetica" font-size="24.0" fill="#FFFFFF" transform="matrix(1.00, 0.00, -0.00, -1.00, 99.2, 365.0)">o</text><text xml:space="preserve" font-family="Helvetica" font-size="24.0" fill="#FFFFFF" transform="matrix(1.00, 0.00, -0.00, -1.00, 112.6, 365.0)">r</text><text xml:space="preserve" font-family="Helvetica" font-size="24.0" fill="#FFFFFF" transform="matrix(1.00, 0.00, -0.00, -1.00, 120.6, 365.0)">k</text><text xml:space="preserve" font-family="Helvetica" font-size="24.0" fill="#FFFFFF" transform="matrix(1.00, 0.00, -0.00, -1.00, 132.6, 365.0)">e</text><text xml:space="preserve" font-family="Helvetica" font-size="24.0" fill="#FFFFFF" transform="matrix(1.00, 0.00, -0.00, -1.00, 145.9, 365.0)">r</text><text xml:space="preserve" font-family="ArialMT" font-size="24.0" fill="#FFFFFF" transform="matrix(1.00, 0.00, -0.00, -1.00, 63.7, 336.7)">•</text><text xml:space="preserve" font-family="Helvetica" font-size="24.0" fill="#FFFFFF" transform="matrix(1.00, 0.00, -0.00, -1.00, 77.0, 336.0)">W</text><text xml:space="preserve" font-family="Helvetica" font-size="24.0" fill="#FFFFFF" transform="matrix(1.00, 0.00, -0.00, -1.00, 99.6, 336.0)">i</text><text xml:space="preserve" font-family="Helvetica" font-size="24.0" fill="#FFFFFF" transform="matrix(1.00, 0.00, -0.00, -1.00, 105.0, 336.0)">n</text><text xml:space="preserve" font-family="Helvetica" font-size="24.0" fill="#FFFFFF" transform="matrix(1.00, 0.00, -0.00, -1.00, 118.3, 336.0)">d</text><text xml:space="preserve" font-family="Helvetica" font-size="24.0" fill="#FFFFFF" transform="matrix(1.00, 0.00, -0.00, -1.00, 131.7, 336.0)">o</text><text xml:space="preserve" font-family="Helvetica" font-size="24.0" fill="#FFFFFF" transform="matrix(1.00, 0.00, -0.00, -1.00, 145.0, 336.0)">w</text><text xml:space="preserve" font-family="ArialMT" font-size="24.0" fill="#FFFFFF" transform="matrix(1.00, 0.00, -0.00, -1.00, 63.7, 307.6)">•</text><text xml:space="preserve" font-family="Helvetica" font-size="24.0" fill="#FFFFFF" transform="matrix(1.00, 0.00, -0.00, -1.00, 77.0, 307.0)">W</text><text xml:space="preserve" font-family="Helvetica" font-size="24.0" fill="#FFFFFF" transform="matrix(1.00, 0.00, -0.00, -1.00, 99.2, 307.0)">o</text><text xml:space="preserve" font-family="Helvetica" font-size="24.0" fill="#FFFFFF" transform="matrix(1.00, 0.00, -0.00, -1.00, 112.6, 307.0)">r</text><text xml:space="preserve" font-family="Helvetica" font-size="24.0" fill="#FFFFFF" transform="matrix(1.00, 0.00, -0.00, -1.00, 120.6, 307.0)">k</text><text xml:space="preserve" font-family="Helvetica" font-size="24.0" fill="#FFFFFF" transform="matrix(1.00, 0.00, -0.00, -1.00, 132.6, 307.0)">e</text><text xml:space="preserve" font-family="Helvetica" font-size="24.0" fill="#FFFFFF" transform="matrix(1.00, 0.00, -0.00, -1.00, 145.9, 307.0)">r</text><text xml:space="preserve" font-family="Helvetica" font-size="24.0" fill="#FFFFFF" transform="matrix(1.00, 0.00, -0.00, -1.00, 153.9, 307.0)">G</text><text xml:space="preserve" font-family="Helvetica" font-size="24.0" fill="#FFFFFF" transform="matrix(1.00, 0.00, -0.00, -1.00, 172.6, 307.0)">l</text><text xml:space="preserve" font-family="Helvetica" font-size="24.0" fill="#FFFFFF" transform="matrix(1.00, 0.00, -0.00, -1.00, 177.9, 307.0)">o</text><text xml:space="preserve" font-family="Helvetica" font-size="24.0" fill="#FFFFFF" transform="matrix(1.00, 0.00, -0.00, -1.00, 191.3, 307.0)">b</text><text xml:space="preserve" font-family="Helvetica" font-size="24.0" fill="#FFFFFF" transform="matrix(1.00, 0.00, -0.00, -1.00, 204.6, 307.0)">a</text><text xml:space="preserve" font-family="Helvetica" font-size="24.0" fill="#FFFFFF" transform="matrix(1.00, 0.00, -0.00, -1.00, 218.0, 307.0)">l</text><text xml:space="preserve" font-family="Helvetica" font-size="24.0" fill="#FFFFFF" transform="matrix(1.00, 0.00, -0.00, -1.00, 223.3, 307.0)">S</text><text xml:space="preserve" font-family="Helvetica" font-size="24.0" fill="#FFFFFF" transform="matrix(1.00, 0.00, -0.00, -1.00, 239.3, 307.0)">c</text><text xml:space="preserve" font-family="Helvetica" font-size="24.0" fill="#FFFFFF" transform="matrix(1.00, 0.00, -0.00, -1.00, 251.3, 307.0)">o</text><text xml:space="preserve" font-family="Helvetica" font-size="24.0" fill="#FFFFFF" transform="matrix(1.00, 0.00, -0.00, -1.00, 264.7, 307.0)">p</text><text xml:space="preserve" font-family="Helvetica" font-size="24.0" fill="#FFFFFF" transform="matrix(1.00, 0.00, -0.00, -1.00, 278.0, 307.0)">e</text><text xml:space="preserve" font-family="ArialMT" font-size="24.0" fill="#FFFFFF" transform="matrix(1.00, 0.00, -0.00, -1.00, 63.7, 278.5)">•</text><text xml:space="preserve" font-family="Helvetica" font-size="24.0" fill="#FFFFFF" transform="matrix(1.00, 0.00, -0.00, -1.00, 77.0, 278.0)">W</text><text xml:space="preserve" font-family="Helvetica" font-size="24.0" fill="#FFFFFF" transform="matrix(1.00, 0.00, -0.00, -1.00, 99.2, 278.0)">e</text><text xml:space="preserve" font-family="Helvetica" font-size="24.0" fill="#FFFFFF" transform="matrix(1.00, 0.00, -0.00, -1.00, 112.6, 278.0)">b</text><text xml:space="preserve" font-family="Helvetica" font-size="24.0" fill="#FFFFFF" transform="matrix(1.00, 0.00, -0.00, -1.00, 125.9, 278.0)">S</text><text xml:space="preserve" font-family="Helvetica" font-size="24.0" fill="#FFFFFF" transform="matrix(1.00, 0.00, -0.00, -1.00, 141.9, 278.0)">o</text><text xml:space="preserve" font-family="Helvetica" font-size="24.0" fill="#FFFFFF" transform="matrix(1.00, 0.00, -0.00, -1.00, 155.3, 278.0)">c</text><text xml:space="preserve" font-family="Helvetica" font-size="24.0" fill="#FFFFFF" transform="matrix(1.00, 0.00, -0.00, -1.00, 167.3, 278.0)">k</text><text xml:space="preserve" font-family="Helvetica" font-size="24.0" fill="#FFFFFF" transform="matrix(1.00, 0.00, -0.00, -1.00, 179.3, 278.0)">e</text><text xml:space="preserve" font-family="Helvetica" font-size="24.0" fill="#FFFFFF" transform="matrix(1.00, 0.00, -0.00, -1.00, 192.6, 278.0)">t</text><text xml:space="preserve" font-family="ArialMT" font-size="24.0" fill="#FFFFFF" transform="matrix(1.00, 0.00, -0.00, -1.00, 63.7, 249.4)">•</text><text xml:space="preserve" font-family="Helvetica" font-size="24.0" fill="#FFFFFF" transform="matrix(1.00, 0.00, -0.00, -1.00, 77.0, 249.0)">W</text><text xml:space="preserve" font-family="Helvetica" font-size="24.0" fill="#FFFFFF" transform="matrix(1.00, 0.00, -0.00, -1.00, 99.2, 249.0)">e</text><text xml:space="preserve" font-family="Helvetica" font-size="24.0" fill="#FFFFFF" transform="matrix(1.00, 0.00, -0.00, -1.00, 112.6, 249.0)">b</text><text xml:space="preserve" font-family="Helvetica" font-size="24.0" fill="#FFFFFF" transform="matrix(1.00, 0.00, -0.00, -1.00, 125.9, 249.0)">G</text><text xml:space="preserve" font-family="Helvetica" font-size="24.0" fill="#FFFFFF" transform="matrix(1.00, 0.00, -0.00, -1.00, 144.6, 249.0)">L</text><text xml:space="preserve" font-family="ArialMT" font-size="24.0" fill="#FFFFFF" transform="matrix(1.00, 0.00, -0.00, -1.00, 63.7, 191.2)">•</text><text xml:space="preserve" font-family="Helvetica" font-size="24.0" fill="#FFFFFF" transform="matrix(1.00, 0.00, -0.00, -1.00, 77.0, 191.0)"> </text><text xml:space="preserve" font-family="Helvetica" font-size="24.0" fill="#FFFFFF" transform="matrix(1.00, 0.00, -0.00, -1.00, 83.7, 191.0)">…</text><text xml:space="preserve" font-family="ArialMT" font-size="24.0" fill="#FFFFFF" transform="matrix(1.00, 0.00, -0.00, -1.00, 63.7, 133.0)">•</text><text xml:space="preserve" font-family="Helvetica" font-size="24.0" fill="#0000FF" transform="matrix(1.00, 0.00, -0.00, -1.00, 77.0, 133.0)">e</text><text xml:space="preserve" font-family="Helvetica" font-size="24.0" fill="#0000FF" transform="matrix(1.00, 0.00, -0.00, -1.00, 90.4, 133.0)">t</text><text xml:space="preserve" font-family="Helvetica" font-size="24.0" fill="#0000FF" transform="matrix(1.00, 0.00, -0.00, -1.00, 97.0, 133.0)">c</text><text xml:space="preserve" font-family="Helvetica" font-size="24.0" fill="#0000FF" transform="matrix(1.00, 0.00, -0.00, -1.00, 109.0, 133.0)">.</text><g><clipPath id="clip-273"><path d="M 76.2 129.2 L 115.9 129.2 L 115.9 132.4 L 76.2 132.4 Z M 76.2 129.2 "></path></clipPath><g clip-path="url(#clip-273)"><path d="M 44.1 290.8 L 82.8 290.8 " fill="none" stroke="#0000FF" stroke-width="1.18" stroke-miterlimit="0.00" transform="matrix(1.00, 0.00, 0.00, -1.00, 33.1, 421.6)"></path></g></g></g></svg>