<?xml version="1.0" encoding="UTF-8" standalone="no"?><svg xmlns="http://www.w3.org/2000/svg" xmlns:xlink="http://www.w3.org/1999/xlink" clip-rule="evenodd" stroke-miterlimit="4.00" viewBox="0 0 720 540"><desc>SVG generated by Keynote</desc><defs></defs><g transform="matrix(1.00, 0.00, -0.00, -1.00, 0.0, 540.0)"><g><clipPath id="clip-5"><path d="M 0.0 540.0 L 720.0 540.0 L 720.0 0.0 L 0.0 0.0 Z M 0.0 540.0 "></path></clipPath><g clip-path="url(#clip-5)"><image xlink:href="../../2E34FD03-1090-4811-8D08-B00F3B774E14/assets/E4B59F63A6EDA017B41703A0F53BFDB9.png" width="720.00" height="540.00" transform="matrix(1.00, 0.00, -0.00, -1.00, 0.0, 540.0)"></image></g></g><text xml:space="preserve" font-family="Helvetica" font-size="28.0" fill="#00B0F0" transform="matrix(1.00, 0.00, -0.00, -1.00, 30.0, 492.0)">s</text><text xml:space="preserve" font-family="Helvetica" font-size="28.0" fill="#00B0F0" transform="matrix(1.00, 0.00, -0.00, -1.00, 44.0, 492.0)">e</text><text xml:space="preserve" font-family="Helvetica" font-size="28.0" fill="#00B0F0" transform="matrix(1.00, 0.00, -0.00, -1.00, 59.6, 492.0)">t</text><text xml:space="preserve" font-family="Helvetica" font-size="28.0" fill="#00B0F0" transform="matrix(1.00, 0.00, -0.00, -1.00, 67.4, 492.0)">T</text><text xml:space="preserve" font-family="Helvetica" font-size="28.0" fill="#00B0F0" transform="matrix(1.00, 0.00, -0.00, -1.00, 83.4, 492.0)">i</text><text xml:space="preserve" font-family="Helvetica" font-size="28.0" fill="#00B0F0" transform="matrix(1.00, 0.00, -0.00, -1.00, 89.7, 492.0)">m</text><text xml:space="preserve" font-family="Helvetica" font-size="28.0" fill="#00B0F0" transform="matrix(1.00, 0.00, -0.00, -1.00, 113.0, 492.0)">e</text><text xml:space="preserve" font-family="Helvetica" font-size="28.0" fill="#00B0F0" transform="matrix(1.00, 0.00, -0.00, -1.00, 128.6, 492.0)">o</text><text xml:space="preserve" font-family="Helvetica" font-size="28.0" fill="#00B0F0" transform="matrix(1.00, 0.00, -0.00, -1.00, 144.1, 492.0)">u</text><text xml:space="preserve" font-family="Helvetica" font-size="28.0" fill="#00B0F0" transform="matrix(1.00, 0.00, -0.00, -1.00, 159.7, 492.0)">t</text><text xml:space="preserve" font-family="TrebuchetMS" font-size="18.0" fill="#FEFFFF" transform="matrix(1.00, 0.00, -0.00, -1.00, 216.0, 325.0)">f</text><text xml:space="preserve" font-family="TrebuchetMS" font-size="18.0" fill="#FEFFFF" transform="matrix(1.00, 0.00, -0.00, -1.00, 222.6, 325.0)">u</text><text xml:space="preserve" font-family="TrebuchetMS" font-size="18.0" fill="#FEFFFF" transform="matrix(1.00, 0.00, -0.00, -1.00, 232.5, 325.0)">n</text><text xml:space="preserve" font-family="TrebuchetMS" font-size="18.0" fill="#FEFFFF" transform="matrix(1.00, 0.00, -0.00, -1.00, 242.3, 325.0)">c</text><text xml:space="preserve" font-family="TrebuchetMS" font-size="18.0" fill="#FEFFFF" transform="matrix(1.00, 0.00, -0.00, -1.00, 251.3, 325.0)">t</text><text xml:space="preserve" font-family="TrebuchetMS" font-size="18.0" fill="#FEFFFF" transform="matrix(1.00, 0.00, -0.00, -1.00, 258.4, 325.0)">i</text><text xml:space="preserve" font-family="TrebuchetMS" font-size="18.0" fill="#FEFFFF" transform="matrix(1.00, 0.00, -0.00, -1.00, 263.6, 325.0)">o</text><text xml:space="preserve" font-family="TrebuchetMS" font-size="18.0" fill="#FEFFFF" transform="matrix(1.00, 0.00, -0.00, -1.00, 273.2, 325.0)">n</text><text xml:space="preserve" font-family="TrebuchetMS" font-size="18.0" fill="#FEFFFF" transform="matrix(1.00, 0.00, -0.00, -1.00, 283.0, 325.0)"> </text><text xml:space="preserve" font-family="TrebuchetMS" font-size="18.0" fill="#FEFFFF" transform="matrix(1.00, 0.00, -0.00, -1.00, 288.5, 325.0)">f</text><text xml:space="preserve" font-family="TrebuchetMS" font-size="18.0" fill="#FEFFFF" transform="matrix(1.00, 0.00, -0.00, -1.00, 295.1, 325.0)">o</text><text xml:space="preserve" font-family="TrebuchetMS" font-size="18.0" fill="#FEFFFF" transform="matrix(1.00, 0.00, -0.00, -1.00, 304.8, 325.0)">o</text><text xml:space="preserve" font-family="TrebuchetMS" font-size="18.0" fill="#FEFFFF" transform="matrix(1.00, 0.00, -0.00, -1.00, 314.4, 325.0)">(</text><text xml:space="preserve" font-family="TrebuchetMS" font-size="18.0" fill="#FEFFFF" transform="matrix(1.00, 0.00, -0.00, -1.00, 321.1, 325.0)">i</text><text xml:space="preserve" font-family="TrebuchetMS" font-size="18.0" fill="#FEFFFF" transform="matrix(1.00, 0.00, -0.00, -1.00, 326.2, 325.0)">)</text><text xml:space="preserve" font-family="TrebuchetMS" font-size="18.0" fill="#FEFFFF" transform="matrix(1.00, 0.00, -0.00, -1.00, 332.8, 325.0)"> </text><text xml:space="preserve" font-family="TrebuchetMS" font-size="18.0" fill="#FEFFFF" transform="matrix(1.00, 0.00, -0.00, -1.00, 338.3, 325.0)">{</text><text xml:space="preserve" font-family="TrebuchetMS" font-size="18.0" fill="#FEFFFF" transform="matrix(1.00, 0.00, -0.00, -1.00, 344.9, 325.0)"> </text><text xml:space="preserve" font-family="TrebuchetMS" font-size="18.0" fill="#FEFFFF" transform="matrix(1.00, 0.00, -0.00, -1.00, 216.0, 304.0)"> </text><text xml:space="preserve" font-family="TrebuchetMS" font-size="18.0" fill="#FEFFFF" transform="matrix(1.00, 0.00, -0.00, -1.00, 221.4, 304.0)"> </text><text xml:space="preserve" font-family="TrebuchetMS" font-size="18.0" fill="#FEFFFF" transform="matrix(1.00, 0.00, -0.00, -1.00, 226.9, 304.0)"> </text><text xml:space="preserve" font-family="TrebuchetMS" font-size="18.0" fill="#FEFFFF" transform="matrix(1.00, 0.00, -0.00, -1.00, 232.3, 304.0)"> </text><text xml:space="preserve" font-family="TrebuchetMS" font-size="18.0" fill="#FEFFFF" transform="matrix(1.00, 0.00, -0.00, -1.00, 237.7, 304.0)">s</text><text xml:space="preserve" font-family="TrebuchetMS" font-size="18.0" fill="#FEFFFF" transform="matrix(1.00, 0.00, -0.00, -1.00, 245.0, 304.0)">e</text><text xml:space="preserve" font-family="TrebuchetMS" font-size="18.0" fill="#FEFFFF" transform="matrix(1.00, 0.00, -0.00, -1.00, 254.8, 304.0)">t</text><text xml:space="preserve" font-family="TrebuchetMS" font-size="18.0" fill="#FEFFFF" transform="matrix(1.00, 0.00, -0.00, -1.00, 262.0, 304.0)">T</text><text xml:space="preserve" font-family="TrebuchetMS" font-size="18.0" fill="#FEFFFF" transform="matrix(1.00, 0.00, -0.00, -1.00, 271.7, 304.0)">i</text><text xml:space="preserve" font-family="TrebuchetMS" font-size="18.0" fill="#FEFFFF" transform="matrix(1.00, 0.00, -0.00, -1.00, 276.8, 304.0)">m</text><text xml:space="preserve" font-family="TrebuchetMS" font-size="18.0" fill="#FEFFFF" transform="matrix(1.00, 0.00, -0.00, -1.00, 291.7, 304.0)">e</text><text xml:space="preserve" font-family="TrebuchetMS" font-size="18.0" fill="#FEFFFF" transform="matrix(1.00, 0.00, -0.00, -1.00, 301.6, 304.0)">o</text><text xml:space="preserve" font-family="TrebuchetMS" font-size="18.0" fill="#FEFFFF" transform="matrix(1.00, 0.00, -0.00, -1.00, 311.2, 304.0)">u</text><text xml:space="preserve" font-family="TrebuchetMS" font-size="18.0" fill="#FEFFFF" transform="matrix(1.00, 0.00, -0.00, -1.00, 321.0, 304.0)">t</text><text xml:space="preserve" font-family="TrebuchetMS" font-size="18.0" fill="#FEFFFF" transform="matrix(1.00, 0.00, -0.00, -1.00, 328.2, 304.0)">(</text><text xml:space="preserve" font-family="TrebuchetMS" font-size="18.0" fill="#FEFFFF" transform="matrix(1.00, 0.00, -0.00, -1.00, 334.8, 304.0)">f</text><text xml:space="preserve" font-family="TrebuchetMS" font-size="18.0" fill="#FEFFFF" transform="matrix(1.00, 0.00, -0.00, -1.00, 341.4, 304.0)">u</text><text xml:space="preserve" font-family="TrebuchetMS" font-size="18.0" fill="#FEFFFF" transform="matrix(1.00, 0.00, -0.00, -1.00, 351.3, 304.0)">n</text><text xml:space="preserve" font-family="TrebuchetMS" font-size="18.0" fill="#FEFFFF" transform="matrix(1.00, 0.00, -0.00, -1.00, 361.1, 304.0)">c</text><text xml:space="preserve" font-family="TrebuchetMS" font-size="18.0" fill="#FEFFFF" transform="matrix(1.00, 0.00, -0.00, -1.00, 370.0, 304.0)">t</text><text xml:space="preserve" font-family="TrebuchetMS" font-size="18.0" fill="#FEFFFF" transform="matrix(1.00, 0.00, -0.00, -1.00, 377.2, 304.0)">i</text><text xml:space="preserve" font-family="TrebuchetMS" font-size="18.0" fill="#FEFFFF" transform="matrix(1.00, 0.00, -0.00, -1.00, 382.3, 304.0)">o</text><text xml:space="preserve" font-family="TrebuchetMS" font-size="18.0" fill="#FEFFFF" transform="matrix(1.00, 0.00, -0.00, -1.00, 392.0, 304.0)">n</text><text xml:space="preserve" font-family="TrebuchetMS" font-size="18.0" fill="#FEFFFF" transform="matrix(1.00, 0.00, -0.00, -1.00, 401.8, 304.0)">(</text><text xml:space="preserve" font-family="TrebuchetMS" font-size="18.0" fill="#FEFFFF" transform="matrix(1.00, 0.00, -0.00, -1.00, 408.4, 304.0)">)</text><text xml:space="preserve" font-family="TrebuchetMS" font-size="18.0" fill="#FEFFFF" transform="matrix(1.00, 0.00, -0.00, -1.00, 415.0, 304.0)"> </text><text xml:space="preserve" font-family="TrebuchetMS" font-size="18.0" fill="#FEFFFF" transform="matrix(1.00, 0.00, -0.00, -1.00, 420.5, 304.0)">{</text><text xml:space="preserve" font-family="TrebuchetMS" font-size="18.0" fill="#FEFFFF" transform="matrix(1.00, 0.00, -0.00, -1.00, 427.1, 304.0)"> </text><text xml:space="preserve" font-family="TrebuchetMS" font-size="18.0" fill="#FEFFFF" transform="matrix(1.00, 0.00, -0.00, -1.00, 216.0, 283.0)"> </text><text xml:space="preserve" font-family="TrebuchetMS" font-size="18.0" fill="#FEFFFF" transform="matrix(1.00, 0.00, -0.00, -1.00, 221.4, 283.0)"> </text><text xml:space="preserve" font-family="TrebuchetMS" font-size="18.0" fill="#FEFFFF" transform="matrix(1.00, 0.00, -0.00, -1.00, 226.9, 283.0)"> </text><text xml:space="preserve" font-family="TrebuchetMS" font-size="18.0" fill="#FEFFFF" transform="matrix(1.00, 0.00, -0.00, -1.00, 232.3, 283.0)"> </text><text xml:space="preserve" font-family="TrebuchetMS" font-size="18.0" fill="#FEFFFF" transform="matrix(1.00, 0.00, -0.00, -1.00, 237.7, 283.0)"> </text><text xml:space="preserve" font-family="TrebuchetMS" font-size="18.0" fill="#FEFFFF" transform="matrix(1.00, 0.00, -0.00, -1.00, 243.1, 283.0)"> </text><text xml:space="preserve" font-family="TrebuchetMS" font-size="18.0" fill="#FEFFFF" transform="matrix(1.00, 0.00, -0.00, -1.00, 248.6, 283.0)"> </text><text xml:space="preserve" font-family="TrebuchetMS" font-size="18.0" fill="#FEFFFF" transform="matrix(1.00, 0.00, -0.00, -1.00, 254.0, 283.0)"> </text><text xml:space="preserve" font-family="TrebuchetMS" font-size="18.0" fill="#FEFFFF" transform="matrix(1.00, 0.00, -0.00, -1.00, 259.4, 283.0)">c</text><text xml:space="preserve" font-family="TrebuchetMS" font-size="18.0" fill="#FEFFFF" transform="matrix(1.00, 0.00, -0.00, -1.00, 268.3, 283.0)">o</text><text xml:space="preserve" font-family="TrebuchetMS" font-size="18.0" fill="#FEFFFF" transform="matrix(1.00, 0.00, -0.00, -1.00, 278.0, 283.0)">n</text><text xml:space="preserve" font-family="TrebuchetMS" font-size="18.0" fill="#FEFFFF" transform="matrix(1.00, 0.00, -0.00, -1.00, 287.8, 283.0)">s</text><text xml:space="preserve" font-family="TrebuchetMS" font-size="18.0" fill="#FEFFFF" transform="matrix(1.00, 0.00, -0.00, -1.00, 295.1, 283.0)">o</text><text xml:space="preserve" font-family="TrebuchetMS" font-size="18.0" fill="#FEFFFF" transform="matrix(1.00, 0.00, -0.00, -1.00, 304.8, 283.0)">l</text><text xml:space="preserve" font-family="TrebuchetMS" font-size="18.0" fill="#FEFFFF" transform="matrix(1.00, 0.00, -0.00, -1.00, 310.1, 283.0)">e</text><text xml:space="preserve" font-family="TrebuchetMS" font-size="18.0" fill="#FEFFFF" transform="matrix(1.00, 0.00, -0.00, -1.00, 319.9, 283.0)">.</text><text xml:space="preserve" font-family="TrebuchetMS" font-size="18.0" fill="#FEFFFF" transform="matrix(1.00, 0.00, -0.00, -1.00, 326.5, 283.0)">l</text><text xml:space="preserve" font-family="TrebuchetMS" font-size="18.0" fill="#FEFFFF" transform="matrix(1.00, 0.00, -0.00, -1.00, 331.8, 283.0)">o</text><text xml:space="preserve" font-family="TrebuchetMS" font-size="18.0" fill="#FEFFFF" transform="matrix(1.00, 0.00, -0.00, -1.00, 341.5, 283.0)">g</text><text xml:space="preserve" font-family="TrebuchetMS" font-size="18.0" fill="#FEFFFF" transform="matrix(1.00, 0.00, -0.00, -1.00, 350.5, 283.0)">(</text><text xml:space="preserve" font-family="TrebuchetMS" font-size="18.0" fill="#FEFFFF" transform="matrix(1.00, 0.00, -0.00, -1.00, 357.1, 283.0)">i</text><text xml:space="preserve" font-family="TrebuchetMS" font-size="18.0" fill="#FEFFFF" transform="matrix(1.00, 0.00, -0.00, -1.00, 362.3, 283.0)">)</text><text xml:space="preserve" font-family="TrebuchetMS" font-size="18.0" fill="#FEFFFF" transform="matrix(1.00, 0.00, -0.00, -1.00, 368.9, 283.0)">;</text><text xml:space="preserve" font-family="TrebuchetMS" font-size="18.0" fill="#FEFFFF" transform="matrix(1.00, 0.00, -0.00, -1.00, 375.5, 283.0)"> </text><text xml:space="preserve" font-family="TrebuchetMS" font-size="18.0" fill="#FEFFFF" transform="matrix(1.00, 0.00, -0.00, -1.00, 216.0, 262.0)"> </text><text xml:space="preserve" font-family="TrebuchetMS" font-size="18.0" fill="#FEFFFF" transform="matrix(1.00, 0.00, -0.00, -1.00, 221.4, 262.0)"> </text><text xml:space="preserve" font-family="TrebuchetMS" font-size="18.0" fill="#FEFFFF" transform="matrix(1.00, 0.00, -0.00, -1.00, 226.9, 262.0)"> </text><text xml:space="preserve" font-family="TrebuchetMS" font-size="18.0" fill="#FEFFFF" transform="matrix(1.00, 0.00, -0.00, -1.00, 232.3, 262.0)"> </text><text xml:space="preserve" font-family="TrebuchetMS" font-size="18.0" fill="#FEFFFF" transform="matrix(1.00, 0.00, -0.00, -1.00, 237.7, 262.0)">}</text><text xml:space="preserve" font-family="TrebuchetMS" font-size="18.0" fill="#FEFFFF" transform="matrix(1.00, 0.00, -0.00, -1.00, 244.3, 262.0)">,</text><text xml:space="preserve" font-family="TrebuchetMS" font-size="18.0" fill="#FEFFFF" transform="matrix(1.00, 0.00, -0.00, -1.00, 250.9, 262.0)"> </text><text xml:space="preserve" font-family="TrebuchetMS" font-size="18.0" fill="#FEFFFF" transform="matrix(1.00, 0.00, -0.00, -1.00, 256.4, 262.0)">1</text><text xml:space="preserve" font-family="TrebuchetMS" font-size="18.0" fill="#FEFFFF" transform="matrix(1.00, 0.00, -0.00, -1.00, 265.8, 262.0)">0</text><text xml:space="preserve" font-family="TrebuchetMS" font-size="18.0" fill="#FEFFFF" transform="matrix(1.00, 0.00, -0.00, -1.00, 275.3, 262.0)">0</text><text xml:space="preserve" font-family="TrebuchetMS" font-size="18.0" fill="#FEFFFF" transform="matrix(1.00, 0.00, -0.00, -1.00, 284.7, 262.0)">0</text><text xml:space="preserve" font-family="TrebuchetMS" font-size="18.0" fill="#FEFFFF" transform="matrix(1.00, 0.00, -0.00, -1.00, 294.2, 262.0)">)</text><text xml:space="preserve" font-family="TrebuchetMS" font-size="18.0" fill="#FEFFFF" transform="matrix(1.00, 0.00, -0.00, -1.00, 300.8, 262.0)">;</text><text xml:space="preserve" font-family="TrebuchetMS" font-size="18.0" fill="#FEFFFF" transform="matrix(1.00, 0.00, -0.00, -1.00, 307.4, 262.0)"> </text><text xml:space="preserve" font-family="TrebuchetMS" font-size="18.0" fill="#FEFFFF" transform="matrix(1.00, 0.00, -0.00, -1.00, 216.0, 241.0)">}</text><text xml:space="preserve" font-family="TrebuchetMS" font-size="18.0" fill="#000000" transform="matrix(1.00, 0.00, -0.00, -1.00, 222.6, 241.0)"> </text><text xml:space="preserve" font-family="TrebuchetMS" font-size="18.0" fill="#000000" transform="matrix(1.00, 0.00, -0.00, -1.00, 228.0, 241.0)"> </text><text xml:space="preserve" font-family="TrebuchetMS" font-size="18.0" fill="#000000" transform="matrix(1.00, 0.00, -0.00, -1.00, 233.5, 241.0)"> </text><text xml:space="preserve" font-family="TrebuchetMS" font-size="18.0" fill="#000000" transform="matrix(1.00, 0.00, -0.00, -1.00, 238.9, 241.0)"> </text><text xml:space="preserve" font-family="TrebuchetMS" font-size="18.0" fill="#FEFFFF" transform="matrix(1.00, 0.00, -0.00, -1.00, 216.0, 199.0)">f</text><text xml:space="preserve" font-family="TrebuchetMS" font-size="18.0" fill="#FEFFFF" transform="matrix(1.00, 0.00, -0.00, -1.00, 222.6, 199.0)">o</text><text xml:space="preserve" font-family="TrebuchetMS" font-size="18.0" fill="#FEFFFF" transform="matrix(1.00, 0.00, -0.00, -1.00, 232.3, 199.0)">r</text><text xml:space="preserve" font-family="TrebuchetMS" font-size="18.0" fill="#FEFFFF" transform="matrix(1.00, 0.00, -0.00, -1.00, 239.3, 199.0)"> </text><text xml:space="preserve" font-family="TrebuchetMS" font-size="18.0" fill="#FEFFFF" transform="matrix(1.00, 0.00, -0.00, -1.00, 244.7, 199.0)">(</text><text xml:space="preserve" font-family="TrebuchetMS" font-size="18.0" fill="#FEFFFF" transform="matrix(1.00, 0.00, -0.00, -1.00, 251.3, 199.0)">v</text><text xml:space="preserve" font-family="TrebuchetMS" font-size="18.0" fill="#FEFFFF" transform="matrix(1.00, 0.00, -0.00, -1.00, 260.1, 199.0)">a</text><text xml:space="preserve" font-family="TrebuchetMS" font-size="18.0" fill="#FEFFFF" transform="matrix(1.00, 0.00, -0.00, -1.00, 269.6, 199.0)">r</text><text xml:space="preserve" font-family="TrebuchetMS" font-size="18.0" fill="#FEFFFF" transform="matrix(1.00, 0.00, -0.00, -1.00, 276.6, 199.0)"> </text><text xml:space="preserve" font-family="TrebuchetMS" font-size="18.0" fill="#FEFFFF" transform="matrix(1.00, 0.00, -0.00, -1.00, 282.0, 199.0)">i</text><text xml:space="preserve" font-family="TrebuchetMS" font-size="18.0" fill="#FEFFFF" transform="matrix(1.00, 0.00, -0.00, -1.00, 287.2, 199.0)"> </text><text xml:space="preserve" font-family="TrebuchetMS" font-size="18.0" fill="#FEFFFF" transform="matrix(1.00, 0.00, -0.00, -1.00, 292.6, 199.0)">=</text><text xml:space="preserve" font-family="TrebuchetMS" font-size="18.0" fill="#FEFFFF" transform="matrix(1.00, 0.00, -0.00, -1.00, 302.1, 199.0)"> </text><text xml:space="preserve" font-family="TrebuchetMS" font-size="18.0" fill="#FEFFFF" transform="matrix(1.00, 0.00, -0.00, -1.00, 307.5, 199.0)">0</text><text xml:space="preserve" font-family="TrebuchetMS" font-size="18.0" fill="#FEFFFF" transform="matrix(1.00, 0.00, -0.00, -1.00, 317.0, 199.0)">;</text><text xml:space="preserve" font-family="TrebuchetMS" font-size="18.0" fill="#FEFFFF" transform="matrix(1.00, 0.00, -0.00, -1.00, 323.6, 199.0)"> </text><text xml:space="preserve" font-family="TrebuchetMS" font-size="18.0" fill="#FEFFFF" transform="matrix(1.00, 0.00, -0.00, -1.00, 329.0, 199.0)">i</text><text xml:space="preserve" font-family="TrebuchetMS" font-size="18.0" fill="#FEFFFF" transform="matrix(1.00, 0.00, -0.00, -1.00, 334.1, 199.0)"> </text><text xml:space="preserve" font-family="TrebuchetMS" font-size="18.0" fill="#FEFFFF" transform="matrix(1.00, 0.00, -0.00, -1.00, 339.6, 199.0)">&lt;</text><text xml:space="preserve" font-family="TrebuchetMS" font-size="18.0" fill="#FEFFFF" transform="matrix(1.00, 0.00, -0.00, -1.00, 349.0, 199.0)"> </text><text xml:space="preserve" font-family="TrebuchetMS" font-size="18.0" fill="#FEFFFF" transform="matrix(1.00, 0.00, -0.00, -1.00, 354.5, 199.0)">5</text><text xml:space="preserve" font-family="TrebuchetMS" font-size="18.0" fill="#FEFFFF" transform="matrix(1.00, 0.00, -0.00, -1.00, 363.9, 199.0)">;</text><text xml:space="preserve" font-family="TrebuchetMS" font-size="18.0" fill="#FEFFFF" transform="matrix(1.00, 0.00, -0.00, -1.00, 370.5, 199.0)"> </text><text xml:space="preserve" font-family="TrebuchetMS" font-size="18.0" fill="#FEFFFF" transform="matrix(1.00, 0.00, -0.00, -1.00, 376.0, 199.0)">i</text><text xml:space="preserve" font-family="TrebuchetMS" font-size="18.0" fill="#FEFFFF" transform="matrix(1.00, 0.00, -0.00, -1.00, 381.1, 199.0)">+</text><text xml:space="preserve" font-family="TrebuchetMS" font-size="18.0" fill="#FEFFFF" transform="matrix(1.00, 0.00, -0.00, -1.00, 390.6, 199.0)">+</text><text xml:space="preserve" font-family="TrebuchetMS" font-size="18.0" fill="#FEFFFF" transform="matrix(1.00, 0.00, -0.00, -1.00, 400.0, 199.0)">)</text><text xml:space="preserve" font-family="TrebuchetMS" font-size="18.0" fill="#FEFFFF" transform="matrix(1.00, 0.00, -0.00, -1.00, 406.6, 199.0)"> </text><text xml:space="preserve" font-family="TrebuchetMS" font-size="18.0" fill="#FEFFFF" transform="matrix(1.00, 0.00, -0.00, -1.00, 412.1, 199.0)">{</text><text xml:space="preserve" font-family="LucidaGrande" font-size="18.0" fill="#FEFFFF" transform="matrix(1.00, 0.00, -0.00, -1.00, 418.5, 199.0)"> </text><text xml:space="preserve" font-family="TrebuchetMS" font-size="18.0" fill="#FEFFFF" transform="matrix(1.00, 0.00, -0.00, -1.00, 216.0, 178.0)"> </text><text xml:space="preserve" font-family="TrebuchetMS" font-size="18.0" fill="#FEFFFF" transform="matrix(1.00, 0.00, -0.00, -1.00, 221.4, 178.0)"> </text><text xml:space="preserve" font-family="TrebuchetMS" font-size="18.0" fill="#FEFFFF" transform="matrix(1.00, 0.00, -0.00, -1.00, 226.9, 178.0)"> </text><text xml:space="preserve" font-family="TrebuchetMS" font-size="18.0" fill="#FEFFFF" transform="matrix(1.00, 0.00, -0.00, -1.00, 232.3, 178.0)"> </text><text xml:space="preserve" font-family="TrebuchetMS" font-size="18.0" fill="#FEFFFF" transform="matrix(1.00, 0.00, -0.00, -1.00, 237.7, 178.0)">f</text><text xml:space="preserve" font-family="TrebuchetMS" font-size="18.0" fill="#FEFFFF" transform="matrix(1.00, 0.00, -0.00, -1.00, 244.4, 178.0)">o</text><text xml:space="preserve" font-family="TrebuchetMS" font-size="18.0" fill="#FEFFFF" transform="matrix(1.00, 0.00, -0.00, -1.00, 254.0, 178.0)">o</text><text xml:space="preserve" font-family="TrebuchetMS" font-size="18.0" fill="#FEFFFF" transform="matrix(1.00, 0.00, -0.00, -1.00, 263.6, 178.0)">(</text><text xml:space="preserve" font-family="TrebuchetMS" font-size="18.0" fill="#FEFFFF" transform="matrix(1.00, 0.00, -0.00, -1.00, 270.3, 178.0)">i</text><text xml:space="preserve" font-family="TrebuchetMS" font-size="18.0" fill="#FEFFFF" transform="matrix(1.00, 0.00, -0.00, -1.00, 275.4, 178.0)">)</text><text xml:space="preserve" font-family="TrebuchetMS" font-size="18.0" fill="#FEFFFF" transform="matrix(1.00, 0.00, -0.00, -1.00, 282.0, 178.0)">;</text><text xml:space="preserve" font-family="TrebuchetMS" font-size="18.0" fill="#FEFFFF" transform="matrix(1.00, 0.00, -0.00, -1.00, 288.6, 178.0)"> </text><text xml:space="preserve" font-family="TrebuchetMS" font-size="18.0" fill="#FEFFFF" transform="matrix(1.00, 0.00, -0.00, -1.00, 216.0, 157.0)">}</text></g></svg>