<?xml version="1.0" encoding="UTF-8" standalone="no"?><svg xmlns="http://www.w3.org/2000/svg" xmlns:xlink="http://www.w3.org/1999/xlink" clip-rule="evenodd" stroke-miterlimit="4.00" viewBox="0 0 151 51"><desc>SVG generated by Keynote</desc><defs></defs><g transform="matrix(1.00, 0.00, -0.00, -1.00, 0.0, 51.0)"><image xlink:href="BC0227104360594125AE8AACEDE918FA.png" width="148.00" height="42.00" transform="matrix(1.00, 0.00, -0.00, -0.99, 1.3, 43.4)" opacity="0.35"></image><path d="M 0.0 0.0 L 138.7 0.0 L 138.7 32.6 L 0.0 32.6 Z M 0.0 0.0 " fill="none" stroke="#FFC193" stroke-width="1.00" transform="matrix(1.00, 0.00, 0.00, -1.00, 5.8, 41.9)"></path><g><clipPath id="clip-738"><path d="M 6.7 10.4 L 143.7 10.4 L 143.7 40.9 L 6.7 40.9 Z M 6.7 10.4 "></path></clipPath><g clip-path="url(#clip-738)"><text xml:space="preserve" font-family="TrebuchetMS" font-size="13.0" fill="#FFFFFF" transform="matrix(1.00, 0.00, -0.00, -1.00, 25.0, 21.0)">l</text><text xml:space="preserve" font-family="TrebuchetMS" font-size="13.0" fill="#FFFFFF" transform="matrix(1.00, 0.00, -0.00, -1.00, 28.8, 21.0)">o</text><text xml:space="preserve" font-family="TrebuchetMS" font-size="13.0" fill="#FFFFFF" transform="matrix(1.00, 0.00, -0.00, -1.00, 35.8, 21.0)">g</text><text xml:space="preserve" font-family="TrebuchetMS" font-size="13.0" fill="#FFFFFF" transform="matrix(1.00, 0.00, -0.00, -1.00, 42.3, 21.0)">(</text><text xml:space="preserve" font-family="TrebuchetMS" font-size="13.0" fill="#FFFFFF" transform="matrix(1.00, 0.00, -0.00, -1.00, 47.1, 21.0)">‘</text><text xml:space="preserve" font-family="TrebuchetMS" font-size="13.0" fill="#FFFFFF" transform="matrix(1.00, 0.00, -0.00, -1.00, 51.9, 21.0)">s</text><text xml:space="preserve" font-family="TrebuchetMS" font-size="13.0" fill="#FFFFFF" transform="matrix(1.00, 0.00, -0.00, -1.00, 57.1, 21.0)">c</text><text xml:space="preserve" font-family="TrebuchetMS" font-size="13.0" fill="#FFFFFF" transform="matrix(1.00, 0.00, -0.00, -1.00, 63.6, 21.0)">r</text><text xml:space="preserve" font-family="TrebuchetMS" font-size="13.0" fill="#FFFFFF" transform="matrix(1.00, 0.00, -0.00, -1.00, 68.6, 21.0)">i</text><text xml:space="preserve" font-family="TrebuchetMS" font-size="13.0" fill="#FFFFFF" transform="matrix(1.00, 0.00, -0.00, -1.00, 72.3, 21.0)">p</text><text xml:space="preserve" font-family="TrebuchetMS" font-size="13.0" fill="#FFFFFF" transform="matrix(1.00, 0.00, -0.00, -1.00, 79.6, 21.0)">t</text><text xml:space="preserve" font-family="TrebuchetMS" font-size="13.0" fill="#FFFFFF" transform="matrix(1.00, 0.00, -0.00, -1.00, 84.7, 21.0)"> </text><text xml:space="preserve" font-family="TrebuchetMS" font-size="13.0" fill="#FFFFFF" transform="matrix(1.00, 0.00, -0.00, -1.00, 88.7, 21.0)">s</text><text xml:space="preserve" font-family="TrebuchetMS" font-size="13.0" fill="#FFFFFF" transform="matrix(1.00, 0.00, -0.00, -1.00, 93.9, 21.0)">t</text><text xml:space="preserve" font-family="TrebuchetMS" font-size="13.0" fill="#FFFFFF" transform="matrix(1.00, 0.00, -0.00, -1.00, 99.1, 21.0)">a</text><text xml:space="preserve" font-family="TrebuchetMS" font-size="13.0" fill="#FFFFFF" transform="matrix(1.00, 0.00, -0.00, -1.00, 105.9, 21.0)">r</text><text xml:space="preserve" font-family="TrebuchetMS" font-size="13.0" fill="#FFFFFF" transform="matrix(1.00, 0.00, -0.00, -1.00, 111.0, 21.0)">t</text><text xml:space="preserve" font-family="TrebuchetMS" font-size="13.0" fill="#FFFFFF" transform="matrix(1.00, 0.00, -0.00, -1.00, 116.1, 21.0)">’</text><text xml:space="preserve" font-family="TrebuchetMS" font-size="13.0" fill="#FFFFFF" transform="matrix(1.00, 0.00, -0.00, -1.00, 120.9, 21.0)">)</text></g></g></g></svg>