<?xml version="1.0" encoding="UTF-8" standalone="no"?><svg xmlns="http://www.w3.org/2000/svg" xmlns:xlink="http://www.w3.org/1999/xlink" clip-rule="evenodd" stroke-miterlimit="4.00" viewBox="0 0 151 50"><desc>SVG generated by Keynote</desc><defs></defs><g transform="matrix(1.00, 0.00, -0.00, -1.00, 0.0, 50.0)"><image xlink:href="424D0EF6882DB354D8475414434279C5.png" width="148.00" height="42.00" transform="matrix(1.00, 0.00, -0.00, -0.99, 1.3, 42.9)" opacity="0.35"></image><path d="M 0.0 0.0 L 138.7 0.0 L 138.7 32.6 L 0.0 32.6 Z M 0.0 0.0 " fill="none" stroke="#FFC193" stroke-width="1.00" transform="matrix(1.00, 0.00, 0.00, -1.00, 5.8, 41.4)"></path><g><clipPath id="clip-424"><path d="M 6.4 9.9 L 144.0 9.9 L 144.0 40.4 L 6.4 40.4 Z M 6.4 9.9 "></path></clipPath><g clip-path="url(#clip-424)"><text xml:space="preserve" font-family="TrebuchetMS" font-size="14.0" fill="#FFFFFF" transform="matrix(1.00, 0.00, -0.00, -1.00, 20.0, 20.0)">l</text><text xml:space="preserve" font-family="TrebuchetMS" font-size="14.0" fill="#FFFFFF" transform="matrix(1.00, 0.00, -0.00, -1.00, 24.1, 20.0)">o</text><text xml:space="preserve" font-family="TrebuchetMS" font-size="14.0" fill="#FFFFFF" transform="matrix(1.00, 0.00, -0.00, -1.00, 31.6, 20.0)">g</text><text xml:space="preserve" font-family="TrebuchetMS" font-size="14.0" fill="#FFFFFF" transform="matrix(1.00, 0.00, -0.00, -1.00, 38.7, 20.0)">(</text><text xml:space="preserve" font-family="TrebuchetMS" font-size="14.0" fill="#FFFFFF" transform="matrix(1.00, 0.00, -0.00, -1.00, 43.8, 20.0)">‘</text><text xml:space="preserve" font-family="TrebuchetMS" font-size="14.0" fill="#FFFFFF" transform="matrix(1.00, 0.00, -0.00, -1.00, 48.9, 20.0)">s</text><text xml:space="preserve" font-family="TrebuchetMS" font-size="14.0" fill="#FFFFFF" transform="matrix(1.00, 0.00, -0.00, -1.00, 54.6, 20.0)">e</text><text xml:space="preserve" font-family="TrebuchetMS" font-size="14.0" fill="#FFFFFF" transform="matrix(1.00, 0.00, -0.00, -1.00, 62.3, 20.0)">t</text><text xml:space="preserve" font-family="TrebuchetMS" font-size="14.0" fill="#FFFFFF" transform="matrix(1.00, 0.00, -0.00, -1.00, 67.8, 20.0)">T</text><text xml:space="preserve" font-family="TrebuchetMS" font-size="14.0" fill="#FFFFFF" transform="matrix(1.00, 0.00, -0.00, -1.00, 75.4, 20.0)">i</text><text xml:space="preserve" font-family="TrebuchetMS" font-size="14.0" fill="#FFFFFF" transform="matrix(1.00, 0.00, -0.00, -1.00, 79.3, 20.0)">m</text><text xml:space="preserve" font-family="TrebuchetMS" font-size="14.0" fill="#FFFFFF" transform="matrix(1.00, 0.00, -0.00, -1.00, 91.0, 20.0)">e</text><text xml:space="preserve" font-family="TrebuchetMS" font-size="14.0" fill="#FFFFFF" transform="matrix(1.00, 0.00, -0.00, -1.00, 98.6, 20.0)">o</text><text xml:space="preserve" font-family="TrebuchetMS" font-size="14.0" fill="#FFFFFF" transform="matrix(1.00, 0.00, -0.00, -1.00, 106.1, 20.0)">u</text><text xml:space="preserve" font-family="TrebuchetMS" font-size="14.0" fill="#FFFFFF" transform="matrix(1.00, 0.00, -0.00, -1.00, 113.8, 20.0)">t</text><text xml:space="preserve" font-family="TrebuchetMS" font-size="14.0" fill="#FFFFFF" transform="matrix(1.00, 0.00, -0.00, -1.00, 119.3, 20.0)">’</text><text xml:space="preserve" font-family="TrebuchetMS" font-size="14.0" fill="#FFFFFF" transform="matrix(1.00, 0.00, -0.00, -1.00, 124.5, 20.0)">)</text></g></g></g></svg>