<?xml version="1.0" encoding="UTF-8" standalone="no"?><svg xmlns="http://www.w3.org/2000/svg" xmlns:xlink="http://www.w3.org/1999/xlink" clip-rule="evenodd" stroke-miterlimit="4.00" viewBox="0 0 103 17"><desc>SVG generated by Keynote</desc><defs></defs><g transform="matrix(1.00, 0.00, -0.00, -1.00, 0.0, 17.0)"><text xml:space="preserve" font-family="TrebuchetMS" font-size="18.0" fill="#FFFFFF" transform="matrix(1.00, 0.00, -0.00, -1.00, 2.0, 1.0)">M</text><text xml:space="preserve" font-family="TrebuchetMS" font-size="18.0" fill="#FFFFFF" transform="matrix(1.00, 0.00, -0.00, -1.00, 14.8, 1.0)">i</text><text xml:space="preserve" font-family="TrebuchetMS" font-size="18.0" fill="#FFFFFF" transform="matrix(1.00, 0.00, -0.00, -1.00, 19.9, 1.0)">r</text><text xml:space="preserve" font-family="TrebuchetMS" font-size="18.0" fill="#FFFFFF" transform="matrix(1.00, 0.00, -0.00, -1.00, 26.9, 1.0)">c</text><text xml:space="preserve" font-family="TrebuchetMS" font-size="18.0" fill="#FFFFFF" transform="matrix(1.00, 0.00, -0.00, -1.00, 35.8, 1.0)">o</text><text xml:space="preserve" font-family="TrebuchetMS" font-size="18.0" fill="#FFFFFF" transform="matrix(1.00, 0.00, -0.00, -1.00, 45.5, 1.0)"> </text><text xml:space="preserve" font-family="TrebuchetMS" font-size="18.0" fill="#FFFFFF" transform="matrix(1.00, 0.00, -0.00, -1.00, 50.9, 1.0)">t</text><text xml:space="preserve" font-family="TrebuchetMS" font-size="18.0" fill="#FFFFFF" transform="matrix(1.00, 0.00, -0.00, -1.00, 58.0, 1.0)">a</text><text xml:space="preserve" font-family="TrebuchetMS" font-size="18.0" fill="#FFFFFF" transform="matrix(1.00, 0.00, -0.00, -1.00, 67.5, 1.0)">s</text><text xml:space="preserve" font-family="TrebuchetMS" font-size="18.0" fill="#FFFFFF" transform="matrix(1.00, 0.00, -0.00, -1.00, 74.8, 1.0)">k</text><text xml:space="preserve" font-family="TrebuchetMS" font-size="18.0" fill="#FFFFFF" transform="matrix(1.00, 0.00, -0.00, -1.00, 83.9, 1.0)">s</text><text xml:space="preserve" font-family="TrebuchetMS" font-size="18.0" fill="#FFFFFF" transform="matrix(1.00, 0.00, -0.00, -1.00, 91.2, 1.0)"> </text><text xml:space="preserve" font-family="TrebuchetMS" font-size="18.0" fill="#FFFFFF" transform="matrix(1.00, 0.00, -0.00, -1.00, 96.6, 1.0)">:</text></g></svg>