<?xml version="1.0" encoding="UTF-8" standalone="no"?><svg xmlns="http://www.w3.org/2000/svg" xmlns:xlink="http://www.w3.org/1999/xlink" clip-rule="evenodd" stroke-miterlimit="4.00" viewBox="0 0 112 99"><desc>SVG generated by Keynote</desc><defs></defs><g transform="matrix(1.00, 0.00, -0.00, -1.00, 0.0, 99.0)"><text xml:space="preserve" font-family="ArialMT" font-size="16.0" fill="#FFFFFF" transform="matrix(1.00, 0.00, -0.00, -1.00, 0.4, 85.7)">•</text><text xml:space="preserve" font-family="Helvetica" font-size="16.0" fill="#FFFFFF" transform="matrix(1.00, 0.00, -0.00, -1.00, 14.0, 85.0)">s</text><text xml:space="preserve" font-family="Helvetica" font-size="16.0" fill="#FFFFFF" transform="matrix(1.00, 0.00, -0.00, -1.00, 22.0, 85.0)">e</text><text xml:space="preserve" font-family="Helvetica" font-size="16.0" fill="#FFFFFF" transform="matrix(1.00, 0.00, -0.00, -1.00, 30.9, 85.0)">t</text><text xml:space="preserve" font-family="Helvetica" font-size="16.0" fill="#FFFFFF" transform="matrix(1.00, 0.00, -0.00, -1.00, 35.3, 85.0)">T</text><text xml:space="preserve" font-family="Helvetica" font-size="16.0" fill="#FFFFFF" transform="matrix(1.00, 0.00, -0.00, -1.00, 44.5, 85.0)">i</text><text xml:space="preserve" font-family="Helvetica" font-size="16.0" fill="#FFFFFF" transform="matrix(1.00, 0.00, -0.00, -1.00, 48.1, 85.0)">m</text><text xml:space="preserve" font-family="Helvetica" font-size="16.0" fill="#FFFFFF" transform="matrix(1.00, 0.00, -0.00, -1.00, 61.4, 85.0)">e</text><text xml:space="preserve" font-family="Helvetica" font-size="16.0" fill="#FFFFFF" transform="matrix(1.00, 0.00, -0.00, -1.00, 70.3, 85.0)">o</text><text xml:space="preserve" font-family="Helvetica" font-size="16.0" fill="#FFFFFF" transform="matrix(1.00, 0.00, -0.00, -1.00, 79.2, 85.0)">u</text><text xml:space="preserve" font-family="Helvetica" font-size="16.0" fill="#FFFFFF" transform="matrix(1.00, 0.00, -0.00, -1.00, 88.1, 85.0)">t</text><text xml:space="preserve" font-family="ArialMT" font-size="16.0" fill="#FFFFFF" transform="matrix(1.00, 0.00, -0.00, -1.00, 0.4, 65.6)">•</text><text xml:space="preserve" font-family="Helvetica" font-size="16.0" fill="#FFFFFF" transform="matrix(1.00, 0.00, -0.00, -1.00, 14.0, 65.0)">s</text><text xml:space="preserve" font-family="Helvetica" font-size="16.0" fill="#FFFFFF" transform="matrix(1.00, 0.00, -0.00, -1.00, 22.0, 65.0)">e</text><text xml:space="preserve" font-family="Helvetica" font-size="16.0" fill="#FFFFFF" transform="matrix(1.00, 0.00, -0.00, -1.00, 30.9, 65.0)">t</text><text xml:space="preserve" font-family="Helvetica" font-size="16.0" fill="#FFFFFF" transform="matrix(1.00, 0.00, -0.00, -1.00, 35.3, 65.0)">I</text><text xml:space="preserve" font-family="Helvetica" font-size="16.0" fill="#FFFFFF" transform="matrix(1.00, 0.00, -0.00, -1.00, 39.8, 65.0)">n</text><text xml:space="preserve" font-family="Helvetica" font-size="16.0" fill="#FFFFFF" transform="matrix(1.00, 0.00, -0.00, -1.00, 48.7, 65.0)">t</text><text xml:space="preserve" font-family="Helvetica" font-size="16.0" fill="#FFFFFF" transform="matrix(1.00, 0.00, -0.00, -1.00, 53.1, 65.0)">e</text><text xml:space="preserve" font-family="Helvetica" font-size="16.0" fill="#FFFFFF" transform="matrix(1.00, 0.00, -0.00, -1.00, 62.0, 65.0)">r</text><text xml:space="preserve" font-family="Helvetica" font-size="16.0" fill="#FFFFFF" transform="matrix(1.00, 0.00, -0.00, -1.00, 67.4, 65.0)">v</text><text xml:space="preserve" font-family="Helvetica" font-size="16.0" fill="#FFFFFF" transform="matrix(1.00, 0.00, -0.00, -1.00, 75.4, 65.0)">a</text><text xml:space="preserve" font-family="Helvetica" font-size="16.0" fill="#FFFFFF" transform="matrix(1.00, 0.00, -0.00, -1.00, 84.3, 65.0)">l</text><text xml:space="preserve" font-family="ArialMT" font-size="16.0" fill="#FFFFFF" transform="matrix(1.00, 0.00, -0.00, -1.00, 0.4, 45.5)">•</text><text xml:space="preserve" font-family="Helvetica" font-size="16.0" fill="#FFFFFF" transform="matrix(1.00, 0.00, -0.00, -1.00, 14.0, 45.0)">s</text><text xml:space="preserve" font-family="Helvetica" font-size="16.0" fill="#FFFFFF" transform="matrix(1.00, 0.00, -0.00, -1.00, 22.0, 45.0)">e</text><text xml:space="preserve" font-family="Helvetica" font-size="16.0" fill="#FFFFFF" transform="matrix(1.00, 0.00, -0.00, -1.00, 30.9, 45.0)">t</text><text xml:space="preserve" font-family="Helvetica" font-size="16.0" fill="#FFFFFF" transform="matrix(1.00, 0.00, -0.00, -1.00, 35.3, 45.0)">I</text><text xml:space="preserve" font-family="Helvetica" font-size="16.0" fill="#FFFFFF" transform="matrix(1.00, 0.00, -0.00, -1.00, 39.8, 45.0)">m</text><text xml:space="preserve" font-family="Helvetica" font-size="16.0" fill="#FFFFFF" transform="matrix(1.00, 0.00, -0.00, -1.00, 53.1, 45.0)">m</text><text xml:space="preserve" font-family="Helvetica" font-size="16.0" fill="#FFFFFF" transform="matrix(1.00, 0.00, -0.00, -1.00, 66.4, 45.0)">e</text><text xml:space="preserve" font-family="Helvetica" font-size="16.0" fill="#FFFFFF" transform="matrix(1.00, 0.00, -0.00, -1.00, 75.3, 45.0)">d</text><text xml:space="preserve" font-family="Helvetica" font-size="16.0" fill="#FFFFFF" transform="matrix(1.00, 0.00, -0.00, -1.00, 84.2, 45.0)">i</text><text xml:space="preserve" font-family="Helvetica" font-size="16.0" fill="#FFFFFF" transform="matrix(1.00, 0.00, -0.00, -1.00, 87.8, 45.0)">a</text><text xml:space="preserve" font-family="Helvetica" font-size="16.0" fill="#FFFFFF" transform="matrix(1.00, 0.00, -0.00, -1.00, 96.7, 45.0)">t</text><text xml:space="preserve" font-family="Helvetica" font-size="16.0" fill="#FFFFFF" transform="matrix(1.00, 0.00, -0.00, -1.00, 101.1, 45.0)">e</text><text xml:space="preserve" font-family="ArialMT" font-size="16.0" fill="#FFFFFF" transform="matrix(1.00, 0.00, -0.00, -1.00, 0.4, 25.4)">•</text><text xml:space="preserve" font-family="Helvetica" font-size="16.0" fill="#FFFFFF" transform="matrix(1.00, 0.00, -0.00, -1.00, 14.0, 25.0)">U</text><text xml:space="preserve" font-family="Helvetica" font-size="16.0" fill="#FFFFFF" transform="matrix(1.00, 0.00, -0.00, -1.00, 25.6, 25.0)">I</text><text xml:space="preserve" font-family="Helvetica" font-size="16.0" fill="#FFFFFF" transform="matrix(1.00, 0.00, -0.00, -1.00, 30.0, 25.0)"> </text><text xml:space="preserve" font-family="Helvetica" font-size="16.0" fill="#FFFFFF" transform="matrix(1.00, 0.00, -0.00, -1.00, 34.4, 25.0)">r</text><text xml:space="preserve" font-family="Helvetica" font-size="16.0" fill="#FFFFFF" transform="matrix(1.00, 0.00, -0.00, -1.00, 39.8, 25.0)">e</text><text xml:space="preserve" font-family="Helvetica" font-size="16.0" fill="#FFFFFF" transform="matrix(1.00, 0.00, -0.00, -1.00, 48.7, 25.0)">n</text><text xml:space="preserve" font-family="Helvetica" font-size="16.0" fill="#FFFFFF" transform="matrix(1.00, 0.00, -0.00, -1.00, 57.6, 25.0)">d</text><text xml:space="preserve" font-family="Helvetica" font-size="16.0" fill="#FFFFFF" transform="matrix(1.00, 0.00, -0.00, -1.00, 66.5, 25.0)">e</text><text xml:space="preserve" font-family="Helvetica" font-size="16.0" fill="#FFFFFF" transform="matrix(1.00, 0.00, -0.00, -1.00, 75.4, 25.0)">r</text><text xml:space="preserve" font-family="Helvetica" font-size="16.0" fill="#FFFFFF" transform="matrix(1.00, 0.00, -0.00, -1.00, 80.7, 25.0)">i</text><text xml:space="preserve" font-family="Helvetica" font-size="16.0" fill="#FFFFFF" transform="matrix(1.00, 0.00, -0.00, -1.00, 84.3, 25.0)">n</text><text xml:space="preserve" font-family="Helvetica" font-size="16.0" fill="#FFFFFF" transform="matrix(1.00, 0.00, -0.00, -1.00, 93.2, 25.0)">g</text><text xml:space="preserve" font-family="ArialMT" font-size="16.0" fill="#FFFFFF" transform="matrix(1.00, 0.00, -0.00, -1.00, 0.4, 5.3)">•</text><text xml:space="preserve" font-family="Helvetica" font-size="16.0" fill="#FFFFFF" transform="matrix(1.00, 0.00, -0.00, -1.00, 14.0, 5.0)">I</text><text xml:space="preserve" font-family="Helvetica" font-size="16.0" fill="#FFFFFF" transform="matrix(1.00, 0.00, -0.00, -1.00, 18.4, 5.0)"> </text><text xml:space="preserve" font-family="Helvetica" font-size="16.0" fill="#FFFFFF" transform="matrix(1.00, 0.00, -0.00, -1.00, 22.9, 5.0)">/</text><text xml:space="preserve" font-family="Helvetica" font-size="16.0" fill="#FFFFFF" transform="matrix(1.00, 0.00, -0.00, -1.00, 27.3, 5.0)"> </text><text xml:space="preserve" font-family="Helvetica" font-size="16.0" fill="#FFFFFF" transform="matrix(1.00, 0.00, -0.00, -1.00, 31.8, 5.0)">O</text></g></svg>