<?xml version="1.0" encoding="UTF-8" standalone="no"?><svg xmlns="http://www.w3.org/2000/svg" xmlns:xlink="http://www.w3.org/1999/xlink" clip-rule="evenodd" stroke-miterlimit="4.00" viewBox="0 0 143 59"><desc>SVG generated by Keynote</desc><defs></defs><g transform="matrix(1.00, 0.00, -0.00, -1.00, 0.0, 59.0)"><text xml:space="preserve" font-family="ArialMT" font-size="16.0" fill="#FFFFFF" transform="matrix(1.00, 0.00, -0.00, -1.00, 0.2, 45.7)">•</text><text xml:space="preserve" font-family="Helvetica" font-size="16.0" fill="#FFFFFF" transform="matrix(1.00, 0.00, -0.00, -1.00, 14.0, 45.0)">P</text><text xml:space="preserve" font-family="Helvetica" font-size="16.0" fill="#FFFFFF" transform="matrix(1.00, 0.00, -0.00, -1.00, 24.7, 45.0)">r</text><text xml:space="preserve" font-family="Helvetica" font-size="16.0" fill="#FFFFFF" transform="matrix(1.00, 0.00, -0.00, -1.00, 30.0, 45.0)">o</text><text xml:space="preserve" font-family="Helvetica" font-size="16.0" fill="#FFFFFF" transform="matrix(1.00, 0.00, -0.00, -1.00, 38.9, 45.0)">m</text><text xml:space="preserve" font-family="Helvetica" font-size="16.0" fill="#FFFFFF" transform="matrix(1.00, 0.00, -0.00, -1.00, 52.2, 45.0)">i</text><text xml:space="preserve" font-family="Helvetica" font-size="16.0" fill="#FFFFFF" transform="matrix(1.00, 0.00, -0.00, -1.00, 55.8, 45.0)">s</text><text xml:space="preserve" font-family="Helvetica" font-size="16.0" fill="#FFFFFF" transform="matrix(1.00, 0.00, -0.00, -1.00, 63.8, 45.0)">e</text><text xml:space="preserve" font-family="Helvetica" font-size="16.0" fill="#FFFFFF" transform="matrix(1.00, 0.00, -0.00, -1.00, 72.7, 45.0)">s</text><text xml:space="preserve" font-family="ArialMT" font-size="16.0" fill="#FFFFFF" transform="matrix(1.00, 0.00, -0.00, -1.00, 0.2, 25.6)">•</text><text xml:space="preserve" font-family="Helvetica" font-size="16.0" fill="#FFFFFF" transform="matrix(1.00, 0.00, -0.00, -1.00, 14.0, 25.0)">M</text><text xml:space="preserve" font-family="Helvetica" font-size="16.0" fill="#FFFFFF" transform="matrix(1.00, 0.00, -0.00, -1.00, 27.3, 25.0)">u</text><text xml:space="preserve" font-family="Helvetica" font-size="16.0" fill="#FFFFFF" transform="matrix(1.00, 0.00, -0.00, -1.00, 36.2, 25.0)">t</text><text xml:space="preserve" font-family="Helvetica" font-size="16.0" fill="#FFFFFF" transform="matrix(1.00, 0.00, -0.00, -1.00, 40.7, 25.0)">a</text><text xml:space="preserve" font-family="Helvetica" font-size="16.0" fill="#FFFFFF" transform="matrix(1.00, 0.00, -0.00, -1.00, 49.6, 25.0)">t</text><text xml:space="preserve" font-family="Helvetica" font-size="16.0" fill="#FFFFFF" transform="matrix(1.00, 0.00, -0.00, -1.00, 54.0, 25.0)">i</text><text xml:space="preserve" font-family="Helvetica" font-size="16.0" fill="#FFFFFF" transform="matrix(1.00, 0.00, -0.00, -1.00, 57.6, 25.0)">o</text><text xml:space="preserve" font-family="Helvetica" font-size="16.0" fill="#FFFFFF" transform="matrix(1.00, 0.00, -0.00, -1.00, 66.5, 25.0)">n</text><text xml:space="preserve" font-family="Helvetica" font-size="16.0" fill="#FFFFFF" transform="matrix(1.00, 0.00, -0.00, -1.00, 75.4, 25.0)">O</text><text xml:space="preserve" font-family="Helvetica" font-size="16.0" fill="#FFFFFF" transform="matrix(1.00, 0.00, -0.00, -1.00, 87.8, 25.0)">b</text><text xml:space="preserve" font-family="Helvetica" font-size="16.0" fill="#FFFFFF" transform="matrix(1.00, 0.00, -0.00, -1.00, 96.7, 25.0)">s</text><text xml:space="preserve" font-family="Helvetica" font-size="16.0" fill="#FFFFFF" transform="matrix(1.00, 0.00, -0.00, -1.00, 104.7, 25.0)">e</text><text xml:space="preserve" font-family="Helvetica" font-size="16.0" fill="#FFFFFF" transform="matrix(1.00, 0.00, -0.00, -1.00, 113.6, 25.0)">r</text><text xml:space="preserve" font-family="Helvetica" font-size="16.0" fill="#FFFFFF" transform="matrix(1.00, 0.00, -0.00, -1.00, 119.0, 25.0)">v</text><text xml:space="preserve" font-family="Helvetica" font-size="16.0" fill="#FFFFFF" transform="matrix(1.00, 0.00, -0.00, -1.00, 127.0, 25.0)">e</text><text xml:space="preserve" font-family="Helvetica" font-size="16.0" fill="#FFFFFF" transform="matrix(1.00, 0.00, -0.00, -1.00, 135.9, 25.0)">r</text><text xml:space="preserve" font-family="ArialMT" font-size="16.0" fill="#FFFFFF" transform="matrix(1.00, 0.00, -0.00, -1.00, 0.2, 5.5)">•</text><text xml:space="preserve" font-family="Helvetica" font-size="16.0" fill="#FFFFFF" transform="matrix(1.00, 0.00, -0.00, -1.00, 14.0, 5.0)">n</text><text xml:space="preserve" font-family="Helvetica" font-size="16.0" fill="#FFFFFF" transform="matrix(1.00, 0.00, -0.00, -1.00, 22.9, 5.0)">e</text><text xml:space="preserve" font-family="Helvetica" font-size="16.0" fill="#FFFFFF" transform="matrix(1.00, 0.00, -0.00, -1.00, 31.8, 5.0)">x</text><text xml:space="preserve" font-family="Helvetica" font-size="16.0" fill="#FFFFFF" transform="matrix(1.00, 0.00, -0.00, -1.00, 39.8, 5.0)">t</text><text xml:space="preserve" font-family="Helvetica" font-size="16.0" fill="#FFFFFF" transform="matrix(1.00, 0.00, -0.00, -1.00, 44.2, 5.0)">T</text><text xml:space="preserve" font-family="Helvetica" font-size="16.0" fill="#FFFFFF" transform="matrix(1.00, 0.00, -0.00, -1.00, 53.4, 5.0)">i</text><text xml:space="preserve" font-family="Helvetica" font-size="16.0" fill="#FFFFFF" transform="matrix(1.00, 0.00, -0.00, -1.00, 57.0, 5.0)">c</text><text xml:space="preserve" font-family="Helvetica" font-size="16.0" fill="#FFFFFF" transform="matrix(1.00, 0.00, -0.00, -1.00, 65.0, 5.0)">k</text></g></svg>